<svg xmlns="http://www.w3.org/2000/svg" xmlns:xlink="http://www.w3.org/1999/xlink" contentStyleType="text/css" height="898px" preserveAspectRatio="none" style="width:2433px;height:898px;background:#FFFFFF;" version="1.1" viewBox="0 0 2433 898" width="2433px" zoomAndPan="magnify"><defs/><g><!--class Slu?ba ve?ejn? spr?vy--><g id="elem_Slu&#382;ba ve&#345;ejn&#233; spr&#225;vy"><rect codeLine="2" fill="#F1F1F1" height="96.8906" id="Slu&#382;ba ve&#345;ejn&#233; spr&#225;vy" rx="2.5" ry="2.5" style="stroke:#181818;stroke-width:0.5;" width="233.3271" x="926.34" y="7"/><ellipse cx="962.145" cy="23" fill="#ADD1B2" rx="11" ry="11" style="stroke:#181818;stroke-width:1.0;"/><path d="M965.1138,28.6406 Q964.5357,28.9375 963.895,29.0781 Q963.2544,29.2344 962.5513,29.2344 Q960.0513,29.2344 958.7232,27.5938 Q957.4107,25.9375 957.4107,22.8125 Q957.4107,19.6875 958.7232,18.0313 Q960.0513,16.375 962.5513,16.375 Q963.2544,16.375 963.895,16.5313 Q964.5513,16.6875 965.1138,16.9844 L965.1138,19.7031 Q964.4888,19.125 963.895,18.8594 Q963.3013,18.5781 962.6763,18.5781 Q961.3325,18.5781 960.645,19.6563 Q959.9575,20.7188 959.9575,22.8125 Q959.9575,24.9063 960.645,25.9844 Q961.3325,27.0469 962.6763,27.0469 Q963.3013,27.0469 963.895,26.7813 Q964.4888,26.5 965.1138,25.9219 L965.1138,28.6406 Z " fill="#000000"/><text fill="#000000" font-family="sans-serif" font-size="14" lengthAdjust="spacing" textLength="155.0938" x="980.7684" y="27.8467">Slu&#382;ba ve&#345;ejn&#233; spr&#225;vy</text><line style="stroke:#181818;stroke-width:0.5;" x1="927.34" x2="1158.6671" y1="39" y2="39"/><text fill="#000000" font-family="sans-serif" font-size="14" lengthAdjust="spacing" textLength="221.3271" x="932.34" y="55.9951">"M&#225; identifik&#225;tor slu&#382;by": string</text><text fill="#000000" font-family="sans-serif" font-size="14" lengthAdjust="spacing" textLength="178.0693" x="932.34" y="72.292">"M&#225; n&#225;zev slu&#382;by": string</text><text fill="#000000" font-family="sans-serif" font-size="14" lengthAdjust="spacing" textLength="173.8926" x="932.34" y="88.5889">"M&#225; popis slu&#382;by": string</text><line style="stroke:#181818;stroke-width:0.5;" x1="927.34" x2="1158.6671" y1="95.8906" y2="95.8906"/></g><!--class Povinnost sb?ru adresy--><g id="elem_Povinnost sb&#283;ru adresy"><rect codeLine="8" fill="#F1F1F1" height="48" id="Povinnost sb&#283;ru adresy" rx="2.5" ry="2.5" style="stroke:#181818;stroke-width:0.5;" width="196.0146" x="7" y="229.78"/><ellipse cx="22" cy="245.78" fill="#ADD1B2" rx="11" ry="11" style="stroke:#181818;stroke-width:1.0;"/><path d="M24.9688,251.4206 Q24.3906,251.7175 23.75,251.8581 Q23.1094,252.0144 22.4063,252.0144 Q19.9063,252.0144 18.5781,250.3737 Q17.2656,248.7175 17.2656,245.5925 Q17.2656,242.4675 18.5781,240.8112 Q19.9063,239.155 22.4063,239.155 Q23.1094,239.155 23.75,239.3112 Q24.4063,239.4675 24.9688,239.7644 L24.9688,242.4831 Q24.3438,241.905 23.75,241.6394 Q23.1563,241.3581 22.5313,241.3581 Q21.1875,241.3581 20.5,242.4362 Q19.8125,243.4987 19.8125,245.5925 Q19.8125,247.6862 20.5,248.7644 Q21.1875,249.8269 22.5313,249.8269 Q23.1563,249.8269 23.75,249.5612 Q24.3438,249.28 24.9688,248.7019 L24.9688,251.4206 Z " fill="#000000"/><text fill="#000000" font-family="sans-serif" font-size="14" lengthAdjust="spacing" textLength="164.0146" x="36" y="250.6267">Povinnost sb&#283;ru adresy</text><line style="stroke:#181818;stroke-width:0.5;" x1="8" x2="202.0146" y1="261.78" y2="261.78"/><line style="stroke:#181818;stroke-width:0.5;" x1="8" x2="202.0146" y1="269.78" y2="269.78"/></g><!--class Typ slu?by ve?ejn? spr?vy--><g id="elem_Typ slu&#382;by ve&#345;ejn&#233; spr&#225;vy"><rect codeLine="11" fill="#F1F1F1" height="48" id="Typ slu&#382;by ve&#345;ejn&#233; spr&#225;vy" rx="2.5" ry="2.5" style="stroke:#181818;stroke-width:0.5;" width="215.3809" x="238.32" y="229.78"/><ellipse cx="253.32" cy="245.78" fill="#ADD1B2" rx="11" ry="11" style="stroke:#181818;stroke-width:1.0;"/><path d="M256.2888,251.4206 Q255.7106,251.7175 255.07,251.8581 Q254.4294,252.0144 253.7263,252.0144 Q251.2263,252.0144 249.8981,250.3737 Q248.5856,248.7175 248.5856,245.5925 Q248.5856,242.4675 249.8981,240.8112 Q251.2263,239.155 253.7263,239.155 Q254.4294,239.155 255.07,239.3112 Q255.7263,239.4675 256.2888,239.7644 L256.2888,242.4831 Q255.6638,241.905 255.07,241.6394 Q254.4763,241.3581 253.8513,241.3581 Q252.5075,241.3581 251.82,242.4362 Q251.1325,243.4987 251.1325,245.5925 Q251.1325,247.6862 251.82,248.7644 Q252.5075,249.8269 253.8513,249.8269 Q254.4763,249.8269 255.07,249.5612 Q255.6638,249.28 256.2888,248.7019 L256.2888,251.4206 Z " fill="#000000"/><text fill="#000000" font-family="sans-serif" font-size="14" lengthAdjust="spacing" textLength="183.3809" x="267.32" y="250.6267">Typ slu&#382;by ve&#345;ejn&#233; spr&#225;vy</text><line style="stroke:#181818;stroke-width:0.5;" x1="239.32" x2="452.7009" y1="261.78" y2="261.78"/><line style="stroke:#181818;stroke-width:0.5;" x1="239.32" x2="452.7009" y1="269.78" y2="269.78"/></g><!--class Informa?n? povinnost--><g id="elem_Informa&#269;n&#237; povinnost"><rect codeLine="14" fill="#F1F1F1" height="48" id="Informa&#269;n&#237; povinnost" rx="2.5" ry="2.5" style="stroke:#181818;stroke-width:0.5;" width="180.1006" x="488.96" y="229.78"/><ellipse cx="503.96" cy="245.78" fill="#ADD1B2" rx="11" ry="11" style="stroke:#181818;stroke-width:1.0;"/><path d="M506.9288,251.4206 Q506.3506,251.7175 505.71,251.8581 Q505.0694,252.0144 504.3663,252.0144 Q501.8663,252.0144 500.5381,250.3737 Q499.2256,248.7175 499.2256,245.5925 Q499.2256,242.4675 500.5381,240.8112 Q501.8663,239.155 504.3663,239.155 Q505.0694,239.155 505.71,239.3112 Q506.3663,239.4675 506.9288,239.7644 L506.9288,242.4831 Q506.3038,241.905 505.71,241.6394 Q505.1163,241.3581 504.4913,241.3581 Q503.1475,241.3581 502.46,242.4362 Q501.7725,243.4987 501.7725,245.5925 Q501.7725,247.6862 502.46,248.7644 Q503.1475,249.8269 504.4913,249.8269 Q505.1163,249.8269 505.71,249.5612 Q506.3038,249.28 506.9288,248.7019 L506.9288,251.4206 Z " fill="#000000"/><text fill="#000000" font-family="sans-serif" font-size="14" lengthAdjust="spacing" textLength="148.1006" x="517.96" y="250.6267">Informa&#269;n&#237; povinnost</text><line style="stroke:#181818;stroke-width:0.5;" x1="489.96" x2="668.0606" y1="261.78" y2="261.78"/><line style="stroke:#181818;stroke-width:0.5;" x1="489.96" x2="668.0606" y1="269.78" y2="269.78"/></g><!--class Typ subjektu--><g id="elem_Typ subjektu"><rect codeLine="17" fill="#F1F1F1" height="48" id="Typ subjektu" rx="2.5" ry="2.5" style="stroke:#181818;stroke-width:0.5;" width="122.2002" x="712.91" y="229.78"/><ellipse cx="727.91" cy="245.78" fill="#ADD1B2" rx="11" ry="11" style="stroke:#181818;stroke-width:1.0;"/><path d="M730.8788,251.4206 Q730.3006,251.7175 729.66,251.8581 Q729.0194,252.0144 728.3163,252.0144 Q725.8163,252.0144 724.4881,250.3737 Q723.1756,248.7175 723.1756,245.5925 Q723.1756,242.4675 724.4881,240.8112 Q725.8163,239.155 728.3163,239.155 Q729.0194,239.155 729.66,239.3112 Q730.3163,239.4675 730.8788,239.7644 L730.8788,242.4831 Q730.2538,241.905 729.66,241.6394 Q729.0663,241.3581 728.4413,241.3581 Q727.0975,241.3581 726.41,242.4362 Q725.7225,243.4987 725.7225,245.5925 Q725.7225,247.6862 726.41,248.7644 Q727.0975,249.8269 728.4413,249.8269 Q729.0663,249.8269 729.66,249.5612 Q730.2538,249.28 730.8788,248.7019 L730.8788,251.4206 Z " fill="#000000"/><text fill="#000000" font-family="sans-serif" font-size="14" lengthAdjust="spacing" textLength="90.2002" x="741.91" y="250.6267">Typ subjektu</text><line style="stroke:#181818;stroke-width:0.5;" x1="713.91" x2="834.1102" y1="261.78" y2="261.78"/><line style="stroke:#181818;stroke-width:0.5;" x1="713.91" x2="834.1102" y1="269.78" y2="269.78"/></g><!--class Agenda--><g id="elem_Agenda"><rect codeLine="20" fill="#F1F1F1" height="48" id="Agenda" rx="2.5" ry="2.5" style="stroke:#181818;stroke-width:0.5;" width="85.416" x="2144.3" y="229.78"/><ellipse cx="2159.3" cy="245.78" fill="#ADD1B2" rx="11" ry="11" style="stroke:#181818;stroke-width:1.0;"/><path d="M2162.2688,251.4206 Q2161.6906,251.7175 2161.05,251.8581 Q2160.4094,252.0144 2159.7063,252.0144 Q2157.2063,252.0144 2155.8781,250.3737 Q2154.5656,248.7175 2154.5656,245.5925 Q2154.5656,242.4675 2155.8781,240.8112 Q2157.2063,239.155 2159.7063,239.155 Q2160.4094,239.155 2161.05,239.3112 Q2161.7063,239.4675 2162.2688,239.7644 L2162.2688,242.4831 Q2161.6438,241.905 2161.05,241.6394 Q2160.4563,241.3581 2159.8313,241.3581 Q2158.4875,241.3581 2157.8,242.4362 Q2157.1125,243.4987 2157.1125,245.5925 Q2157.1125,247.6862 2157.8,248.7644 Q2158.4875,249.8269 2159.8313,249.8269 Q2160.4563,249.8269 2161.05,249.5612 Q2161.6438,249.28 2162.2688,248.7019 L2162.2688,251.4206 Z " fill="#000000"/><text fill="#000000" font-family="sans-serif" font-size="14" lengthAdjust="spacing" textLength="53.416" x="2173.3" y="250.6267">Agenda</text><line style="stroke:#181818;stroke-width:0.5;" x1="2145.3" x2="2228.716" y1="261.78" y2="261.78"/><line style="stroke:#181818;stroke-width:0.5;" x1="2145.3" x2="2228.716" y1="269.78" y2="269.78"/></g><!--class ?innost--><g id="elem_&#268;innost"><rect codeLine="23" fill="#F1F1F1" height="48" id="&#268;innost" rx="2.5" ry="2.5" style="stroke:#181818;stroke-width:0.5;" width="84.7598" x="2327.63" y="229.78"/><ellipse cx="2342.63" cy="245.78" fill="#ADD1B2" rx="11" ry="11" style="stroke:#181818;stroke-width:1.0;"/><path d="M2345.5988,251.4206 Q2345.0206,251.7175 2344.38,251.8581 Q2343.7394,252.0144 2343.0363,252.0144 Q2340.5363,252.0144 2339.2081,250.3737 Q2337.8956,248.7175 2337.8956,245.5925 Q2337.8956,242.4675 2339.2081,240.8112 Q2340.5363,239.155 2343.0363,239.155 Q2343.7394,239.155 2344.38,239.3112 Q2345.0363,239.4675 2345.5988,239.7644 L2345.5988,242.4831 Q2344.9738,241.905 2344.38,241.6394 Q2343.7863,241.3581 2343.1613,241.3581 Q2341.8175,241.3581 2341.13,242.4362 Q2340.4425,243.4987 2340.4425,245.5925 Q2340.4425,247.6862 2341.13,248.7644 Q2341.8175,249.8269 2343.1613,249.8269 Q2343.7863,249.8269 2344.38,249.5612 Q2344.9738,249.28 2345.5988,248.7019 L2345.5988,251.4206 Z " fill="#000000"/><text fill="#000000" font-family="sans-serif" font-size="14" lengthAdjust="spacing" textLength="52.7598" x="2356.63" y="250.6267">&#268;innost</text><line style="stroke:#181818;stroke-width:0.5;" x1="2328.63" x2="2411.3898" y1="261.78" y2="261.78"/><line style="stroke:#181818;stroke-width:0.5;" x1="2328.63" x2="2411.3898" y1="269.78" y2="269.78"/></g><!--class M?stn? p??slu?nost slu?by--><g id="elem_M&#237;stn&#237; p&#345;&#237;slu&#353;nost slu&#382;by"><rect codeLine="26" fill="#F1F1F1" height="48" id="M&#237;stn&#237; p&#345;&#237;slu&#353;nost slu&#382;by" rx="2.5" ry="2.5" style="stroke:#181818;stroke-width:0.5;" width="203.0967" x="658.46" y="403.67"/><ellipse cx="673.46" cy="419.67" fill="#ADD1B2" rx="11" ry="11" style="stroke:#181818;stroke-width:1.0;"/><path d="M676.4288,425.3106 Q675.8506,425.6075 675.21,425.7481 Q674.5694,425.9044 673.8663,425.9044 Q671.3663,425.9044 670.0381,424.2638 Q668.7256,422.6075 668.7256,419.4825 Q668.7256,416.3575 670.0381,414.7013 Q671.3663,413.045 673.8663,413.045 Q674.5694,413.045 675.21,413.2013 Q675.8663,413.3575 676.4288,413.6544 L676.4288,416.3731 Q675.8038,415.795 675.21,415.5294 Q674.6163,415.2481 673.9913,415.2481 Q672.6475,415.2481 671.96,416.3263 Q671.2725,417.3888 671.2725,419.4825 Q671.2725,421.5763 671.96,422.6544 Q672.6475,423.7169 673.9913,423.7169 Q674.6163,423.7169 675.21,423.4513 Q675.8038,423.17 676.4288,422.5919 L676.4288,425.3106 Z " fill="#000000"/><text fill="#000000" font-family="sans-serif" font-size="14" lengthAdjust="spacing" textLength="171.0967" x="687.46" y="424.5167">M&#237;stn&#237; p&#345;&#237;slu&#353;nost slu&#382;by</text><line style="stroke:#181818;stroke-width:0.5;" x1="659.46" x2="860.5567" y1="435.67" y2="435.67"/><line style="stroke:#181818;stroke-width:0.5;" x1="659.46" x2="860.5567" y1="443.67" y2="443.67"/></g><!--class ?kon slu?by ve?ejn? spr?vy--><g id="elem_&#218;kon slu&#382;by ve&#345;ejn&#233; spr&#225;vy"><rect codeLine="29" fill="#F1F1F1" height="145.7813" id="&#218;kon slu&#382;by ve&#345;ejn&#233; spr&#225;vy" rx="2.5" ry="2.5" style="stroke:#181818;stroke-width:0.5;" width="369.1777" x="1263.42" y="180.89"/><ellipse cx="1347.0338" cy="196.89" fill="#ADD1B2" rx="11" ry="11" style="stroke:#181818;stroke-width:1.0;"/><path d="M1350.0025,202.5306 Q1349.4244,202.8275 1348.7838,202.9681 Q1348.1431,203.1244 1347.44,203.1244 Q1344.94,203.1244 1343.6119,201.4838 Q1342.2994,199.8275 1342.2994,196.7025 Q1342.2994,193.5775 1343.6119,191.9213 Q1344.94,190.265 1347.44,190.265 Q1348.1431,190.265 1348.7838,190.4213 Q1349.44,190.5775 1350.0025,190.8744 L1350.0025,193.5931 Q1349.3775,193.015 1348.7838,192.7494 Q1348.19,192.4681 1347.565,192.4681 Q1346.2213,192.4681 1345.5338,193.5463 Q1344.8463,194.6088 1344.8463,196.7025 Q1344.8463,198.7963 1345.5338,199.8744 Q1346.2213,200.9369 1347.565,200.9369 Q1348.19,200.9369 1348.7838,200.6713 Q1349.3775,200.39 1350.0025,199.8119 L1350.0025,202.5306 Z " fill="#000000"/><text fill="#000000" font-family="sans-serif" font-size="14" lengthAdjust="spacing" textLength="193.4502" x="1367.5338" y="201.7367">&#218;kon slu&#382;by ve&#345;ejn&#233; spr&#225;vy</text><line style="stroke:#181818;stroke-width:0.5;" x1="1264.42" x2="1631.5977" y1="212.89" y2="212.89"/><text fill="#000000" font-family="sans-serif" font-size="14" lengthAdjust="spacing" textLength="269.0693" x="1269.42" y="229.8851">"M&#225; identifik&#225;tor &#250;konu slu&#382;by": string</text><text fill="#000000" font-family="sans-serif" font-size="14" lengthAdjust="spacing" textLength="225.8115" x="1269.42" y="246.182">"M&#225; n&#225;zev &#250;konu slu&#382;by": string</text><text fill="#000000" font-family="sans-serif" font-size="14" lengthAdjust="spacing" textLength="221.6348" x="1269.42" y="262.4789">"M&#225; popis &#250;konu slu&#382;by": string</text><text fill="#000000" font-family="sans-serif" font-size="14" lengthAdjust="spacing" textLength="223.1182" x="1269.42" y="278.7757">"Je vhodn&#253; k digitalizaci": string</text><text fill="#000000" font-family="sans-serif" font-size="14" lengthAdjust="spacing" textLength="135.7002" x="1269.42" y="295.0726">"Je digit&#225;ln&#237;": string</text><text fill="#000000" font-family="sans-serif" font-size="14" lengthAdjust="spacing" textLength="357.1777" x="1269.42" y="311.3695">"Od&#367;vodn&#283;n&#237; nevhodnosti digitalizace &#250;konu": text</text><line style="stroke:#181818;stroke-width:0.5;" x1="1264.42" x2="1631.5977" y1="318.6713" y2="318.6713"/></g><!--class Ustanoven? pr?vn?ho p?edpisu--><g id="elem_Ustanoven&#237; pr&#225;vn&#237;ho p&#345;edpisu"><rect codeLine="38" fill="#F1F1F1" height="48" id="Ustanoven&#237; pr&#225;vn&#237;ho p&#345;edpisu" rx="2.5" ry="2.5" style="stroke:#181818;stroke-width:0.5;" width="242.4033" x="1759.81" y="403.67"/><ellipse cx="1774.81" cy="419.67" fill="#ADD1B2" rx="11" ry="11" style="stroke:#181818;stroke-width:1.0;"/><path d="M1777.7788,425.3106 Q1777.2006,425.6075 1776.56,425.7481 Q1775.9194,425.9044 1775.2163,425.9044 Q1772.7163,425.9044 1771.3881,424.2638 Q1770.0756,422.6075 1770.0756,419.4825 Q1770.0756,416.3575 1771.3881,414.7013 Q1772.7163,413.045 1775.2163,413.045 Q1775.9194,413.045 1776.56,413.2013 Q1777.2163,413.3575 1777.7788,413.6544 L1777.7788,416.3731 Q1777.1538,415.795 1776.56,415.5294 Q1775.9663,415.2481 1775.3413,415.2481 Q1773.9975,415.2481 1773.31,416.3263 Q1772.6225,417.3888 1772.6225,419.4825 Q1772.6225,421.5763 1773.31,422.6544 Q1773.9975,423.7169 1775.3413,423.7169 Q1775.9663,423.7169 1776.56,423.4513 Q1777.1538,423.17 1777.7788,422.5919 L1777.7788,425.3106 Z " fill="#000000"/><text fill="#000000" font-family="sans-serif" font-size="14" lengthAdjust="spacing" textLength="210.4033" x="1788.81" y="424.5167">Ustanoven&#237; pr&#225;vn&#237;ho p&#345;edpisu</text><line style="stroke:#181818;stroke-width:0.5;" x1="1760.81" x2="2001.2133" y1="435.67" y2="435.67"/><line style="stroke:#181818;stroke-width:0.5;" x1="1760.81" x2="2001.2133" y1="443.67" y2="443.67"/></g><!--class Typ m?stn? p??slu?nosti k subjektu--><g id="elem_Typ m&#237;stn&#237; p&#345;&#237;slu&#353;nosti k subjektu"><rect codeLine="41" fill="#F1F1F1" height="48" id="Typ m&#237;stn&#237; p&#345;&#237;slu&#353;nosti k subjektu" rx="2.5" ry="2.5" style="stroke:#181818;stroke-width:0.5;" width="266.7256" x="372.64" y="528.67"/><ellipse cx="387.64" cy="544.67" fill="#ADD1B2" rx="11" ry="11" style="stroke:#181818;stroke-width:1.0;"/><path d="M390.6088,550.3106 Q390.0306,550.6075 389.39,550.7481 Q388.7494,550.9044 388.0463,550.9044 Q385.5463,550.9044 384.2181,549.2638 Q382.9056,547.6075 382.9056,544.4825 Q382.9056,541.3575 384.2181,539.7013 Q385.5463,538.045 388.0463,538.045 Q388.7494,538.045 389.39,538.2013 Q390.0463,538.3575 390.6088,538.6544 L390.6088,541.3731 Q389.9838,540.795 389.39,540.5294 Q388.7963,540.2481 388.1713,540.2481 Q386.8275,540.2481 386.14,541.3263 Q385.4525,542.3888 385.4525,544.4825 Q385.4525,546.5763 386.14,547.6544 Q386.8275,548.7169 388.1713,548.7169 Q388.7963,548.7169 389.39,548.4513 Q389.9838,548.17 390.6088,547.5919 L390.6088,550.3106 Z " fill="#000000"/><text fill="#000000" font-family="sans-serif" font-size="14" lengthAdjust="spacing" textLength="234.7256" x="401.64" y="549.5167">Typ m&#237;stn&#237; p&#345;&#237;slu&#353;nosti k subjektu</text><line style="stroke:#181818;stroke-width:0.5;" x1="373.64" x2="638.3656" y1="560.67" y2="560.67"/><line style="stroke:#181818;stroke-width:0.5;" x1="373.64" x2="638.3656" y1="568.67" y2="568.67"/></g><!--class Org?n ve?ejn? moci nebo kategorie--><g id="elem_Org&#225;n ve&#345;ejn&#233; moci nebo kategorie"><rect codeLine="44" fill="#F1F1F1" height="48" id="Org&#225;n ve&#345;ejn&#233; moci nebo kategorie" rx="2.5" ry="2.5" style="stroke:#181818;stroke-width:0.5;" width="280.7871" x="692.61" y="528.67"/><ellipse cx="707.61" cy="544.67" fill="#ADD1B2" rx="11" ry="11" style="stroke:#181818;stroke-width:1.0;"/><path d="M710.5788,550.3106 Q710.0006,550.6075 709.36,550.7481 Q708.7194,550.9044 708.0163,550.9044 Q705.5163,550.9044 704.1881,549.2638 Q702.8756,547.6075 702.8756,544.4825 Q702.8756,541.3575 704.1881,539.7013 Q705.5163,538.045 708.0163,538.045 Q708.7194,538.045 709.36,538.2013 Q710.0163,538.3575 710.5788,538.6544 L710.5788,541.3731 Q709.9538,540.795 709.36,540.5294 Q708.7663,540.2481 708.1413,540.2481 Q706.7975,540.2481 706.11,541.3263 Q705.4225,542.3888 705.4225,544.4825 Q705.4225,546.5763 706.11,547.6544 Q706.7975,548.7169 708.1413,548.7169 Q708.7663,548.7169 709.36,548.4513 Q709.9538,548.17 710.5788,547.5919 L710.5788,550.3106 Z " fill="#000000"/><text fill="#000000" font-family="sans-serif" font-size="14" lengthAdjust="spacing" textLength="248.7871" x="721.61" y="549.5167">Org&#225;n ve&#345;ejn&#233; moci nebo kategorie</text><line style="stroke:#181818;stroke-width:0.5;" x1="693.61" x2="972.3971" y1="560.67" y2="560.67"/><line style="stroke:#181818;stroke-width:0.5;" x1="693.61" x2="972.3971" y1="568.67" y2="568.67"/></g><!--class Typ p?sobnosti--><g id="elem_Typ p&#367;sobnosti"><rect codeLine="47" fill="#F1F1F1" height="48" id="Typ p&#367;sobnosti" rx="2.5" ry="2.5" style="stroke:#181818;stroke-width:0.5;" width="138.791" x="1026.61" y="528.67"/><ellipse cx="1041.61" cy="544.67" fill="#ADD1B2" rx="11" ry="11" style="stroke:#181818;stroke-width:1.0;"/><path d="M1044.5788,550.3106 Q1044.0006,550.6075 1043.36,550.7481 Q1042.7194,550.9044 1042.0163,550.9044 Q1039.5163,550.9044 1038.1881,549.2638 Q1036.8756,547.6075 1036.8756,544.4825 Q1036.8756,541.3575 1038.1881,539.7013 Q1039.5163,538.045 1042.0163,538.045 Q1042.7194,538.045 1043.36,538.2013 Q1044.0163,538.3575 1044.5788,538.6544 L1044.5788,541.3731 Q1043.9538,540.795 1043.36,540.5294 Q1042.7663,540.2481 1042.1413,540.2481 Q1040.7975,540.2481 1040.11,541.3263 Q1039.4225,542.3888 1039.4225,544.4825 Q1039.4225,546.5763 1040.11,547.6544 Q1040.7975,548.7169 1042.1413,548.7169 Q1042.7663,548.7169 1043.36,548.4513 Q1043.9538,548.17 1044.5788,547.5919 L1044.5788,550.3106 Z " fill="#000000"/><text fill="#000000" font-family="sans-serif" font-size="14" lengthAdjust="spacing" textLength="106.791" x="1055.61" y="549.5167">Typ p&#367;sobnosti</text><line style="stroke:#181818;stroke-width:0.5;" x1="1027.61" x2="1164.401" y1="560.67" y2="560.67"/><line style="stroke:#181818;stroke-width:0.5;" x1="1027.61" x2="1164.401" y1="568.67" y2="568.67"/></g><!--class Typ vykonavatele ?konu slu?by ve?ejn? spr?vy--><g id="elem_Typ vykonavatele &#250;konu slu&#382;by ve&#345;ejn&#233; spr&#225;vy"><rect codeLine="50" fill="#F1F1F1" height="48" id="Typ vykonavatele &#250;konu slu&#382;by ve&#345;ejn&#233; spr&#225;vy" rx="2.5" ry="2.5" style="stroke:#181818;stroke-width:0.5;" width="361.7383" x="1310.14" y="403.67"/><ellipse cx="1325.14" cy="419.67" fill="#ADD1B2" rx="11" ry="11" style="stroke:#181818;stroke-width:1.0;"/><path d="M1328.1088,425.3106 Q1327.5306,425.6075 1326.89,425.7481 Q1326.2494,425.9044 1325.5463,425.9044 Q1323.0463,425.9044 1321.7181,424.2638 Q1320.4056,422.6075 1320.4056,419.4825 Q1320.4056,416.3575 1321.7181,414.7013 Q1323.0463,413.045 1325.5463,413.045 Q1326.2494,413.045 1326.89,413.2013 Q1327.5463,413.3575 1328.1088,413.6544 L1328.1088,416.3731 Q1327.4838,415.795 1326.89,415.5294 Q1326.2963,415.2481 1325.6713,415.2481 Q1324.3275,415.2481 1323.64,416.3263 Q1322.9525,417.3888 1322.9525,419.4825 Q1322.9525,421.5763 1323.64,422.6544 Q1324.3275,423.7169 1325.6713,423.7169 Q1326.2963,423.7169 1326.89,423.4513 Q1327.4838,423.17 1328.1088,422.5919 L1328.1088,425.3106 Z " fill="#000000"/><text fill="#000000" font-family="sans-serif" font-size="14" lengthAdjust="spacing" textLength="329.7383" x="1339.14" y="424.5167">Typ vykonavatele &#250;konu slu&#382;by ve&#345;ejn&#233; spr&#225;vy</text><line style="stroke:#181818;stroke-width:0.5;" x1="1311.14" x2="1670.8783" y1="435.67" y2="435.67"/><line style="stroke:#181818;stroke-width:0.5;" x1="1311.14" x2="1670.8783" y1="443.67" y2="443.67"/></g><!--class F?ze ?konu slu?by ve?ejn? spr?vy--><g id="elem_F&#225;ze &#250;konu slu&#382;by ve&#345;ejn&#233; spr&#225;vy"><rect codeLine="53" fill="#F1F1F1" height="48" id="F&#225;ze &#250;konu slu&#382;by ve&#345;ejn&#233; spr&#225;vy" rx="2.5" ry="2.5" style="stroke:#181818;stroke-width:0.5;" width="269.9932" x="934.01" y="403.67"/><ellipse cx="949.01" cy="419.67" fill="#ADD1B2" rx="11" ry="11" style="stroke:#181818;stroke-width:1.0;"/><path d="M951.9788,425.3106 Q951.4006,425.6075 950.76,425.7481 Q950.1194,425.9044 949.4163,425.9044 Q946.9163,425.9044 945.5881,424.2638 Q944.2756,422.6075 944.2756,419.4825 Q944.2756,416.3575 945.5881,414.7013 Q946.9163,413.045 949.4163,413.045 Q950.1194,413.045 950.76,413.2013 Q951.4163,413.3575 951.9788,413.6544 L951.9788,416.3731 Q951.3538,415.795 950.76,415.5294 Q950.1663,415.2481 949.5413,415.2481 Q948.1975,415.2481 947.51,416.3263 Q946.8225,417.3888 946.8225,419.4825 Q946.8225,421.5763 947.51,422.6544 Q948.1975,423.7169 949.5413,423.7169 Q950.1663,423.7169 950.76,423.4513 Q951.3538,423.17 951.9788,422.5919 L951.9788,425.3106 Z " fill="#000000"/><text fill="#000000" font-family="sans-serif" font-size="14" lengthAdjust="spacing" textLength="237.9932" x="963.01" y="424.5167">F&#225;ze &#250;konu slu&#382;by ve&#345;ejn&#233; spr&#225;vy</text><line style="stroke:#181818;stroke-width:0.5;" x1="935.01" x2="1203.0032" y1="435.67" y2="435.67"/><line style="stroke:#181818;stroke-width:0.5;" x1="935.01" x2="1203.0032" y1="443.67" y2="443.67"/></g><!--class Obslu?n? kan?l--><g id="elem_Obslu&#382;n&#253; kan&#225;l"><rect codeLine="56" fill="#F1F1F1" height="113.1875" id="Obslu&#382;n&#253; kan&#225;l" rx="2.5" ry="2.5" style="stroke:#181818;stroke-width:0.5;" width="467.6768" x="811.17" y="653.67"/><ellipse cx="987.2843" cy="669.67" fill="#ADD1B2" rx="11" ry="11" style="stroke:#181818;stroke-width:1.0;"/><path d="M990.253,675.3106 Q989.6749,675.6075 989.0343,675.7481 Q988.3936,675.9044 987.6905,675.9044 Q985.1905,675.9044 983.8624,674.2638 Q982.5499,672.6075 982.5499,669.4825 Q982.5499,666.3575 983.8624,664.7013 Q985.1905,663.045 987.6905,663.045 Q988.3936,663.045 989.0343,663.2013 Q989.6905,663.3575 990.253,663.6544 L990.253,666.3731 Q989.628,665.795 989.0343,665.5294 Q988.4405,665.2481 987.8155,665.2481 Q986.4718,665.2481 985.7843,666.3263 Q985.0968,667.3888 985.0968,669.4825 Q985.0968,671.5763 985.7843,672.6544 Q986.4718,673.7169 987.8155,673.7169 Q988.4405,673.7169 989.0343,673.4513 Q989.628,673.17 990.253,672.5919 L990.253,675.3106 Z " fill="#000000"/><text fill="#000000" font-family="sans-serif" font-size="14" lengthAdjust="spacing" textLength="106.9482" x="1007.7843" y="674.5167">Obslu&#382;n&#253; kan&#225;l</text><line style="stroke:#181818;stroke-width:0.5;" x1="812.17" x2="1277.8468" y1="685.67" y2="685.67"/><text fill="#000000" font-family="sans-serif" font-size="14" lengthAdjust="spacing" textLength="167.5898" x="817.17" y="702.6651">"Je realizov&#225;n": boolean</text><text fill="#000000" font-family="sans-serif" font-size="14" lengthAdjust="spacing" textLength="157.2402" x="817.17" y="718.962">"Je pl&#225;nov&#225;n od": date</text><text fill="#000000" font-family="sans-serif" font-size="14" lengthAdjust="spacing" textLength="157.2402" x="817.17" y="735.2589">"Je pl&#225;nov&#225;n do": date</text><text fill="#000000" font-family="sans-serif" font-size="14" lengthAdjust="spacing" textLength="455.6768" x="817.17" y="751.5557">"Dvoufaktorov&#233; ov&#283;&#345;en&#237; toto&#382;nosti p&#345;i osobn&#237;m jedn&#225;n&#237;": boolean</text><line style="stroke:#181818;stroke-width:0.5;" x1="812.17" x2="1277.8468" y1="758.8575" y2="758.8575"/></g><!--class Typ obslu?n?ho kan?lu--><g id="elem_Typ obslu&#382;n&#233;ho kan&#225;lu"><rect codeLine="63" fill="#F1F1F1" height="48" id="Typ obslu&#382;n&#233;ho kan&#225;lu" rx="2.5" ry="2.5" style="stroke:#181818;stroke-width:0.5;" width="193.3076" x="842.35" y="843.86"/><ellipse cx="857.35" cy="859.86" fill="#ADD1B2" rx="11" ry="11" style="stroke:#181818;stroke-width:1.0;"/><path d="M860.3188,865.5006 Q859.7406,865.7975 859.1,865.9381 Q858.4594,866.0944 857.7563,866.0944 Q855.2563,866.0944 853.9281,864.4538 Q852.6156,862.7975 852.6156,859.6725 Q852.6156,856.5475 853.9281,854.8913 Q855.2563,853.235 857.7563,853.235 Q858.4594,853.235 859.1,853.3913 Q859.7563,853.5475 860.3188,853.8444 L860.3188,856.5631 Q859.6938,855.985 859.1,855.7194 Q858.5063,855.4381 857.8813,855.4381 Q856.5375,855.4381 855.85,856.5163 Q855.1625,857.5788 855.1625,859.6725 Q855.1625,861.7663 855.85,862.8444 Q856.5375,863.9069 857.8813,863.9069 Q858.5063,863.9069 859.1,863.6413 Q859.6938,863.36 860.3188,862.7819 L860.3188,865.5006 Z " fill="#000000"/><text fill="#000000" font-family="sans-serif" font-size="14" lengthAdjust="spacing" textLength="161.3076" x="871.35" y="864.7067">Typ obslu&#382;n&#233;ho kan&#225;lu</text><line style="stroke:#181818;stroke-width:0.5;" x1="843.35" x2="1034.6576" y1="875.86" y2="875.86"/><line style="stroke:#181818;stroke-width:0.5;" x1="843.35" x2="1034.6576" y1="883.86" y2="883.86"/></g><!--class ?rove? d?v?ry--><g id="elem_&#218;rove&#328; d&#367;v&#283;ry"><rect codeLine="66" fill="#F1F1F1" height="48" id="&#218;rove&#328; d&#367;v&#283;ry" rx="2.5" ry="2.5" style="stroke:#181818;stroke-width:0.5;" width="135.4893" x="1083.26" y="843.86"/><ellipse cx="1098.26" cy="859.86" fill="#ADD1B2" rx="11" ry="11" style="stroke:#181818;stroke-width:1.0;"/><path d="M1101.2288,865.5006 Q1100.6506,865.7975 1100.01,865.9381 Q1099.3694,866.0944 1098.6663,866.0944 Q1096.1663,866.0944 1094.8381,864.4538 Q1093.5256,862.7975 1093.5256,859.6725 Q1093.5256,856.5475 1094.8381,854.8913 Q1096.1663,853.235 1098.6663,853.235 Q1099.3694,853.235 1100.01,853.3913 Q1100.6663,853.5475 1101.2288,853.8444 L1101.2288,856.5631 Q1100.6038,855.985 1100.01,855.7194 Q1099.4163,855.4381 1098.7913,855.4381 Q1097.4475,855.4381 1096.76,856.5163 Q1096.0725,857.5788 1096.0725,859.6725 Q1096.0725,861.7663 1096.76,862.8444 Q1097.4475,863.9069 1098.7913,863.9069 Q1099.4163,863.9069 1100.01,863.6413 Q1100.6038,863.36 1101.2288,862.7819 L1101.2288,865.5006 Z " fill="#000000"/><text fill="#000000" font-family="sans-serif" font-size="14" lengthAdjust="spacing" textLength="103.4893" x="1112.26" y="864.7067">&#218;rove&#328; d&#367;v&#283;ry</text><line style="stroke:#181818;stroke-width:0.5;" x1="1084.26" x2="1217.7493" y1="875.86" y2="875.86"/><line style="stroke:#181818;stroke-width:0.5;" x1="1084.26" x2="1217.7493" y1="883.86" y2="883.86"/></g><!--link Slu?ba ve?ejn? spr?vy to Povinnost sb?ru adresy--><g id="link_Slu&#382;ba ve&#345;ejn&#233; spr&#225;vy_Povinnost sb&#283;ru adresy"><path codeLine="69" d="M925.95,57.63 C729.42,61.24 342.66,75.75 221.01,133.89 C176.25,155.28 139.27,201.6 119.82,229.69 " fill="none" id="Slu&#382;ba ve&#345;ejn&#233; spr&#225;vy-Povinnost sb&#283;ru adresy" style="stroke:#181818;stroke-width:1.0;"/><text fill="#000000" font-family="sans-serif" font-size="13" lengthAdjust="spacing" textLength="176.0269" x="222.01" y="146.9569">M&#225; povinnost sb&#283;ru adresy</text><text fill="#000000" font-family="sans-serif" font-size="13" lengthAdjust="spacing" textLength="24.8066" x="96.6441" y="218.679">0..1</text></g><!--link Slu?ba ve?ejn? spr?vy to Typ slu?by ve?ejn? spr?vy--><g id="link_Slu&#382;ba ve&#345;ejn&#233; spr&#225;vy_Typ slu&#382;by ve&#345;ejn&#233; spr&#225;vy"><path codeLine="70" d="M926.05,59.91 C771.49,66.39 509.28,84.49 428.01,133.89 C391.37,156.16 367.09,201.73 355.01,229.53 " fill="none" id="Slu&#382;ba ve&#345;ejn&#233; spr&#225;vy-Typ slu&#382;by ve&#345;ejn&#233; spr&#225;vy" style="stroke:#181818;stroke-width:1.0;"/><text fill="#000000" font-family="sans-serif" font-size="13" lengthAdjust="spacing" textLength="89.8828" x="429.01" y="146.9569">M&#225; typ slu&#382;by</text><text fill="#000000" font-family="sans-serif" font-size="13" lengthAdjust="spacing" textLength="24.8066" x="330.377" y="218.874">0..1</text></g><!--link Slu?ba ve?ejn? spr?vy to Informa?n? povinnost--><g id="link_Slu&#382;ba ve&#345;ejn&#233; spr&#225;vy_Informa&#269;n&#237; povinnost"><path codeLine="71" d="M925.97,57.33 C791.92,61.12 584.39,76.41 535.01,133.89 C511.2,161.6 536.77,203.37 557.69,229.31 " fill="none" id="Slu&#382;ba ve&#345;ejn&#233; spr&#225;vy-Informa&#269;n&#237; povinnost" style="stroke:#181818;stroke-width:1.0;"/><text fill="#000000" font-family="sans-serif" font-size="13" lengthAdjust="spacing" textLength="296.5752" x="536.01" y="146.9569">Je relevantn&#237; pro pln&#283;n&#237; informa&#269;n&#237; povinnosti</text><text fill="#000000" font-family="sans-serif" font-size="13" lengthAdjust="spacing" textLength="24.8066" x="525.6665" y="218.6004">0..1</text></g><!--link Slu?ba ve?ejn? spr?vy to Typ subjektu--><g id="link_Slu&#382;ba ve&#345;ejn&#233; spr&#225;vy_Typ subjektu"><path codeLine="72" d="M925.92,93.77 C902.04,104.5 878.11,117.77 858.01,133.89 C824.89,160.46 799.06,203.36 785.22,229.71 " fill="none" id="Slu&#382;ba ve&#345;ejn&#233; spr&#225;vy-Typ subjektu" style="stroke:#181818;stroke-width:1.0;"/><text fill="#000000" font-family="sans-serif" font-size="13" lengthAdjust="spacing" textLength="157.3774" x="859.01" y="146.9569">M&#225; opr&#225;vn&#283;n&#233;ho klienta</text></g><!--link Slu?ba ve?ejn? spr?vy to Agenda--><g id="link_Slu&#382;ba ve&#345;ejn&#233; spr&#225;vy_Agenda"><path codeLine="73" d="M1159.99,58.53 C1335.48,63.41 1676.64,79.67 1961.01,133.89 C2032.14,147.45 2055.11,143.31 2117.01,180.89 C2137.71,193.46 2156.56,213.57 2169.48,229.33 " fill="none" id="Slu&#382;ba ve&#345;ejn&#233; spr&#225;vy-Agenda" style="stroke:#181818;stroke-width:1.0;"/><text fill="#000000" font-family="sans-serif" font-size="13" lengthAdjust="spacing" textLength="204.3057" x="2052.01" y="146.9569">Je poskytov&#225;na v r&#225;mci agendy</text><text fill="#000000" font-family="sans-serif" font-size="13" lengthAdjust="spacing" textLength="24.8066" x="2138.3809" y="218.6253">0..1</text></g><!--link Slu?ba ve?ejn? spr?vy to ?innost--><g id="link_Slu&#382;ba ve&#345;ejn&#233; spr&#225;vy_&#268;innost"><path codeLine="74" d="M1160.15,58.8 C1446.83,65.27 2167.46,86.13 2265.01,133.89 C2307.55,154.72 2340.32,201.23 2357.25,229.51 " fill="none" id="Slu&#382;ba ve&#345;ejn&#233; spr&#225;vy-&#268;innost" style="stroke:#181818;stroke-width:1.0;"/><text fill="#000000" font-family="sans-serif" font-size="13" lengthAdjust="spacing" textLength="134.1514" x="2291.01" y="146.9569">Je v&#225;z&#225;na na &#269;innost</text></g><!--link Slu?ba ve?ejn? spr?vy to M?stn? p??slu?nost slu?by--><g id="link_Slu&#382;ba ve&#345;ejn&#233; spr&#225;vy_M&#237;stn&#237; p&#345;&#237;slu&#353;nost slu&#382;by"><path codeLine="75" d="M1046.47,104.39 C1051.08,183.08 1055.08,334.81 1021.01,373.67 C1010.15,386.06 930.51,401.08 862.02,411.96 " fill="none" id="Slu&#382;ba ve&#345;ejn&#233; spr&#225;vy-M&#237;stn&#237; p&#345;&#237;slu&#353;nost slu&#382;by" style="stroke:#181818;stroke-width:1.0;"/><text fill="#000000" font-family="sans-serif" font-size="13" lengthAdjust="spacing" textLength="183.6377" x="1051.01" y="258.3469">M&#225; m&#237;stn&#237; p&#345;&#237;slu&#353;nost slu&#382;by</text></g><!--link Slu?ba ve?ejn? spr?vy to ?kon slu?by ve?ejn? spr?vy--><g id="link_Slu&#382;ba ve&#345;ejn&#233; spr&#225;vy_&#218;kon slu&#382;by ve&#345;ejn&#233; spr&#225;vy"><path codeLine="76" d="M1141.82,104.35 C1189.01,127.22 1246.47,155.08 1298.82,180.46 " fill="none" id="Slu&#382;ba ve&#345;ejn&#233; spr&#225;vy-&#218;kon slu&#382;by ve&#345;ejn&#233; spr&#225;vy" style="stroke:#181818;stroke-width:1.0;"/><text fill="#000000" font-family="sans-serif" font-size="13" lengthAdjust="spacing" textLength="117.7681" x="1235.01" y="146.9569">Skl&#225;d&#225; se z &#250;konu</text></g><!--link Slu?ba ve?ejn? spr?vy to Ustanoven? pr?vn?ho p?edpisu--><g id="link_Slu&#382;ba ve&#345;ejn&#233; spr&#225;vy_Ustanoven&#237; pr&#225;vn&#237;ho p&#345;edpisu"><path codeLine="77" d="M1159.92,66.89 C1285.13,81.14 1487.71,113.1 1650.01,180.89 C1779.74,235.08 1846.74,232.68 1913.01,356.67 C1921.13,371.88 1912.94,389.53 1902.82,403.31 " fill="none" id="Slu&#382;ba ve&#345;ejn&#233; spr&#225;vy-Ustanoven&#237; pr&#225;vn&#237;ho p&#345;edpisu" style="stroke:#181818;stroke-width:1.0;"/><text fill="#000000" font-family="sans-serif" font-size="13" lengthAdjust="spacing" textLength="172.4976" x="1897.01" y="258.3469">Je stanovena ustanoven&#237;m</text></g><!--link Typ subjektu to M?stn? p??slu?nost slu?by--><g id="link_Typ subjektu_M&#237;stn&#237; p&#345;&#237;slu&#353;nost slu&#382;by"><path codeLine="78" d="M759.13,277.96 C747.25,297.92 731.55,327.97 725.01,356.67 C721.23,373.23 729.49,390.31 738.93,403.45 " fill="none" id="Typ subjektu-M&#237;stn&#237; p&#345;&#237;slu&#353;nost slu&#382;by" style="stroke:#181818;stroke-width:1.0;"/><text fill="#000000" font-family="sans-serif" font-size="13" lengthAdjust="spacing" textLength="290.6274" x="726.01" y="369.7369">Je m&#237;stn&#237; p&#345;&#237;slu&#353;nost&#237; slu&#382;by pro typ subjektu</text><text fill="#000000" font-family="sans-serif" font-size="13" lengthAdjust="spacing" textLength="24.8066" x="728.6763" y="297.7651">1..1</text></g><!--link M?stn? p??slu?nost slu?by to Typ m?stn? p??slu?nosti k subjektu--><g id="link_M&#237;stn&#237; p&#345;&#237;slu&#353;nost slu&#382;by_Typ m&#237;stn&#237; p&#345;&#237;slu&#353;nosti k subjektu"><path codeLine="79" d="M657.98,442.51 C606.2,451.42 550.24,464.54 531.01,481.67 C517.71,493.52 511.48,512.93 508.57,528.31 " fill="none" id="M&#237;stn&#237; p&#345;&#237;slu&#353;nost slu&#382;by-Typ m&#237;stn&#237; p&#345;&#237;slu&#353;nosti k subjektu" style="stroke:#181818;stroke-width:1.0;"/><text fill="#000000" font-family="sans-serif" font-size="13" lengthAdjust="spacing" textLength="212.4243" x="532.01" y="494.7369">M&#225; typ m&#237;stn&#237; p&#345;&#237;slu&#353;nosti slu&#382;by</text><text fill="#000000" font-family="sans-serif" font-size="13" lengthAdjust="spacing" textLength="24.8066" x="482.3691" y="517.6272">1..1</text></g><!--link M?stn? p??slu?nost slu?by to Org?n ve?ejn? moci nebo kategorie--><g id="link_M&#237;stn&#237; p&#345;&#237;slu&#353;nost slu&#382;by_Org&#225;n ve&#345;ejn&#233; moci nebo kategorie"><path codeLine="80" d="M753.35,452.01 C750.61,466.27 749.58,484.44 757.01,498.67 C763.26,510.65 773.59,520.48 784.65,528.27 " fill="none" id="M&#237;stn&#237; p&#345;&#237;slu&#353;nost slu&#382;by-Org&#225;n ve&#345;ejn&#233; moci nebo kategorie" style="stroke:#181818;stroke-width:1.0;"/><text fill="#000000" font-family="sans-serif" font-size="13" lengthAdjust="spacing" textLength="294.8232" x="758.01" y="494.7369">M&#225; poskytovatele slu&#382;by v m&#237;stn&#237; p&#345;&#237;slu&#353;nosti</text><text fill="#000000" font-family="sans-serif" font-size="13" lengthAdjust="spacing" textLength="24.8066" x="746.0371" y="517.5775">0..1</text></g><!--link M?stn? p??slu?nost slu?by to Typ p?sobnosti--><g id="link_M&#237;stn&#237; p&#345;&#237;slu&#353;nost slu&#382;by_Typ p&#367;sobnosti"><path codeLine="81" d="M862,444.75 C944.7,458.12 1048.87,475.87 1057.01,481.67 C1072.75,492.9 1082.9,512.57 1088.88,528.21 " fill="none" id="M&#237;stn&#237; p&#345;&#237;slu&#353;nost slu&#382;by-Typ p&#367;sobnosti" style="stroke:#181818;stroke-width:1.0;"/><text fill="#000000" font-family="sans-serif" font-size="13" lengthAdjust="spacing" textLength="119.6343" x="1075.01" y="494.7369">M&#225; typ p&#367;sobnosti</text><text fill="#000000" font-family="sans-serif" font-size="13" lengthAdjust="spacing" textLength="24.8066" x="1060.3165" y="517.5028">0..1</text></g><!--link ?kon slu?by ve?ejn? spr?vy to Typ vykonavatele ?konu slu?by ve?ejn? spr?vy--><g id="link_&#218;kon slu&#382;by ve&#345;ejn&#233; spr&#225;vy_Typ vykonavatele &#250;konu slu&#382;by ve&#345;ejn&#233; spr&#225;vy"><path codeLine="82" d="M1313.74,326.96 C1302.62,341.39 1299.72,357.21 1312.01,373.67 C1320.64,385.23 1344.9,395.15 1372.89,403.19 " fill="none" id="&#218;kon slu&#382;by ve&#345;ejn&#233; spr&#225;vy-Typ vykonavatele &#250;konu slu&#382;by ve&#345;ejn&#233; spr&#225;vy" style="stroke:#181818;stroke-width:1.0;"/><text fill="#000000" font-family="sans-serif" font-size="13" lengthAdjust="spacing" textLength="180.2607" x="1313.01" y="369.7369">M&#225; typ vykonavatele &#250;konu</text><text fill="#000000" font-family="sans-serif" font-size="13" lengthAdjust="spacing" textLength="24.8066" x="1317.2718" y="392.478">0..1</text></g><!--link ?kon slu?by ve?ejn? spr?vy to F?ze ?konu slu?by ve?ejn? spr?vy--><g id="link_&#218;kon slu&#382;by ve&#345;ejn&#233; spr&#225;vy_F&#225;ze &#250;konu slu&#382;by ve&#345;ejn&#233; spr&#225;vy"><path codeLine="83" d="M1262.94,320.92 C1235.78,332.06 1208.42,344.12 1183.01,356.67 C1155.31,370.35 1125.63,388.71 1103.49,403.2 " fill="none" id="&#218;kon slu&#382;by ve&#345;ejn&#233; spr&#225;vy-F&#225;ze &#250;konu slu&#382;by ve&#345;ejn&#233; spr&#225;vy" style="stroke:#181818;stroke-width:1.0;"/><text fill="#000000" font-family="sans-serif" font-size="13" lengthAdjust="spacing" textLength="46.2935" x="1184.01" y="369.7369">M&#225; f&#225;zi</text></g><!--link ?kon slu?by ve?ejn? spr?vy to Obslu?n? kan?l--><g id="link_&#218;kon slu&#382;by ve&#345;ejn&#233; spr&#225;vy_Obslu&#382;n&#253; kan&#225;l"><path codeLine="84" d="M1326.92,327.09 C1316.08,336.26 1305.87,346.15 1297.01,356.67 C1213.21,456.2 1261.71,524.92 1177.01,623.67 C1167.76,634.45 1156.82,644.39 1145.27,653.37 " fill="none" id="&#218;kon slu&#382;by ve&#345;ejn&#233; spr&#225;vy-Obslu&#382;n&#253; kan&#225;l" style="stroke:#181818;stroke-width:1.0;"/><text fill="#000000" font-family="sans-serif" font-size="13" lengthAdjust="spacing" textLength="143.2793" x="1240.01" y="494.7369">Je realizov&#225;n kan&#225;lem</text></g><!--link ?kon slu?by ve?ejn? spr?vy to Ustanoven? pr?vn?ho p?edpisu--><g id="link_&#218;kon slu&#382;by ve&#345;ejn&#233; spr&#225;vy_Ustanoven&#237; pr&#225;vn&#237;ho p&#345;edpisu"><path codeLine="85" d="M1486.45,327.02 C1499.28,344.89 1515.2,362.19 1534.01,373.67 C1553.35,385.48 1667.37,401.46 1759.51,412.78 " fill="none" id="&#218;kon slu&#382;by ve&#345;ejn&#233; spr&#225;vy-Ustanoven&#237; pr&#225;vn&#237;ho p&#345;edpisu" style="stroke:#181818;stroke-width:1.0;"/><text fill="#000000" font-family="sans-serif" font-size="13" lengthAdjust="spacing" textLength="373.0518" x="1535.01" y="369.7369">Pr&#225;vo &#269;i povinnost konat &#250;kon je stanovena ustanoven&#237;m</text></g><!--link Org?n ve?ejn? moci nebo kategorie to Obslu?n? kan?l--><g id="link_Org&#225;n ve&#345;ejn&#233; moci nebo kategorie_Obslu&#382;n&#253; kan&#225;l"><path codeLine="86" d="M864.75,576.97 C892.24,597.14 933.12,627.15 969.01,653.49 " fill="none" id="Org&#225;n ve&#345;ejn&#233; moci nebo kategorie-Obslu&#382;n&#253; kan&#225;l" style="stroke:#181818;stroke-width:1.0;"/><text fill="#000000" font-family="sans-serif" font-size="13" lengthAdjust="spacing" textLength="240.8301" x="928.01" y="619.7369">M&#225; poskytovatele obslu&#382;n&#233;ho kan&#225;lu</text></g><!--link Obslu?n? kan?l to Typ obslu?n?ho kan?lu--><g id="link_Obslu&#382;n&#253; kan&#225;l_Typ obslu&#382;n&#233;ho kan&#225;lu"><path codeLine="87" d="M957.08,767.32 C948.63,776.18 941.27,786.04 936.01,796.86 C928.99,811.3 930,829.46 932.64,843.66 " fill="none" id="Obslu&#382;n&#253; kan&#225;l-Typ obslu&#382;n&#233;ho kan&#225;lu" style="stroke:#181818;stroke-width:1.0;"/><text fill="#000000" font-family="sans-serif" font-size="13" lengthAdjust="spacing" textLength="170.2568" x="937.01" y="809.9269">M&#225; typ obslu&#382;n&#233;ho kan&#225;lu</text><text fill="#000000" font-family="sans-serif" font-size="13" lengthAdjust="spacing" textLength="24.8066" x="904.0376" y="832.6208">0..1</text></g><!--link Obslu?n? kan?l to ?rove? d?v?ry--><g id="link_Obslu&#382;n&#253; kan&#225;l_&#218;rove&#328; d&#367;v&#283;ry"><path codeLine="88" d="M1090.62,766.97 C1098.03,776.74 1105.43,786.96 1112.01,796.86 C1122.01,811.93 1131.91,829.74 1139.24,843.63 " fill="none" id="Obslu&#382;n&#253; kan&#225;l-&#218;rove&#328; d&#367;v&#283;ry" style="stroke:#181818;stroke-width:1.0;"/><text fill="#000000" font-family="sans-serif" font-size="13" lengthAdjust="spacing" textLength="209.5615" x="1124.01" y="809.9269">M&#225; po&#382;adovanou &#250;rove&#328; d&#367;v&#283;ry</text><text fill="#000000" font-family="sans-serif" font-size="13" lengthAdjust="spacing" textLength="24.8066" x="1109.5457" y="832.9789">0..1</text></g><!--SRC=[dLMzRjim4Dxz58Js1CtghK1He0M2173x09H5EumadY1IGksYUuVc0T9C6ZC4sGiqY-ptwf4I8ycYBQQ01y5tzzrtt_rGCaK4JPdCw98jM4PpgY0d0WIRBHCg9GaMIR5_2IafsVwUtOhwaSWihwjo4v3lCqA2oxeYF692yHMFwqg7InEo2UP4gfoBjNKJTRLbvL5p1XcNO-kFcQLo3IKN0gGYCjmzv0MXKSwa8T8vVTba5iFDkNFz95QGftHt9-edpDw2E-2Ay9R5gXXOtg-PYEZ0T_VBXN1PFqbbCkplyHEfLKqDRQ43v_ft3E8qVxVczHyCBAQad_1gEd32wJCZvGr4elvBOXBnDLSquLkwv8TUnbPN2TOzC5r5- -SI0NOFMX7131ggmVjehAM0aOfzKprvlaf51PJCoAaLmOyRqCgo2AaNuzwbRlKvydUsDRZArtKbUjAdiEJ8D0GIKyNMa7CsJfFjdoM41dbiB3TO3IqnEc47wawDw4VTjpV6N8N6qJI9OkEJTcgmBJdJ2aE95QAu8K32g6XjMOB_6XE12AqHyXsR8kYPFfHGh6YCyuV6HmBbxW6PQRKLA40AHcbKdXFGyjHFARbbE3vLCnUMm50kiFmVRw2je3ZS4ap8zZ-9dYQy15Q0KyVgx8m4xyxFBu8JTsJ-kWTk1zy44pV8fb6TcpVqiPirjmrEM4b5C_4vRaRIhXftnl7flCC3QAb3itqQstGfuNYDg6yLxUriEMSWuuqouuLn1BrJt3YgVJnqwOvk2uSuMmE5lzrTQvo4cRpIjl9qmd4oq-I9rvaMCQvSXEaa8rjx3YUXfyzZgv7rewJeGb9CCEnsS67QvQqF8X-H1_-m5UknLFqqisbmpU2YsoslezxVigC1NTUyEBHBwFT6TDUacU_c_hys_YYfDv8PFJ_zmlk6sVJe7S2-yU7g9tQ4-XBmVVDikXNwUrVdU1pdexUnDR7K5zLlyQwr1VHHwhqmMYRLL8jlu_7Dz9kv4oMEHz7vqCvSyGTpuNwX- -t_BsZ7izuHtx_G28aBA52iGxz_]--></g></svg>