<?xml version="1.0" encoding="us-ascii" standalone="no"?><svg xmlns="http://www.w3.org/2000/svg" xmlns:xlink="http://www.w3.org/1999/xlink" contentStyleType="text/css" height="296px" preserveAspectRatio="none" style="width:256px;height:296px;background:#FFFFFF;" version="1.1" viewBox="0 0 256 296" width="256px" zoomAndPan="magnify"><defs/><g><!--class ?daj--><g id="elem_&#218;daj"><rect codeLine="2" fill="#F1F1F1" height="48" id="&#218;daj" rx="2.5" ry="2.5" style="stroke:#181818;stroke-width:0.5;" width="62" x="36" y="7"/><ellipse cx="51" cy="23" fill="#ADD1B2" rx="11" ry="11" style="stroke:#181818;stroke-width:1.0;"/><path d="M53.3438,18.6719 C52.4063,18.2344 51.8125,18.0938 50.9375,18.0938 C48.3125,18.0938 46.3125,20.1719 46.3125,22.8906 L46.3125,24.0156 C46.3125,26.5938 48.4219,28.4844 51.3125,28.4844 C52.5313,28.4844 53.6875,28.1875 54.4375,27.6406 C55.0156,27.2344 55.3438,26.7813 55.3438,26.3906 C55.3438,25.9375 54.9531,25.5469 54.4844,25.5469 C54.2656,25.5469 54.0625,25.625 53.875,25.8125 C53.4219,26.2969 53.4219,26.2969 53.2344,26.3906 C52.8125,26.6563 52.125,26.7813 51.3594,26.7813 C49.3125,26.7813 48.0156,25.6875 48.0156,23.9844 L48.0156,22.8906 C48.0156,21.1094 49.2656,19.7969 51,19.7969 C51.5781,19.7969 52.1875,19.9531 52.6563,20.2031 C53.1406,20.4844 53.3125,20.7031 53.4063,21.1094 C53.4688,21.5156 53.5,21.6406 53.6406,21.7656 C53.7813,21.9063 54.0156,22.0156 54.2344,22.0156 C54.5,22.0156 54.7656,21.875 54.9375,21.6563 C55.0469,21.5 55.0781,21.3125 55.0781,20.8906 L55.0781,19.4688 C55.0781,19.0313 55.0625,18.9063 54.9688,18.75 C54.8125,18.4844 54.5313,18.3438 54.2344,18.3438 C53.9375,18.3438 53.7344,18.4375 53.5156,18.75 L53.3438,18.6719 Z " fill="#000000"/><text fill="#000000" font-family="sans-serif" font-size="14" lengthAdjust="spacing" textLength="30" x="65" y="27.8467">&#218;daj</text><line style="stroke:#181818;stroke-width:0.5;" x1="37" x2="97" y1="39" y2="39"/><line style="stroke:#181818;stroke-width:0.5;" x1="37" x2="97" y1="47" y2="47"/></g><!--class Ve?ejn? ?daj--><g id="elem_Ve&#345;ejn&#253; &#250;daj"><rect codeLine="5" fill="#F1F1F1" height="48" id="Ve&#345;ejn&#253; &#250;daj" rx="2.5" ry="2.5" style="stroke:#181818;stroke-width:0.5;" width="120" x="7" y="116"/><ellipse cx="22" cy="132" fill="#ADD1B2" rx="11" ry="11" style="stroke:#181818;stroke-width:1.0;"/><path d="M24.3438,127.6719 C23.4063,127.2344 22.8125,127.0938 21.9375,127.0938 C19.3125,127.0938 17.3125,129.1719 17.3125,131.8906 L17.3125,133.0156 C17.3125,135.5938 19.4219,137.4844 22.3125,137.4844 C23.5313,137.4844 24.6875,137.1875 25.4375,136.6406 C26.0156,136.2344 26.3438,135.7813 26.3438,135.3906 C26.3438,134.9375 25.9531,134.5469 25.4844,134.5469 C25.2656,134.5469 25.0625,134.625 24.875,134.8125 C24.4219,135.2969 24.4219,135.2969 24.2344,135.3906 C23.8125,135.6563 23.125,135.7813 22.3594,135.7813 C20.3125,135.7813 19.0156,134.6875 19.0156,132.9844 L19.0156,131.8906 C19.0156,130.1094 20.2656,128.7969 22,128.7969 C22.5781,128.7969 23.1875,128.9531 23.6563,129.2031 C24.1406,129.4844 24.3125,129.7031 24.4063,130.1094 C24.4688,130.5156 24.5,130.6406 24.6406,130.7656 C24.7813,130.9063 25.0156,131.0156 25.2344,131.0156 C25.5,131.0156 25.7656,130.875 25.9375,130.6563 C26.0469,130.5 26.0781,130.3125 26.0781,129.8906 L26.0781,128.4688 C26.0781,128.0313 26.0625,127.9063 25.9688,127.75 C25.8125,127.4844 25.5313,127.3438 25.2344,127.3438 C24.9375,127.3438 24.7344,127.4375 24.5156,127.75 L24.3438,127.6719 Z " fill="#000000"/><text fill="#000000" font-family="sans-serif" font-size="14" lengthAdjust="spacing" textLength="88" x="36" y="136.8467">Ve&#345;ejn&#253; &#250;daj</text><line style="stroke:#181818;stroke-width:0.5;" x1="8" x2="126" y1="148" y2="148"/><line style="stroke:#181818;stroke-width:0.5;" x1="8" x2="126" y1="156" y2="156"/></g><!--class Datov? sada--><g id="elem_Datov&#225; sada"><rect codeLine="8" fill="#F1F1F1" height="48" id="Datov&#225; sada" rx="2.5" ry="2.5" style="stroke:#181818;stroke-width:0.5;" width="119" x="7.5" y="241"/><ellipse cx="22.5" cy="257" fill="#ADD1B2" rx="11" ry="11" style="stroke:#181818;stroke-width:1.0;"/><path d="M24.8438,252.6719 C23.9063,252.2344 23.3125,252.0938 22.4375,252.0938 C19.8125,252.0938 17.8125,254.1719 17.8125,256.8906 L17.8125,258.0156 C17.8125,260.5938 19.9219,262.4844 22.8125,262.4844 C24.0313,262.4844 25.1875,262.1875 25.9375,261.6406 C26.5156,261.2344 26.8438,260.7813 26.8438,260.3906 C26.8438,259.9375 26.4531,259.5469 25.9844,259.5469 C25.7656,259.5469 25.5625,259.625 25.375,259.8125 C24.9219,260.2969 24.9219,260.2969 24.7344,260.3906 C24.3125,260.6563 23.625,260.7813 22.8594,260.7813 C20.8125,260.7813 19.5156,259.6875 19.5156,257.9844 L19.5156,256.8906 C19.5156,255.1094 20.7656,253.7969 22.5,253.7969 C23.0781,253.7969 23.6875,253.9531 24.1563,254.2031 C24.6406,254.4844 24.8125,254.7031 24.9063,255.1094 C24.9688,255.5156 25,255.6406 25.1406,255.7656 C25.2813,255.9063 25.5156,256.0156 25.7344,256.0156 C26,256.0156 26.2656,255.875 26.4375,255.6563 C26.5469,255.5 26.5781,255.3125 26.5781,254.8906 L26.5781,253.4688 C26.5781,253.0313 26.5625,252.9063 26.4688,252.75 C26.3125,252.4844 26.0313,252.3438 25.7344,252.3438 C25.4375,252.3438 25.2344,252.4375 25.0156,252.75 L24.8438,252.6719 Z " fill="#000000"/><text fill="#000000" font-family="sans-serif" font-size="14" lengthAdjust="spacing" textLength="87" x="36.5" y="261.8467">Datov&#225; sada</text><line style="stroke:#181818;stroke-width:0.5;" x1="8.5" x2="125.5" y1="273" y2="273"/><line style="stroke:#181818;stroke-width:0.5;" x1="8.5" x2="125.5" y1="281" y2="281"/></g><!--reverse link ?daj to Ve?ejn? ?daj--><g id="link_&#218;daj_Ve&#345;ejn&#253; &#250;daj"><path codeLine="11" d="M67,73.217 C67,91.165 67,97.892 67,115.828 " fill="none" id="&#218;daj-backto-Ve&#345;ejn&#253; &#250;daj" style="stroke:#181818;stroke-width:1.0;"/><polygon fill="none" points="67,55.217,61,73.217,73,73.217,67,55.217" style="stroke:#181818;stroke-width:1.0;"/></g><!--link Ve?ejn? ?daj to Datov? sada--><g id="link_Ve&#345;ejn&#253; &#250;daj_Datov&#225; sada"><path codeLine="12" d="M67,164.135 C67,186.126 67,219.0123 67,240.9684 " fill="none" id="Ve&#345;ejn&#253; &#250;daj-Datov&#225; sada" style="stroke:#181818;stroke-width:1.0;"/><text fill="#000000" font-family="sans-serif" font-size="13" lengthAdjust="spacing" textLength="180" x="68" y="207.0669">je publikov&#225;n v datov&#233; sad&#283;</text></g><!--SRC=[AqujKSXBp4qjBaXCJWrEBKWiIYp9BrB8oyzBvKhEIImkLb0wF2ibCKj9ePghbWic59PwT6PgLjxXlGg7Ts58kW1DA3kyKA4uCIKHAWCpmwP6LnTJDnUcUI1bgEPOAIWePQKg59GcvMHcWyJp5CeKKi1ALeAK79cj1000]--></g></svg>