<?xml version="1.0" encoding="UTF-8"?><svg xmlns="http://www.w3.org/2000/svg" xmlns:xlink="http://www.w3.org/1999/xlink" fill-opacity="1" color-rendering="auto" color-interpolation="auto" text-rendering="auto" stroke="black" stroke-linecap="square" width="594" stroke-miterlimit="10" shape-rendering="auto" stroke-opacity="1" fill="black" stroke-dasharray="none" font-weight="normal" stroke-width="1" height="248" font-family="'Dialog'" font-style="normal" stroke-linejoin="miter" font-size="12px" stroke-dashoffset="0" image-rendering="auto">
  <!--Generated by ySVG 2.5-->
  <defs id="genericDefs"/>
  <g>
    <defs id="defs1">
      <clipPath clipPathUnits="userSpaceOnUse" id="clipPath1">
        <path d="M0 0 L594 0 L594 248 L0 248 L0 0 Z"/>
      </clipPath>
      <clipPath clipPathUnits="userSpaceOnUse" id="clipPath2">
        <path d="M272 175 L866 175 L866 423 L272 423 L272 175 Z"/>
      </clipPath>
    </defs>
    <g fill="white" text-rendering="geometricPrecision" shape-rendering="geometricPrecision" transform="translate(-272,-175)" stroke="white">
      <rect x="272" width="594" height="248" y="175" clip-path="url(#clipPath2)" stroke="none"/>
    </g>
    <g text-rendering="geometricPrecision" stroke-miterlimit="1.45" shape-rendering="geometricPrecision" transform="matrix(1,0,0,1,-272,-175)" stroke-linecap="butt">
      <rect fill="none" x="688.78" width="161.44" height="24" y="195" clip-path="url(#clipPath2)"/>
      <text x="748.1543" xml:space="preserve" y="211.7139" clip-path="url(#clipPath2)" font-family="sans-serif" stroke="none">Položka</text>
      <rect fill="none" x="688.78" width="161.44" height="112.2634" y="219" clip-path="url(#clipPath2)"/>
      <text x="696.7969" xml:space="preserve" y="235.742" clip-path="url(#clipPath2)" font-family="sans-serif" stroke="none">- kód položky</text>
      <text x="696.7969" xml:space="preserve" y="250.4432" clip-path="url(#clipPath2)" font-family="sans-serif" stroke="none">- název položky</text>
      <text x="696.7969" xml:space="preserve" y="265.1444" clip-path="url(#clipPath2)" font-family="sans-serif" stroke="none">- alternativní název položky</text>
      <text x="696.7969" xml:space="preserve" y="279.8456" clip-path="url(#clipPath2)" font-family="sans-serif" stroke="none">- definice položky</text>
      <text x="696.7969" xml:space="preserve" y="294.5467" clip-path="url(#clipPath2)" font-family="sans-serif" stroke="none">- popis položky</text>
      <text x="696.7969" xml:space="preserve" y="309.2479" clip-path="url(#clipPath2)" font-family="sans-serif" stroke="none">- platnost položky</text>
      <text x="696.7969" xml:space="preserve" y="323.9491" clip-path="url(#clipPath2)" font-family="sans-serif" stroke="none">- ekvivalentní položka</text>
      <rect fill="none" x="391.56" width="121.44" height="24" y="195" clip-path="url(#clipPath2)"/>
      <text x="430.6062" xml:space="preserve" y="211.7139" clip-path="url(#clipPath2)" font-family="sans-serif" stroke="none">Číselník</text>
      <rect fill="none" x="391.56" width="121.44" height="49.1395" y="219" clip-path="url(#clipPath2)"/>
      <text x="402.2556" xml:space="preserve" y="233.5825" clip-path="url(#clipPath2)" font-family="sans-serif" stroke="none">- název číselníku</text>
      <text x="402.2556" xml:space="preserve" y="248.2836" clip-path="url(#clipPath2)" font-family="sans-serif" stroke="none">- popis číselníku</text>
      <text x="402.2556" xml:space="preserve" y="262.9848" clip-path="url(#clipPath2)" font-family="sans-serif" stroke="none">- platnost číselníku</text>
      <rect fill="none" x="391.56" width="121.44" height="24" y="334.2634" clip-path="url(#clipPath2)"/>
      <text x="422.2712" xml:space="preserve" y="350.9772" clip-path="url(#clipPath2)" font-family="sans-serif" stroke="none">Zdroj změn</text>
      <rect fill="none" x="391.56" width="121.44" height="49.1395" y="358.2634" clip-path="url(#clipPath2)"/>
      <text x="434.948" xml:space="preserve" y="387.547" clip-path="url(#clipPath2)" font-family="sans-serif" stroke="none">TODO</text>
      <path fill="none" d="M688.78 207 L520 207" clip-path="url(#clipPath2)"/>
      <path fill="white" d="M513 207 L520 202 L527 207 L520 212 Z" clip-path="url(#clipPath2)" stroke="none"/>
      <path fill="none" d="M513 207 L520 202 L527 207 L520 212 Z" clip-path="url(#clipPath2)"/>
      <rect x="574.5355" y="190.2988" clip-path="url(#clipPath2)" fill="white" width="52.709" height="33.4023" stroke="none"/>
    </g>
    <g fill="white" text-rendering="geometricPrecision" stroke-miterlimit="1.6" shape-rendering="geometricPrecision" transform="matrix(1,0,0,1,-272,-175)" stroke="white">
      <rect fill="none" x="574.5355" width="52.709" height="33.4023" y="190.2988" clip-path="url(#clipPath2)"/>
    </g>
    <g text-rendering="geometricPrecision" stroke-miterlimit="1.45" shape-rendering="geometricPrecision" font-family="sans-serif" transform="matrix(1,0,0,1,-272,-175)" stroke-linecap="butt">
      <text x="576.5355" xml:space="preserve" y="204.3633" clip-path="url(#clipPath2)" stroke="none">obsahuje</text>
      <text x="580.2094" xml:space="preserve" y="219.0645" clip-path="url(#clipPath2)" stroke="none">položku</text>
      <path fill="none" d="M391.56 207 L325.5 207 L325.5 259.5698 L383.5352 259.5698" clip-path="url(#clipPath2)"/>
      <path d="M391.5352 259.5698 L379.5352 254.5698 L382.5352 259.5698 L379.5352 264.5698 Z" clip-path="url(#clipPath2)" stroke="none"/>
      <rect x="287.8135" y="216.5837" clip-path="url(#clipPath2)" fill="white" width="75.373" height="33.4023" stroke="none"/>
      <text x="289.8135" xml:space="preserve" y="230.6482" clip-path="url(#clipPath2)" stroke="none">má odvozený</text>
      <text x="305.1592" xml:space="preserve" y="245.3493" clip-path="url(#clipPath2)" stroke="none">číselník</text>
      <path fill="none" d="M452.28 268.1395 L452.28 326.2634" clip-path="url(#clipPath2)"/>
      <path d="M452.28 334.2634 L457.28 322.2634 L452.28 325.2634 L447.28 322.2634 Z" clip-path="url(#clipPath2)" stroke="none"/>
      <rect x="410.9343" y="291.8509" clip-path="url(#clipPath2)" fill="white" width="82.6914" height="18.7012" stroke="none"/>
      <text x="412.9343" xml:space="preserve" y="305.9153" clip-path="url(#clipPath2)" stroke="none">má zdroj změn</text>
    </g>
  </g>
</svg>
