<svg xmlns="http://www.w3.org/2000/svg" xmlns:xlink="http://www.w3.org/1999/xlink" contentStyleType="text/css" data-diagram-type="CLASS" height="515px" preserveAspectRatio="none" style="width:991px;height:515px;background:#FFFFFF;" version="1.1" viewBox="0 0 991 515" width="991px" zoomAndPan="magnify"><?plantuml 1.2026.4beta2?><defs/><g><!--class Objekt ?ablony--><g class="entity" data-qualified-name="Objekt .ablony" data-source-line="2" id="ent0002"><rect fill="#F1F1F1" height="129.4844" rx="2.5" ry="2.5" style="stroke:#181818;stroke-width:0.5;" width="304.8721" x="427.79" y="7"/><ellipse cx="523.5615" cy="23" fill="#ADD1B2" rx="11" ry="11" style="stroke:#181818;stroke-width:1;"/><path d="M526.5302,28.6406 Q525.9521,28.9375 525.3115,29.0781 Q524.6709,29.2344 523.9677,29.2344 Q521.4677,29.2344 520.1396,27.5938 Q518.8271,25.9375 518.8271,22.8125 Q518.8271,19.6875 520.1396,18.0313 Q521.4677,16.375 523.9677,16.375 Q524.6709,16.375 525.3115,16.5313 Q525.9677,16.6875 526.5302,16.9844 L526.5302,19.7031 Q525.9052,19.125 525.3115,18.8594 Q524.7177,18.5781 524.0927,18.5781 Q522.749,18.5781 522.0615,19.6563 Q521.374,20.7188 521.374,22.8125 Q521.374,24.9063 522.0615,25.9844 Q522.749,27.0469 524.0927,27.0469 Q524.7177,27.0469 525.3115,26.7813 Q525.9052,26.5 526.5302,25.9219 L526.5302,28.6406 Z " fill="#000000"/><text fill="#000000" font-family="sans-serif" font-size="14" lengthAdjust="spacing" textLength="104.8291" x="544.0615" y="27.8467">Objekt &#353;ablony</text><line style="stroke:#181818;stroke-width:0.5;" x1="428.79" x2="731.6621" y1="39" y2="39"/><text fill="#000000" font-family="sans-serif" font-size="14" lengthAdjust="spacing" textLength="203.4922" x="433.79" y="55.9951">"k&#243;d objektu &#353;ablony": string</text><text fill="#000000" font-family="sans-serif" font-size="14" lengthAdjust="spacing" textLength="207.3203" x="433.79" y="72.292">"n&#225;zev objektu &#353;ablony": text</text><text fill="#000000" font-family="sans-serif" font-size="14" lengthAdjust="spacing" textLength="203.1436" x="433.79" y="88.5889">"popis objektu &#353;ablony": text</text><text fill="#000000" font-family="sans-serif" font-size="14" lengthAdjust="spacing" textLength="271.1748" x="433.79" y="104.8857">"slu&#382;ba ov&#283;&#345;en&#237; existence objektu": url</text><text fill="#000000" font-family="sans-serif" font-size="14" lengthAdjust="spacing" textLength="292.8721" x="433.79" y="121.1826">"slu&#382;ba poskytnut&#225; seznamu objektu": url</text><line style="stroke:#181818;stroke-width:0.5;" x1="428.79" x2="731.6621" y1="128.4844" y2="128.4844"/></g><!--class Identifik?tor objektu ?ablony--><g class="entity" data-qualified-name="Identifik.tor objektu .ablony" data-source-line="10" id="ent0003"><rect fill="#F1F1F1" height="129.4844" rx="2.5" ry="2.5" style="stroke:#181818;stroke-width:0.5;" width="453.5264" x="159.47" y="213.48"/><ellipse cx="281.5359" cy="229.48" fill="#ADD1B2" rx="11" ry="11" style="stroke:#181818;stroke-width:1;"/><path d="M284.5047,235.1206 Q283.9265,235.4175 283.2859,235.5581 Q282.6453,235.7144 281.9422,235.7144 Q279.4422,235.7144 278.114,234.0738 Q276.8015,232.4175 276.8015,229.2925 Q276.8015,226.1675 278.114,224.5113 Q279.4422,222.855 281.9422,222.855 Q282.6453,222.855 283.2859,223.0113 Q283.9422,223.1675 284.5047,223.4644 L284.5047,226.1831 Q283.8797,225.605 283.2859,225.3394 Q282.6922,225.0581 282.0672,225.0581 Q280.7234,225.0581 280.0359,226.1363 Q279.3484,227.1988 279.3484,229.2925 Q279.3484,231.3863 280.0359,232.4644 Q280.7234,233.5269 282.0672,233.5269 Q282.6922,233.5269 283.2859,233.2613 Q283.8797,232.98 284.5047,232.4019 L284.5047,235.1206 Z " fill="#000000"/><text fill="#000000" font-family="sans-serif" font-size="14" lengthAdjust="spacing" textLength="200.8945" x="302.0359" y="234.3267">Identifik&#225;tor objektu &#353;ablony</text><line style="stroke:#181818;stroke-width:0.5;" x1="160.47" x2="611.9964" y1="245.48" y2="245.48"/><text fill="#000000" font-family="sans-serif" font-size="14" lengthAdjust="spacing" textLength="351.415" x="165.47" y="262.4751">"datov&#253; typ identifik&#225;toru objektu &#353;ablony": string</text><text fill="#000000" font-family="sans-serif" font-size="14" lengthAdjust="spacing" textLength="441.5264" x="165.47" y="278.772">"je identifik&#225;tor objektu &#353;ablony voliteln&#253; u&#382;ivatelem": boolean</text><text fill="#000000" font-family="sans-serif" font-size="14" lengthAdjust="spacing" textLength="244.8975" x="165.47" y="295.0689">"k&#243;d identifik&#225;toru &#353;ablony": string</text><text fill="#000000" font-family="sans-serif" font-size="14" lengthAdjust="spacing" textLength="305.6006" x="165.47" y="311.3657">"n&#225;zev identifik&#225;toru objektu &#353;ablony": text</text><text fill="#000000" font-family="sans-serif" font-size="14" lengthAdjust="spacing" textLength="244.5488" x="165.47" y="327.6626">"popis identifik&#225;toru &#353;ablony": text</text><line style="stroke:#181818;stroke-width:0.5;" x1="160.47" x2="611.9964" y1="334.9644" y2="334.9644"/></g><!--class Objekt nebo subjekt ?daj?--><g class="entity" data-qualified-name="Objekt nebo subjekt .daj." data-source-line="18" id="ent0004"><rect fill="#F1F1F1" height="48" rx="2.5" ry="2.5" style="stroke:#181818;stroke-width:0.5;" width="216.5498" x="647.95" y="254.22"/><ellipse cx="662.95" cy="270.22" fill="#ADD1B2" rx="11" ry="11" style="stroke:#181818;stroke-width:1;"/><path d="M665.9188,275.8606 Q665.3406,276.1575 664.7,276.2981 Q664.0594,276.4544 663.3563,276.4544 Q660.8563,276.4544 659.5281,274.8138 Q658.2156,273.1575 658.2156,270.0325 Q658.2156,266.9075 659.5281,265.2513 Q660.8563,263.595 663.3563,263.595 Q664.0594,263.595 664.7,263.7513 Q665.3563,263.9075 665.9188,264.2044 L665.9188,266.9231 Q665.2938,266.345 664.7,266.0794 Q664.1063,265.7981 663.4813,265.7981 Q662.1375,265.7981 661.45,266.8763 Q660.7625,267.9388 660.7625,270.0325 Q660.7625,272.1263 661.45,273.2044 Q662.1375,274.2669 663.4813,274.2669 Q664.1063,274.2669 664.7,274.0013 Q665.2938,273.72 665.9188,273.1419 L665.9188,275.8606 Z " fill="#000000"/><text fill="#000000" font-family="sans-serif" font-size="14" lengthAdjust="spacing" textLength="184.5498" x="676.95" y="275.0667">Objekt nebo subjekt &#250;daj&#367;</text><line style="stroke:#181818;stroke-width:0.5;" x1="648.95" x2="863.4998" y1="286.22" y2="286.22"/><line style="stroke:#181818;stroke-width:0.5;" x1="648.95" x2="863.4998" y1="294.22" y2="294.22"/></g><!--class Vlastnost datov?ho typu--><g class="entity" data-qualified-name="Vlastnost datov.ho typu" data-source-line="21" id="ent0005"><rect fill="#F1F1F1" height="80.5938" rx="2.5" ry="2.5" style="stroke:#181818;stroke-width:0.5;" width="310.457" x="7" y="419.97"/><ellipse cx="72.3071" cy="435.97" fill="#ADD1B2" rx="11" ry="11" style="stroke:#181818;stroke-width:1;"/><path d="M75.2759,441.6106 Q74.6978,441.9075 74.0571,442.0481 Q73.4165,442.2044 72.7134,442.2044 Q70.2134,442.2044 68.8853,440.5637 Q67.5728,438.9075 67.5728,435.7825 Q67.5728,432.6575 68.8853,431.0012 Q70.2134,429.345 72.7134,429.345 Q73.4165,429.345 74.0571,429.5012 Q74.7134,429.6575 75.2759,429.9544 L75.2759,432.6731 Q74.6509,432.095 74.0571,431.8294 Q73.4634,431.5481 72.8384,431.5481 Q71.4946,431.5481 70.8071,432.6262 Q70.1196,433.6887 70.1196,435.7825 Q70.1196,437.8762 70.8071,438.9544 Q71.4946,440.0169 72.8384,440.0169 Q73.4634,440.0169 74.0571,439.7512 Q74.6509,439.47 75.2759,438.8919 L75.2759,441.6106 Z " fill="#000000"/><text fill="#000000" font-family="sans-serif" font-size="14" lengthAdjust="spacing" textLength="171.3428" x="92.8071" y="440.8167">Vlastnost datov&#233;ho typu</text><line style="stroke:#181818;stroke-width:0.5;" x1="8" x2="316.457" y1="451.97" y2="451.97"/><text fill="#000000" font-family="sans-serif" font-size="14" lengthAdjust="spacing" textLength="298.457" x="13" y="468.9651">"hodnota vlastnosti datov&#233;ho typu": string</text><text fill="#000000" font-family="sans-serif" font-size="14" lengthAdjust="spacing" textLength="282.3242" x="13" y="485.262">"n&#225;zev vlastnosti datov&#233;ho typu": string</text><line style="stroke:#181818;stroke-width:0.5;" x1="8" x2="316.457" y1="492.5637" y2="492.5637"/></g><!--class ?daj--><g class="entity" data-qualified-name=".daj" data-source-line="26" id="ent0006"><rect fill="#F1F1F1" height="48" rx="2.5" ry="2.5" style="stroke:#181818;stroke-width:0.5;" width="63.6025" x="508.43" y="436.26"/><ellipse cx="523.43" cy="452.26" fill="#ADD1B2" rx="11" ry="11" style="stroke:#181818;stroke-width:1;"/><path d="M526.3988,457.9006 Q525.8206,458.1975 525.18,458.3381 Q524.5394,458.4944 523.8363,458.4944 Q521.3363,458.4944 520.0081,456.8538 Q518.6956,455.1975 518.6956,452.0725 Q518.6956,448.9475 520.0081,447.2913 Q521.3363,445.635 523.8363,445.635 Q524.5394,445.635 525.18,445.7913 Q525.8363,445.9475 526.3988,446.2444 L526.3988,448.9631 Q525.7738,448.385 525.18,448.1194 Q524.5863,447.8381 523.9613,447.8381 Q522.6175,447.8381 521.93,448.9163 Q521.2425,449.9788 521.2425,452.0725 Q521.2425,454.1663 521.93,455.2444 Q522.6175,456.3069 523.9613,456.3069 Q524.5863,456.3069 525.18,456.0413 Q525.7738,455.76 526.3988,455.1819 L526.3988,457.9006 Z " fill="#000000"/><text fill="#000000" font-family="sans-serif" font-size="14" lengthAdjust="spacing" textLength="31.6025" x="537.43" y="457.1067">&#218;daj</text><line style="stroke:#181818;stroke-width:0.5;" x1="509.43" x2="571.0325" y1="468.26" y2="468.26"/><line style="stroke:#181818;stroke-width:0.5;" x1="509.43" x2="571.0325" y1="476.26" y2="476.26"/></g><!--link Objekt ?ablony to Identifik?tor objektu ?ablony--><g class="link" data-entity-1="ent0002" data-entity-2="ent0003" data-link-type="association" data-source-line="29" id="lnk7"><path codeLine="29" d="M427.49,132.41 C415.07,142.19 403.96,153.48 395.23,166.48 C386.09,180.09 382.02,196.87 380.67,213.22" fill="none" id="Objekt &#353;ablony-Identifik&#225;tor objektu &#353;ablony" style="stroke:#181818;stroke-width:1;"/><text fill="#000000" font-family="sans-serif" font-size="13" lengthAdjust="spacing" textLength="310.8257" x="396.23" y="179.5469">m&#225; vydefinovan&#233; identifik&#225;tory objektu &#353;ablony</text></g><!--link Objekt ?ablony to Objekt nebo subjekt ?daj?--><g class="link" data-entity-1="ent0002" data-entity-2="ent0004" data-link-type="association" data-source-line="30" id="lnk8"><path codeLine="30" d="M686.82,136.97 C697.27,146.01 707.01,155.88 715.23,166.48 C735.57,192.74 746.59,230.11 751.93,254.01" fill="none" id="Objekt &#353;ablony-Objekt nebo subjekt &#250;daj&#367;" style="stroke:#181818;stroke-width:1;"/><text fill="#000000" font-family="sans-serif" font-size="13" lengthAdjust="spacing" textLength="249.6343" x="726.23" y="179.5469">odpov&#237;d&#225; objektu nebo subjektu &#250;daj&#367;</text><text fill="#000000" font-family="sans-serif" font-size="13" lengthAdjust="spacing" textLength="24.8066" x="723.8578" y="242.9682">0..1</text></g><!--link Identifik?tor objektu ?ablony to Vlastnost datov?ho typu--><g class="link" data-entity-1="ent0003" data-entity-2="ent0005" data-link-type="association" data-source-line="31" id="lnk9"><path codeLine="31" d="M216.2,343.14 C204.37,351.91 193.49,361.81 184.23,372.97 C173.36,386.05 167.77,403.82 164.93,419.84" fill="none" id="Identifik&#225;tor objektu &#353;ablony-Vlastnost datov&#233;ho typu" style="stroke:#181818;stroke-width:1;"/><text fill="#000000" font-family="sans-serif" font-size="13" lengthAdjust="spacing" textLength="182.6665" x="185.23" y="386.0369">m&#225; vlastnost datov&#233;ho typu</text></g><!--link Identifik?tor objektu ?ablony to ?daj--><g class="link" data-entity-1="ent0003" data-entity-2="ent0006" data-link-type="association" data-source-line="32" id="lnk10"><path codeLine="32" d="M372.05,343.4 C371.67,359.66 374.36,376.35 383.23,389.97 C410.8,432.28 470.69,448.94 508.01,455.37" fill="none" id="Identifik&#225;tor objektu &#353;ablony-&#218;daj" style="stroke:#181818;stroke-width:1;"/><text fill="#000000" font-family="sans-serif" font-size="13" lengthAdjust="spacing" textLength="267.998" x="384.23" y="386.0369">je sou&#269;&#225;st&#237; identifik&#225;toru objektu &#353;ablony</text></g><!--link Identifik?tor objektu ?ablony to ?daj--><g class="link" data-entity-1="ent0003" data-entity-2="ent0006" data-link-type="association" data-source-line="33" id="lnk11"><path codeLine="33" d="M613.33,331.86 C629.86,343.05 644.58,356.59 656.23,372.97 C682.27,409.58 615.18,437.18 572.47,450.47" fill="none" id="Identifik&#225;tor objektu &#353;ablony-&#218;daj-1" style="stroke:#181818;stroke-width:1;"/><text fill="#000000" font-family="sans-serif" font-size="13" lengthAdjust="spacing" textLength="229.9946" x="662.23" y="386.0369">odpov&#237;d&#225; &#250;daji veden&#233;mu agendou</text><text fill="#000000" font-family="sans-serif" font-size="13" lengthAdjust="spacing" textLength="24.8066" x="580.1429" y="444.5766">0..1</text></g><?plantuml-src ZPCxRW8n48PxJZ7Q7fIqt21LYaZflNW0mpApmW-nH3b23f2asf82fKWNAMaCzueNbjSkZwqiov_dd__tMAC14XFKgUZX4wPYAWnFWPYmrKk4rX0znYCS6rZd8awOiWXUMW3Hs7zBuCsHFPnrGPkfea51aC_dwCun1cUc859EbRu6wCIk_s81x5QVwtSalmISAMsGUhYx5t0xJOxfbFKuCsIDpq7ZFDYp5VYrjJFt896CwgknpmlVjLwsPcK8nVbVC5aAwkI6lPx122jy3GV7YJAOK2WVsbTEX0rEGfMOEK51-x2hmjT2Rz3awIDSARu13ucLuq0OCsYxtVWVAKRhhoAj0_WS5aEi3MpZMmov2D2McGvP4Xi1ReUfAdV6LmFuq83_25sLFTMdkDrkyFhT83q9O-GoYNr5x0JvHIMih7xlWjnTftCVtKYmK6IP1cjB6OHtfOzXkwTRjnqKkfTVOk_l4j5GeOowknrvpNRrvdDjmd-zEOaD5ShiZeIEKjhaeS1XgEGNuRkB0P9a6_q3?></g></svg>