<svg xmlns="http://www.w3.org/2000/svg" xmlns:xlink="http://www.w3.org/1999/xlink" contentStyleType="text/css" height="377px" preserveAspectRatio="none" style="width:1353px;height:377px;background:#FFFFFF;" version="1.1" viewBox="0 0 1353 377" width="1353px" zoomAndPan="magnify"><defs/><g><!--class Dokument--><g id="elem_Dokument"><rect codeLine="2" fill="#F1F1F1" height="96.8906" id="Dokument" rx="2.5" ry="2.5" style="stroke:#181818;stroke-width:0.5;" width="245.208" x="552.89" y="7"/><ellipse cx="634.7743" cy="23" fill="#ADD1B2" rx="11" ry="11" style="stroke:#181818;stroke-width:1;"/><path d="M637.743,28.6406 Q637.1649,28.9375 636.5243,29.0781 Q635.8837,29.2344 635.1805,29.2344 Q632.6805,29.2344 631.3524,27.5938 Q630.0399,25.9375 630.0399,22.8125 Q630.0399,19.6875 631.3524,18.0313 Q632.6805,16.375 635.1805,16.375 Q635.8837,16.375 636.5243,16.5313 Q637.1805,16.6875 637.743,16.9844 L637.743,19.7031 Q637.118,19.125 636.5243,18.8594 Q635.9305,18.5781 635.3055,18.5781 Q633.9618,18.5781 633.2743,19.6563 Q632.5868,20.7188 632.5868,22.8125 Q632.5868,24.9063 633.2743,25.9844 Q633.9618,27.0469 635.3055,27.0469 Q635.9305,27.0469 636.5243,26.7813 Q637.118,26.5 637.743,25.9219 L637.743,28.6406 Z " fill="#000000"/><text fill="#000000" font-family="sans-serif" font-size="14" lengthAdjust="spacing" textLength="72.9395" x="655.2743" y="27.8467">Dokument</text><line style="stroke:#181818;stroke-width:0.5;" x1="553.89" x2="797.098" y1="39" y2="39"/><text fill="#000000" font-family="sans-serif" font-size="14" lengthAdjust="spacing" textLength="148.4492" x="558.89" y="55.9951">"&#269;&#237;slo jednac&#237;": string</text><text fill="#000000" font-family="sans-serif" font-size="14" lengthAdjust="spacing" textLength="119.7451" x="558.89" y="72.292">"k ruk&#225;m": string</text><text fill="#000000" font-family="sans-serif" font-size="14" lengthAdjust="spacing" textLength="233.208" x="558.89" y="88.5889">"stru&#269;n&#253; obsah dokumentu": text</text><line style="stroke:#181818;stroke-width:0.5;" x1="553.89" x2="797.098" y1="95.8906" y2="95.8906"/></g><!--class Jednozna?n? identifik?tor--><g id="elem_Jednozna&#269;n&#253; identifik&#225;tor"><rect codeLine="8" fill="#F1F1F1" height="64.2969" id="Jednozna&#269;n&#253; identifik&#225;tor" rx="2.5" ry="2.5" style="stroke:#181818;stroke-width:0.5;" width="408.9834" x="7" y="180.89"/><ellipse cx="118.1763" cy="196.89" fill="#ADD1B2" rx="11" ry="11" style="stroke:#181818;stroke-width:1;"/><path d="M121.145,202.5306 Q120.5669,202.8275 119.9263,202.9681 Q119.2856,203.1244 118.5825,203.1244 Q116.0825,203.1244 114.7544,201.4838 Q113.4419,199.8275 113.4419,196.7025 Q113.4419,193.5775 114.7544,191.9213 Q116.0825,190.265 118.5825,190.265 Q119.2856,190.265 119.9263,190.4213 Q120.5825,190.5775 121.145,190.8744 L121.145,193.5931 Q120.52,193.015 119.9263,192.7494 Q119.3325,192.4681 118.7075,192.4681 Q117.3638,192.4681 116.6763,193.5463 Q115.9888,194.6088 115.9888,196.7025 Q115.9888,198.7963 116.6763,199.8744 Q117.3638,200.9369 118.7075,200.9369 Q119.3325,200.9369 119.9263,200.6713 Q120.52,200.39 121.145,199.8119 L121.145,202.5306 Z " fill="#000000"/><text fill="#000000" font-family="sans-serif" font-size="14" lengthAdjust="spacing" textLength="178.1309" x="138.6763" y="201.7367">Jednozna&#269;n&#253; identifik&#225;tor</text><line style="stroke:#181818;stroke-width:0.5;" x1="8" x2="414.9834" y1="212.89" y2="212.89"/><text fill="#000000" font-family="sans-serif" font-size="14" lengthAdjust="spacing" textLength="396.9834" x="13" y="229.8851">"&#345;et&#283;zcov&#225; podoba jednozna&#269;n&#233;ho identifik&#225;toru": string</text><line style="stroke:#181818;stroke-width:0.5;" x1="8" x2="414.9834" y1="237.1869" y2="237.1869"/></g><!--class Spis--><g id="elem_Spis"><rect codeLine="12" fill="#F1F1F1" height="64.2969" id="Spis" rx="2.5" ry="2.5" style="stroke:#181818;stroke-width:0.5;" width="182.2559" x="451.36" y="180.89"/><ellipse cx="523.7594" cy="196.89" fill="#ADD1B2" rx="11" ry="11" style="stroke:#181818;stroke-width:1;"/><path d="M526.7282,202.5306 Q526.15,202.8275 525.5094,202.9681 Q524.8688,203.1244 524.1657,203.1244 Q521.6657,203.1244 520.3375,201.4838 Q519.025,199.8275 519.025,196.7025 Q519.025,193.5775 520.3375,191.9213 Q521.6657,190.265 524.1657,190.265 Q524.8688,190.265 525.5094,190.4213 Q526.1657,190.5775 526.7282,190.8744 L526.7282,193.5931 Q526.1032,193.015 525.5094,192.7494 Q524.9157,192.4681 524.2907,192.4681 Q522.9469,192.4681 522.2594,193.5463 Q521.5719,194.6088 521.5719,196.7025 Q521.5719,198.7963 522.2594,199.8744 Q522.9469,200.9369 524.2907,200.9369 Q524.9157,200.9369 525.5094,200.6713 Q526.1032,200.39 526.7282,199.8119 L526.7282,202.5306 Z " fill="#000000"/><text fill="#000000" font-family="sans-serif" font-size="14" lengthAdjust="spacing" textLength="28.957" x="544.2594" y="201.7367">Spis</text><line style="stroke:#181818;stroke-width:0.5;" x1="452.36" x2="632.6159" y1="212.89" y2="212.89"/><text fill="#000000" font-family="sans-serif" font-size="14" lengthAdjust="spacing" textLength="170.2559" x="457.36" y="229.8851">"Spisov&#225; zna&#269;ka": string</text><line style="stroke:#181818;stroke-width:0.5;" x1="452.36" x2="632.6159" y1="237.1869" y2="237.1869"/></g><!--class Eviden?n? ??slo ze samostatn? evidence dokument?--><g id="elem_Eviden&#269;n&#237; &#269;&#237;slo ze samostatn&#233; evidence dokument&#367;"><rect codeLine="16" fill="#F1F1F1" height="64.2969" id="Eviden&#269;n&#237; &#269;&#237;slo ze samostatn&#233; evidence dokument&#367;" rx="2.5" ry="2.5" style="stroke:#181818;stroke-width:0.5;" width="395.207" x="668.89" y="180.89"/><ellipse cx="683.89" cy="196.89" fill="#ADD1B2" rx="11" ry="11" style="stroke:#181818;stroke-width:1;"/><path d="M686.8588,202.5306 Q686.2806,202.8275 685.64,202.9681 Q684.9994,203.1244 684.2963,203.1244 Q681.7963,203.1244 680.4681,201.4838 Q679.1556,199.8275 679.1556,196.7025 Q679.1556,193.5775 680.4681,191.9213 Q681.7963,190.265 684.2963,190.265 Q684.9994,190.265 685.64,190.4213 Q686.2963,190.5775 686.8588,190.8744 L686.8588,193.5931 Q686.2338,193.015 685.64,192.7494 Q685.0463,192.4681 684.4213,192.4681 Q683.0775,192.4681 682.39,193.5463 Q681.7025,194.6088 681.7025,196.7025 Q681.7025,198.7963 682.39,199.8744 Q683.0775,200.9369 684.4213,200.9369 Q685.0463,200.9369 685.64,200.6713 Q686.2338,200.39 686.8588,199.8119 L686.8588,202.5306 Z " fill="#000000"/><text fill="#000000" font-family="sans-serif" font-size="14" lengthAdjust="spacing" textLength="363.207" x="697.89" y="201.7367">Eviden&#269;n&#237; &#269;&#237;slo ze samostatn&#233; evidence dokument&#367;</text><line style="stroke:#181818;stroke-width:0.5;" x1="669.89" x2="1063.097" y1="212.89" y2="212.89"/><text fill="#000000" font-family="sans-serif" font-size="14" lengthAdjust="spacing" textLength="313.3115" x="674.89" y="229.8851">"&#345;et&#283;zcov&#225; podoba eviden&#269;n&#237;ho &#269;&#237;sla": string</text><line style="stroke:#181818;stroke-width:0.5;" x1="669.89" x2="1063.097" y1="237.1869" y2="237.1869"/></g><!--class Elektronick? dokument--><g id="elem_Elektronick&#253; dokument"><rect codeLine="20" fill="#F1F1F1" height="48" id="Elektronick&#253; dokument" rx="2.5" ry="2.5" style="stroke:#181818;stroke-width:0.5;" width="193.6152" x="1126.68" y="189.04"/><ellipse cx="1141.68" cy="205.04" fill="#ADD1B2" rx="11" ry="11" style="stroke:#181818;stroke-width:1;"/><path d="M1144.6488,210.6806 Q1144.0706,210.9775 1143.43,211.1181 Q1142.7894,211.2744 1142.0863,211.2744 Q1139.5863,211.2744 1138.2581,209.6338 Q1136.9456,207.9775 1136.9456,204.8525 Q1136.9456,201.7275 1138.2581,200.0713 Q1139.5863,198.415 1142.0863,198.415 Q1142.7894,198.415 1143.43,198.5713 Q1144.0863,198.7275 1144.6488,199.0244 L1144.6488,201.7431 Q1144.0238,201.165 1143.43,200.8994 Q1142.8363,200.6181 1142.2113,200.6181 Q1140.8675,200.6181 1140.18,201.6963 Q1139.4925,202.7588 1139.4925,204.8525 Q1139.4925,206.9463 1140.18,208.0244 Q1140.8675,209.0869 1142.2113,209.0869 Q1142.8363,209.0869 1143.43,208.8213 Q1144.0238,208.54 1144.6488,207.9619 L1144.6488,210.6806 Z " fill="#000000"/><text fill="#000000" font-family="sans-serif" font-size="14" lengthAdjust="spacing" textLength="161.6152" x="1155.68" y="209.8867">Elektronick&#253; dokument</text><line style="stroke:#181818;stroke-width:0.5;" x1="1127.68" x2="1319.2952" y1="221.04" y2="221.04"/><line style="stroke:#181818;stroke-width:0.5;" x1="1127.68" x2="1319.2952" y1="229.04" y2="229.04"/></g><!--class Osoba ve vztahu k dokumentu--><g id="elem_Osoba ve vztahu k dokumentu"><rect codeLine="23" fill="#F1F1F1" height="48" id="Osoba ve vztahu k dokumentu" rx="2.5" ry="2.5" style="stroke:#181818;stroke-width:0.5;" width="246.5186" x="1100.23" y="322.19"/><ellipse cx="1115.23" cy="338.19" fill="#ADD1B2" rx="11" ry="11" style="stroke:#181818;stroke-width:1;"/><path d="M1118.1988,343.8306 Q1117.6206,344.1275 1116.98,344.2681 Q1116.3394,344.4244 1115.6363,344.4244 Q1113.1363,344.4244 1111.8081,342.7838 Q1110.4956,341.1275 1110.4956,338.0025 Q1110.4956,334.8775 1111.8081,333.2213 Q1113.1363,331.565 1115.6363,331.565 Q1116.3394,331.565 1116.98,331.7213 Q1117.6363,331.8775 1118.1988,332.1744 L1118.1988,334.8931 Q1117.5738,334.315 1116.98,334.0494 Q1116.3863,333.7681 1115.7613,333.7681 Q1114.4175,333.7681 1113.73,334.8463 Q1113.0425,335.9088 1113.0425,338.0025 Q1113.0425,340.0963 1113.73,341.1744 Q1114.4175,342.2369 1115.7613,342.2369 Q1116.3863,342.2369 1116.98,341.9713 Q1117.5738,341.69 1118.1988,341.1119 L1118.1988,343.8306 Z " fill="#000000"/><text fill="#000000" font-family="sans-serif" font-size="14" lengthAdjust="spacing" textLength="214.5186" x="1129.23" y="343.0367">Osoba ve vztahu k dokumentu</text><line style="stroke:#181818;stroke-width:0.5;" x1="1101.23" x2="1345.7486" y1="354.19" y2="354.19"/><line style="stroke:#181818;stroke-width:0.5;" x1="1101.23" x2="1345.7486" y1="362.19" y2="362.19"/></g><!--reverse link Dokument to Elektronick? dokument--><g id="link_Dokument_Elektronick&#253; dokument"><path codeLine="26" d="M816.2323,67.8002 C938.8823,79.2302 1099.59,99.47 1159.49,133.89 C1181.84,146.74 1199.63,170.6 1210.72,188.59 " fill="none" id="Dokument-backto-Elektronick&#253; dokument" style="stroke:#181818;stroke-width:1;"/><polygon fill="none" points="798.31,66.13,815.6756,73.7743,816.7891,61.8261,798.31,66.13" style="stroke:#181818;stroke-width:1;"/></g><!--link Dokument to Jednozna?n? identifik?tor--><g id="link_Dokument_Jednozna&#269;n&#253; identifik&#225;tor"><path codeLine="27" d="M552.55,91.42 C509.61,104.14 461.22,119.05 417.49,133.89 C375.29,148.21 328.84,165.68 290.74,180.47 " fill="none" id="Dokument-Jednozna&#269;n&#253; identifik&#225;tor" style="stroke:#181818;stroke-width:1;"/><text fill="#000000" font-family="sans-serif" font-size="13" lengthAdjust="spacing" textLength="170.2759" x="418.49" y="146.9569">je opat&#345;en identifik&#225;torem</text><text fill="#000000" font-family="sans-serif" font-size="13" lengthAdjust="spacing" textLength="24.8066" x="279.6361" y="169.9115">1..1</text></g><!--link Dokument to Spis--><g id="link_Dokument_Spis"><path codeLine="28" d="M634.86,103.98 C613.63,128.82 588.22,158.55 569.43,180.53 " fill="none" id="Dokument-Spis" style="stroke:#181818;stroke-width:1;"/><text fill="#000000" font-family="sans-serif" font-size="13" lengthAdjust="spacing" textLength="125.0234" x="610.49" y="146.9569">je za&#345;azen do spisu</text><text fill="#000000" font-family="sans-serif" font-size="13" lengthAdjust="spacing" textLength="24.8066" x="548.4511" y="169.7333">0..1</text></g><!--link Dokument to Eviden?n? ??slo ze samostatn? evidence dokument?--><g id="link_Dokument_Eviden&#269;n&#237; &#269;&#237;slo ze samostatn&#233; evidence dokument&#367;"><path codeLine="29" d="M734.1,104.19 C764.58,129.02 800.99,158.69 827.91,180.61 " fill="none" id="Dokument-Eviden&#269;n&#237; &#269;&#237;slo ze samostatn&#233; evidence dokument&#367;" style="stroke:#181818;stroke-width:1;"/><text fill="#000000" font-family="sans-serif" font-size="13" lengthAdjust="spacing" textLength="361.8101" x="789.49" y="146.9569">m&#225; eviden&#269;n&#237; &#269;&#237;slo ze samostatn&#233; evidence dokument&#367;</text><text fill="#000000" font-family="sans-serif" font-size="13" lengthAdjust="spacing" textLength="24.8066" x="794.0308" y="169.8291">0..1</text></g><!--link Dokument to Dokument--><g id="link_Dokument_Dokument"><path codeLine="30" d="M798.4,40.3 C818.93,42.42 833.1,47.47 833.1,55.45 C833.1,63.43 818.93,68.48 798.4,70.6 " fill="none" id="Dokument-Dokument" style="stroke:#181818;stroke-width:1;"/><text fill="#000000" font-family="sans-serif" font-size="13" lengthAdjust="spacing" textLength="166.1499" x="839.1" y="60.0169">je odpov&#283;d&#237; na dokument</text><text fill="#000000" font-family="sans-serif" font-size="13" lengthAdjust="spacing" textLength="24.8066" x="806.2226" y="68.1133">0..1</text></g><!--link Elektronick? dokument to Osoba ve vztahu k dokumentu--><g id="link_Elektronick&#253; dokument_Osoba ve vztahu k dokumentu"><path codeLine="31" d="M1195.14,237.29 C1184.67,247.66 1174.01,260.79 1168.49,275.19 C1161.79,292.65 1173.72,309.24 1188.15,321.89 " fill="none" id="Elektronick&#253; dokument-Osoba ve vztahu k dokumentu" style="stroke:#181818;stroke-width:1;"/><text fill="#000000" font-family="sans-serif" font-size="13" lengthAdjust="spacing" textLength="62.8735" x="1169.49" y="288.2569">odes&#237;latel</text><text fill="#000000" font-family="sans-serif" font-size="13" lengthAdjust="spacing" textLength="24.8066" x="1152.7094" y="311.2218">1..1</text></g><!--link Elektronick? dokument to Osoba ve vztahu k dokumentu--><g id="link_Elektronick&#253; dokument_Osoba ve vztahu k dokumentu"><path codeLine="32" d="M1230.86,237.22 C1234.93,252.72 1238.74,273.62 1236.49,292.19 C1235.3,302.07 1232.9,312.76 1230.48,321.93 " fill="none" id="Elektronick&#253; dokument-Osoba ve vztahu k dokumentu-1" style="stroke:#181818;stroke-width:1;"/><text fill="#000000" font-family="sans-serif" font-size="13" lengthAdjust="spacing" textLength="56.6274" x="1238.49" y="288.2569">p&#345;&#237;jemce</text><text fill="#000000" font-family="sans-serif" font-size="13" lengthAdjust="spacing" textLength="24.8066" x="1205.3573" y="311.2716">1..1</text></g><!--SRC=[hP4nReD044LxJZ6YjnMtLigaIPF29nYpanW3EuXTK4II8_W0bYkNAL1Ea0guLtR1W6DXMxBIhMR_V_DdHf46YH6f63rQK8m9Qav0iYJ72r4fUE0WZKXgU7S0t6fJ5YfaM9EGw9M5EmUb4r- -siy0aZGezz6VedcbrKQMFy1BXIiG1rvgL9hUjFFf73gvJmRAkSHMxWkZybzyGpIHtBP_lILTxNAFit8FCGjUOfEbitsj-CIO3cdwJelOLotFlXfMumzmHEm-PfPewGLqy-S42YDM6hLf2jH8FEgdgxyl1AO1QEAsoF7E8GKwOUbxWLb8nxRaGVEiB38Zo7ADgnI2emstmlw2zn-JoLde8BEYsNGwSwzTP6xcMnDmZDgCAK_-AJfXtZNCPlS7Puxr5dFZ50pArDDHnyq7i5qYitQwpJ-MfIzriukOised35dYqJBFdkvekHSlP_aiI9L5Y9h2VoB6zROirXHvvFu2]--></g></svg>