<svg xmlns="http://www.w3.org/2000/svg" xmlns:xlink="http://www.w3.org/1999/xlink" xmlns:lucid="lucid" width="701.82" height="544.42"><g transform="translate(-520 -4)" lucid:page-tab-id="0_0"><path d="M0 0h1760v1040H0z" fill="#f2f2f2"/><path d="M540 335.42h201.82v193H540z" stroke="#2ba9e0" stroke-width="2" fill="#fff"/><path d="M540 387.1h201.82M540 457.9h201.82" stroke="#2ba9e0" stroke-width="2" fill="none"/><use xlink:href="#a" transform="matrix(1,0,0,1,548,343.4208754208754) translate(18.1787109375 14.044921875)"/><use xlink:href="#b" transform="matrix(1,0,0,1,548,343.4208754208754) translate(95.21484375 14.044921875)"/><use xlink:href="#c" transform="matrix(1,0,0,1,548,343.4208754208754) translate(148.142578125 14.044921875)"/><use xlink:href="#d" transform="matrix(1,0,0,1,548,343.4208754208754) translate(23.27197265625 31.88671875)"/><use xlink:href="#e" transform="matrix(1,0,0,1,548,343.4208754208754) translate(72.16552734375 31.88671875)"/><use xlink:href="#f" transform="matrix(1,0,0,1,548,343.4208754208754) translate(87.34423828125 31.88671875)"/><path d="M540 24h201.82v261H540z" stroke="#2ba9e0" stroke-width="2" fill="#ccc"/><path d="M540 57.84h201.82M540 233.84h201.82" stroke="#2ba9e0" stroke-width="2" fill="none"/><use xlink:href="#a" transform="matrix(1,0,0,1,548,32) translate(30.65478515625 13.9658203125)"/><use xlink:href="#g" transform="matrix(1,0,0,1,548,32) translate(107.69091796875 13.9658203125)"/><use xlink:href="#h" transform="matrix(1,0,0,1,552,65.841796875) translate(0 23.01953125)"/><use xlink:href="#i" transform="matrix(1,0,0,1,552,65.841796875) translate(17.0068359375 23.01953125)"/><use xlink:href="#h" transform="matrix(1,0,0,1,552,65.841796875) translate(0 40.861328125)"/><use xlink:href="#j" transform="matrix(1,0,0,1,552,65.841796875) translate(17.0068359375 40.861328125)"/><use xlink:href="#h" transform="matrix(1,0,0,1,552,65.841796875) translate(0 58.703125)"/><use xlink:href="#k" transform="matrix(1,0,0,1,552,65.841796875) translate(17.0068359375 58.703125)"/><use xlink:href="#h" transform="matrix(1,0,0,1,552,65.841796875) translate(0 76.544921875)"/><use xlink:href="#l" transform="matrix(1,0,0,1,552,65.841796875) translate(17.0068359375 76.544921875)"/><use xlink:href="#h" transform="matrix(1,0,0,1,552,65.841796875) translate(0 94.38671875)"/><use xlink:href="#m" transform="matrix(1,0,0,1,552,65.841796875) translate(17.0068359375 94.38671875)"/><use xlink:href="#h" transform="matrix(1,0,0,1,552,65.841796875) translate(0 112.228515625)"/><use xlink:href="#n" transform="matrix(1,0,0,1,552,65.841796875) translate(17.0068359375 112.228515625)"/><use xlink:href="#o" transform="matrix(1,0,0,1,552,65.841796875) translate(63.5537109375 112.228515625)"/><use xlink:href="#h" transform="matrix(1,0,0,1,552,65.841796875) translate(0 130.0703125)"/><use xlink:href="#p" transform="matrix(1,0,0,1,552,65.841796875) translate(17.0068359375 130.0703125)"/><use xlink:href="#q" transform="matrix(1,0,0,1,552,65.841796875) translate(80.1650390625 130.0703125)"/><use xlink:href="#r" transform="matrix(1,0,0,1,552,65.841796875) translate(0 147.912109375)"/><path d="M640.9 333.42v-22.94" stroke="#000" stroke-width="2" fill="none"/><path d="M641.9 334.42h-2v-1.02h2z"/><path d="M640.9 287.97l12.74 21.5h-25.46z" stroke="#000" stroke-width="2" fill="#fff"/><path d="M1000 143.3h201.82v155H1000z" stroke="#2ba9e0" stroke-width="2" fill="#ccc"/><path d="M1000 177.14h201.82M1000 264.5h201.82" stroke="#2ba9e0" stroke-width="2" fill="none"/><g><use xlink:href="#s" transform="matrix(1,0,0,1,1008.0000000000001,151.29629629629625) translate(2.4287109375 13.9658203125)"/><use xlink:href="#t" transform="matrix(1,0,0,1,1008.0000000000001,151.29629629629625) translate(95.2236328125 13.9658203125)"/></g><g><use xlink:href="#h" transform="matrix(1,0,0,1,1012.0000000000001,185.13809317129625) translate(0 14.203125)"/><use xlink:href="#j" transform="matrix(1,0,0,1,1012.0000000000001,185.13809317129625) translate(17.0068359375 14.203125)"/><use xlink:href="#h" transform="matrix(1,0,0,1,1012.0000000000001,185.13809317129625) translate(0 32.044921875)"/><use xlink:href="#u" transform="matrix(1,0,0,1,1012.0000000000001,185.13809317129625) translate(17.0068359375 32.044921875)"/><use xlink:href="#h" transform="matrix(1,0,0,1,1012.0000000000001,185.13809317129625) translate(0 49.88671875)"/><use xlink:href="#v" transform="matrix(1,0,0,1,1012.0000000000001,185.13809317129625) translate(17.0068359375 49.88671875)"/><use xlink:href="#h" transform="matrix(1,0,0,1,1012.0000000000001,185.13809317129625) translate(0 67.728515625)"/><use xlink:href="#w" transform="matrix(1,0,0,1,1012.0000000000001,185.13809317129625) translate(17.0068359375 67.728515625)"/></g><path d="M743.82 373.48H890V220.8h108" stroke="#000" stroke-width="2" fill="none"/><path d="M743.84 374.48h-1.02v-2h1.02zM999 221.8h-1.03v-2H999z"/><g><use xlink:href="#x" transform="matrix(1,0,0,1,897.9999999999999,237.96710489349496) translate(0 14.4)"/></g><g><use xlink:href="#y" transform="matrix(1,0,0,1,753.3543888358093,377.48148148148147) translate(0 14.4)"/></g><g><use xlink:href="#z" transform="matrix(1,0,0,1,958.7777777777774,195.19629629629623) translate(0 14.4)"/></g><defs><path fill="#3d4752" d="M205-1489h426c365 0 548 153 548 458S998-573 635-573H478V0H205v-1489zm273 219v478h161c177 0 265-80 265-239s-88-239-265-239H478" id="A"/><path fill="#3d4752" d="M431-770V0H168v-1094h263v110c156-133 232-175 396-74l-84 220c-129-52-218-25-312 68" id="B"/><path fill="#3d4752" d="M711-687c-7-170-35-229-188-230-74 0-147 18-220 53l-88-179c111-51 229-76 353-76 303 0 405 148 405 459V0H717v-81C651-13 566 21 461 21 236 21 81-120 81-346c0-158 85-260 254-311 103-31 245-40 376-30zM326-329c0 101 84 155 189 155 91 0 157-36 196-109v-226c-23-4-49-6-78-6-205 0-307 62-307 186" id="C"/><path fill="#3d4752" d="M94-547c0-294 207-569 494-569 131 0 260 50 386 150L872-811c-96-74-188-111-277-112-163-2-225 186-225 376 0 251 82 377 246 377 81 0 168-36 260-107l103 137C862-32 733 22 593 22 292 22 94-208 94-547" id="D"/><path fill="#3d4752" d="M578-1116c196 0 337 93 423 279 40 87 60 183 60 290 0 225-77 390-230 494-74 50-158 75-253 75-197 0-338-93-424-279-40-87-60-183-60-290 0-226 77-391 231-495 73-49 158-74 253-74zm0 194c-139 0-208 125-208 375s69 375 208 375c138 0 207-125 207-375s-69-375-207-375" id="E"/><path fill="#3d4752" d="M452 0L25-1094h272l252 709 263-709h249L634 0H452" id="F"/><path fill="#3d4752" d="M783-1116c173 0 283 89 283 264V0H803v-754c0-92-46-138-139-138-73 0-151 30-233 91V0H168v-1094h263v93c117-77 234-115 352-115" id="G"/><path fill="#3d4752" d="M431-1094V0H168v-1094h263zm-31-185H207l144-315h292" id="H"/><g id="a"><use transform="matrix(0.0087890625,0,0,0.0087890625,0,0)" xlink:href="#A"/><use transform="matrix(0.0087890625,0,0,0.0087890625,11.1357421875,0)" xlink:href="#B"/><use transform="matrix(0.0087890625,0,0,0.0087890625,17.5693359375,0)" xlink:href="#C"/><use transform="matrix(0.0087890625,0,0,0.0087890625,27.474609375,0)" xlink:href="#D"/><use transform="matrix(0.0087890625,0,0,0.0087890625,36.0791015625,0)" xlink:href="#E"/><use transform="matrix(0.0087890625,0,0,0.0087890625,46.23046875,0)" xlink:href="#F"/><use transform="matrix(0.0087890625,0,0,0.0087890625,55.775390625,0)" xlink:href="#G"/><use transform="matrix(0.0087890625,0,0,0.0087890625,66.498046875,0)" xlink:href="#H"/></g><path fill="#3d4752" d="M1420-1116c172-1 282 89 282 264V0h-263v-754c0-92-46-138-138-138-75 0-153 30-235 90V0H803v-754c0-92-46-138-138-138-71 0-149 30-234 90V0H168v-1094h263v93c117-77 234-115 353-115 121 0 206 45 254 134 124-89 251-134 382-134" id="I"/><path fill="#3d4752" d="M925-326c0 213-197 348-437 348C341 22 194-16 47-93l93-183c121 69 236 103 345 103s164-42 164-127c0-41-24-75-72-100-19-10-61-25-126-44-165-49-270-109-315-179-27-41-40-94-40-158 0-210 193-335 432-335 111 0 229 34 354 103l-83 176c-101-56-191-84-271-84-107 0-161 40-161 121 0 37 23 66 70 89 16 12 285 99 327 123 105 60 161 144 161 262" id="J"/><path fill="#3d4752" d="M503-384c-2 129 8 204 107 204 41 0 91-13 150-38l66 171C737-1 639 22 533 22c-230-2-293-122-293-358v-559H42v-199h198v-395h263v395h265v199H503v511" id="K"/><g id="b"><use transform="matrix(0.0087890625,0,0,0.0087890625,0,0)" xlink:href="#I"/><use transform="matrix(0.0087890625,0,0,0.0087890625,16.3125,0)" xlink:href="#H"/><use transform="matrix(0.0087890625,0,0,0.0087890625,21.5771484375,0)" xlink:href="#J"/><use transform="matrix(0.0087890625,0,0,0.0087890625,30.4013671875,0)" xlink:href="#K"/><use transform="matrix(0.0087890625,0,0,0.0087890625,37.5029296875,0)" xlink:href="#E"/></g><path fill="#3d4752" d="M94-548c0-302 191-568 483-568 311 0 493 270 482 633H370c7 207 93 311 256 311 93 0 196-46 308-137l103 144C907-40 760 22 595 22 293 22 94-237 94-548zm282-120h403c-18-170-85-255-202-255s-184 85-201 255" id="L"/><g id="c"><use transform="matrix(0.0087890625,0,0,0.0087890625,0,0)" xlink:href="#F"/><use transform="matrix(0.0087890625,0,0,0.0087890625,9.544921875,0)" xlink:href="#L"/></g><path fill="#3d4752" d="M569-1104c358 0 489 239 478 603H279c0 228 80 381 302 387 148 6 245-68 279-165l159 46C956-74 809 23 581 23 251 23 80-187 86-546c6-347 148-558 484-558zm296 461c34-341-432-438-552-159-17 40-34 97-34 159h586zm-194-557H466c-74-102-176-171-233-290 182-11 222 114 336 171 108-57 148-182 324-171-51 119-154 188-222 290" id="M"/><path fill="#3d4752" d="M94-505c0-321 128-611 419-611 101 0 188 30 263 91v-555h263V-1H787v-91C712-16 620 22 509 22c-171 0-293-85-364-254-34-81-51-172-51-273zm682 228v-551c-64-56-127-84-189-84-145 0-218 134-218 401 0 213 68 320 203 320 69 0 137-29 204-86" id="N"/><g id="d"><use transform="matrix(0.0087890625,0,0,0.0087890625,0,0)" xlink:href="#F"/><use transform="matrix(0.0087890625,0,0,0.0087890625,9.544921875,0)" xlink:href="#M"/><use transform="matrix(0.0087890625,0,0,0.0087890625,21.2783203125,0)" xlink:href="#N"/><use transform="matrix(0.0087890625,0,0,0.0087890625,31.88671875,0)" xlink:href="#M"/></g><use transform="matrix(0.0087890625,0,0,0.0087890625,0,0)" xlink:href="#C" id="e"/><path fill="#3d4752" d="M421-36L25-1094h272l251 717 263-717h249L649 1c-97 251-201 366-459 445L96 279c173-62 281-167 325-315zm228-1243H456l144-315h292" id="O"/><path fill="#3d4752" d="M913-199V0H57v-145l540-750H116v-199h789v167L377-199h536" id="P"/><path fill="#3d4752" d="M1152 0H835L431-519V0H168v-1580h263v869l332-383h308L654-620" id="Q"/><path fill="#3d4752" d="M437 22c-177 0-283-91-283-265v-851h263v755c0 91 46 137 139 137 75 0 152-32 233-95v-797h263V0H789v-93C670-16 552 22 437 22" id="R"/><g id="f"><use transform="matrix(0.0087890625,0,0,0.0087890625,0,0)" xlink:href="#F"/><use transform="matrix(0.0087890625,0,0,0.0087890625,9.544921875,0)" xlink:href="#O"/><use transform="matrix(0.0087890625,0,0,0.0087890625,19.0810546875,0)" xlink:href="#P"/><use transform="matrix(0.0087890625,0,0,0.0087890625,27.685546875,0)" xlink:href="#Q"/><use transform="matrix(0.0087890625,0,0,0.0087890625,37.6259765625,0)" xlink:href="#R"/><use transform="matrix(0.0087890625,0,0,0.0087890625,48.3486328125,0)" xlink:href="#I"/><use transform="matrix(0.0087890625,0,0,0.0087890625,64.6611328125,0)" xlink:href="#R"/></g><g id="g"><use transform="matrix(0.0087890625,0,0,0.0087890625,0,0)" xlink:href="#I"/><use transform="matrix(0.0087890625,0,0,0.0087890625,16.3125,0)" xlink:href="#H"/><use transform="matrix(0.0087890625,0,0,0.0087890625,21.5771484375,0)" xlink:href="#J"/><use transform="matrix(0.0087890625,0,0,0.0087890625,30.4013671875,0)" xlink:href="#K"/><use transform="matrix(0.0087890625,0,0,0.0087890625,37.5029296875,0)" xlink:href="#E"/></g><path fill="#3d4752" d="M1230-642H783v452H552v-452H106v-221h446v-452h231v452h447v221" id="S"/><use transform="matrix(0.0087890625,0,0,0.0087890625,0,0)" xlink:href="#S" id="h"/><path fill="#3d4752" d="M431-1094V0H168v-1094h263zm0-190H168v-296h263v296" id="T"/><g id="i"><use transform="matrix(0.0087890625,0,0,0.0087890625,0,0)" xlink:href="#T"/><use transform="matrix(0.0087890625,0,0,0.0087890625,5.2646484375,0)" xlink:href="#B"/><use transform="matrix(0.0087890625,0,0,0.0087890625,12.4541015625,0)" xlink:href="#T"/></g><path fill="#3d4752" d="M711-687c-7-170-35-229-188-230-74 0-147 18-220 53l-88-179c111-51 229-76 353-76 303 0 405 148 405 459V0H717v-81C651-13 566 21 461 21 236 21 81-120 81-346c0-158 85-260 254-311 103-31 245-40 376-30zM326-329c0 101 84 155 189 155 91 0 157-36 196-109v-226c-23-4-49-6-78-6-205 0-307 62-307 186zm359-950H492l144-315h292" id="U"/><g id="j"><use transform="matrix(0.0087890625,0,0,0.0087890625,0,0)" xlink:href="#G"/><use transform="matrix(0.0087890625,0,0,0.0087890625,10.72265625,0)" xlink:href="#U"/><use transform="matrix(0.0087890625,0,0,0.0087890625,20.6279296875,0)" xlink:href="#P"/><use transform="matrix(0.0087890625,0,0,0.0087890625,29.232421875,0)" xlink:href="#L"/><use transform="matrix(0.0087890625,0,0,0.0087890625,39.3662109375,0)" xlink:href="#F"/></g><path fill="#3d4752" d="M690-1116c279 0 423 232 423 527 0 261-67 439-196 539C782 54 551 41 431-69v481H168v-1506h253v93c71-77 160-115 269-115zM431-810v545c64 56 127 84 189 84 145 0 218-134 218-402 0-214-68-321-203-321-71 0-139 31-204 94" id="V"/><g id="k"><use transform="matrix(0.0087890625,0,0,0.0087890625,0,0)" xlink:href="#V"/><use transform="matrix(0.0087890625,0,0,0.0087890625,10.6083984375,0)" xlink:href="#E"/><use transform="matrix(0.0087890625,0,0,0.0087890625,20.759765625,0)" xlink:href="#V"/><use transform="matrix(0.0087890625,0,0,0.0087890625,31.3681640625,0)" xlink:href="#T"/><use transform="matrix(0.0087890625,0,0,0.0087890625,36.6328125,0)" xlink:href="#J"/></g><path fill="#3d4752" d="M421-36L25-1094h272l251 717 263-717h249L649 1c-97 251-201 366-459 445L96 279c173-62 281-167 325-315" id="W"/><path fill="#3d4752" d="M649-927C205-1018 347-409 325 0H143l-6-1081h171c6 68-6 165 11 222 34-154 131-279 330-233v165zm-154-273H290c-74-102-176-171-233-290 182-11 222 114 336 171 108-57 148-182 324-171-51 119-154 188-222 290" id="X"/><g id="l"><use transform="matrix(0.0087890625,0,0,0.0087890625,0,0)" xlink:href="#F"/><use transform="matrix(0.0087890625,0,0,0.0087890625,9.544921875,0)" xlink:href="#W"/><use transform="matrix(0.0087890625,0,0,0.0087890625,19.0810546875,0)" xlink:href="#K"/><use transform="matrix(0.0087890625,0,0,0.0087890625,26.1826171875,0)" xlink:href="#F"/><use transform="matrix(0.0087890625,0,0,0.0087890625,35.7275390625,0)" xlink:href="#E"/><use transform="matrix(0.0087890625,0,0,0.0087890625,45.87890625,0)" xlink:href="#X"/><use transform="matrix(0.0087890625,0,0,0.0087890625,51.8291015625,0)" xlink:href="#L"/><use transform="matrix(0.0087890625,0,0,0.0087890625,61.962890625,0)" xlink:href="#G"/><use transform="matrix(0.0087890625,0,0,0.0087890625,72.685546875,0)" xlink:href="#E"/></g><path fill="#3d4752" d="M446 22C216 22 155-90 155-336v-1244h263v1196c0 75 6 126 18 153 27 62 110 61 177 31l67 172C603 5 525 22 446 22" id="Y"/><path fill="#3d4752" d="M784-1116c178 0 282 88 282 264V0H803v-754c0-92-46-138-138-138-74 0-152 32-234 95V0H168v-1580h263v579c117-77 234-115 353-115" id="Z"/><g id="m"><use transform="matrix(0.0087890625,0,0,0.0087890625,0,0)" xlink:href="#V"/><use transform="matrix(0.0087890625,0,0,0.0087890625,10.6083984375,0)" xlink:href="#X"/><use transform="matrix(0.0087890625,0,0,0.0087890625,16.55859375,0)" xlink:href="#H"/><use transform="matrix(0.0087890625,0,0,0.0087890625,21.8232421875,0)" xlink:href="#Y"/><use transform="matrix(0.0087890625,0,0,0.0087890625,27.5185546875,0)" xlink:href="#E"/><use transform="matrix(0.0087890625,0,0,0.0087890625,37.669921875,0)" xlink:href="#Z"/><use transform="matrix(0.0087890625,0,0,0.0087890625,48.392578125,0)" xlink:href="#C"/></g><path fill="#3d4752" d="M1113-589c0 325-126 613-421 611-108 0-198-32-271-96V0H168v-1580h263v560c76-64 164-96 265-96 269 0 417 244 417 527zM431-818v553c64 56 127 84 189 84 145 0 218-134 218-402 0-214-68-321-203-321-67 0-135 29-204 86" id="aa"/><g id="n"><use transform="matrix(0.0087890625,0,0,0.0087890625,0,0)" xlink:href="#N"/><use transform="matrix(0.0087890625,0,0,0.0087890625,10.6083984375,0)" xlink:href="#E"/><use transform="matrix(0.0087890625,0,0,0.0087890625,20.759765625,0)" xlink:href="#aa"/><use transform="matrix(0.0087890625,0,0,0.0087890625,31.3681640625,0)" xlink:href="#C"/></g><g id="o"><use transform="matrix(0.0087890625,0,0,0.0087890625,0,0)" xlink:href="#K"/><use transform="matrix(0.0087890625,0,0,0.0087890625,7.1015625,0)" xlink:href="#B"/><use transform="matrix(0.0087890625,0,0,0.0087890625,14.6513671875,0)" xlink:href="#F"/><use transform="matrix(0.0087890625,0,0,0.0087890625,23.8359375,0)" xlink:href="#U"/><use transform="matrix(0.0087890625,0,0,0.0087890625,33.7412109375,0)" xlink:href="#G"/><use transform="matrix(0.0087890625,0,0,0.0087890625,44.4638671875,0)" xlink:href="#H"/></g><g id="p"><use transform="matrix(0.0087890625,0,0,0.0087890625,0,0)" xlink:href="#G"/><use transform="matrix(0.0087890625,0,0,0.0087890625,10.72265625,0)" xlink:href="#U"/><use transform="matrix(0.0087890625,0,0,0.0087890625,20.6279296875,0)" xlink:href="#J"/><use transform="matrix(0.0087890625,0,0,0.0087890625,29.4521484375,0)" xlink:href="#K"/><use transform="matrix(0.0087890625,0,0,0.0087890625,36.5537109375,0)" xlink:href="#R"/><use transform="matrix(0.0087890625,0,0,0.0087890625,47.2763671875,0)" xlink:href="#V"/></g><g id="q"><use transform="matrix(0.0087890625,0,0,0.0087890625,0,0)" xlink:href="#T"/><use transform="matrix(0.0087890625,0,0,0.0087890625,5.2646484375,0)" xlink:href="#Z"/><use transform="matrix(0.0087890625,0,0,0.0087890625,15.9873046875,0)" xlink:href="#G"/><use transform="matrix(0.0087890625,0,0,0.0087890625,26.7099609375,0)" xlink:href="#L"/><use transform="matrix(0.0087890625,0,0,0.0087890625,36.84375,0)" xlink:href="#N"/></g><path fill="#3d4752" d="M452 0H163v-278h289V0" id="ab"/><g id="r"><use transform="matrix(0.0087890625,0,0,0.0087890625,0,0)" xlink:href="#ab"/><use transform="matrix(0.0087890625,0,0,0.0087890625,5.4052734375,0)" xlink:href="#ab"/><use transform="matrix(0.0087890625,0,0,0.0087890625,10.810546875,0)" xlink:href="#ab"/></g><path fill="#3d4752" d="M311-1489L685-377l375-1112h268L802 0H554L27-1489h284" id="ac"/><path fill="#3d4752" d="M94-548c0-302 191-568 483-568 311 0 493 270 482 633H370c7 207 93 311 256 311 93 0 196-46 308-137l103 144C907-40 760 22 595 22 293 22 94-237 94-548zm282-120h403c-18-170-85-255-202-255s-184 85-201 255zm312-611H495l144-315h292" id="ad"/><g id="s"><use transform="matrix(0.0087890625,0,0,0.0087890625,0,0)" xlink:href="#ac"/><use transform="matrix(0.0087890625,0,0,0.0087890625,11.548828125,0)" xlink:href="#O"/><use transform="matrix(0.0087890625,0,0,0.0087890625,21.0849609375,0)" xlink:href="#P"/><use transform="matrix(0.0087890625,0,0,0.0087890625,29.689453125,0)" xlink:href="#Q"/><use transform="matrix(0.0087890625,0,0,0.0087890625,39.6298828125,0)" xlink:href="#R"/><use transform="matrix(0.0087890625,0,0,0.0087890625,50.3525390625,0)" xlink:href="#I"/><use transform="matrix(0.0087890625,0,0,0.0087890625,66.6650390625,0)" xlink:href="#G"/><use transform="matrix(0.0087890625,0,0,0.0087890625,77.3876953125,0)" xlink:href="#ad"/></g><path fill="#3d4752" d="M768-814c-17-193-489-216-495 0 85 302 654 68 677 512S97 119 57-256l159-28c23 205 552 256 558 0-57-319-643-85-671-512-23-324 466-358 694-239 68 40 119 108 137 199zm-159-386H404c-74-102-176-171-233-290 182-11 222 114 336 171 108-57 148-182 324-171-51 119-154 188-222 290" id="ae"/><g id="t"><use transform="matrix(0.0087890625,0,0,0.0087890625,0,0)" xlink:href="#V"/><use transform="matrix(0.0087890625,0,0,0.0087890625,10.6083984375,0)" xlink:href="#B"/><use transform="matrix(0.0087890625,0,0,0.0087890625,17.0419921875,0)" xlink:href="#C"/><use transform="matrix(0.0087890625,0,0,0.0087890625,26.947265625,0)" xlink:href="#D"/><use transform="matrix(0.0087890625,0,0,0.0087890625,35.5517578125,0)" xlink:href="#E"/><use transform="matrix(0.0087890625,0,0,0.0087890625,45.703125,0)" xlink:href="#F"/><use transform="matrix(0.0087890625,0,0,0.0087890625,55.248046875,0)" xlink:href="#T"/><use transform="matrix(0.0087890625,0,0,0.0087890625,60.5126953125,0)" xlink:href="#ae"/><use transform="matrix(0.0087890625,0,0,0.0087890625,69.5126953125,0)" xlink:href="#K"/><use transform="matrix(0.0087890625,0,0,0.0087890625,76.6142578125,0)" xlink:href="#M"/></g><path fill="#3d4752" d="M168-1094h263V8c0 183-50 314-155 383-129 85-293 60-435-19l64-181c165 82 263 14 263-222v-1063zm263-190H168v-296h263v296" id="af"/><g id="u"><use transform="matrix(0.0087890625,0,0,0.0087890625,0,0)" xlink:href="#E"/><use transform="matrix(0.0087890625,0,0,0.0087890625,10.1513671875,0)" xlink:href="#B"/><use transform="matrix(0.0087890625,0,0,0.0087890625,17.3408203125,0)" xlink:href="#af"/><use transform="matrix(0.0087890625,0,0,0.0087890625,22.60546875,0)" xlink:href="#Q"/></g><g id="v"><use transform="matrix(0.0087890625,0,0,0.0087890625,0,0)" xlink:href="#V"/><use transform="matrix(0.0087890625,0,0,0.0087890625,10.6083984375,0)" xlink:href="#B"/><use transform="matrix(0.0087890625,0,0,0.0087890625,17.4375,0)" xlink:href="#E"/><use transform="matrix(0.0087890625,0,0,0.0087890625,27.5888671875,0)" xlink:href="#F"/><use transform="matrix(0.0087890625,0,0,0.0087890625,37.1337890625,0)" xlink:href="#E"/><use transform="matrix(0.0087890625,0,0,0.0087890625,47.28515625,0)" xlink:href="#P"/><use transform="matrix(0.0087890625,0,0,0.0087890625,55.8896484375,0)" xlink:href="#E"/><use transform="matrix(0.0087890625,0,0,0.0087890625,66.041015625,0)" xlink:href="#F"/><use transform="matrix(0.0087890625,0,0,0.0087890625,75.2255859375,0)" xlink:href="#C"/><use transform="matrix(0.0087890625,0,0,0.0087890625,85.130859375,0)" xlink:href="#K"/><use transform="matrix(0.0087890625,0,0,0.0087890625,92.232421875,0)" xlink:href="#L"/><use transform="matrix(0.0087890625,0,0,0.0087890625,102.3662109375,0)" xlink:href="#Y"/></g><path fill="#3d4752" d="M546-961c-228 0-273 188-273 415 0 228 51 427 273 427 137 0 233-80 245-216l182 11C939-114 797 23 552 23 216 23 120-210 86-540c-57-529 575-745 836-364 23 40 28 80 40 125l-182 17c-23-119-91-199-233-199zm108-239H449c-74-102-176-171-233-290 182-11 222 114 336 171 108-57 148-182 324-171-51 119-154 188-222 290" id="ag"/><g id="w"><use transform="matrix(0.0087890625,0,0,0.0087890625,0,0)" xlink:href="#J"/><use transform="matrix(0.0087890625,0,0,0.0087890625,8.82421875,0)" xlink:href="#E"/><use transform="matrix(0.0087890625,0,0,0.0087890625,18.9755859375,0)" xlink:href="#R"/><use transform="matrix(0.0087890625,0,0,0.0087890625,29.6982421875,0)" xlink:href="#ag"/><use transform="matrix(0.0087890625,0,0,0.0087890625,38.6982421875,0)" xlink:href="#U"/><use transform="matrix(0.0087890625,0,0,0.0087890625,48.603515625,0)" xlink:href="#J"/><use transform="matrix(0.0087890625,0,0,0.0087890625,57.427734375,0)" xlink:href="#K"/></g><path d="M115-194c55 1 70 41 70 98S169 2 115 4C84 4 66-9 55-30l1 105H24l-1-265h31l2 30c10-21 28-34 59-34zm-8 174c40 0 45-34 45-75s-6-73-45-74c-42 0-51 32-51 76 0 43 10 73 51 73" id="ah"/><path d="M114-163C36-179 61-72 57 0H25l-1-190h30c1 12-1 29 2 39 6-27 23-49 58-41v29" id="ai"/><path d="M141-36C126-15 110 5 73 4 37 3 15-17 15-53c-1-64 63-63 125-63 3-35-9-54-41-54-24 1-41 7-42 31l-33-3c5-37 33-52 76-52 45 0 72 20 72 64v82c-1 20 7 32 28 27v20c-31 9-61-2-59-35zM48-53c0 20 12 33 32 33 41-3 63-29 60-74-43 2-92-5-92 41" id="aj"/><path d="M96-169c-40 0-48 33-48 73s9 75 48 75c24 0 41-14 43-38l32 2c-6 37-31 61-74 61-59 0-76-41-82-99-10-93 101-131 147-64 4 7 5 14 7 22l-32 3c-4-21-16-35-41-35" id="ak"/><path d="M100-194c62-1 85 37 85 99 1 63-27 99-86 99S16-35 15-95c0-66 28-99 85-99zM99-20c44 1 53-31 53-75 0-43-8-75-51-75s-53 32-53 75 10 74 51 75" id="al"/><path d="M108 0H70L1-190h34L89-25l56-165h34" id="am"/><path d="M24-231v-30h32v30H24zM24 0v-190h32V0H24" id="an"/><path d="M135-143c-3-34-86-38-87 0 15 53 115 12 119 90S17 21 10-45l28-5c4 36 97 45 98 0-10-56-113-15-118-90-4-57 82-63 122-42 12 7 21 19 24 35zm-28-68H71c-13-18-31-30-41-51 32-2 39 20 59 30 19-10 26-32 57-30-9 21-27 33-39 51" id="ao"/><path d="M59-47c-2 24 18 29 38 22v24C64 9 27 4 27-40v-127H5v-23h24l9-43h21v43h35v23H59v120" id="ap"/><path d="M100-194c63 0 86 42 84 106H49c0 40 14 67 53 68 26 1 43-12 49-29l28 8c-11 28-37 45-77 45C44 4 14-33 15-96c1-61 26-98 85-98zm52 81c6-60-76-77-97-28-3 7-6 17-6 28h103zm-34-98H82c-13-18-31-30-41-51 32-2 39 20 59 30 19-10 26-32 57-30-9 21-27 33-39 51" id="aq"/><g id="x"><use transform="matrix(0.05,0,0,0.05,0,0)" xlink:href="#ah"/><use transform="matrix(0.05,0,0,0.05,10,0)" xlink:href="#ai"/><use transform="matrix(0.05,0,0,0.05,15.949999999999998,0)" xlink:href="#aj"/><use transform="matrix(0.05,0,0,0.05,25.950000000000003,0)" xlink:href="#ak"/><use transform="matrix(0.05,0,0,0.05,34.95,0)" xlink:href="#al"/><use transform="matrix(0.05,0,0,0.05,44.95,0)" xlink:href="#am"/><use transform="matrix(0.05,0,0,0.05,53.95,0)" xlink:href="#an"/><use transform="matrix(0.05,0,0,0.05,57.900000000000006,0)" xlink:href="#ao"/><use transform="matrix(0.05,0,0,0.05,66.9,0)" xlink:href="#ap"/><use transform="matrix(0.05,0,0,0.05,71.9,0)" xlink:href="#aq"/></g><path d="M101-251c68 0 85 55 85 127S166 4 100 4C33 4 14-52 14-124c0-73 17-127 87-127zm-1 229c47 0 54-49 54-102s-4-102-53-102c-51 0-55 48-55 102 0 53 5 102 54 102" id="ar"/><path d="M33 0v-38h34V0H33" id="as"/><path d="M80-196l47-18 7 23-49 13 32 44-20 13-27-46-27 45-21-12 33-44-49-13 8-23 47 19-2-53h23" id="at"/><g id="y"><use transform="matrix(0.05,0,0,0.05,0,0)" xlink:href="#ar"/><use transform="matrix(0.05,0,0,0.05,10,0)" xlink:href="#as"/><use transform="matrix(0.05,0,0,0.05,15,0)" xlink:href="#as"/><use transform="matrix(0.05,0,0,0.05,20,0)" xlink:href="#at"/></g><path d="M27 0v-27h64v-190l-56 39v-29l58-41h29v221h61V0H27" id="au"/><g id="z"><use transform="matrix(0.05,0,0,0.05,0,0)" xlink:href="#ar"/><use transform="matrix(0.05,0,0,0.05,10,0)" xlink:href="#as"/><use transform="matrix(0.05,0,0,0.05,15,0)" xlink:href="#as"/><use transform="matrix(0.05,0,0,0.05,20,0)" xlink:href="#au"/></g></defs></g></svg>