<svg xmlns="http://www.w3.org/2000/svg" xmlns:xlink="http://www.w3.org/1999/xlink" xmlns:lucid="lucid" width="1181.82" height="850"><g transform="translate(-40 -4)" lucid:page-tab-id="0_0"><path d="M0 0h1760v1040H0z" fill="#f2f2f2"/><path d="M540 335.42h201.82v193H540z" stroke="#2ba9e0" stroke-width="2" fill="#fff"/><path d="M540 387.1h201.82M540 457.9h201.82" stroke="#2ba9e0" stroke-width="2" fill="none"/><use xlink:href="#a" transform="matrix(1,0,0,1,548,343.4208754208754) translate(18.1787109375 14.044921875)"/><use xlink:href="#b" transform="matrix(1,0,0,1,548,343.4208754208754) translate(95.21484375 14.044921875)"/><use xlink:href="#c" transform="matrix(1,0,0,1,548,343.4208754208754) translate(148.142578125 14.044921875)"/><use xlink:href="#d" transform="matrix(1,0,0,1,548,343.4208754208754) translate(23.27197265625 31.88671875)"/><use xlink:href="#e" transform="matrix(1,0,0,1,548,343.4208754208754) translate(72.16552734375 31.88671875)"/><use xlink:href="#f" transform="matrix(1,0,0,1,548,343.4208754208754) translate(87.34423828125 31.88671875)"/><path d="M60 315.7h201.82v136H60z" stroke="#2ba9e0" stroke-width="2" fill="#ccc"/><path d="M60 349.55h201.82M60 400.65h201.82" stroke="#2ba9e0" stroke-width="2" fill="none"/><use xlink:href="#g" transform="matrix(1,0,0,1,68,323.70370370370375) translate(45.0205078125 13.9658203125)"/><use xlink:href="#h" transform="matrix(1,0,0,1,68,323.70370370370375) translate(91.171875 13.9658203125)"/><use xlink:href="#i" transform="matrix(1,0,0,1,72,357.54550057870375) translate(0 22.9658203125)"/><use xlink:href="#j" transform="matrix(1,0,0,1,72,357.54550057870375) translate(17.0068359375 22.9658203125)"/><path d="M538 388.27H263.82" stroke="#000" stroke-width="2" fill="none"/><path d="M539 389.27h-1.03v-2H539zM263.84 389.27h-1.02v-2h1.02z"/><use xlink:href="#k" transform="matrix(1,0,0,1,511.00901403457,362.6738496071829) translate(0 14.4)"/><use xlink:href="#k" transform="matrix(1,0,0,1,280.1098819267669,392.2738496071829) translate(0 14.4)"/><use xlink:href="#l" transform="matrix(1,0,0,1,372.69143302180686,392.2738496071829) translate(0 14.4)"/><use xlink:href="#m" transform="matrix(1,0,0,1,372.69143302180686,392.2738496071829) translate(40.95 14.4)"/><path d="M540 24h201.82v261H540z" stroke="#2ba9e0" stroke-width="2" fill="#ccc"/><path d="M540 57.84h201.82M540 233.84h201.82" stroke="#2ba9e0" stroke-width="2" fill="none"/><use xlink:href="#a" transform="matrix(1,0,0,1,548,32) translate(30.65478515625 13.9658203125)"/><use xlink:href="#n" transform="matrix(1,0,0,1,548,32) translate(107.69091796875 13.9658203125)"/><use xlink:href="#i" transform="matrix(1,0,0,1,552,65.841796875) translate(0 23.01953125)"/><use xlink:href="#o" transform="matrix(1,0,0,1,552,65.841796875) translate(17.0068359375 23.01953125)"/><use xlink:href="#i" transform="matrix(1,0,0,1,552,65.841796875) translate(0 40.861328125)"/><use xlink:href="#p" transform="matrix(1,0,0,1,552,65.841796875) translate(17.0068359375 40.861328125)"/><use xlink:href="#i" transform="matrix(1,0,0,1,552,65.841796875) translate(0 58.703125)"/><use xlink:href="#q" transform="matrix(1,0,0,1,552,65.841796875) translate(17.0068359375 58.703125)"/><use xlink:href="#i" transform="matrix(1,0,0,1,552,65.841796875) translate(0 76.544921875)"/><use xlink:href="#r" transform="matrix(1,0,0,1,552,65.841796875) translate(17.0068359375 76.544921875)"/><use xlink:href="#i" transform="matrix(1,0,0,1,552,65.841796875) translate(0 94.38671875)"/><use xlink:href="#s" transform="matrix(1,0,0,1,552,65.841796875) translate(17.0068359375 94.38671875)"/><use xlink:href="#i" transform="matrix(1,0,0,1,552,65.841796875) translate(0 112.228515625)"/><use xlink:href="#t" transform="matrix(1,0,0,1,552,65.841796875) translate(17.0068359375 112.228515625)"/><use xlink:href="#u" transform="matrix(1,0,0,1,552,65.841796875) translate(63.5537109375 112.228515625)"/><use xlink:href="#i" transform="matrix(1,0,0,1,552,65.841796875) translate(0 130.0703125)"/><use xlink:href="#v" transform="matrix(1,0,0,1,552,65.841796875) translate(17.0068359375 130.0703125)"/><use xlink:href="#w" transform="matrix(1,0,0,1,552,65.841796875) translate(80.1650390625 130.0703125)"/><use xlink:href="#x" transform="matrix(1,0,0,1,552,65.841796875) translate(0 147.912109375)"/><path d="M640.9 333.42v-22.94" stroke="#000" stroke-width="2" fill="none"/><path d="M641.9 334.42h-2v-1.02h2z"/><path d="M640.9 287.97l12.74 21.5h-25.46z" stroke="#000" stroke-width="2" fill="#fff"/><path d="M1000 392.42h201.82v136H1000z" stroke="#2ba9e0" stroke-width="2" fill="#ccc"/><path d="M1000 426.26h201.82M1000 477.38h201.82" stroke="#2ba9e0" stroke-width="2" fill="none"/><use xlink:href="#g" transform="matrix(1,0,0,1,1008.0000000000001,400.4208754208754) translate(46.55419921875 13.9658203125)"/><use xlink:href="#y" transform="matrix(1,0,0,1,1008.0000000000001,400.4208754208754) translate(92.70556640625 13.9658203125)"/><use xlink:href="#i" transform="matrix(1,0,0,1,1012.0000000000001,434.2626722958754) translate(0 22.9658203125)"/><use xlink:href="#j" transform="matrix(1,0,0,1,1012.0000000000001,434.2626722958754) translate(17.0068359375 22.9658203125)"/><path d="M743.82 463.32H998" stroke="#000" stroke-width="2" fill="none"/><path d="M743.84 464.32h-1.02v-2h1.02zM999 464.32h-1.03v-2H999z"/><use xlink:href="#k" transform="matrix(1,0,0,1,752.8703703703704,467.31754018169113) translate(0 14.4)"/><use xlink:href="#k" transform="matrix(1,0,0,1,970.7704378555756,437.71754018169116) translate(0 14.4)"/><use xlink:href="#l" transform="matrix(1,0,0,1,839.8777777777774,467.31754018169113) translate(0 14.4)"/><use xlink:href="#z" transform="matrix(1,0,0,1,839.8777777777774,467.31754018169113) translate(40.95 14.4)"/><path d="M360 680h201.82v154H360z" stroke="#2ba9e0" stroke-width="2" fill="#ccc"/><path d="M360 731.68h201.82M360 782.8h201.82" stroke="#2ba9e0" stroke-width="2" fill="none"/><use xlink:href="#A" transform="matrix(1,0,0,1,368,688) translate(3.81298828125 14.044921875)"/><use xlink:href="#B" transform="matrix(1,0,0,1,368,688) translate(37.39599609375 14.044921875)"/><use xlink:href="#C" transform="matrix(1,0,0,1,368,688) translate(134.77880859375 14.044921875)"/><use xlink:href="#D" transform="matrix(1,0,0,1,368,688) translate(26.2470703125 31.88671875)"/><use xlink:href="#E" transform="matrix(1,0,0,1,368,688) translate(52.1484375 31.88671875)"/><use xlink:href="#F" transform="matrix(1,0,0,1,368,688) translate(115.1923828125 31.88671875)"/><g><use xlink:href="#i" transform="matrix(1,0,0,1,372,739.68359375) translate(0 22.9658203125)"/><use xlink:href="#j" transform="matrix(1,0,0,1,372,739.68359375) translate(17.0068359375 22.9658203125)"/></g><path d="M610.5 530.42V600H460l.9 78" stroke="#000" stroke-width="2" fill="none"/><path d="M611.5 530.45h-2v-1.03h2zM461.9 679h-2v-1l2-.04z"/><g><use xlink:href="#k" transform="matrix(1,0,0,1,575.4882154882156,533.9364776695036) translate(0 14.4)"/></g><g><use xlink:href="#G" transform="matrix(1,0,0,1,468.53479474662043,635.6188686152742) translate(0 14.4)"/></g><g><use xlink:href="#H" transform="matrix(1,0,0,1,215.3656161679606,578.0792495330221) translate(0 14.4)"/><use xlink:href="#I" transform="matrix(1,0,0,1,215.3656161679606,578.0792495330221) translate(29 14.4)"/><use xlink:href="#J" transform="matrix(1,0,0,1,215.3656161679606,578.0792495330221) translate(122.95 14.4)"/><use xlink:href="#K" transform="matrix(1,0,0,1,215.3656161679606,578.0792495330221) translate(171.9 14.4)"/><use xlink:href="#L" transform="matrix(1,0,0,1,215.3656161679606,578.0792495330221) translate(196.9 14.4)"/><use xlink:href="#M" transform="matrix(1,0,0,1,215.3656161679606,578.0792495330221) translate(257.9 14.4)"/></g><path d="M760 680h201.82v154H760z" stroke="#2ba9e0" stroke-width="2" fill="#ccc"/><path d="M760 731.68h201.82M760 782.8h201.82" stroke="#2ba9e0" stroke-width="2" fill="none"/><g><use xlink:href="#A" transform="matrix(1,0,0,1,768,688) translate(3.81298828125 14.044921875)"/><use xlink:href="#B" transform="matrix(1,0,0,1,768,688) translate(37.39599609375 14.044921875)"/><use xlink:href="#C" transform="matrix(1,0,0,1,768,688) translate(134.77880859375 14.044921875)"/><use xlink:href="#D" transform="matrix(1,0,0,1,768,688) translate(6.79248046875 31.88671875)"/><use xlink:href="#N" transform="matrix(1,0,0,1,768,688) translate(32.69384765625 31.88671875)"/><use xlink:href="#O" transform="matrix(1,0,0,1,768,688) translate(117.30615234375 31.88671875)"/><use xlink:href="#P" transform="matrix(1,0,0,1,768,688) translate(154.46630859375 31.88671875)"/></g><g><use xlink:href="#i" transform="matrix(1,0,0,1,772,739.68359375) translate(0 22.9658203125)"/><use xlink:href="#j" transform="matrix(1,0,0,1,772,739.68359375) translate(17.0068359375 22.9658203125)"/></g><path d="M699.12 530.42L700 600h160.9v78" stroke="#000" stroke-width="2" fill="none"/><path d="M700.12 530.43l-2 .03v-1.04h2zM861.9 679h-2v-1.03h2z"/><g><use xlink:href="#k" transform="matrix(1,0,0,1,664.311534873247,534.5989789626778) translate(0 14.4)"/></g><g><use xlink:href="#G" transform="matrix(1,0,0,1,868.9090909090908,634.4991099622196) translate(0 14.4)"/></g><g><use xlink:href="#H" transform="matrix(1,0,0,1,731.8787754392054,575.7526256807014) translate(0 14.4)"/><use xlink:href="#I" transform="matrix(1,0,0,1,731.8787754392054,575.7526256807014) translate(29 14.4)"/><use xlink:href="#J" transform="matrix(1,0,0,1,731.8787754392054,575.7526256807014) translate(122.95 14.4)"/><use xlink:href="#K" transform="matrix(1,0,0,1,731.8787754392054,575.7526256807014) translate(171.9 14.4)"/><use xlink:href="#Q" transform="matrix(1,0,0,1,731.8787754392054,575.7526256807014) translate(196.9 14.4)"/><use xlink:href="#R" transform="matrix(1,0,0,1,731.8787754392054,575.7526256807014) translate(275.75 14.4)"/><use xlink:href="#S" transform="matrix(1,0,0,1,731.8787754392054,575.7526256807014) translate(309.75 14.4)"/></g><path d="M1000 143.3h201.82v155H1000z" stroke="#2ba9e0" stroke-width="2" fill="#ccc"/><path d="M1000 177.14h201.82M1000 264.5h201.82" stroke="#2ba9e0" stroke-width="2" fill="none"/><g><use xlink:href="#T" transform="matrix(1,0,0,1,1008.0000000000001,151.29629629629625) translate(2.4287109375 13.9658203125)"/><use xlink:href="#U" transform="matrix(1,0,0,1,1008.0000000000001,151.29629629629625) translate(95.2236328125 13.9658203125)"/></g><g><use xlink:href="#i" transform="matrix(1,0,0,1,1012.0000000000001,185.13809317129625) translate(0 14.203125)"/><use xlink:href="#p" transform="matrix(1,0,0,1,1012.0000000000001,185.13809317129625) translate(17.0068359375 14.203125)"/><use xlink:href="#i" transform="matrix(1,0,0,1,1012.0000000000001,185.13809317129625) translate(0 32.044921875)"/><use xlink:href="#V" transform="matrix(1,0,0,1,1012.0000000000001,185.13809317129625) translate(17.0068359375 32.044921875)"/><use xlink:href="#i" transform="matrix(1,0,0,1,1012.0000000000001,185.13809317129625) translate(0 49.88671875)"/><use xlink:href="#W" transform="matrix(1,0,0,1,1012.0000000000001,185.13809317129625) translate(17.0068359375 49.88671875)"/><use xlink:href="#i" transform="matrix(1,0,0,1,1012.0000000000001,185.13809317129625) translate(0 67.728515625)"/><use xlink:href="#X" transform="matrix(1,0,0,1,1012.0000000000001,185.13809317129625) translate(17.0068359375 67.728515625)"/></g><path d="M743.82 373.48H890V220.8h108" stroke="#000" stroke-width="2" fill="none"/><path d="M743.84 374.48h-1.02v-2h1.02zM999 221.8h-1.03v-2H999z"/><g><use xlink:href="#Y" transform="matrix(1,0,0,1,897.9999999999999,237.96710489349496) translate(0 14.4)"/></g><g><use xlink:href="#k" transform="matrix(1,0,0,1,753.3543888358093,377.48148148148147) translate(0 14.4)"/></g><g><use xlink:href="#G" transform="matrix(1,0,0,1,958.7777777777774,195.19629629629623) translate(0 14.4)"/></g><defs><path fill="#3d4752" d="M205-1489h426c365 0 548 153 548 458S998-573 635-573H478V0H205v-1489zm273 219v478h161c177 0 265-80 265-239s-88-239-265-239H478" id="Z"/><path fill="#3d4752" d="M431-770V0H168v-1094h263v110c156-133 232-175 396-74l-84 220c-129-52-218-25-312 68" id="aa"/><path fill="#3d4752" d="M711-687c-7-170-35-229-188-230-74 0-147 18-220 53l-88-179c111-51 229-76 353-76 303 0 405 148 405 459V0H717v-81C651-13 566 21 461 21 236 21 81-120 81-346c0-158 85-260 254-311 103-31 245-40 376-30zM326-329c0 101 84 155 189 155 91 0 157-36 196-109v-226c-23-4-49-6-78-6-205 0-307 62-307 186" id="ab"/><path fill="#3d4752" d="M94-547c0-294 207-569 494-569 131 0 260 50 386 150L872-811c-96-74-188-111-277-112-163-2-225 186-225 376 0 251 82 377 246 377 81 0 168-36 260-107l103 137C862-32 733 22 593 22 292 22 94-208 94-547" id="ac"/><path fill="#3d4752" d="M578-1116c196 0 337 93 423 279 40 87 60 183 60 290 0 225-77 390-230 494-74 50-158 75-253 75-197 0-338-93-424-279-40-87-60-183-60-290 0-226 77-391 231-495 73-49 158-74 253-74zm0 194c-139 0-208 125-208 375s69 375 208 375c138 0 207-125 207-375s-69-375-207-375" id="ad"/><path fill="#3d4752" d="M452 0L25-1094h272l252 709 263-709h249L634 0H452" id="ae"/><path fill="#3d4752" d="M783-1116c173 0 283 89 283 264V0H803v-754c0-92-46-138-139-138-73 0-151 30-233 91V0H168v-1094h263v93c117-77 234-115 352-115" id="af"/><path fill="#3d4752" d="M431-1094V0H168v-1094h263zm-31-185H207l144-315h292" id="ag"/><g id="a"><use transform="matrix(0.0087890625,0,0,0.0087890625,0,0)" xlink:href="#Z"/><use transform="matrix(0.0087890625,0,0,0.0087890625,11.1357421875,0)" xlink:href="#aa"/><use transform="matrix(0.0087890625,0,0,0.0087890625,17.5693359375,0)" xlink:href="#ab"/><use transform="matrix(0.0087890625,0,0,0.0087890625,27.474609375,0)" xlink:href="#ac"/><use transform="matrix(0.0087890625,0,0,0.0087890625,36.0791015625,0)" xlink:href="#ad"/><use transform="matrix(0.0087890625,0,0,0.0087890625,46.23046875,0)" xlink:href="#ae"/><use transform="matrix(0.0087890625,0,0,0.0087890625,55.775390625,0)" xlink:href="#af"/><use transform="matrix(0.0087890625,0,0,0.0087890625,66.498046875,0)" xlink:href="#ag"/></g><path fill="#3d4752" d="M1420-1116c172-1 282 89 282 264V0h-263v-754c0-92-46-138-138-138-75 0-153 30-235 90V0H803v-754c0-92-46-138-138-138-71 0-149 30-234 90V0H168v-1094h263v93c117-77 234-115 353-115 121 0 206 45 254 134 124-89 251-134 382-134" id="ah"/><path fill="#3d4752" d="M925-326c0 213-197 348-437 348C341 22 194-16 47-93l93-183c121 69 236 103 345 103s164-42 164-127c0-41-24-75-72-100-19-10-61-25-126-44-165-49-270-109-315-179-27-41-40-94-40-158 0-210 193-335 432-335 111 0 229 34 354 103l-83 176c-101-56-191-84-271-84-107 0-161 40-161 121 0 37 23 66 70 89 16 12 285 99 327 123 105 60 161 144 161 262" id="ai"/><path fill="#3d4752" d="M503-384c-2 129 8 204 107 204 41 0 91-13 150-38l66 171C737-1 639 22 533 22c-230-2-293-122-293-358v-559H42v-199h198v-395h263v395h265v199H503v511" id="aj"/><g id="b"><use transform="matrix(0.0087890625,0,0,0.0087890625,0,0)" xlink:href="#ah"/><use transform="matrix(0.0087890625,0,0,0.0087890625,16.3125,0)" xlink:href="#ag"/><use transform="matrix(0.0087890625,0,0,0.0087890625,21.5771484375,0)" xlink:href="#ai"/><use transform="matrix(0.0087890625,0,0,0.0087890625,30.4013671875,0)" xlink:href="#aj"/><use transform="matrix(0.0087890625,0,0,0.0087890625,37.5029296875,0)" xlink:href="#ad"/></g><path fill="#3d4752" d="M94-548c0-302 191-568 483-568 311 0 493 270 482 633H370c7 207 93 311 256 311 93 0 196-46 308-137l103 144C907-40 760 22 595 22 293 22 94-237 94-548zm282-120h403c-18-170-85-255-202-255s-184 85-201 255" id="ak"/><g id="c"><use transform="matrix(0.0087890625,0,0,0.0087890625,0,0)" xlink:href="#ae"/><use transform="matrix(0.0087890625,0,0,0.0087890625,9.544921875,0)" xlink:href="#ak"/></g><path fill="#3d4752" d="M569-1104c358 0 489 239 478 603H279c0 228 80 381 302 387 148 6 245-68 279-165l159 46C956-74 809 23 581 23 251 23 80-187 86-546c6-347 148-558 484-558zm296 461c34-341-432-438-552-159-17 40-34 97-34 159h586zm-194-557H466c-74-102-176-171-233-290 182-11 222 114 336 171 108-57 148-182 324-171-51 119-154 188-222 290" id="al"/><path fill="#3d4752" d="M94-505c0-321 128-611 419-611 101 0 188 30 263 91v-555h263V-1H787v-91C712-16 620 22 509 22c-171 0-293-85-364-254-34-81-51-172-51-273zm682 228v-551c-64-56-127-84-189-84-145 0-218 134-218 401 0 213 68 320 203 320 69 0 137-29 204-86" id="am"/><g id="d"><use transform="matrix(0.0087890625,0,0,0.0087890625,0,0)" xlink:href="#ae"/><use transform="matrix(0.0087890625,0,0,0.0087890625,9.544921875,0)" xlink:href="#al"/><use transform="matrix(0.0087890625,0,0,0.0087890625,21.2783203125,0)" xlink:href="#am"/><use transform="matrix(0.0087890625,0,0,0.0087890625,31.88671875,0)" xlink:href="#al"/></g><use transform="matrix(0.0087890625,0,0,0.0087890625,0,0)" xlink:href="#ab" id="e"/><path fill="#3d4752" d="M421-36L25-1094h272l251 717 263-717h249L649 1c-97 251-201 366-459 445L96 279c173-62 281-167 325-315zm228-1243H456l144-315h292" id="an"/><path fill="#3d4752" d="M913-199V0H57v-145l540-750H116v-199h789v167L377-199h536" id="ao"/><path fill="#3d4752" d="M1152 0H835L431-519V0H168v-1580h263v869l332-383h308L654-620" id="ap"/><path fill="#3d4752" d="M437 22c-177 0-283-91-283-265v-851h263v755c0 91 46 137 139 137 75 0 152-32 233-95v-797h263V0H789v-93C670-16 552 22 437 22" id="aq"/><g id="f"><use transform="matrix(0.0087890625,0,0,0.0087890625,0,0)" xlink:href="#ae"/><use transform="matrix(0.0087890625,0,0,0.0087890625,9.544921875,0)" xlink:href="#an"/><use transform="matrix(0.0087890625,0,0,0.0087890625,19.0810546875,0)" xlink:href="#ao"/><use transform="matrix(0.0087890625,0,0,0.0087890625,27.685546875,0)" xlink:href="#ap"/><use transform="matrix(0.0087890625,0,0,0.0087890625,37.6259765625,0)" xlink:href="#aq"/><use transform="matrix(0.0087890625,0,0,0.0087890625,48.3486328125,0)" xlink:href="#ah"/><use transform="matrix(0.0087890625,0,0,0.0087890625,64.6611328125,0)" xlink:href="#aq"/></g><path fill="#3d4752" d="M413-1411c192-134 466-131 654 5 174 126 303 370 302 662-1 301-123 542-306 668C871 56 592 54 403-80 225-206 101-446 102-744c2-299 128-540 311-667zm623 951c106-314 22-833-300-833-233 0-343 288-343 549 0 222 54 382 163 479 52 47 112 70 180 70 139 0 240-88 300-265" id="ar"/><path fill="#3d4752" d="M1113-589c0 325-126 613-421 611-108 0-198-32-271-96V0H168v-1580h263v560c76-64 164-96 265-96 269 0 417 244 417 527zM431-818v553c64 56 127 84 189 84 145 0 218-134 218-402 0-214-68-321-203-321-67 0-135 29-204 86" id="as"/><g id="g"><use transform="matrix(0.0087890625,0,0,0.0087890625,0,0)" xlink:href="#ar"/><use transform="matrix(0.0087890625,0,0,0.0087890625,12.9287109375,0)" xlink:href="#as"/><use transform="matrix(0.0087890625,0,0,0.0087890625,23.537109375,0)" xlink:href="#ad"/><use transform="matrix(0.0087890625,0,0,0.0087890625,33.6884765625,0)" xlink:href="#aa"/></g><path fill="#3d4752" d="M538-189h170V0H95v-189h170v-1111H95v-189h613v189H538v1111" id="at"/><path fill="#3d4752" d="M183-342c139 97 272 144 401 141 177-5 266-73 266-205 0-83-46-143-137-186-66-31-351-127-423-171-120-74-184-178-184-324 0-181 82-309 250-380 237-100 547-49 724 90l-107 195c-117-70-238-105-361-105-149 0-223 63-223 189 0 81 64 140 191 179 19 5 54 16 105 32 192 62 321 144 388 246 41 63 61 141 61 234 0 173-87 302-265 376C603 79 286 20 77-135" id="au"/><path fill="#3d4752" d="M311-1489L685-377l375-1112h268L802 0H554L27-1489h284" id="av"/><g id="h"><use transform="matrix(0.0087890625,0,0,0.0087890625,0,0)" xlink:href="#at"/><use transform="matrix(0.0087890625,0,0,0.0087890625,7.0576171875,0)" xlink:href="#au"/><use transform="matrix(0.0087890625,0,0,0.0087890625,17.841796875,0)" xlink:href="#av"/><use transform="matrix(0.0087890625,0,0,0.0087890625,27.9931640625,0)" xlink:href="#ab"/><use transform="matrix(0.0087890625,0,0,0.0087890625,37.8984375,0)" xlink:href="#av"/></g><path fill="#3d4752" d="M1230-642H783v452H552v-452H106v-221h446v-452h231v452h447v221" id="aw"/><use transform="matrix(0.0087890625,0,0,0.0087890625,0,0)" xlink:href="#aw" id="i"/><path fill="#3d4752" d="M431-1094V0H168v-1094h263zm0-190H168v-296h263v296" id="ax"/><g id="j"><use transform="matrix(0.0087890625,0,0,0.0087890625,0,0)" xlink:href="#ax"/><use transform="matrix(0.0087890625,0,0,0.0087890625,5.2646484375,0)" xlink:href="#aa"/><use transform="matrix(0.0087890625,0,0,0.0087890625,12.4541015625,0)" xlink:href="#ax"/></g><path d="M101-251c68 0 85 55 85 127S166 4 100 4C33 4 14-52 14-124c0-73 17-127 87-127zm-1 229c47 0 54-49 54-102s-4-102-53-102c-51 0-55 48-55 102 0 53 5 102 54 102" id="ay"/><path d="M33 0v-38h34V0H33" id="az"/><path d="M80-196l47-18 7 23-49 13 32 44-20 13-27-46-27 45-21-12 33-44-49-13 8-23 47 19-2-53h23" id="aA"/><g id="k"><use transform="matrix(0.05,0,0,0.05,0,0)" xlink:href="#ay"/><use transform="matrix(0.05,0,0,0.05,10,0)" xlink:href="#az"/><use transform="matrix(0.05,0,0,0.05,15,0)" xlink:href="#az"/><use transform="matrix(0.05,0,0,0.05,20,0)" xlink:href="#aA"/></g><path d="M100-194c62-1 85 37 85 99 1 63-27 99-86 99S16-35 15-95c0-66 28-99 85-99zM99-20c44 1 53-31 53-75 0-43-8-75-51-75s-53 32-53 75 10 74 51 75" id="aB"/><path d="M115-194c53 0 69 39 70 98 0 66-23 100-70 100C84 3 66-7 56-30L54 0H23l1-261h32v101c10-23 28-34 59-34zm-8 174c40 0 45-34 45-75 0-40-5-75-45-74-42 0-51 32-51 76 0 43 10 73 51 73" id="aC"/><path d="M114-163C36-179 61-72 57 0H25l-1-190h30c1 12-1 29 2 39 6-27 23-49 58-41v29" id="aD"/><g id="l"><use transform="matrix(0.05,0,0,0.05,0,0)" xlink:href="#aB"/><use transform="matrix(0.05,0,0,0.05,10,0)" xlink:href="#aC"/><use transform="matrix(0.05,0,0,0.05,20,0)" xlink:href="#aB"/><use transform="matrix(0.05,0,0,0.05,30,0)" xlink:href="#aD"/></g><path d="M33 0v-248h34V0H33" id="aE"/><path d="M185-189c-5-48-123-54-124 2 14 75 158 14 163 119 3 78-121 87-175 55-17-10-28-26-33-46l33-7c5 56 141 63 141-1 0-78-155-14-162-118-5-82 145-84 179-34 5 7 8 16 11 25" id="aF"/><path d="M137 0h-34L2-248h35l83 218 83-218h36" id="aG"/><path d="M141-36C126-15 110 5 73 4 37 3 15-17 15-53c-1-64 63-63 125-63 3-35-9-54-41-54-24 1-41 7-42 31l-33-3c5-37 33-52 76-52 45 0 72 20 72 64v82c-1 20 7 32 28 27v20c-31 9-61-2-59-35zM48-53c0 20 12 33 32 33 41-3 63-29 60-74-43 2-92-5-92 41" id="aH"/><g id="m"><use transform="matrix(0.05,0,0,0.05,0,0)" xlink:href="#aE"/><use transform="matrix(0.05,0,0,0.05,5,0)" xlink:href="#aF"/><use transform="matrix(0.05,0,0,0.05,17,0)" xlink:href="#aG"/><use transform="matrix(0.05,0,0,0.05,27.649999999999995,0)" xlink:href="#aH"/><use transform="matrix(0.05,0,0,0.05,37.65,0)" xlink:href="#aG"/></g><g id="n"><use transform="matrix(0.0087890625,0,0,0.0087890625,0,0)" xlink:href="#ah"/><use transform="matrix(0.0087890625,0,0,0.0087890625,16.3125,0)" xlink:href="#ag"/><use transform="matrix(0.0087890625,0,0,0.0087890625,21.5771484375,0)" xlink:href="#ai"/><use transform="matrix(0.0087890625,0,0,0.0087890625,30.4013671875,0)" xlink:href="#aj"/><use transform="matrix(0.0087890625,0,0,0.0087890625,37.5029296875,0)" xlink:href="#ad"/></g><g id="o"><use transform="matrix(0.0087890625,0,0,0.0087890625,0,0)" xlink:href="#ax"/><use transform="matrix(0.0087890625,0,0,0.0087890625,5.2646484375,0)" xlink:href="#aa"/><use transform="matrix(0.0087890625,0,0,0.0087890625,12.4541015625,0)" xlink:href="#ax"/></g><path fill="#3d4752" d="M711-687c-7-170-35-229-188-230-74 0-147 18-220 53l-88-179c111-51 229-76 353-76 303 0 405 148 405 459V0H717v-81C651-13 566 21 461 21 236 21 81-120 81-346c0-158 85-260 254-311 103-31 245-40 376-30zM326-329c0 101 84 155 189 155 91 0 157-36 196-109v-226c-23-4-49-6-78-6-205 0-307 62-307 186zm359-950H492l144-315h292" id="aI"/><g id="p"><use transform="matrix(0.0087890625,0,0,0.0087890625,0,0)" xlink:href="#af"/><use transform="matrix(0.0087890625,0,0,0.0087890625,10.72265625,0)" xlink:href="#aI"/><use transform="matrix(0.0087890625,0,0,0.0087890625,20.6279296875,0)" xlink:href="#ao"/><use transform="matrix(0.0087890625,0,0,0.0087890625,29.232421875,0)" xlink:href="#ak"/><use transform="matrix(0.0087890625,0,0,0.0087890625,39.3662109375,0)" xlink:href="#ae"/></g><path fill="#3d4752" d="M690-1116c279 0 423 232 423 527 0 261-67 439-196 539C782 54 551 41 431-69v481H168v-1506h253v93c71-77 160-115 269-115zM431-810v545c64 56 127 84 189 84 145 0 218-134 218-402 0-214-68-321-203-321-71 0-139 31-204 94" id="aJ"/><g id="q"><use transform="matrix(0.0087890625,0,0,0.0087890625,0,0)" xlink:href="#aJ"/><use transform="matrix(0.0087890625,0,0,0.0087890625,10.6083984375,0)" xlink:href="#ad"/><use transform="matrix(0.0087890625,0,0,0.0087890625,20.759765625,0)" xlink:href="#aJ"/><use transform="matrix(0.0087890625,0,0,0.0087890625,31.3681640625,0)" xlink:href="#ax"/><use transform="matrix(0.0087890625,0,0,0.0087890625,36.6328125,0)" xlink:href="#ai"/></g><path fill="#3d4752" d="M421-36L25-1094h272l251 717 263-717h249L649 1c-97 251-201 366-459 445L96 279c173-62 281-167 325-315" id="aK"/><path fill="#3d4752" d="M649-927C205-1018 347-409 325 0H143l-6-1081h171c6 68-6 165 11 222 34-154 131-279 330-233v165zm-154-273H290c-74-102-176-171-233-290 182-11 222 114 336 171 108-57 148-182 324-171-51 119-154 188-222 290" id="aL"/><g id="r"><use transform="matrix(0.0087890625,0,0,0.0087890625,0,0)" xlink:href="#ae"/><use transform="matrix(0.0087890625,0,0,0.0087890625,9.544921875,0)" xlink:href="#aK"/><use transform="matrix(0.0087890625,0,0,0.0087890625,19.0810546875,0)" xlink:href="#aj"/><use transform="matrix(0.0087890625,0,0,0.0087890625,26.1826171875,0)" xlink:href="#ae"/><use transform="matrix(0.0087890625,0,0,0.0087890625,35.7275390625,0)" xlink:href="#ad"/><use transform="matrix(0.0087890625,0,0,0.0087890625,45.87890625,0)" xlink:href="#aL"/><use transform="matrix(0.0087890625,0,0,0.0087890625,51.8291015625,0)" xlink:href="#ak"/><use transform="matrix(0.0087890625,0,0,0.0087890625,61.962890625,0)" xlink:href="#af"/><use transform="matrix(0.0087890625,0,0,0.0087890625,72.685546875,0)" xlink:href="#ad"/></g><path fill="#3d4752" d="M446 22C216 22 155-90 155-336v-1244h263v1196c0 75 6 126 18 153 27 62 110 61 177 31l67 172C603 5 525 22 446 22" id="aM"/><path fill="#3d4752" d="M784-1116c178 0 282 88 282 264V0H803v-754c0-92-46-138-138-138-74 0-152 32-234 95V0H168v-1580h263v579c117-77 234-115 353-115" id="aN"/><g id="s"><use transform="matrix(0.0087890625,0,0,0.0087890625,0,0)" xlink:href="#aJ"/><use transform="matrix(0.0087890625,0,0,0.0087890625,10.6083984375,0)" xlink:href="#aL"/><use transform="matrix(0.0087890625,0,0,0.0087890625,16.55859375,0)" xlink:href="#ag"/><use transform="matrix(0.0087890625,0,0,0.0087890625,21.8232421875,0)" xlink:href="#aM"/><use transform="matrix(0.0087890625,0,0,0.0087890625,27.5185546875,0)" xlink:href="#ad"/><use transform="matrix(0.0087890625,0,0,0.0087890625,37.669921875,0)" xlink:href="#aN"/><use transform="matrix(0.0087890625,0,0,0.0087890625,48.392578125,0)" xlink:href="#ab"/></g><g id="t"><use transform="matrix(0.0087890625,0,0,0.0087890625,0,0)" xlink:href="#am"/><use transform="matrix(0.0087890625,0,0,0.0087890625,10.6083984375,0)" xlink:href="#ad"/><use transform="matrix(0.0087890625,0,0,0.0087890625,20.759765625,0)" xlink:href="#as"/><use transform="matrix(0.0087890625,0,0,0.0087890625,31.3681640625,0)" xlink:href="#ab"/></g><g id="u"><use transform="matrix(0.0087890625,0,0,0.0087890625,0,0)" xlink:href="#aj"/><use transform="matrix(0.0087890625,0,0,0.0087890625,7.1015625,0)" xlink:href="#aa"/><use transform="matrix(0.0087890625,0,0,0.0087890625,14.6513671875,0)" xlink:href="#ae"/><use transform="matrix(0.0087890625,0,0,0.0087890625,23.8359375,0)" xlink:href="#aI"/><use transform="matrix(0.0087890625,0,0,0.0087890625,33.7412109375,0)" xlink:href="#af"/><use transform="matrix(0.0087890625,0,0,0.0087890625,44.4638671875,0)" xlink:href="#ag"/></g><g id="v"><use transform="matrix(0.0087890625,0,0,0.0087890625,0,0)" xlink:href="#af"/><use transform="matrix(0.0087890625,0,0,0.0087890625,10.72265625,0)" xlink:href="#aI"/><use transform="matrix(0.0087890625,0,0,0.0087890625,20.6279296875,0)" xlink:href="#ai"/><use transform="matrix(0.0087890625,0,0,0.0087890625,29.4521484375,0)" xlink:href="#aj"/><use transform="matrix(0.0087890625,0,0,0.0087890625,36.5537109375,0)" xlink:href="#aq"/><use transform="matrix(0.0087890625,0,0,0.0087890625,47.2763671875,0)" xlink:href="#aJ"/></g><g id="w"><use transform="matrix(0.0087890625,0,0,0.0087890625,0,0)" xlink:href="#ax"/><use transform="matrix(0.0087890625,0,0,0.0087890625,5.2646484375,0)" xlink:href="#aN"/><use transform="matrix(0.0087890625,0,0,0.0087890625,15.9873046875,0)" xlink:href="#af"/><use transform="matrix(0.0087890625,0,0,0.0087890625,26.7099609375,0)" xlink:href="#ak"/><use transform="matrix(0.0087890625,0,0,0.0087890625,36.84375,0)" xlink:href="#am"/></g><path fill="#3d4752" d="M452 0H163v-278h289V0" id="aO"/><g id="x"><use transform="matrix(0.0087890625,0,0,0.0087890625,0,0)" xlink:href="#aO"/><use transform="matrix(0.0087890625,0,0,0.0087890625,5.4052734375,0)" xlink:href="#aO"/><use transform="matrix(0.0087890625,0,0,0.0087890625,10.810546875,0)" xlink:href="#aO"/></g><path fill="#3d4752" d="M478 0H205v-1489h859v219H478v389h485v219H478V0" id="aP"/><path fill="#3d4752" d="M867-682L1342 0h-315L578-645H478V0H205v-1489h419c349 0 523 143 523 428 0 191-93 317-280 379zm-389-589v414h119c185 0 277-67 277-200 0-143-84-214-252-214H478" id="aQ"/><path fill="#3d4752" d="M1282-743c0 396-250 743-634 743H205v-1489h417c437-2 660 295 660 746zM637-225c233 9 365-240 365-518 0-216-61-366-177-458-90-72-200-63-346-63v1039h158" id="aR"/><g id="y"><use transform="matrix(0.0087890625,0,0,0.0087890625,0,0)" xlink:href="#aP"/><use transform="matrix(0.0087890625,0,0,0.0087890625,9.8525390625,0)" xlink:href="#ar"/><use transform="matrix(0.0087890625,0,0,0.0087890625,22.78125,0)" xlink:href="#aQ"/><use transform="matrix(0.0087890625,0,0,0.0087890625,34.576171875,0)" xlink:href="#aR"/></g><path d="M63-220v92h138v28H63V0H30v-248h175v28H63" id="aS"/><path d="M140-251c81 0 123 46 123 126C263-46 219 4 140 4 59 4 17-45 17-125s42-126 123-126zm0 227c63 0 89-41 89-101s-29-99-89-99c-61 0-89 39-89 99S79-25 140-24" id="aT"/><path d="M233-177c-1 41-23 64-60 70L243 0h-38l-65-103H63V0H30v-248c88 3 205-21 203 71zM63-129c60-2 137 13 137-47 0-61-80-42-137-45v92" id="aU"/><path d="M30-248c118-7 216 8 213 122C240-48 200 0 122 0H30v-248zM63-27c89 8 146-16 146-99s-60-101-146-95v194" id="aV"/><g id="z"><use transform="matrix(0.05,0,0,0.05,0,0)" xlink:href="#aS"/><use transform="matrix(0.05,0,0,0.05,10.950000000000001,0)" xlink:href="#aT"/><use transform="matrix(0.05,0,0,0.05,24.950000000000003,0)" xlink:href="#aU"/><use transform="matrix(0.05,0,0,0.05,37.900000000000006,0)" xlink:href="#aV"/></g><path fill="#3d4752" d="M45-1270v-219h1063v219H713V0H440v-1270H45" id="aW"/><g id="A"><use transform="matrix(0.0087890625,0,0,0.0087890625,0,0)" xlink:href="#aW"/><use transform="matrix(0.0087890625,0,0,0.0087890625,8.1650390625,0)" xlink:href="#aK"/><use transform="matrix(0.0087890625,0,0,0.0087890625,17.701171875,0)" xlink:href="#aJ"/></g><g id="B"><use transform="matrix(0.0087890625,0,0,0.0087890625,0,0)" xlink:href="#aJ"/><use transform="matrix(0.0087890625,0,0,0.0087890625,10.6083984375,0)" xlink:href="#aa"/><use transform="matrix(0.0087890625,0,0,0.0087890625,17.0419921875,0)" xlink:href="#ab"/><use transform="matrix(0.0087890625,0,0,0.0087890625,26.947265625,0)" xlink:href="#ac"/><use transform="matrix(0.0087890625,0,0,0.0087890625,35.5517578125,0)" xlink:href="#ad"/><use transform="matrix(0.0087890625,0,0,0.0087890625,45.703125,0)" xlink:href="#ae"/><use transform="matrix(0.0087890625,0,0,0.0087890625,55.248046875,0)" xlink:href="#af"/><use transform="matrix(0.0087890625,0,0,0.0087890625,65.970703125,0)" xlink:href="#ag"/><use transform="matrix(0.0087890625,0,0,0.0087890625,71.2353515625,0)" xlink:href="#aN"/><use transform="matrix(0.0087890625,0,0,0.0087890625,81.9580078125,0)" xlink:href="#ad"/></g><g id="C"><use transform="matrix(0.0087890625,0,0,0.0087890625,0,0)" xlink:href="#ah"/><use transform="matrix(0.0087890625,0,0,0.0087890625,16.3125,0)" xlink:href="#ag"/><use transform="matrix(0.0087890625,0,0,0.0087890625,21.5771484375,0)" xlink:href="#ai"/><use transform="matrix(0.0087890625,0,0,0.0087890625,30.4013671875,0)" xlink:href="#aj"/><use transform="matrix(0.0087890625,0,0,0.0087890625,37.5029296875,0)" xlink:href="#ab"/></g><g id="D"><use transform="matrix(0.0087890625,0,0,0.0087890625,0,0)" xlink:href="#af"/><use transform="matrix(0.0087890625,0,0,0.0087890625,10.72265625,0)" xlink:href="#ab"/></g><path fill="#3d4752" d="M94-548c0-302 191-568 483-568 311 0 493 270 482 633H370c7 207 93 311 256 311 93 0 196-46 308-137l103 144C907-40 760 22 595 22 293 22 94-237 94-548zm282-120h403c-18-170-85-255-202-255s-184 85-201 255zm312-611H495l144-315h292" id="aX"/><g id="E"><use transform="matrix(0.0087890625,0,0,0.0087890625,0,0)" xlink:href="#ae"/><use transform="matrix(0.0087890625,0,0,0.0087890625,9.544921875,0)" xlink:href="#aK"/><use transform="matrix(0.0087890625,0,0,0.0087890625,19.0810546875,0)" xlink:href="#ai"/><use transform="matrix(0.0087890625,0,0,0.0087890625,27.9052734375,0)" xlink:href="#ad"/><use transform="matrix(0.0087890625,0,0,0.0087890625,38.056640625,0)" xlink:href="#ap"/><use transform="matrix(0.0087890625,0,0,0.0087890625,47.63671875,0)" xlink:href="#aX"/></g><path fill="#3d4752" d="M768-814c-17-193-489-216-495 0 85 302 654 68 677 512S97 119 57-256l159-28c23 205 552 256 558 0-57-319-643-85-671-512-23-324 466-358 694-239 68 40 119 108 137 199zm-159-386H404c-74-102-176-171-233-290 182-11 222 114 336 171 108-57 148-182 324-171-51 119-154 188-222 290" id="aY"/><g id="F"><use transform="matrix(0.0087890625,0,0,0.0087890625,0,0)" xlink:href="#aY"/><use transform="matrix(0.0087890625,0,0,0.0087890625,9,0)" xlink:href="#ap"/><use transform="matrix(0.0087890625,0,0,0.0087890625,18.580078125,0)" xlink:href="#ad"/><use transform="matrix(0.0087890625,0,0,0.0087890625,28.7314453125,0)" xlink:href="#aM"/><use transform="matrix(0.0087890625,0,0,0.0087890625,34.4267578125,0)" xlink:href="#ak"/></g><path d="M27 0v-27h64v-190l-56 39v-29l58-41h29v221h61V0H27" id="aZ"/><g id="G"><use transform="matrix(0.05,0,0,0.05,0,0)" xlink:href="#ay"/><use transform="matrix(0.05,0,0,0.05,10,0)" xlink:href="#az"/><use transform="matrix(0.05,0,0,0.05,15,0)" xlink:href="#az"/><use transform="matrix(0.05,0,0,0.05,20,0)" xlink:href="#aZ"/></g><path d="M59-47c-2 24 18 29 38 22v24C64 9 27 4 27-40v-127H5v-23h24l9-43h21v43h35v23H59v120" id="ba"/><path d="M179-190L93 31C79 59 56 82 12 73V49c39 6 53-20 64-50L1-190h34L92-34l54-156h33" id="bb"/><path d="M115-194c55 1 70 41 70 98S169 2 115 4C84 4 66-9 55-30l1 105H24l-1-265h31l2 30c10-21 28-34 59-34zm-8 174c40 0 45-34 45-75s-6-73-45-74c-42 0-51 32-51 76 0 43 10 73 51 73" id="bc"/><g id="H"><use transform="matrix(0.05,0,0,0.05,0,0)" xlink:href="#ba"/><use transform="matrix(0.05,0,0,0.05,5,0)" xlink:href="#bb"/><use transform="matrix(0.05,0,0,0.05,14,0)" xlink:href="#bc"/></g><path d="M96-169c-40 0-48 33-48 73s9 75 48 75c24 0 41-14 43-38l32 2c-6 37-31 61-74 61-59 0-76-41-82-99-10-93 101-131 147-64 4 7 5 14 7 22l-32 3c-4-21-16-35-41-35" id="bd"/><path d="M108 0H70L1-190h34L89-25l56-165h34" id="be"/><path d="M117-194c89-4 53 116 60 194h-32v-121c0-31-8-49-39-48C34-167 62-67 57 0H25l-1-190h30c1 10-1 24 2 32 11-22 29-35 61-36" id="bf"/><path d="M34 0v-190h32V0H34zM24-211c8-23 27-35 38-54h36v5l-58 49H24" id="bg"/><path d="M106-169C34-169 62-67 57 0H25v-261h32l-1 103c12-21 28-36 61-36 89 0 53 116 60 194h-32v-121c2-32-8-49-39-48" id="bh"/><g id="I"><use transform="matrix(0.05,0,0,0.05,0,0)" xlink:href="#bc"/><use transform="matrix(0.05,0,0,0.05,10,0)" xlink:href="#aD"/><use transform="matrix(0.05,0,0,0.05,15.949999999999998,0)" xlink:href="#aH"/><use transform="matrix(0.05,0,0,0.05,25.950000000000003,0)" xlink:href="#bd"/><use transform="matrix(0.05,0,0,0.05,34.95,0)" xlink:href="#aB"/><use transform="matrix(0.05,0,0,0.05,44.95,0)" xlink:href="#be"/><use transform="matrix(0.05,0,0,0.05,53.95,0)" xlink:href="#bf"/><use transform="matrix(0.05,0,0,0.05,63.95,0)" xlink:href="#bg"/><use transform="matrix(0.05,0,0,0.05,68.95,0)" xlink:href="#bh"/><use transform="matrix(0.05,0,0,0.05,78.95,0)" xlink:href="#aB"/></g><path d="M210-169c-67 3-38 105-44 169h-31v-121c0-29-5-50-35-48C34-165 62-65 56 0H25l-1-190h30c1 10-1 24 2 32 10-44 99-50 107 0 11-21 27-35 58-36 85-2 47 119 55 194h-31v-121c0-29-5-49-35-48" id="bi"/><path d="M135-143c-3-34-86-38-87 0 15 53 115 12 119 90S17 21 10-45l28-5c4 36 97 45 98 0-10-56-113-15-118-90-4-57 82-63 122-42 12 7 21 19 24 35" id="bj"/><g id="J"><use transform="matrix(0.05,0,0,0.05,0,0)" xlink:href="#bi"/><use transform="matrix(0.05,0,0,0.05,14.950000000000001,0)" xlink:href="#bg"/><use transform="matrix(0.05,0,0,0.05,19.950000000000003,0)" xlink:href="#bj"/><use transform="matrix(0.05,0,0,0.05,28.950000000000003,0)" xlink:href="#ba"/><use transform="matrix(0.05,0,0,0.05,33.95,0)" xlink:href="#aH"/></g><g id="K"><use transform="matrix(0.05,0,0,0.05,0,0)" xlink:href="#bf"/><use transform="matrix(0.05,0,0,0.05,10,0)" xlink:href="#aH"/></g><path d="M143 0L79-87 56-68V0H24v-261h32v163l83-92h37l-77 82L181 0h-38" id="bk"/><path d="M100-194c63 0 86 42 84 106H49c0 40 14 67 53 68 26 1 43-12 49-29l28 8c-11 28-37 45-77 45C44 4 14-33 15-96c1-61 26-98 85-98zm52 81c6-60-76-77-97-28-3 7-6 17-6 28h103zm-74-98c8-23 27-35 38-54h36v5l-58 49H78" id="bl"/><g id="L"><use transform="matrix(0.05,0,0,0.05,0,0)" xlink:href="#be"/><use transform="matrix(0.05,0,0,0.05,9,0)" xlink:href="#bb"/><use transform="matrix(0.05,0,0,0.05,18,0)" xlink:href="#bj"/><use transform="matrix(0.05,0,0,0.05,27,0)" xlink:href="#aB"/><use transform="matrix(0.05,0,0,0.05,37,0)" xlink:href="#bk"/><use transform="matrix(0.05,0,0,0.05,46,0)" xlink:href="#bl"/></g><path d="M135-143c-3-34-86-38-87 0 15 53 115 12 119 90S17 21 10-45l28-5c4 36 97 45 98 0-10-56-113-15-118-90-4-57 82-63 122-42 12 7 21 19 24 35zm-28-68H71c-13-18-31-30-41-51 32-2 39 20 59 30 19-10 26-32 57-30-9 21-27 33-39 51" id="bm"/><path d="M24 0v-261h32V0H24" id="bn"/><path d="M100-194c63 0 86 42 84 106H49c0 40 14 67 53 68 26 1 43-12 49-29l28 8c-11 28-37 45-77 45C44 4 14-33 15-96c1-61 26-98 85-98zm52 81c6-60-76-77-97-28-3 7-6 17-6 28h103" id="bo"/><g id="M"><use transform="matrix(0.05,0,0,0.05,0,0)" xlink:href="#bm"/><use transform="matrix(0.05,0,0,0.05,9,0)" xlink:href="#bk"/><use transform="matrix(0.05,0,0,0.05,18,0)" xlink:href="#aB"/><use transform="matrix(0.05,0,0,0.05,28,0)" xlink:href="#bn"/><use transform="matrix(0.05,0,0,0.05,31.950000000000003,0)" xlink:href="#bo"/></g><path fill="#3d4752" d="M491-632h326l-163-487zM1028 0L887-418H421L279 0H11l527-1489h248L1312 0h-284" id="bp"/><g id="N"><use transform="matrix(0.0087890625,0,0,0.0087890625,0,0)" xlink:href="#bp"/><use transform="matrix(0.0087890625,0,0,0.0087890625,11.9091796875,0)" xlink:href="#ap"/><use transform="matrix(0.0087890625,0,0,0.0087890625,21.849609375,0)" xlink:href="#ab"/><use transform="matrix(0.0087890625,0,0,0.0087890625,31.7548828125,0)" xlink:href="#am"/><use transform="matrix(0.0087890625,0,0,0.0087890625,42.36328125,0)" xlink:href="#ak"/><use transform="matrix(0.0087890625,0,0,0.0087890625,52.4970703125,0)" xlink:href="#ah"/><use transform="matrix(0.0087890625,0,0,0.0087890625,68.8095703125,0)" xlink:href="#ax"/><use transform="matrix(0.0087890625,0,0,0.0087890625,74.07421875,0)" xlink:href="#ax"/></g><g id="O"><use transform="matrix(0.0087890625,0,0,0.0087890625,0,0)" xlink:href="#ae"/><use transform="matrix(0.0087890625,0,0,0.0087890625,9.544921875,0)" xlink:href="#al"/><use transform="matrix(0.0087890625,0,0,0.0087890625,21.2783203125,0)" xlink:href="#am"/></g><path fill="#3d4752" d="M899-1530H694c-74-91-182-148-233-262 171-11 222 97 336 142 108-51 154-154 324-142-46 114-154 165-222 262zm307 512c-57-159-199-256-415-256-336 0-495 228-495 563 0 341 165 575 506 575 245 0 353-137 444-296l154 80C1298-136 1110 23 791 23c-455 0-666-284-688-734-34-592 563-870 1064-631 108 51 176 148 222 262" id="bq"/><g id="P"><use transform="matrix(0.0087890625,0,0,0.0087890625,0,0)" xlink:href="#bq"/><use transform="matrix(0.0087890625,0,0,0.0087890625,12.9462890625,0)" xlink:href="#aQ"/></g><path d="M205 0l-28-72H64L36 0H1l101-248h38L239 0h-34zm-38-99l-47-123c-12 45-31 82-46 123h93" id="br"/><path d="M85-194c31 0 48 13 60 33l-1-100h32l1 261h-30c-2-10 0-23-3-31C134-8 116 4 85 4 32 4 16-35 15-94c0-66 23-100 70-100zm9 24c-40 0-46 34-46 75 0 40 6 74 45 74 42 0 51-32 51-76 0-42-9-74-50-73" id="bs"/><path d="M24-231v-30h32v30H24zM24 0v-190h32V0H24" id="bt"/><g id="Q"><use transform="matrix(0.05,0,0,0.05,0,0)" xlink:href="#br"/><use transform="matrix(0.05,0,0,0.05,12,0)" xlink:href="#bk"/><use transform="matrix(0.05,0,0,0.05,21,0)" xlink:href="#aH"/><use transform="matrix(0.05,0,0,0.05,31,0)" xlink:href="#bs"/><use transform="matrix(0.05,0,0,0.05,41,0)" xlink:href="#bo"/><use transform="matrix(0.05,0,0,0.05,51,0)" xlink:href="#bi"/><use transform="matrix(0.05,0,0,0.05,65.95,0)" xlink:href="#bt"/><use transform="matrix(0.05,0,0,0.05,69.9,0)" xlink:href="#bt"/></g><path d="M100-194c63 0 86 42 84 106H49c0 40 14 67 53 68 26 1 43-12 49-29l28 8c-11 28-37 45-77 45C44 4 14-33 15-96c1-61 26-98 85-98zm52 81c6-60-76-77-97-28-3 7-6 17-6 28h103zm-34-98H82c-13-18-31-30-41-51 32-2 39 20 59 30 19-10 26-32 57-30-9 21-27 33-39 51" id="bu"/><g id="R"><use transform="matrix(0.05,0,0,0.05,0,0)" xlink:href="#be"/><use transform="matrix(0.05,0,0,0.05,9,0)" xlink:href="#bu"/><use transform="matrix(0.05,0,0,0.05,19,0)" xlink:href="#bs"/></g><path d="M158-269h-36c-13-16-32-26-41-46 30-2 39 17 59 25 19-9 27-27 57-25-8 20-27 29-39 46zm54 90c-10-28-35-45-73-45-59 0-87 40-87 99 0 60 29 101 89 101 43 0 62-24 78-52l27 14C228-24 195 4 139 4 59 4 22-46 18-125c-6-104 99-153 187-111 19 9 31 26 39 46" id="bv"/><g id="S"><use transform="matrix(0.05,0,0,0.05,0,0)" xlink:href="#bv"/><use transform="matrix(0.05,0,0,0.05,12.950000000000001,0)" xlink:href="#aU"/></g><g id="T"><use transform="matrix(0.0087890625,0,0,0.0087890625,0,0)" xlink:href="#av"/><use transform="matrix(0.0087890625,0,0,0.0087890625,11.548828125,0)" xlink:href="#an"/><use transform="matrix(0.0087890625,0,0,0.0087890625,21.0849609375,0)" xlink:href="#ao"/><use transform="matrix(0.0087890625,0,0,0.0087890625,29.689453125,0)" xlink:href="#ap"/><use transform="matrix(0.0087890625,0,0,0.0087890625,39.6298828125,0)" xlink:href="#aq"/><use transform="matrix(0.0087890625,0,0,0.0087890625,50.3525390625,0)" xlink:href="#ah"/><use transform="matrix(0.0087890625,0,0,0.0087890625,66.6650390625,0)" xlink:href="#af"/><use transform="matrix(0.0087890625,0,0,0.0087890625,77.3876953125,0)" xlink:href="#aX"/></g><g id="U"><use transform="matrix(0.0087890625,0,0,0.0087890625,0,0)" xlink:href="#aJ"/><use transform="matrix(0.0087890625,0,0,0.0087890625,10.6083984375,0)" xlink:href="#aa"/><use transform="matrix(0.0087890625,0,0,0.0087890625,17.0419921875,0)" xlink:href="#ab"/><use transform="matrix(0.0087890625,0,0,0.0087890625,26.947265625,0)" xlink:href="#ac"/><use transform="matrix(0.0087890625,0,0,0.0087890625,35.5517578125,0)" xlink:href="#ad"/><use transform="matrix(0.0087890625,0,0,0.0087890625,45.703125,0)" xlink:href="#ae"/><use transform="matrix(0.0087890625,0,0,0.0087890625,55.248046875,0)" xlink:href="#ax"/><use transform="matrix(0.0087890625,0,0,0.0087890625,60.5126953125,0)" xlink:href="#aY"/><use transform="matrix(0.0087890625,0,0,0.0087890625,69.5126953125,0)" xlink:href="#aj"/><use transform="matrix(0.0087890625,0,0,0.0087890625,76.6142578125,0)" xlink:href="#al"/></g><path fill="#3d4752" d="M168-1094h263V8c0 183-50 314-155 383-129 85-293 60-435-19l64-181c165 82 263 14 263-222v-1063zm263-190H168v-296h263v296" id="bw"/><g id="V"><use transform="matrix(0.0087890625,0,0,0.0087890625,0,0)" xlink:href="#ad"/><use transform="matrix(0.0087890625,0,0,0.0087890625,10.1513671875,0)" xlink:href="#aa"/><use transform="matrix(0.0087890625,0,0,0.0087890625,17.3408203125,0)" xlink:href="#bw"/><use transform="matrix(0.0087890625,0,0,0.0087890625,22.60546875,0)" xlink:href="#ap"/></g><g id="W"><use transform="matrix(0.0087890625,0,0,0.0087890625,0,0)" xlink:href="#aJ"/><use transform="matrix(0.0087890625,0,0,0.0087890625,10.6083984375,0)" xlink:href="#aa"/><use transform="matrix(0.0087890625,0,0,0.0087890625,17.4375,0)" xlink:href="#ad"/><use transform="matrix(0.0087890625,0,0,0.0087890625,27.5888671875,0)" xlink:href="#ae"/><use transform="matrix(0.0087890625,0,0,0.0087890625,37.1337890625,0)" xlink:href="#ad"/><use transform="matrix(0.0087890625,0,0,0.0087890625,47.28515625,0)" xlink:href="#ao"/><use transform="matrix(0.0087890625,0,0,0.0087890625,55.8896484375,0)" xlink:href="#ad"/><use transform="matrix(0.0087890625,0,0,0.0087890625,66.041015625,0)" xlink:href="#ae"/><use transform="matrix(0.0087890625,0,0,0.0087890625,75.2255859375,0)" xlink:href="#ab"/><use transform="matrix(0.0087890625,0,0,0.0087890625,85.130859375,0)" xlink:href="#aj"/><use transform="matrix(0.0087890625,0,0,0.0087890625,92.232421875,0)" xlink:href="#ak"/><use transform="matrix(0.0087890625,0,0,0.0087890625,102.3662109375,0)" xlink:href="#aM"/></g><path fill="#3d4752" d="M546-961c-228 0-273 188-273 415 0 228 51 427 273 427 137 0 233-80 245-216l182 11C939-114 797 23 552 23 216 23 120-210 86-540c-57-529 575-745 836-364 23 40 28 80 40 125l-182 17c-23-119-91-199-233-199zm108-239H449c-74-102-176-171-233-290 182-11 222 114 336 171 108-57 148-182 324-171-51 119-154 188-222 290" id="bx"/><g id="X"><use transform="matrix(0.0087890625,0,0,0.0087890625,0,0)" xlink:href="#ai"/><use transform="matrix(0.0087890625,0,0,0.0087890625,8.82421875,0)" xlink:href="#ad"/><use transform="matrix(0.0087890625,0,0,0.0087890625,18.9755859375,0)" xlink:href="#aq"/><use transform="matrix(0.0087890625,0,0,0.0087890625,29.6982421875,0)" xlink:href="#bx"/><use transform="matrix(0.0087890625,0,0,0.0087890625,38.6982421875,0)" xlink:href="#aI"/><use transform="matrix(0.0087890625,0,0,0.0087890625,48.603515625,0)" xlink:href="#ai"/><use transform="matrix(0.0087890625,0,0,0.0087890625,57.427734375,0)" xlink:href="#aj"/></g><g id="Y"><use transform="matrix(0.05,0,0,0.05,0,0)" xlink:href="#bc"/><use transform="matrix(0.05,0,0,0.05,10,0)" xlink:href="#aD"/><use transform="matrix(0.05,0,0,0.05,15.949999999999998,0)" xlink:href="#aH"/><use transform="matrix(0.05,0,0,0.05,25.950000000000003,0)" xlink:href="#bd"/><use transform="matrix(0.05,0,0,0.05,34.95,0)" xlink:href="#aB"/><use transform="matrix(0.05,0,0,0.05,44.95,0)" xlink:href="#be"/><use transform="matrix(0.05,0,0,0.05,53.95,0)" xlink:href="#bt"/><use transform="matrix(0.05,0,0,0.05,57.900000000000006,0)" xlink:href="#bm"/><use transform="matrix(0.05,0,0,0.05,66.9,0)" xlink:href="#ba"/><use transform="matrix(0.05,0,0,0.05,71.9,0)" xlink:href="#bu"/></g></defs></g></svg>