<svg xmlns="http://www.w3.org/2000/svg" xmlns:xlink="http://www.w3.org/1999/xlink" contentStyleType="text/css" height="393px" preserveAspectRatio="none" style="width:2224px;height:393px;background:#FFFFFF;" version="1.1" viewBox="0 0 2224 393" width="2224px" zoomAndPan="magnify"><defs/><g><!--class Dokument p?evodu agend--><g id="elem_Dokument p&#345;evodu agend"><rect codeLine="2" fill="#F1F1F1" height="129.4844" id="Dokument p&#345;evodu agend" rx="2.5" ry="2.5" style="stroke:#181818;stroke-width:0.5;" width="399.1055" x="595.15" y="7"/><ellipse cx="698.6803" cy="23" fill="#ADD1B2" rx="11" ry="11" style="stroke:#181818;stroke-width:1.0;"/><path d="M701.649,28.6406 Q701.0709,28.9375 700.4303,29.0781 Q699.7896,29.2344 699.0865,29.2344 Q696.5865,29.2344 695.2584,27.5938 Q693.9459,25.9375 693.9459,22.8125 Q693.9459,19.6875 695.2584,18.0313 Q696.5865,16.375 699.0865,16.375 Q699.7896,16.375 700.4303,16.5313 Q701.0865,16.6875 701.649,16.9844 L701.649,19.7031 Q701.024,19.125 700.4303,18.8594 Q699.8365,18.5781 699.2115,18.5781 Q697.8678,18.5781 697.1803,19.6563 Q696.4928,20.7188 696.4928,22.8125 Q696.4928,24.9063 697.1803,25.9844 Q697.8678,27.0469 699.2115,27.0469 Q699.8365,27.0469 700.4303,26.7813 Q701.024,26.5 701.649,25.9219 L701.649,28.6406 Z " fill="#000000"/><text fill="#000000" font-family="sans-serif" font-size="14" lengthAdjust="spacing" textLength="183.5449" x="719.1803" y="27.8467">Dokument p&#345;evodu agend</text><line style="stroke:#181818;stroke-width:0.5;" x1="596.15" x2="993.2555" y1="39" y2="39"/><text fill="#000000" font-family="sans-serif" font-size="14" lengthAdjust="spacing" textLength="367.2744" x="601.15" y="55.9951">"M&#225; identifik&#225;tor dokumentu p&#345;evodu agend": string</text><text fill="#000000" font-family="sans-serif" font-size="14" lengthAdjust="spacing" textLength="383.8311" x="601.15" y="72.292">"M&#225; datum uzav&#345;en&#237; dokumentu p&#345;evodu agend": date</text><text fill="#000000" font-family="sans-serif" font-size="14" lengthAdjust="spacing" textLength="387.1055" x="601.15" y="88.5889">"M&#225; datum ukon&#269;en&#237; dokumentu p&#345;evodu agend": date</text><text fill="#000000" font-family="sans-serif" font-size="14" lengthAdjust="spacing" textLength="284.1836" x="601.15" y="104.8857">"Je uzav&#345;en na dobu neur&#269;itou": boolean</text><text fill="#000000" font-family="sans-serif" font-size="14" lengthAdjust="spacing" textLength="114.4063" x="601.15" y="121.1826">"M&#225; p&#345;&#237;lohu": url</text><line style="stroke:#181818;stroke-width:0.5;" x1="596.15" x2="993.2555" y1="128.4844" y2="128.4844"/></g><!--class Rozhodnut? o zalo?en? dokumentu p?evodu agend--><g id="elem_Rozhodnut&#237; o zalo&#382;en&#237; dokumentu p&#345;evodu agend"><rect codeLine="10" fill="#F1F1F1" height="48" id="Rozhodnut&#237; o zalo&#382;en&#237; dokumentu p&#345;evodu agend" rx="2.5" ry="2.5" style="stroke:#181818;stroke-width:0.5;" width="380.6396" x="1624.38" y="213.48"/><ellipse cx="1639.38" cy="229.48" fill="#ADD1B2" rx="11" ry="11" style="stroke:#181818;stroke-width:1.0;"/><path d="M1642.3487,235.1206 Q1641.7706,235.4175 1641.13,235.5581 Q1640.4894,235.7144 1639.7862,235.7144 Q1637.2862,235.7144 1635.9581,234.0738 Q1634.6456,232.4175 1634.6456,229.2925 Q1634.6456,226.1675 1635.9581,224.5113 Q1637.2862,222.855 1639.7862,222.855 Q1640.4894,222.855 1641.13,223.0113 Q1641.7862,223.1675 1642.3487,223.4644 L1642.3487,226.1831 Q1641.7237,225.605 1641.13,225.3394 Q1640.5362,225.0581 1639.9112,225.0581 Q1638.5675,225.0581 1637.88,226.1363 Q1637.1925,227.1988 1637.1925,229.2925 Q1637.1925,231.3863 1637.88,232.4644 Q1638.5675,233.5269 1639.9112,233.5269 Q1640.5362,233.5269 1641.13,233.2613 Q1641.7237,232.98 1642.3487,232.4019 L1642.3487,235.1206 Z " fill="#000000"/><text fill="#000000" font-family="sans-serif" font-size="14" lengthAdjust="spacing" textLength="348.6396" x="1653.38" y="234.3267">Rozhodnut&#237; o zalo&#382;en&#237; dokumentu p&#345;evodu agend</text><line style="stroke:#181818;stroke-width:0.5;" x1="1625.38" x2="2004.0196" y1="245.48" y2="245.48"/><line style="stroke:#181818;stroke-width:0.5;" x1="1625.38" x2="2004.0196" y1="253.48" y2="253.48"/></g><!--class Rozhodnut?--><g id="elem_Rozhodnut&#237;"><rect codeLine="13" fill="#F1F1F1" height="80.5938" id="Rozhodnut&#237;" rx="2.5" ry="2.5" style="stroke:#181818;stroke-width:0.5;" width="241.8994" x="1975.75" y="31.44"/><ellipse cx="2052.9038" cy="47.44" fill="#ADD1B2" rx="11" ry="11" style="stroke:#181818;stroke-width:1.0;"/><path d="M2055.8726,53.0806 Q2055.2944,53.3775 2054.6538,53.5181 Q2054.0132,53.6744 2053.3101,53.6744 Q2050.8101,53.6744 2049.4819,52.0338 Q2048.1694,50.3775 2048.1694,47.2525 Q2048.1694,44.1275 2049.4819,42.4713 Q2050.8101,40.815 2053.3101,40.815 Q2054.0132,40.815 2054.6538,40.9713 Q2055.3101,41.1275 2055.8726,41.4244 L2055.8726,44.1431 Q2055.2476,43.565 2054.6538,43.2994 Q2054.0601,43.0181 2053.4351,43.0181 Q2052.0913,43.0181 2051.4038,44.0963 Q2050.7163,45.1588 2050.7163,47.2525 Q2050.7163,49.3463 2051.4038,50.4244 Q2052.0913,51.4869 2053.4351,51.4869 Q2054.0601,51.4869 2054.6538,51.2213 Q2055.2476,50.94 2055.8726,50.3619 L2055.8726,53.0806 Z " fill="#000000"/><text fill="#000000" font-family="sans-serif" font-size="14" lengthAdjust="spacing" textLength="79.0918" x="2073.4038" y="52.2867">Rozhodnut&#237;</text><line style="stroke:#181818;stroke-width:0.5;" x1="1976.75" x2="2216.6494" y1="63.44" y2="63.44"/><text fill="#000000" font-family="sans-serif" font-size="14" lengthAdjust="spacing" textLength="228.0195" x="1981.75" y="80.4351">"&#269;&#237;slo jednac&#237; rozhodnut&#237;": string</text><text fill="#000000" font-family="sans-serif" font-size="14" lengthAdjust="spacing" textLength="229.8994" x="1981.75" y="96.732">"datum vyd&#225;n&#237; rozhodnut&#237;": date</text><line style="stroke:#181818;stroke-width:0.5;" x1="1976.75" x2="2216.6494" y1="104.0338" y2="104.0338"/></g><!--class Rozhodnut? o schv?len? p?ed?n? p?sobnosti--><g id="elem_Rozhodnut&#237; o schv&#225;len&#237; p&#345;ed&#225;n&#237; p&#367;sobnosti"><rect codeLine="18" fill="#F1F1F1" height="48" id="Rozhodnut&#237; o schv&#225;len&#237; p&#345;ed&#225;n&#237; p&#367;sobnosti" rx="2.5" ry="2.5" style="stroke:#181818;stroke-width:0.5;" width="333.5537" x="1129.93" y="213.48"/><ellipse cx="1144.93" cy="229.48" fill="#ADD1B2" rx="11" ry="11" style="stroke:#181818;stroke-width:1.0;"/><path d="M1147.8988,235.1206 Q1147.3206,235.4175 1146.68,235.5581 Q1146.0394,235.7144 1145.3363,235.7144 Q1142.8363,235.7144 1141.5081,234.0738 Q1140.1956,232.4175 1140.1956,229.2925 Q1140.1956,226.1675 1141.5081,224.5113 Q1142.8363,222.855 1145.3363,222.855 Q1146.0394,222.855 1146.68,223.0113 Q1147.3363,223.1675 1147.8988,223.4644 L1147.8988,226.1831 Q1147.2738,225.605 1146.68,225.3394 Q1146.0863,225.0581 1145.4613,225.0581 Q1144.1175,225.0581 1143.43,226.1363 Q1142.7425,227.1988 1142.7425,229.2925 Q1142.7425,231.3863 1143.43,232.4644 Q1144.1175,233.5269 1145.4613,233.5269 Q1146.0863,233.5269 1146.68,233.2613 Q1147.2738,232.98 1147.8988,232.4019 L1147.8988,235.1206 Z " fill="#000000"/><text fill="#000000" font-family="sans-serif" font-size="14" lengthAdjust="spacing" textLength="301.5537" x="1158.93" y="234.3267">Rozhodnut&#237; o schv&#225;len&#237; p&#345;ed&#225;n&#237; p&#367;sobnosti</text><line style="stroke:#181818;stroke-width:0.5;" x1="1130.93" x2="1462.4837" y1="245.48" y2="245.48"/><line style="stroke:#181818;stroke-width:0.5;" x1="1130.93" x2="1462.4837" y1="253.48" y2="253.48"/></g><!--class Org?n ve?ejn? moci--><g id="elem_Org&#225;n ve&#345;ejn&#233; moci"><rect codeLine="21" fill="#F1F1F1" height="48" id="Org&#225;n ve&#345;ejn&#233; moci" rx="2.5" ry="2.5" style="stroke:#181818;stroke-width:0.5;" width="170.4482" x="203.48" y="213.48"/><ellipse cx="218.48" cy="229.48" fill="#ADD1B2" rx="11" ry="11" style="stroke:#181818;stroke-width:1.0;"/><path d="M221.4488,235.1206 Q220.8706,235.4175 220.23,235.5581 Q219.5894,235.7144 218.8863,235.7144 Q216.3863,235.7144 215.0581,234.0738 Q213.7456,232.4175 213.7456,229.2925 Q213.7456,226.1675 215.0581,224.5113 Q216.3863,222.855 218.8863,222.855 Q219.5894,222.855 220.23,223.0113 Q220.8863,223.1675 221.4488,223.4644 L221.4488,226.1831 Q220.8238,225.605 220.23,225.3394 Q219.6363,225.0581 219.0113,225.0581 Q217.6675,225.0581 216.98,226.1363 Q216.2925,227.1988 216.2925,229.2925 Q216.2925,231.3863 216.98,232.4644 Q217.6675,233.5269 219.0113,233.5269 Q219.6363,233.5269 220.23,233.2613 Q220.8238,232.98 221.4488,232.4019 L221.4488,235.1206 Z " fill="#000000"/><text fill="#000000" font-family="sans-serif" font-size="14" lengthAdjust="spacing" textLength="138.4482" x="232.48" y="234.3267">Org&#225;n ve&#345;ejn&#233; moci</text><line style="stroke:#181818;stroke-width:0.5;" x1="204.48" x2="372.9282" y1="245.48" y2="245.48"/><line style="stroke:#181818;stroke-width:0.5;" x1="204.48" x2="372.9282" y1="253.48" y2="253.48"/></g><!--class Typ rozhodnut? o zalo?en? dokumentu p?evodu agend--><g id="elem_Typ rozhodnut&#237; o zalo&#382;en&#237; dokumentu p&#345;evodu agend"><rect codeLine="24" fill="#F1F1F1" height="48" id="Typ rozhodnut&#237; o zalo&#382;en&#237; dokumentu p&#345;evodu agend" rx="2.5" ry="2.5" style="stroke:#181818;stroke-width:0.5;" width="406.8418" x="1611.28" y="338.48"/><ellipse cx="1626.28" cy="354.48" fill="#ADD1B2" rx="11" ry="11" style="stroke:#181818;stroke-width:1.0;"/><path d="M1629.2488,360.1206 Q1628.6706,360.4175 1628.03,360.5581 Q1627.3894,360.7144 1626.6863,360.7144 Q1624.1863,360.7144 1622.8581,359.0738 Q1621.5456,357.4175 1621.5456,354.2925 Q1621.5456,351.1675 1622.8581,349.5113 Q1624.1863,347.855 1626.6863,347.855 Q1627.3894,347.855 1628.03,348.0113 Q1628.6863,348.1675 1629.2488,348.4644 L1629.2488,351.1831 Q1628.6238,350.605 1628.03,350.3394 Q1627.4363,350.0581 1626.8113,350.0581 Q1625.4675,350.0581 1624.78,351.1363 Q1624.0925,352.1988 1624.0925,354.2925 Q1624.0925,356.3863 1624.78,357.4644 Q1625.4675,358.5269 1626.8113,358.5269 Q1627.4363,358.5269 1628.03,358.2613 Q1628.6238,357.98 1629.2488,357.4019 L1629.2488,360.1206 Z " fill="#000000"/><text fill="#000000" font-family="sans-serif" font-size="14" lengthAdjust="spacing" textLength="374.8418" x="1640.28" y="359.3267">Typ rozhodnut&#237; o zalo&#382;en&#237; dokumentu p&#345;evodu agend</text><line style="stroke:#181818;stroke-width:0.5;" x1="1612.28" x2="2017.1218" y1="370.48" y2="370.48"/><line style="stroke:#181818;stroke-width:0.5;" x1="1612.28" x2="2017.1218" y1="378.48" y2="378.48"/></g><!--class Typ rozhodnut? o schv?len? p?ed?n? p?sobnosti--><g id="elem_Typ rozhodnut&#237; o schv&#225;len&#237; p&#345;ed&#225;n&#237; p&#367;sobnosti"><rect codeLine="27" fill="#F1F1F1" height="48" id="Typ rozhodnut&#237; o schv&#225;len&#237; p&#345;ed&#225;n&#237; p&#367;sobnosti" rx="2.5" ry="2.5" style="stroke:#181818;stroke-width:0.5;" width="359.7559" x="1116.83" y="338.48"/><ellipse cx="1131.83" cy="354.48" fill="#ADD1B2" rx="11" ry="11" style="stroke:#181818;stroke-width:1.0;"/><path d="M1134.7988,360.1206 Q1134.2206,360.4175 1133.58,360.5581 Q1132.9394,360.7144 1132.2363,360.7144 Q1129.7363,360.7144 1128.4081,359.0738 Q1127.0956,357.4175 1127.0956,354.2925 Q1127.0956,351.1675 1128.4081,349.5113 Q1129.7363,347.855 1132.2363,347.855 Q1132.9394,347.855 1133.58,348.0113 Q1134.2363,348.1675 1134.7988,348.4644 L1134.7988,351.1831 Q1134.1738,350.605 1133.58,350.3394 Q1132.9863,350.0581 1132.3613,350.0581 Q1131.0175,350.0581 1130.33,351.1363 Q1129.6425,352.1988 1129.6425,354.2925 Q1129.6425,356.3863 1130.33,357.4644 Q1131.0175,358.5269 1132.3613,358.5269 Q1132.9863,358.5269 1133.58,358.2613 Q1134.1738,357.98 1134.7988,357.4019 L1134.7988,360.1206 Z " fill="#000000"/><text fill="#000000" font-family="sans-serif" font-size="14" lengthAdjust="spacing" textLength="327.7559" x="1145.83" y="359.3267">Typ rozhodnut&#237; o schv&#225;len&#237; p&#345;ed&#225;n&#237; p&#367;sobnosti</text><line style="stroke:#181818;stroke-width:0.5;" x1="1117.83" x2="1475.5859" y1="370.48" y2="370.48"/><line style="stroke:#181818;stroke-width:0.5;" x1="1117.83" x2="1475.5859" y1="378.48" y2="378.48"/></g><!--class Ustanoven? pr?vn?ho p?edpisu--><g id="elem_Ustanoven&#237; pr&#225;vn&#237;ho p&#345;edpisu"><rect codeLine="30" fill="#F1F1F1" height="48" id="Ustanoven&#237; pr&#225;vn&#237;ho p&#345;edpisu" rx="2.5" ry="2.5" style="stroke:#181818;stroke-width:0.5;" width="242.4033" x="621.5" y="213.48"/><ellipse cx="636.5" cy="229.48" fill="#ADD1B2" rx="11" ry="11" style="stroke:#181818;stroke-width:1.0;"/><path d="M639.4688,235.1206 Q638.8906,235.4175 638.25,235.5581 Q637.6094,235.7144 636.9063,235.7144 Q634.4063,235.7144 633.0781,234.0738 Q631.7656,232.4175 631.7656,229.2925 Q631.7656,226.1675 633.0781,224.5113 Q634.4063,222.855 636.9063,222.855 Q637.6094,222.855 638.25,223.0113 Q638.9063,223.1675 639.4688,223.4644 L639.4688,226.1831 Q638.8438,225.605 638.25,225.3394 Q637.6563,225.0581 637.0313,225.0581 Q635.6875,225.0581 635,226.1363 Q634.3125,227.1988 634.3125,229.2925 Q634.3125,231.3863 635,232.4644 Q635.6875,233.5269 637.0313,233.5269 Q637.6563,233.5269 638.25,233.2613 Q638.8438,232.98 639.4688,232.4019 L639.4688,235.1206 Z " fill="#000000"/><text fill="#000000" font-family="sans-serif" font-size="14" lengthAdjust="spacing" textLength="210.4033" x="650.5" y="234.3267">Ustanoven&#237; pr&#225;vn&#237;ho p&#345;edpisu</text><line style="stroke:#181818;stroke-width:0.5;" x1="622.5" x2="862.9033" y1="245.48" y2="245.48"/><line style="stroke:#181818;stroke-width:0.5;" x1="622.5" x2="862.9033" y1="253.48" y2="253.48"/></g><!--reverse link Rozhodnut? to Rozhodnut? o zalo?en? dokumentu p?evodu agend--><g id="link_Rozhodnut&#237;_Rozhodnut&#237; o zalo&#382;en&#237; dokumentu p&#345;evodu agend"><path codeLine="33" d="M2110.8072,130.0936 C2114.7772,153.3636 2111.87,164.16 2095.7,183.48 C2082.16,199.66 2046.64,210.94 2005.22,218.79 " fill="none" id="Rozhodnut&#237;-backto-Rozhodnut&#237; o zalo&#382;en&#237; dokumentu p&#345;evodu agend" style="stroke:#181818;stroke-width:1.0;"/><polygon fill="none" points="2107.78,112.35,2104.8926,131.1027,2116.7217,129.0846,2107.78,112.35" style="stroke:#181818;stroke-width:1.0;"/></g><!--reverse link Rozhodnut? to Rozhodnut? o schv?len? p?ed?n? p?sobnosti--><g id="link_Rozhodnut&#237;_Rozhodnut&#237; o schv&#225;len&#237; p&#345;ed&#225;n&#237; p&#367;sobnosti"><path codeLine="34" d="M2088.8482,130.1521 C2083.9482,154.7121 2077.01,166.96 2054.7,183.48 C2014.62,213.18 1656.47,209.97 1606.7,213.48 C1560.27,216.76 1509.94,220.44 1463.6,223.88 " fill="none" id="Rozhodnut&#237;-backto-Rozhodnut&#237; o schv&#225;len&#237; p&#345;ed&#225;n&#237; p&#367;sobnosti" style="stroke:#181818;stroke-width:1.0;"/><polygon fill="none" points="2092.37,112.5,2082.9642,128.9782,2094.7322,131.326,2092.37,112.5" style="stroke:#181818;stroke-width:1.0;"/></g><!--link Dokument p?evodu agend to Rozhodnut? o zalo?en? dokumentu p?evodu agend--><g id="link_Dokument p&#345;evodu agend_Rozhodnut&#237; o zalo&#382;en&#237; dokumentu p&#345;evodu agend"><path codeLine="35" d="M994.69,90.65 C1132.87,105.29 1320.32,129.67 1482.7,166.48 C1506.83,171.95 1511.73,177.38 1535.7,183.48 C1579.9,194.72 1628.59,204.76 1672.74,212.99 " fill="none" id="Dokument p&#345;evodu agend-Rozhodnut&#237; o zalo&#382;en&#237; dokumentu p&#345;evodu agend" style="stroke:#181818;stroke-width:1.0;"/><text fill="#000000" font-family="sans-serif" font-size="13" lengthAdjust="spacing" textLength="234.2285" x="1536.7" y="179.5469">M&#225; rozhodnut&#237; o p&#345;ed&#225;n&#237; p&#367;sobnosti</text><text fill="#000000" font-family="sans-serif" font-size="13" lengthAdjust="spacing" textLength="24.8066" x="1611.3106" y="202.2755">0..1</text></g><!--link Dokument p?evodu agend to Rozhodnut? o zalo?en? dokumentu p?evodu agend--><g id="link_Dokument p&#345;evodu agend_Rozhodnut&#237; o zalo&#382;en&#237; dokumentu p&#345;evodu agend"><path codeLine="36" d="M994.67,81.94 C1262.59,95.78 1711.97,124.83 1775.7,166.48 C1792.12,177.21 1802.29,197.36 1808.1,213.29 " fill="none" id="Dokument p&#345;evodu agend-Rozhodnut&#237; o zalo&#382;en&#237; dokumentu p&#345;evodu agend-1" style="stroke:#181818;stroke-width:1.0;"/><text fill="#000000" font-family="sans-serif" font-size="13" lengthAdjust="spacing" textLength="237.3833" x="1792.7" y="179.5469">M&#225; rozhodnut&#237; o p&#345;evzet&#237; p&#367;sobnosti</text><text fill="#000000" font-family="sans-serif" font-size="13" lengthAdjust="spacing" textLength="24.8066" x="1779.4371" y="202.2533">0..1</text></g><!--link Dokument p?evodu agend to Rozhodnut? o schv?len? p?ed?n? p?sobnosti--><g id="link_Dokument p&#345;evodu agend_Rozhodnut&#237; o schv&#225;len&#237; p&#345;ed&#225;n&#237; p&#367;sobnosti"><path codeLine="37" d="M994.63,123.16 C1040.68,136.12 1089.2,150.85 1133.7,166.48 C1172.5,180.1 1215.16,198.55 1247.1,213.09 " fill="none" id="Dokument p&#345;evodu agend-Rozhodnut&#237; o schv&#225;len&#237; p&#345;ed&#225;n&#237; p&#367;sobnosti" style="stroke:#181818;stroke-width:1.0;"/><text fill="#000000" font-family="sans-serif" font-size="13" lengthAdjust="spacing" textLength="299.6411" x="1174.7" y="179.5469">M&#225; rozhodnut&#237; o schv&#225;len&#237; p&#345;ed&#225;n&#237; p&#367;sobnosti</text><text fill="#000000" font-family="sans-serif" font-size="13" lengthAdjust="spacing" textLength="24.8066" x="1208.1816" y="202.3999">0..1</text></g><!--link Dokument p?evodu agend to Org?n ve?ejn? moci--><g id="link_Dokument p&#345;evodu agend_Org&#225;n ve&#345;ejn&#233; moci"><path codeLine="38" d="M594.93,84.52 C387.48,98.85 88.2,126.21 52.7,166.48 C6,219.45 117.93,233.21 203.15,236.3 " fill="none" id="Dokument p&#345;evodu agend-Org&#225;n ve&#345;ejn&#233; moci" style="stroke:#181818;stroke-width:1.0;"/><text fill="#000000" font-family="sans-serif" font-size="13" lengthAdjust="spacing" textLength="191.8325" x="53.7" y="179.5469">Schvaluje p&#345;ed&#225;n&#237; p&#367;sobnosti</text><text fill="#000000" font-family="sans-serif" font-size="13" lengthAdjust="spacing" textLength="24.8066" x="170.8011" y="232.6267">0..1</text></g><!--link Dokument p?evodu agend to Org?n ve?ejn? moci--><g id="link_Dokument p&#345;evodu agend_Org&#225;n ve&#345;ejn&#233; moci"><path codeLine="39" d="M594.91,83.79 C469.92,95.36 325.34,118.88 285.7,166.48 C275.12,179.19 276.63,198.15 280.37,213.14 " fill="none" id="Dokument p&#345;evodu agend-Org&#225;n ve&#345;ejn&#233; moci-1" style="stroke:#181818;stroke-width:1.0;"/><text fill="#000000" font-family="sans-serif" font-size="13" lengthAdjust="spacing" textLength="118.022" x="286.7" y="179.5469">P&#345;eb&#237;r&#225; p&#367;sobnost</text><text fill="#000000" font-family="sans-serif" font-size="13" lengthAdjust="spacing" textLength="24.8066" x="251.5119" y="202.4621">0..1</text></g><!--link Dokument p?evodu agend to Org?n ve?ejn? moci--><g id="link_Dokument p&#345;evodu agend_Org&#225;n ve&#345;ejn&#233; moci"><path codeLine="40" d="M594.9,127.36 C553.31,139.57 509.91,152.94 469.7,166.48 C427.56,180.68 380.75,198.84 345.3,213.11 " fill="none" id="Dokument p&#345;evodu agend-Org&#225;n ve&#345;ejn&#233; moci-2" style="stroke:#181818;stroke-width:1.0;"/><text fill="#000000" font-family="sans-serif" font-size="13" lengthAdjust="spacing" textLength="120.3706" x="470.7" y="179.5469">P&#345;ev&#225;d&#237; p&#367;sobnost</text><text fill="#000000" font-family="sans-serif" font-size="13" lengthAdjust="spacing" textLength="24.8066" x="332.2686" y="202.4248">0..1</text></g><!--link Dokument p?evodu agend to Ustanoven? pr?vn?ho p?edpisu--><g id="link_Dokument p&#345;evodu agend_Ustanoven&#237; pr&#225;vn&#237;ho p&#345;edpisu"><path codeLine="41" d="M935,136.95 C947.75,150.89 951.64,166.58 938.7,183.48 C928.39,196.95 898.13,207.78 864.37,216.06 " fill="none" id="Dokument p&#345;evodu agend-Ustanoven&#237; pr&#225;vn&#237;ho p&#345;edpisu" style="stroke:#181818;stroke-width:1.0;"/><text fill="#000000" font-family="sans-serif" font-size="13" lengthAdjust="spacing" textLength="178.5786" x="946.7" y="179.5469">m&#225; zmocn&#283;n&#237; pro vytvo&#345;en&#237;</text></g><!--link Dokument p?evodu agend to Ustanoven? pr?vn?ho p?edpisu--><g id="link_Dokument p&#345;evodu agend_Ustanoven&#237; pr&#225;vn&#237;ho p&#345;edpisu"><path codeLine="42" d="M629.14,136.8 C619.32,145.51 610.64,155.35 603.7,166.48 C590.56,187.58 604.81,202.55 628.47,213.08 " fill="none" id="Dokument p&#345;evodu agend-Ustanoven&#237; pr&#225;vn&#237;ho p&#345;edpisu-1" style="stroke:#181818;stroke-width:1.0;"/><text fill="#000000" font-family="sans-serif" font-size="13" lengthAdjust="spacing" textLength="325.3237" x="604.7" y="179.5469">vymezuje r&#225;mec rozsahu p&#345;evodu v&#253;konu agendy</text></g><!--link Rozhodnut? o zalo?en? dokumentu p?evodu agend to Typ rozhodnut? o zalo?en? dokumentu p?evodu agend--><g id="link_Rozhodnut&#237; o zalo&#382;en&#237; dokumentu p&#345;evodu agend_Typ rozhodnut&#237; o zalo&#382;en&#237; dokumentu p&#345;evodu agend"><path codeLine="43" d="M1814.7,261.9 C1814.7,283.79 1814.7,316.28 1814.7,338.14 " fill="none" id="Rozhodnut&#237; o zalo&#382;en&#237; dokumentu p&#345;evodu agend-Typ rozhodnut&#237; o zalo&#382;en&#237; dokumentu p&#345;evodu agend" style="stroke:#181818;stroke-width:1.0;"/><text fill="#000000" font-family="sans-serif" font-size="13" lengthAdjust="spacing" textLength="368.5386" x="1815.7" y="304.5469">M&#225; typ rozhodnut&#237; o zalo&#382;en&#237; dokumentu p&#345;evodu agend</text><text fill="#000000" font-family="sans-serif" font-size="13" lengthAdjust="spacing" textLength="24.8066" x="1787.8731" y="327.4621">0..1</text></g><!--link Rozhodnut? o schv?len? p?ed?n? p?sobnosti to Typ rozhodnut? o schv?len? p?ed?n? p?sobnosti--><g id="link_Rozhodnut&#237; o schv&#225;len&#237; p&#345;ed&#225;n&#237; p&#367;sobnosti_Typ rozhodnut&#237; o schv&#225;len&#237; p&#345;ed&#225;n&#237; p&#367;sobnosti"><path codeLine="44" d="M1296.7,261.9 C1296.7,283.79 1296.7,316.28 1296.7,338.14 " fill="none" id="Rozhodnut&#237; o schv&#225;len&#237; p&#345;ed&#225;n&#237; p&#367;sobnosti-Typ rozhodnut&#237; o schv&#225;len&#237; p&#345;ed&#225;n&#237; p&#367;sobnosti" style="stroke:#181818;stroke-width:1.0;"/><text fill="#000000" font-family="sans-serif" font-size="13" lengthAdjust="spacing" textLength="324.8159" x="1297.7" y="304.5469">M&#225; typ rozhodnut&#237; o schv&#225;len&#237; p&#345;ed&#225;n&#237; p&#367;sobnosti</text><text fill="#000000" font-family="sans-serif" font-size="13" lengthAdjust="spacing" textLength="24.8066" x="1269.8714" y="327.4621">0..1</text></g><!--SRC=[pLLBZjD04Dtx5AtiPmJR4KjMI0Z4m04wxY9sObTP_PDYu0Wv06Bb9Ok84y2catjHZksHdPbaF5P6cfrbl_VgzUkgiW4hKEPW2Xd3BHHIIqjQ8254SIQD4REtj78ve1N5_YTuKax81Q2QYM-H4BFteHAfui_frtGLgfgiMe8xPjm8OtMAYuwdf7MvSANqZCEmFSTaB1pnLeIxpLZUExWhn0Tcnjm91ATtczIIO-2SA0E9NGqM2jkCalgJqrdq8-ho-4HbGWgTvS8aIfdH_jzv5vpKW_GsmjqcR4r6OWaAPSn2kWVfPzQSswzLgF0Ux73GKovDdFXGPGURjRbMeTZ_CJH7CZOTcloW5umG7XYxnF1Rv1GVGJwlYxw3AL7SbtYgpo_6IYJVu7MeF3yar52BrBWMFGpzpVUhgodNE49cXF_ez43LUg-khr_F9ZNPJTkvmqHVZWjVWhs0Yp4jyh29YrtEYUcegzvo3Pcv9JnRXO_yQXws-h2ZEjtBo78wQc3tCTd7nw-MpjbgoPLmzwi14kymwwbP-fUfuTSvb7NiZCWXhc_UoAJNdZxyvVz5gxmUplBOtkubEN7xTOrf9z6Z2QDmrlDJPibEOVy7]--></g></svg>