<svg xmlns="http://www.w3.org/2000/svg" xmlns:xlink="http://www.w3.org/1999/xlink" contentStyleType="text/css" height="409px" preserveAspectRatio="none" style="width:932px;height:409px;background:#FFFFFF;" version="1.1" viewBox="0 0 932 409" width="932px" zoomAndPan="magnify"><defs/><g><!--class Kategorie--><g id="elem_Kategorie"><rect codeLine="2" fill="#F1F1F1" height="113.1875" id="Kategorie" rx="2.5" ry="2.5" style="stroke:#181818;stroke-width:0.5;" width="255.25" x="284.58" y="7"/><ellipse cx="374.1684" cy="23" fill="#ADD1B2" rx="11" ry="11" style="stroke:#181818;stroke-width:1.0;"/><path d="M377.1371,28.6406 Q376.559,28.9375 375.9184,29.0781 Q375.2778,29.2344 374.5746,29.2344 Q372.0746,29.2344 370.7465,27.5938 Q369.434,25.9375 369.434,22.8125 Q369.434,19.6875 370.7465,18.0313 Q372.0746,16.375 374.5746,16.375 Q375.2778,16.375 375.9184,16.5313 Q376.5746,16.6875 377.1371,16.9844 L377.1371,19.7031 Q376.5121,19.125 375.9184,18.8594 Q375.3246,18.5781 374.6996,18.5781 Q373.3559,18.5781 372.6684,19.6563 Q371.9809,20.7188 371.9809,22.8125 Q371.9809,24.9063 372.6684,25.9844 Q373.3559,27.0469 374.6996,27.0469 Q375.3246,27.0469 375.9184,26.7813 Q376.5121,26.5 377.1371,25.9219 L377.1371,28.6406 Z " fill="#000000"/><text fill="#000000" font-family="sans-serif" font-size="14" lengthAdjust="spacing" textLength="67.5732" x="394.6684" y="27.8467">Kategorie</text><line style="stroke:#181818;stroke-width:0.5;" x1="285.58" x2="538.83" y1="39" y2="39"/><text fill="#000000" font-family="sans-serif" font-size="14" lengthAdjust="spacing" textLength="199.9922" x="290.58" y="55.9951">"M&#225; n&#225;zev kategorie": string</text><text fill="#000000" font-family="sans-serif" font-size="14" lengthAdjust="spacing" textLength="243.25" x="290.58" y="72.292">"M&#225; identifik&#225;tor kategorie": string</text><text fill="#000000" font-family="sans-serif" font-size="14" lengthAdjust="spacing" textLength="237.2617" x="290.58" y="88.5889">"M&#225; platnost kategorie od": string</text><text fill="#000000" font-family="sans-serif" font-size="14" lengthAdjust="spacing" textLength="237.2617" x="290.58" y="104.8857">"M&#225; platnost kategorie do": string</text><line style="stroke:#181818;stroke-width:0.5;" x1="285.58" x2="538.83" y1="112.1875" y2="112.1875"/></g><!--class Ustanoven? pr?vn?ho p?edpisu--><g id="elem_Ustanoven&#237; pr&#225;vn&#237;ho p&#345;edpisu"><rect codeLine="9" fill="#F1F1F1" height="48" id="Ustanoven&#237; pr&#225;vn&#237;ho p&#345;edpisu" rx="2.5" ry="2.5" style="stroke:#181818;stroke-width:0.5;" width="242.4033" x="7" y="197.19"/><ellipse cx="22" cy="213.19" fill="#ADD1B2" rx="11" ry="11" style="stroke:#181818;stroke-width:1.0;"/><path d="M24.9688,218.8306 Q24.3906,219.1275 23.75,219.2681 Q23.1094,219.4244 22.4063,219.4244 Q19.9063,219.4244 18.5781,217.7837 Q17.2656,216.1275 17.2656,213.0025 Q17.2656,209.8775 18.5781,208.2212 Q19.9063,206.565 22.4063,206.565 Q23.1094,206.565 23.75,206.7212 Q24.4063,206.8775 24.9688,207.1744 L24.9688,209.8931 Q24.3438,209.315 23.75,209.0494 Q23.1563,208.7681 22.5313,208.7681 Q21.1875,208.7681 20.5,209.8462 Q19.8125,210.9087 19.8125,213.0025 Q19.8125,215.0962 20.5,216.1744 Q21.1875,217.2369 22.5313,217.2369 Q23.1563,217.2369 23.75,216.9712 Q24.3438,216.69 24.9688,216.1119 L24.9688,218.8306 Z " fill="#000000"/><text fill="#000000" font-family="sans-serif" font-size="14" lengthAdjust="spacing" textLength="210.4033" x="36" y="218.0367">Ustanoven&#237; pr&#225;vn&#237;ho p&#345;edpisu</text><line style="stroke:#181818;stroke-width:0.5;" x1="8" x2="248.4033" y1="229.19" y2="229.19"/><line style="stroke:#181818;stroke-width:0.5;" x1="8" x2="248.4033" y1="237.19" y2="237.19"/></g><!--class ?st?edn? spr?vn? ??ad--><g id="elem_&#218;st&#345;edn&#237; spr&#225;vn&#237; &#250;&#345;ad"><rect codeLine="12" fill="#F1F1F1" height="48" id="&#218;st&#345;edn&#237; spr&#225;vn&#237; &#250;&#345;ad" rx="2.5" ry="2.5" style="stroke:#181818;stroke-width:0.5;" width="183.6074" x="642.4" y="197.19"/><ellipse cx="657.4" cy="213.19" fill="#ADD1B2" rx="11" ry="11" style="stroke:#181818;stroke-width:1.0;"/><path d="M660.3688,218.8306 Q659.7906,219.1275 659.15,219.2681 Q658.5094,219.4244 657.8063,219.4244 Q655.3063,219.4244 653.9781,217.7837 Q652.6656,216.1275 652.6656,213.0025 Q652.6656,209.8775 653.9781,208.2212 Q655.3063,206.565 657.8063,206.565 Q658.5094,206.565 659.15,206.7212 Q659.8063,206.8775 660.3688,207.1744 L660.3688,209.8931 Q659.7438,209.315 659.15,209.0494 Q658.5563,208.7681 657.9313,208.7681 Q656.5875,208.7681 655.9,209.8462 Q655.2125,210.9087 655.2125,213.0025 Q655.2125,215.0962 655.9,216.1744 Q656.5875,217.2369 657.9313,217.2369 Q658.5563,217.2369 659.15,216.9712 Q659.7438,216.69 660.3688,216.1119 L660.3688,218.8306 Z " fill="#000000"/><text fill="#000000" font-family="sans-serif" font-size="14" lengthAdjust="spacing" textLength="151.6074" x="671.4" y="218.0367">&#218;st&#345;edn&#237; spr&#225;vn&#237; &#250;&#345;ad</text><line style="stroke:#181818;stroke-width:0.5;" x1="643.4" x2="825.0074" y1="229.19" y2="229.19"/><line style="stroke:#181818;stroke-width:0.5;" x1="643.4" x2="825.0074" y1="237.19" y2="237.19"/></g><!--class Org?n ve?ejn? moci--><g id="elem_Org&#225;n ve&#345;ejn&#233; moci"><rect codeLine="15" fill="#F1F1F1" height="48" id="Org&#225;n ve&#345;ejn&#233; moci" rx="2.5" ry="2.5" style="stroke:#181818;stroke-width:0.5;" width="170.4482" x="648.98" y="39.59"/><ellipse cx="663.98" cy="55.59" fill="#ADD1B2" rx="11" ry="11" style="stroke:#181818;stroke-width:1.0;"/><path d="M666.9488,61.2306 Q666.3706,61.5275 665.73,61.6681 Q665.0894,61.8244 664.3863,61.8244 Q661.8863,61.8244 660.5581,60.1837 Q659.2456,58.5275 659.2456,55.4025 Q659.2456,52.2775 660.5581,50.6212 Q661.8863,48.965 664.3863,48.965 Q665.0894,48.965 665.73,49.1212 Q666.3863,49.2775 666.9488,49.5744 L666.9488,52.2931 Q666.3238,51.715 665.73,51.4494 Q665.1363,51.1681 664.5113,51.1681 Q663.1675,51.1681 662.48,52.2462 Q661.7925,53.3087 661.7925,55.4025 Q661.7925,57.4962 662.48,58.5744 Q663.1675,59.6369 664.5113,59.6369 Q665.1363,59.6369 665.73,59.3712 Q666.3238,59.09 666.9488,58.5119 L666.9488,61.2306 Z " fill="#000000"/><text fill="#000000" font-family="sans-serif" font-size="14" lengthAdjust="spacing" textLength="138.4482" x="677.98" y="60.4367">Org&#225;n ve&#345;ejn&#233; moci</text><line style="stroke:#181818;stroke-width:0.5;" x1="649.98" x2="818.4282" y1="71.59" y2="71.59"/><line style="stroke:#181818;stroke-width:0.5;" x1="649.98" x2="818.4282" y1="79.59" y2="79.59"/></g><!--class Kategorie org?n? ve?ejn? moci--><g id="elem_Kategorie org&#225;n&#367; ve&#345;ejn&#233; moci"><rect codeLine="18" fill="#F1F1F1" height="48" id="Kategorie org&#225;n&#367; ve&#345;ejn&#233; moci" rx="2.5" ry="2.5" style="stroke:#181818;stroke-width:0.5;" width="248.8906" x="358.76" y="197.19"/><ellipse cx="373.76" cy="213.19" fill="#ADD1B2" rx="11" ry="11" style="stroke:#181818;stroke-width:1.0;"/><path d="M376.7288,218.8306 Q376.1506,219.1275 375.51,219.2681 Q374.8694,219.4244 374.1663,219.4244 Q371.6663,219.4244 370.3381,217.7837 Q369.0256,216.1275 369.0256,213.0025 Q369.0256,209.8775 370.3381,208.2212 Q371.6663,206.565 374.1663,206.565 Q374.8694,206.565 375.51,206.7212 Q376.1663,206.8775 376.7288,207.1744 L376.7288,209.8931 Q376.1038,209.315 375.51,209.0494 Q374.9163,208.7681 374.2913,208.7681 Q372.9475,208.7681 372.26,209.8462 Q371.5725,210.9087 371.5725,213.0025 Q371.5725,215.0962 372.26,216.1744 Q372.9475,217.2369 374.2913,217.2369 Q374.9163,217.2369 375.51,216.9712 Q376.1038,216.69 376.7288,216.1119 L376.7288,218.8306 Z " fill="#000000"/><text fill="#000000" font-family="sans-serif" font-size="14" lengthAdjust="spacing" textLength="216.8906" x="387.76" y="218.0367">Kategorie org&#225;n&#367; ve&#345;ejn&#233; moci</text><line style="stroke:#181818;stroke-width:0.5;" x1="359.76" x2="606.6506" y1="229.19" y2="229.19"/><line style="stroke:#181818;stroke-width:0.5;" x1="359.76" x2="606.6506" y1="237.19" y2="237.19"/></g><!--class Za?azen? kategorie org?n? ve?ejn? moci--><g id="elem_Za&#345;azen&#237; kategorie org&#225;n&#367; ve&#345;ejn&#233; moci"><rect codeLine="21" fill="#F1F1F1" height="80.5938" id="Za&#345;azen&#237; kategorie org&#225;n&#367; ve&#345;ejn&#233; moci" rx="2.5" ry="2.5" style="stroke:#181818;stroke-width:0.5;" width="313.4971" x="326.45" y="322.19"/><ellipse cx="341.45" cy="338.19" fill="#ADD1B2" rx="11" ry="11" style="stroke:#181818;stroke-width:1.0;"/><path d="M344.4188,343.8306 Q343.8406,344.1275 343.2,344.2681 Q342.5594,344.4244 341.8563,344.4244 Q339.3563,344.4244 338.0281,342.7837 Q336.7156,341.1275 336.7156,338.0025 Q336.7156,334.8775 338.0281,333.2212 Q339.3563,331.565 341.8563,331.565 Q342.5594,331.565 343.2,331.7212 Q343.8563,331.8775 344.4188,332.1744 L344.4188,334.8931 Q343.7938,334.315 343.2,334.0494 Q342.6063,333.7681 341.9813,333.7681 Q340.6375,333.7681 339.95,334.8462 Q339.2625,335.9087 339.2625,338.0025 Q339.2625,340.0962 339.95,341.1744 Q340.6375,342.2369 341.9813,342.2369 Q342.6063,342.2369 343.2,341.9712 Q343.7938,341.69 344.4188,341.1119 L344.4188,343.8306 Z " fill="#000000"/><text fill="#000000" font-family="sans-serif" font-size="14" lengthAdjust="spacing" textLength="281.4971" x="355.45" y="343.0367">Za&#345;azen&#237; kategorie org&#225;n&#367; ve&#345;ejn&#233; moci</text><line style="stroke:#181818;stroke-width:0.5;" x1="327.45" x2="638.9471" y1="354.19" y2="354.19"/><text fill="#000000" font-family="sans-serif" font-size="14" lengthAdjust="spacing" textLength="214.0742" x="332.45" y="371.1851">"za&#345;azen&#237; kategorie do": string</text><text fill="#000000" font-family="sans-serif" font-size="14" lengthAdjust="spacing" textLength="214.0742" x="332.45" y="387.482">"za&#345;azen&#237; kategorie od": string</text><line style="stroke:#181818;stroke-width:0.5;" x1="327.45" x2="638.9471" y1="394.7837" y2="394.7837"/></g><!--reverse link Org?n ve?ejn? moci to ?st?edn? spr?vn? ??ad--><g id="link_Org&#225;n ve&#345;ejn&#233; moci_&#218;st&#345;edn&#237; spr&#225;vn&#237; &#250;&#345;ad"><path codeLine="26" d="M734.2,105.89 C734.2,135.22 734.2,167.33 734.2,196.73 " fill="none" id="Org&#225;n ve&#345;ejn&#233; moci-backto-&#218;st&#345;edn&#237; spr&#225;vn&#237; &#250;&#345;ad" style="stroke:#181818;stroke-width:1.0;"/><polygon fill="none" points="734.2,87.89,728.2,105.89,740.2,105.89,734.2,87.89" style="stroke:#181818;stroke-width:1.0;"/></g><!--reverse link Kategorie to Kategorie org?n? ve?ejn? moci--><g id="link_Kategorie_Kategorie org&#225;n&#367; ve&#345;ejn&#233; moci"><path codeLine="27" d="M468.1949,135.424 C474.3249,144.944 470.14,139.95 474.2,150.19 C480.07,164.99 482.3,182.81 483.07,196.77 " fill="none" id="Kategorie-backto-Kategorie org&#225;n&#367; ve&#345;ejn&#233; moci" style="stroke:#181818;stroke-width:1.0;"/><polygon fill="none" points="458.45,120.29,463.1502,138.6723,473.2395,132.1757,458.45,120.29" style="stroke:#181818;stroke-width:1.0;"/></g><!--link Kategorie to Ustanoven? pr?vn?ho p?edpisu--><g id="link_Kategorie_Ustanoven&#237; pr&#225;vn&#237;ho p&#345;edpisu"><path codeLine="28" d="M336.63,120.66 C313.12,136.79 286.68,153.66 261.2,167.19 C240.34,178.26 216.65,188.41 195.1,196.8 " fill="none" id="Kategorie-Ustanoven&#237; pr&#225;vn&#237;ho p&#345;edpisu" style="stroke:#181818;stroke-width:1.0;"/><text fill="#000000" font-family="sans-serif" font-size="13" lengthAdjust="spacing" textLength="171.647" x="288.2" y="163.2569">Je vymezena ustanoven&#237;m</text></g><!--link Kategorie to Ustanoven? pr?vn?ho p?edpisu--><g id="link_Kategorie_Ustanoven&#237; pr&#225;vn&#237;ho p&#345;edpisu"><path codeLine="30" d="M284.29,77.8 C191.28,90.35 76.72,112.95 47.2,150.19 C33.35,167.66 50.28,184.14 72.18,196.71 " fill="none" id="Kategorie-Ustanoven&#237; pr&#225;vn&#237;ho p&#345;edpisu-1" style="stroke:#181818;stroke-width:1.0;"/><text fill="#000000" font-family="sans-serif" font-size="13" lengthAdjust="spacing" textLength="204.8135" x="48.2" y="163.2569">slo&#382;en&#237; vymezeno ustanoven&#237;m</text></g><!--link Kategorie to ?st?edn? spr?vn? ??ad--><g id="link_Kategorie_&#218;st&#345;edn&#237; spr&#225;vn&#237; &#250;&#345;ad"><path codeLine="29" d="M513.74,120.59 C543.27,136.24 575.77,152.88 606.2,167.19 C628.19,177.52 652.75,187.95 674.43,196.79 " fill="none" id="Kategorie-&#218;st&#345;edn&#237; spr&#225;vn&#237; &#250;&#345;ad" style="stroke:#181818;stroke-width:1.0;"/><text fill="#000000" font-family="sans-serif" font-size="13" lengthAdjust="spacing" textLength="118.168" x="607.2" y="163.2569">Ohla&#353;uje kategorii</text><text fill="#000000" font-family="sans-serif" font-size="13" lengthAdjust="spacing" textLength="24.8066" x="633.0335" y="186.0975">1..1</text></g><!--link Kategorie org?n? ve?ejn? moci to Za?azen? kategorie org?n? ve?ejn? moci--><g id="link_Kategorie org&#225;n&#367; ve&#345;ejn&#233; moci_Za&#345;azen&#237; kategorie org&#225;n&#367; ve&#345;ejn&#233; moci"><path codeLine="31" d="M358.44,238.76 C339.18,246.8 321.61,258.44 309.2,275.19 C293.25,296.73 303.98,313.21 326.37,325.7 " fill="none" id="Kategorie org&#225;n&#367; ve&#345;ejn&#233; moci-Za&#345;azen&#237; kategorie org&#225;n&#367; ve&#345;ejn&#233; moci" style="stroke:#181818;stroke-width:1.0;"/><text fill="#000000" font-family="sans-serif" font-size="13" lengthAdjust="spacing" textLength="301.9326" x="310.2" y="288.2569">m&#225; pod&#345;azenou kategorii org&#225;n&#367; ve&#345;ejn&#233; moci</text></g><!--link Kategorie org?n? ve?ejn? moci to Za?azen? kategorie org?n? ve?ejn? moci--><g id="link_Kategorie org&#225;n&#367; ve&#345;ejn&#233; moci_Za&#345;azen&#237; kategorie org&#225;n&#367; ve&#345;ejn&#233; moci"><path codeLine="32" d="M582.01,245.57 C595.49,252.9 607.62,262.53 616.2,275.19 C628.79,293.75 619.88,309.25 601.89,321.74 " fill="none" id="Kategorie org&#225;n&#367; ve&#345;ejn&#233; moci-Za&#345;azen&#237; kategorie org&#225;n&#367; ve&#345;ejn&#233; moci-1" style="stroke:#181818;stroke-width:1.0;"/><text fill="#000000" font-family="sans-serif" font-size="13" lengthAdjust="spacing" textLength="301.9326" x="622.2" y="288.2569">m&#225; nad&#345;azenou kategorii org&#225;nu ve&#345;ejn&#233; moci</text></g><!--SRC=[jPEnJiCm48RtFCKfUojrhNW24Eg0MDXEpT6wJNnHx4IYm8EKBIC3OcTWiV9Us6c3quWq0Oajah__xlz_EueqI4n8fRYa6qenGyqPI9OKB6DK2gvGquepGV0O08JNfWHfoXqLi6rEmZaedGcvQW0HaTJYNcnDwQRrWscCMhBI7W6Enb0HU-evE5eDRvL6oGL9ymPfPih2VgmPqcfFKIfK7jeCdZOlIhiJHwi61_DHxJ4w9HVPofGI2hBuHffNI7WfJX5V4zTmzNuMlqExPLSRtOvHsYPsFqdQFVGnxKQjWxuq5q-JoK0fWKzve8TJjoHEC7n3SnlZag1uICW6GSYz8kbEcqsdit3e8jt0nJh6gimtz5tB7vsfcAlFcZaQv8x1CG_1hVlT0t2h4_SdS7IGSUwJz7V_lsOazfl9kwel]--></g></svg>