<svg xmlns="http://www.w3.org/2000/svg" xmlns:xlink="http://www.w3.org/1999/xlink" contentStyleType="text/css" height="252px" preserveAspectRatio="none" style="width:990px;height:252px;background:#FFFFFF;" version="1.1" viewBox="0 0 990 252" width="990px" zoomAndPan="magnify"><defs/><g><!--class Kategorie--><g id="elem_Kategorie"><rect codeLine="2" fill="#F1F1F1" height="113.1875" id="Kategorie" rx="2.5" ry="2.5" style="stroke:#181818;stroke-width:0.5;" width="255.25" x="275.41" y="7"/><ellipse cx="364.9984" cy="23" fill="#ADD1B2" rx="11" ry="11" style="stroke:#181818;stroke-width:1.0;"/><path d="M367.9671,28.6406 Q367.389,28.9375 366.7484,29.0781 Q366.1078,29.2344 365.4046,29.2344 Q362.9046,29.2344 361.5765,27.5938 Q360.264,25.9375 360.264,22.8125 Q360.264,19.6875 361.5765,18.0313 Q362.9046,16.375 365.4046,16.375 Q366.1078,16.375 366.7484,16.5313 Q367.4046,16.6875 367.9671,16.9844 L367.9671,19.7031 Q367.3421,19.125 366.7484,18.8594 Q366.1546,18.5781 365.5296,18.5781 Q364.1859,18.5781 363.4984,19.6563 Q362.8109,20.7188 362.8109,22.8125 Q362.8109,24.9063 363.4984,25.9844 Q364.1859,27.0469 365.5296,27.0469 Q366.1546,27.0469 366.7484,26.7813 Q367.3421,26.5 367.9671,25.9219 L367.9671,28.6406 Z " fill="#000000"/><text fill="#000000" font-family="sans-serif" font-size="14" lengthAdjust="spacing" textLength="67.5732" x="385.4984" y="27.8467">Kategorie</text><line style="stroke:#181818;stroke-width:0.5;" x1="276.41" x2="529.66" y1="39" y2="39"/><text fill="#000000" font-family="sans-serif" font-size="14" lengthAdjust="spacing" textLength="237.2617" x="281.41" y="55.9951">"M&#225; platnost kategorie do": string</text><text fill="#000000" font-family="sans-serif" font-size="14" lengthAdjust="spacing" textLength="237.2617" x="281.41" y="72.292">"M&#225; platnost kategorie od": string</text><text fill="#000000" font-family="sans-serif" font-size="14" lengthAdjust="spacing" textLength="243.25" x="281.41" y="88.5889">"M&#225; identifik&#225;tor kategorie": string</text><text fill="#000000" font-family="sans-serif" font-size="14" lengthAdjust="spacing" textLength="199.9922" x="281.41" y="104.8857">"M&#225; n&#225;zev kategorie": string</text><line style="stroke:#181818;stroke-width:0.5;" x1="276.41" x2="529.66" y1="112.1875" y2="112.1875"/></g><!--class Kategorie soukromopr?vn?ch u?ivatel? ?daj?--><g id="elem_Kategorie soukromopr&#225;vn&#237;ch u&#382;ivatel&#367; &#250;daj&#367;"><rect codeLine="9" fill="#F1F1F1" height="48" id="Kategorie soukromopr&#225;vn&#237;ch u&#382;ivatel&#367; &#250;daj&#367;" rx="2.5" ry="2.5" style="stroke:#181818;stroke-width:0.5;" width="346.0703" x="7" y="197.19"/><ellipse cx="22" cy="213.19" fill="#ADD1B2" rx="11" ry="11" style="stroke:#181818;stroke-width:1.0;"/><path d="M24.9688,218.8306 Q24.3906,219.1275 23.75,219.2681 Q23.1094,219.4244 22.4063,219.4244 Q19.9063,219.4244 18.5781,217.7838 Q17.2656,216.1275 17.2656,213.0025 Q17.2656,209.8775 18.5781,208.2213 Q19.9063,206.565 22.4063,206.565 Q23.1094,206.565 23.75,206.7213 Q24.4063,206.8775 24.9688,207.1744 L24.9688,209.8931 Q24.3438,209.315 23.75,209.0494 Q23.1563,208.7681 22.5313,208.7681 Q21.1875,208.7681 20.5,209.8463 Q19.8125,210.9088 19.8125,213.0025 Q19.8125,215.0963 20.5,216.1744 Q21.1875,217.2369 22.5313,217.2369 Q23.1563,217.2369 23.75,216.9713 Q24.3438,216.69 24.9688,216.1119 L24.9688,218.8306 Z " fill="#000000"/><text fill="#000000" font-family="sans-serif" font-size="14" lengthAdjust="spacing" textLength="314.0703" x="36" y="218.0367">Kategorie soukromopr&#225;vn&#237;ch u&#382;ivatel&#367; &#250;daj&#367;</text><line style="stroke:#181818;stroke-width:0.5;" x1="8" x2="352.0703" y1="229.19" y2="229.19"/><line style="stroke:#181818;stroke-width:0.5;" x1="8" x2="352.0703" y1="237.19" y2="237.19"/></g><!--class Ustanoven? pr?vn?ho p?edpisu--><g id="elem_Ustanoven&#237; pr&#225;vn&#237;ho p&#345;edpisu"><rect codeLine="12" fill="#F1F1F1" height="48" id="Ustanoven&#237; pr&#225;vn&#237;ho p&#345;edpisu" rx="2.5" ry="2.5" style="stroke:#181818;stroke-width:0.5;" width="242.4033" x="387.83" y="197.19"/><ellipse cx="402.83" cy="213.19" fill="#ADD1B2" rx="11" ry="11" style="stroke:#181818;stroke-width:1.0;"/><path d="M405.7988,218.8306 Q405.2206,219.1275 404.58,219.2681 Q403.9394,219.4244 403.2363,219.4244 Q400.7363,219.4244 399.4081,217.7838 Q398.0956,216.1275 398.0956,213.0025 Q398.0956,209.8775 399.4081,208.2213 Q400.7363,206.565 403.2363,206.565 Q403.9394,206.565 404.58,206.7213 Q405.2363,206.8775 405.7988,207.1744 L405.7988,209.8931 Q405.1738,209.315 404.58,209.0494 Q403.9863,208.7681 403.3613,208.7681 Q402.0175,208.7681 401.33,209.8463 Q400.6425,210.9088 400.6425,213.0025 Q400.6425,215.0963 401.33,216.1744 Q402.0175,217.2369 403.3613,217.2369 Q403.9863,217.2369 404.58,216.9713 Q405.1738,216.69 405.7988,216.1119 L405.7988,218.8306 Z " fill="#000000"/><text fill="#000000" font-family="sans-serif" font-size="14" lengthAdjust="spacing" textLength="210.4033" x="416.83" y="218.0367">Ustanoven&#237; pr&#225;vn&#237;ho p&#345;edpisu</text><line style="stroke:#181818;stroke-width:0.5;" x1="388.83" x2="629.2333" y1="229.19" y2="229.19"/><line style="stroke:#181818;stroke-width:0.5;" x1="388.83" x2="629.2333" y1="237.19" y2="237.19"/></g><!--class ?st?edn? spr?vn? ??ad--><g id="elem_&#218;st&#345;edn&#237; spr&#225;vn&#237; &#250;&#345;ad"><rect codeLine="15" fill="#F1F1F1" height="48" id="&#218;st&#345;edn&#237; spr&#225;vn&#237; &#250;&#345;ad" rx="2.5" ry="2.5" style="stroke:#181818;stroke-width:0.5;" width="183.6074" x="735.23" y="197.19"/><ellipse cx="750.23" cy="213.19" fill="#ADD1B2" rx="11" ry="11" style="stroke:#181818;stroke-width:1.0;"/><path d="M753.1988,218.8306 Q752.6206,219.1275 751.98,219.2681 Q751.3394,219.4244 750.6363,219.4244 Q748.1363,219.4244 746.8081,217.7838 Q745.4956,216.1275 745.4956,213.0025 Q745.4956,209.8775 746.8081,208.2213 Q748.1363,206.565 750.6363,206.565 Q751.3394,206.565 751.98,206.7213 Q752.6363,206.8775 753.1988,207.1744 L753.1988,209.8931 Q752.5738,209.315 751.98,209.0494 Q751.3863,208.7681 750.7613,208.7681 Q749.4175,208.7681 748.73,209.8463 Q748.0425,210.9088 748.0425,213.0025 Q748.0425,215.0963 748.73,216.1744 Q749.4175,217.2369 750.7613,217.2369 Q751.3863,217.2369 751.98,216.9713 Q752.5738,216.69 753.1988,216.1119 L753.1988,218.8306 Z " fill="#000000"/><text fill="#000000" font-family="sans-serif" font-size="14" lengthAdjust="spacing" textLength="151.6074" x="764.23" y="218.0367">&#218;st&#345;edn&#237; spr&#225;vn&#237; &#250;&#345;ad</text><line style="stroke:#181818;stroke-width:0.5;" x1="736.23" x2="917.8374" y1="229.19" y2="229.19"/><line style="stroke:#181818;stroke-width:0.5;" x1="736.23" x2="917.8374" y1="237.19" y2="237.19"/></g><!--class Org?n ve?ejn? moci--><g id="elem_Org&#225;n ve&#345;ejn&#233; moci"><rect codeLine="18" fill="#F1F1F1" height="48" id="Org&#225;n ve&#345;ejn&#233; moci" rx="2.5" ry="2.5" style="stroke:#181818;stroke-width:0.5;" width="170.4482" x="812.81" y="39.6"/><ellipse cx="827.81" cy="55.6" fill="#ADD1B2" rx="11" ry="11" style="stroke:#181818;stroke-width:1.0;"/><path d="M830.7788,61.2406 Q830.2006,61.5375 829.56,61.6781 Q828.9194,61.8344 828.2163,61.8344 Q825.7163,61.8344 824.3881,60.1937 Q823.0756,58.5375 823.0756,55.4125 Q823.0756,52.2875 824.3881,50.6312 Q825.7163,48.975 828.2163,48.975 Q828.9194,48.975 829.56,49.1312 Q830.2163,49.2875 830.7788,49.5844 L830.7788,52.3031 Q830.1538,51.725 829.56,51.4594 Q828.9663,51.1781 828.3413,51.1781 Q826.9975,51.1781 826.31,52.2562 Q825.6225,53.3187 825.6225,55.4125 Q825.6225,57.5062 826.31,58.5844 Q826.9975,59.6469 828.3413,59.6469 Q828.9663,59.6469 829.56,59.3812 Q830.1538,59.1 830.7788,58.5219 L830.7788,61.2406 Z " fill="#000000"/><text fill="#000000" font-family="sans-serif" font-size="14" lengthAdjust="spacing" textLength="138.4482" x="841.81" y="60.4467">Org&#225;n ve&#345;ejn&#233; moci</text><line style="stroke:#181818;stroke-width:0.5;" x1="813.81" x2="982.2582" y1="71.6" y2="71.6"/><line style="stroke:#181818;stroke-width:0.5;" x1="813.81" x2="982.2582" y1="79.6" y2="79.6"/></g><!--reverse link Kategorie to Kategorie soukromopr?vn?ch u?ivatel? ?daj?--><g id="link_Kategorie_Kategorie soukromopr&#225;vn&#237;ch u&#382;ivatel&#367; &#250;daj&#367;"><path codeLine="21" d="M306.7653,130.8782 C292.5653,140.6982 292.76,140.6 279.04,150.19 C256.95,165.62 232.2,183.12 212.97,196.76 " fill="none" id="Kategorie-backto-Kategorie soukromopr&#225;vn&#237;ch u&#382;ivatel&#367; &#250;daj&#367;" style="stroke:#181818;stroke-width:1.0;"/><polygon fill="none" points="321.57,120.64,303.3526,125.9433,310.178,135.8131,321.57,120.64" style="stroke:#181818;stroke-width:1.0;"/></g><!--reverse link Org?n ve?ejn? moci to ?st?edn? spr?vn? ??ad--><g id="link_Org&#225;n ve&#345;ejn&#233; moci_&#218;st&#345;edn&#237; spr&#225;vn&#237; &#250;&#345;ad"><path codeLine="22" d="M894.798,105.6916 C892.648,127.3016 889.13,141.97 876.04,167.19 C870.44,177.98 862.04,188.2 853.78,196.74 " fill="none" id="Org&#225;n ve&#345;ejn&#233; moci-backto-&#218;st&#345;edn&#237; spr&#225;vn&#237; &#250;&#345;ad" style="stroke:#181818;stroke-width:1.0;"/><polygon fill="none" points="896.58,87.78,888.8274,105.0976,900.7685,106.2856,896.58,87.78" style="stroke:#181818;stroke-width:1.0;"/></g><!--link Kategorie to Ustanoven? pr?vn?ho p?edpisu--><g id="link_Kategorie_Ustanoven&#237; pr&#225;vn&#237;ho p&#345;edpisu"><path codeLine="23" d="M299.74,120.63 C285.91,134.97 280.3,150.96 293.04,167.19 C299.72,175.72 342.07,186.96 387.53,196.89 " fill="none" id="Kategorie-Ustanoven&#237; pr&#225;vn&#237;ho p&#345;edpisu" style="stroke:#181818;stroke-width:1.0;"/><text fill="#000000" font-family="sans-serif" font-size="13" lengthAdjust="spacing" textLength="171.647" x="294.04" y="163.2569">Je vymezena ustanoven&#237;m</text></g><!--link Kategorie to Ustanoven? pr?vn?ho p?edpisu--><g id="link_Kategorie_Ustanoven&#237; pr&#225;vn&#237;ho p&#345;edpisu"><path codeLine="24" d="M448.64,120.3 C456.06,130.07 463.46,140.29 470.04,150.19 C480.04,165.26 489.94,183.07 497.26,196.96 " fill="none" id="Kategorie-Ustanoven&#237; pr&#225;vn&#237;ho p&#345;edpisu-1" style="stroke:#181818;stroke-width:1.0;"/><text fill="#000000" font-family="sans-serif" font-size="13" lengthAdjust="spacing" textLength="204.8135" x="482.04" y="163.2569">slo&#382;en&#237; vymezeno ustanoven&#237;m</text></g><!--link Kategorie to ?st?edn? spr?vn? ??ad--><g id="link_Kategorie_&#218;st&#345;edn&#237; spr&#225;vn&#237; &#250;&#345;ad"><path codeLine="25" d="M531.07,96.08 C582.8,110.36 642.55,128.84 695.04,150.19 C727.35,163.34 762.15,181.99 787.9,196.74 " fill="none" id="Kategorie-&#218;st&#345;edn&#237; spr&#225;vn&#237; &#250;&#345;ad" style="stroke:#181818;stroke-width:1.0;"/><text fill="#000000" font-family="sans-serif" font-size="13" lengthAdjust="spacing" textLength="118.168" x="734.04" y="163.2569">Ohla&#353;uje kategorii</text></g><!--SRC=[dTAzJiCm40VmFKznojuNg7W24Eg0U00hFXBdmsVPZYKAF4ZPF3AWxWnTBByN3gG9LI58dUztVz_PDcX1iWwDOWNUeMAQMT8WIM9MjCmOk64MIz82uIa3o6-31zKoAybOQAOQftmDnceXomL5_4m9ZjAA1z44FnmysJCeWz-Y-msyPEEe-JoheRxHr97ImJiPteiA-dWGBe4sxY5yS5R7VPvschllZMMI72OEnxwAGCKTSYLCVwh3gx53PT3co5Dmt35-AZUw35w2myHh6TwWeqACP9xuwdcrkc23xA_uxxp5AN-SFjZ_zr-djxX6S8yTRb4owEUExh8qqr8yV9anb1P3bozz2DnKBOk-ht7wAIB_1000]--></g></svg>