<svg xmlns="http://www.w3.org/2000/svg" xmlns:xlink="http://www.w3.org/1999/xlink" contentStyleType="text/css" data-diagram-type="CLASS" height="458px" preserveAspectRatio="none" style="width:1889px;height:458px;background:#FFFFFF;" version="1.1" viewBox="0 0 1889 458" width="1889px" zoomAndPan="magnify"><defs/><g><!--class Soukromopr?vn? u?ivatel ?daj?--><g id="elem_Soukromopr&#225;vn&#237; u&#382;ivatel &#250;daj&#367;"><rect codeLine="2" fill="#F1F1F1" height="194.6719" id="Soukromopr&#225;vn&#237; u&#382;ivatel &#250;daj&#367;" rx="2.5" ry="2.5" style="stroke:#181818;stroke-width:0.5;" width="1060.0996" x="433.15" y="132"/><ellipse cx="849.8517" cy="148" fill="#ADD1B2" rx="11" ry="11" style="stroke:#181818;stroke-width:1;"/><path d="M852.8204,153.6406 Q852.2423,153.9375 851.6017,154.0781 Q850.961,154.2344 850.2579,154.2344 Q847.7579,154.2344 846.4298,152.5938 Q845.1173,150.9375 845.1173,147.8125 Q845.1173,144.6875 846.4298,143.0313 Q847.7579,141.375 850.2579,141.375 Q850.961,141.375 851.6017,141.5313 Q852.2579,141.6875 852.8204,141.9844 L852.8204,144.7031 Q852.1954,144.125 851.6017,143.8594 Q851.0079,143.5781 850.3829,143.5781 Q849.0392,143.5781 848.3517,144.6563 Q847.6642,145.7188 847.6642,147.8125 Q847.6642,149.9063 848.3517,150.9844 Q849.0392,152.0469 850.3829,152.0469 Q851.0079,152.0469 851.6017,151.7813 Q852.1954,151.5 852.8204,150.9219 L852.8204,153.6406 Z " fill="#000000"/><text fill="#000000" font-family="sans-serif" font-size="14" lengthAdjust="spacing" textLength="218.1963" x="870.3517" y="152.8467">Soukromopr&#225;vn&#237; u&#382;ivatel &#250;daj&#367;</text><line style="stroke:#181818;stroke-width:0.5;" x1="434.15" x2="1492.2496" y1="164" y2="164"/><text fill="#000000" font-family="sans-serif" font-size="14" lengthAdjust="spacing" textLength="421.1211" x="439.15" y="180.9951">"M&#225; datum vzniku soukromopr&#225;vn&#237;ho u&#382;ivatele &#250;daj&#367;": date</text><text fill="#000000" font-family="sans-serif" font-size="14" lengthAdjust="spacing" textLength="421.415" x="439.15" y="197.292">"M&#225; datum z&#225;niku soukromopr&#225;vn&#237;ho u&#382;ivatele &#250;daj&#367;": date</text><text fill="#000000" font-family="sans-serif" font-size="14" lengthAdjust="spacing" textLength="501.8877" x="439.15" y="213.5889">"M&#225; identifika&#269;n&#237; &#269;&#237;slo osoby soukromopr&#225;vn&#237;ho u&#382;ivatele &#250;daj&#367;": string</text><text fill="#000000" font-family="sans-serif" font-size="14" lengthAdjust="spacing" textLength="419.4053" x="439.15" y="229.8857">"M&#225; identifik&#225;tor soukromopr&#225;vn&#237;ho u&#382;ivatele &#250;daj&#367;": string</text><text fill="#000000" font-family="sans-serif" font-size="14" lengthAdjust="spacing" textLength="1048.0996" x="439.15" y="246.1826">"M&#225; obchodn&#237; firmu nebo n&#225;zev nebo ozna&#269;en&#237; osoby nebo jm&#233;no nebo  pop&#345;&#237;padn&#283; jm&#233;na nebo  a p&#345;&#237;jmen&#237; soukromopr&#225;vn&#237;ho u&#382;ivatele &#250;daj&#367;": text</text><text fill="#000000" font-family="sans-serif" font-size="14" lengthAdjust="spacing" textLength="505.1895" x="439.15" y="262.4795">"M&#225; pozastaven&#233; p&#367;soben&#237; soukromopr&#225;vn&#237;ho u&#382;ivatele &#250;daj&#367; do": date</text><text fill="#000000" font-family="sans-serif" font-size="14" lengthAdjust="spacing" textLength="505.1895" x="439.15" y="278.7764">"M&#225; pozastaven&#233; p&#367;soben&#237; soukromopr&#225;vn&#237;ho u&#382;ivatele &#250;daj&#367; od": date</text><text fill="#000000" font-family="sans-serif" font-size="14" lengthAdjust="spacing" textLength="487.3408" x="439.15" y="295.0732">"M&#225; p&#345;eru&#353;en&#233; p&#367;soben&#237; soukromopr&#225;vn&#237;ho u&#382;ivatele &#250;daj&#367; do": date</text><text fill="#000000" font-family="sans-serif" font-size="14" lengthAdjust="spacing" textLength="487.3408" x="439.15" y="311.3701">"M&#225; p&#345;eru&#353;en&#233; p&#367;soben&#237; soukromopr&#225;vn&#237;ho u&#382;ivatele &#250;daj&#367; od": date</text><line style="stroke:#181818;stroke-width:0.5;" x1="434.15" x2="1492.2496" y1="318.6719" y2="318.6719"/></g><!--class Org?n ve?ejn? moci nebo soukromopr?vn? u?ivatel ?daj?--><g id="elem_Org&#225;n ve&#345;ejn&#233; moci nebo soukromopr&#225;vn&#237; u&#382;ivatel &#250;daj&#367;"><rect codeLine="14" fill="#F1F1F1" height="48" id="Org&#225;n ve&#345;ejn&#233; moci nebo soukromopr&#225;vn&#237; u&#382;ivatel &#250;daj&#367;" rx="2.5" ry="2.5" style="stroke:#181818;stroke-width:0.5;" width="430.8906" x="1102.76" y="7"/><ellipse cx="1117.76" cy="23" fill="#ADD1B2" rx="11" ry="11" style="stroke:#181818;stroke-width:1;"/><path d="M1120.7288,28.6406 Q1120.1506,28.9375 1119.51,29.0781 Q1118.8694,29.2344 1118.1663,29.2344 Q1115.6663,29.2344 1114.3381,27.5938 Q1113.0256,25.9375 1113.0256,22.8125 Q1113.0256,19.6875 1114.3381,18.0313 Q1115.6663,16.375 1118.1663,16.375 Q1118.8694,16.375 1119.51,16.5313 Q1120.1663,16.6875 1120.7288,16.9844 L1120.7288,19.7031 Q1120.1038,19.125 1119.51,18.8594 Q1118.9163,18.5781 1118.2913,18.5781 Q1116.9475,18.5781 1116.26,19.6563 Q1115.5725,20.7188 1115.5725,22.8125 Q1115.5725,24.9063 1116.26,25.9844 Q1116.9475,27.0469 1118.2913,27.0469 Q1118.9163,27.0469 1119.51,26.7813 Q1120.1038,26.5 1120.7288,25.9219 L1120.7288,28.6406 Z " fill="#000000"/><text fill="#000000" font-family="sans-serif" font-size="14" lengthAdjust="spacing" textLength="398.8906" x="1131.76" y="27.8467">Org&#225;n ve&#345;ejn&#233; moci nebo soukromopr&#225;vn&#237; u&#382;ivatel &#250;daj&#367;</text><line style="stroke:#181818;stroke-width:0.5;" x1="1103.76" x2="1532.6506" y1="39" y2="39"/><line style="stroke:#181818;stroke-width:0.5;" x1="1103.76" x2="1532.6506" y1="47" y2="47"/></g><!--class Ustanoven? pr?vn?ho p?edpisu--><g id="elem_Ustanoven&#237; pr&#225;vn&#237;ho p&#345;edpisu"><rect codeLine="17" fill="#F1F1F1" height="48" id="Ustanoven&#237; pr&#225;vn&#237;ho p&#345;edpisu" rx="2.5" ry="2.5" style="stroke:#181818;stroke-width:0.5;" width="242.4033" x="7" y="403.67"/><ellipse cx="22" cy="419.67" fill="#ADD1B2" rx="11" ry="11" style="stroke:#181818;stroke-width:1;"/><path d="M24.9688,425.3106 Q24.3906,425.6075 23.75,425.7481 Q23.1094,425.9044 22.4063,425.9044 Q19.9063,425.9044 18.5781,424.2638 Q17.2656,422.6075 17.2656,419.4825 Q17.2656,416.3575 18.5781,414.7013 Q19.9063,413.045 22.4063,413.045 Q23.1094,413.045 23.75,413.2013 Q24.4063,413.3575 24.9688,413.6544 L24.9688,416.3731 Q24.3438,415.795 23.75,415.5294 Q23.1563,415.2481 22.5313,415.2481 Q21.1875,415.2481 20.5,416.3263 Q19.8125,417.3888 19.8125,419.4825 Q19.8125,421.5763 20.5,422.6544 Q21.1875,423.7169 22.5313,423.7169 Q23.1563,423.7169 23.75,423.4513 Q24.3438,423.17 24.9688,422.5919 L24.9688,425.3106 Z " fill="#000000"/><text fill="#000000" font-family="sans-serif" font-size="14" lengthAdjust="spacing" textLength="210.4033" x="36" y="424.5167">Ustanoven&#237; pr&#225;vn&#237;ho p&#345;edpisu</text><line style="stroke:#181818;stroke-width:0.5;" x1="8" x2="248.4033" y1="435.67" y2="435.67"/><line style="stroke:#181818;stroke-width:0.5;" x1="8" x2="248.4033" y1="443.67" y2="443.67"/></g><!--class adresn? m?sto--><g id="elem_adresn&#237; m&#237;sto"><rect codeLine="20" fill="#F1F1F1" height="48" id="adresn&#237; m&#237;sto" rx="2.5" ry="2.5" style="stroke:#181818;stroke-width:0.5;" width="127.2178" x="675.59" y="403.67"/><ellipse cx="690.59" cy="419.67" fill="#ADD1B2" rx="11" ry="11" style="stroke:#181818;stroke-width:1;"/><path d="M693.5588,425.3106 Q692.9806,425.6075 692.34,425.7481 Q691.6994,425.9044 690.9963,425.9044 Q688.4963,425.9044 687.1681,424.2638 Q685.8556,422.6075 685.8556,419.4825 Q685.8556,416.3575 687.1681,414.7013 Q688.4963,413.045 690.9963,413.045 Q691.6994,413.045 692.34,413.2013 Q692.9963,413.3575 693.5588,413.6544 L693.5588,416.3731 Q692.9338,415.795 692.34,415.5294 Q691.7463,415.2481 691.1213,415.2481 Q689.7775,415.2481 689.09,416.3263 Q688.4025,417.3888 688.4025,419.4825 Q688.4025,421.5763 689.09,422.6544 Q689.7775,423.7169 691.1213,423.7169 Q691.7463,423.7169 692.34,423.4513 Q692.9338,423.17 693.5588,422.5919 L693.5588,425.3106 Z " fill="#000000"/><text fill="#000000" font-family="sans-serif" font-size="14" lengthAdjust="spacing" textLength="95.2178" x="704.59" y="424.5167">adresn&#237; m&#237;sto</text><line style="stroke:#181818;stroke-width:0.5;" x1="676.59" x2="801.8078" y1="435.67" y2="435.67"/><line style="stroke:#181818;stroke-width:0.5;" x1="676.59" x2="801.8078" y1="443.67" y2="443.67"/></g><!--class Datov? schr?nka--><g id="elem_Datov&#225; schr&#225;nka"><rect codeLine="23" fill="#F1F1F1" height="48" id="Datov&#225; schr&#225;nka" rx="2.5" ry="2.5" style="stroke:#181818;stroke-width:0.5;" width="150.4873" x="1260.96" y="403.67"/><ellipse cx="1275.96" cy="419.67" fill="#ADD1B2" rx="11" ry="11" style="stroke:#181818;stroke-width:1;"/><path d="M1278.9288,425.3106 Q1278.3506,425.6075 1277.71,425.7481 Q1277.0694,425.9044 1276.3663,425.9044 Q1273.8663,425.9044 1272.5381,424.2638 Q1271.2256,422.6075 1271.2256,419.4825 Q1271.2256,416.3575 1272.5381,414.7013 Q1273.8663,413.045 1276.3663,413.045 Q1277.0694,413.045 1277.71,413.2013 Q1278.3663,413.3575 1278.9288,413.6544 L1278.9288,416.3731 Q1278.3038,415.795 1277.71,415.5294 Q1277.1163,415.2481 1276.4913,415.2481 Q1275.1475,415.2481 1274.46,416.3263 Q1273.7725,417.3888 1273.7725,419.4825 Q1273.7725,421.5763 1274.46,422.6544 Q1275.1475,423.7169 1276.4913,423.7169 Q1277.1163,423.7169 1277.71,423.4513 Q1278.3038,423.17 1278.9288,422.5919 L1278.9288,425.3106 Z " fill="#000000"/><text fill="#000000" font-family="sans-serif" font-size="14" lengthAdjust="spacing" textLength="118.4873" x="1289.96" y="424.5167">Datov&#225; schr&#225;nka</text><line style="stroke:#181818;stroke-width:0.5;" x1="1261.96" x2="1410.4473" y1="435.67" y2="435.67"/><line style="stroke:#181818;stroke-width:0.5;" x1="1261.96" x2="1410.4473" y1="443.67" y2="443.67"/></g><!--class Za?azen? do kategorie--><g id="elem_Za&#345;azen&#237; do kategorie"><rect codeLine="26" fill="#F1F1F1" height="96.8906" id="Za&#345;azen&#237; do kategorie" rx="2.5" ry="2.5" style="stroke:#181818;stroke-width:0.5;" width="292.4785" x="1563.96" y="180.89"/><ellipse cx="1628.9082" cy="196.89" fill="#ADD1B2" rx="11" ry="11" style="stroke:#181818;stroke-width:1;"/><path d="M1631.877,202.5306 Q1631.2989,202.8275 1630.6582,202.9681 Q1630.0176,203.1244 1629.3145,203.1244 Q1626.8145,203.1244 1625.4864,201.4838 Q1624.1739,199.8275 1624.1739,196.7025 Q1624.1739,193.5775 1625.4864,191.9213 Q1626.8145,190.265 1629.3145,190.265 Q1630.0176,190.265 1630.6582,190.4213 Q1631.3145,190.5775 1631.877,190.8744 L1631.877,193.5931 Q1631.252,193.015 1630.6582,192.7494 Q1630.0645,192.4681 1629.4395,192.4681 Q1628.0957,192.4681 1627.4082,193.5463 Q1626.7207,194.6088 1626.7207,196.7025 Q1626.7207,198.7963 1627.4082,199.8744 Q1628.0957,200.9369 1629.4395,200.9369 Q1630.0645,200.9369 1630.6582,200.6713 Q1631.252,200.39 1631.877,199.8119 L1631.877,202.5306 Z " fill="#000000"/><text fill="#000000" font-family="sans-serif" font-size="14" lengthAdjust="spacing" textLength="154.082" x="1649.4082" y="201.7367">Za&#345;azen&#237; do kategorie</text><line style="stroke:#181818;stroke-width:0.5;" x1="1564.96" x2="1855.4385" y1="212.89" y2="212.89"/><text fill="#000000" font-family="sans-serif" font-size="14" lengthAdjust="spacing" textLength="274.6475" x="1569.96" y="229.8851">"P&#345;&#237;m&#233; za&#345;azen&#237; do kategorie": boolean</text><text fill="#000000" font-family="sans-serif" font-size="14" lengthAdjust="spacing" textLength="280.4785" x="1569.96" y="246.182">"M&#225; datum za&#345;azen&#237; do kategorie": date</text><text fill="#000000" font-family="sans-serif" font-size="14" lengthAdjust="spacing" textLength="271.0176" x="1569.96" y="262.4789">"M&#225; datum vy&#345;azen&#237; z kategorie": date</text><line style="stroke:#181818;stroke-width:0.5;" x1="1564.96" x2="1855.4385" y1="269.7806" y2="269.7806"/></g><!--class Kategorie--><g id="elem_Kategorie"><rect codeLine="32" fill="#F1F1F1" height="48" id="Kategorie" rx="2.5" ry="2.5" style="stroke:#181818;stroke-width:0.5;" width="99.5732" x="1697.42" y="403.67"/><ellipse cx="1712.42" cy="419.67" fill="#ADD1B2" rx="11" ry="11" style="stroke:#181818;stroke-width:1;"/><path d="M1715.3888,425.3106 Q1714.8106,425.6075 1714.17,425.7481 Q1713.5294,425.9044 1712.8263,425.9044 Q1710.3263,425.9044 1708.9981,424.2638 Q1707.6856,422.6075 1707.6856,419.4825 Q1707.6856,416.3575 1708.9981,414.7013 Q1710.3263,413.045 1712.8263,413.045 Q1713.5294,413.045 1714.17,413.2013 Q1714.8263,413.3575 1715.3888,413.6544 L1715.3888,416.3731 Q1714.7638,415.795 1714.17,415.5294 Q1713.5763,415.2481 1712.9513,415.2481 Q1711.6075,415.2481 1710.92,416.3263 Q1710.2325,417.3888 1710.2325,419.4825 Q1710.2325,421.5763 1710.92,422.6544 Q1711.6075,423.7169 1712.9513,423.7169 Q1713.5763,423.7169 1714.17,423.4513 Q1714.7638,423.17 1715.3888,422.5919 L1715.3888,425.3106 Z " fill="#000000"/><text fill="#000000" font-family="sans-serif" font-size="14" lengthAdjust="spacing" textLength="67.5732" x="1726.42" y="424.5167">Kategorie</text><line style="stroke:#181818;stroke-width:0.5;" x1="1698.42" x2="1795.9932" y1="435.67" y2="435.67"/><line style="stroke:#181818;stroke-width:0.5;" x1="1698.42" x2="1795.9932" y1="443.67" y2="443.67"/></g><!--reverse link Org?n ve?ejn? moci nebo soukromopr?vn? u?ivatel ?daj? to Soukromopr?vn? u?ivatel ?daj?--><g id="link_Org&#225;n ve&#345;ejn&#233; moci nebo soukromopr&#225;vn&#237; u&#382;ivatel &#250;daj&#367;_Soukromopr&#225;vn&#237; u&#382;ivatel &#250;daj&#367;"><path codeLine="35" d="M1259.9774,64.1996 C1225.2874,83.3796 1189.53,103.16 1138.29,131.5 " fill="#FFFFFF" fill-opacity="0.00000" id="Org&#225;n ve&#345;ejn&#233; moci nebo soukromopr&#225;vn&#237; u&#382;ivatel &#250;daj&#367;-backto-Soukromopr&#225;vn&#237; u&#382;ivatel &#250;daj&#367;" style="stroke:#181818;stroke-width:1;"/><polygon fill="#FFFFFF" fill-opacity="0.00000" points="1275.73,55.49,1257.0742,58.9487,1262.8806,69.4504,1275.73,55.49" style="stroke:#181818;stroke-width:1;"/></g><!--link Soukromopr?vn? u?ivatel ?daj? to Ustanoven? pr?vn?ho p?edpisu--><g id="link_Soukromopr&#225;vn&#237; u&#382;ivatel &#250;daj&#367;_Ustanoven&#237; pr&#225;vn&#237;ho p&#345;edpisu"><path codeLine="36" d="M432.86,269.36 C308.18,288.12 197.72,315.81 150.2,356.67 C136.78,368.21 131.44,387.86 129.37,403.41 " fill="#FFFFFF" fill-opacity="0.00000" id="Soukromopr&#225;vn&#237; u&#382;ivatel &#250;daj&#367;-Ustanoven&#237; pr&#225;vn&#237;ho p&#345;edpisu" style="stroke:#181818;stroke-width:1;"/><text fill="#000000" font-family="sans-serif" font-size="13" lengthAdjust="spacing" textLength="346.0171" x="151.2" y="369.7369">Je opr&#225;vn&#283;n k vyu&#382;&#237;v&#225;n&#237; &#250;daj&#367; n&#225; z&#225;klad&#283; ustanoven&#237;</text></g><!--link Soukromopr?vn? u?ivatel ?daj? to adresn? m?sto--><g id="link_Soukromopr&#225;vn&#237; u&#382;ivatel &#250;daj&#367;_adresn&#237; m&#237;sto"><path codeLine="37" d="M551.33,327.05 C534.36,336.28 521.17,346.16 513.2,356.67 C469.29,414.61 594.14,425.89 675.37,427.34 " fill="#FFFFFF" fill-opacity="0.00000" id="Soukromopr&#225;vn&#237; u&#382;ivatel &#250;daj&#367;-adresn&#237; m&#237;sto" style="stroke:#181818;stroke-width:1;"/><text fill="#000000" font-family="sans-serif" font-size="13" lengthAdjust="spacing" textLength="405.374" x="514.2" y="369.7369">M&#225; adresu m&#237;sta podnik&#225;n&#237; soukromopr&#225;vn&#237;ho u&#382;ivatele &#250;daj&#367;</text><text fill="#000000" font-family="sans-serif" font-size="13" lengthAdjust="spacing" textLength="24.8066" x="642.6489" y="423.5092">0..1</text></g><!--link Soukromopr?vn? u?ivatel ?daj? to adresn? m?sto--><g id="link_Soukromopr&#225;vn&#237; u&#382;ivatel &#250;daj&#367;_adresn&#237; m&#237;sto"><path codeLine="38" d="M951.44,327.03 C945.54,344.28 936.88,360.82 924.2,373.67 C892.52,405.78 842.81,418.76 802.89,423.86 " fill="#FFFFFF" fill-opacity="0.00000" id="Soukromopr&#225;vn&#237; u&#382;ivatel &#250;daj&#367;-adresn&#237; m&#237;sto-1" style="stroke:#181818;stroke-width:1;"/><text fill="#000000" font-family="sans-serif" font-size="13" lengthAdjust="spacing" textLength="331.6904" x="938.2" y="369.7369">M&#225; adresu s&#237;dla soukromopr&#225;vn&#237;ho u&#382;ivatele &#250;daj&#367;</text><text fill="#000000" font-family="sans-serif" font-size="13" lengthAdjust="spacing" textLength="24.8066" x="810.7372" y="419.7674">0..1</text></g><!--link Soukromopr?vn? u?ivatel ?daj? to Datov? schr?nka--><g id="link_Soukromopr&#225;vn&#237; u&#382;ivatel &#250;daj&#367;_Datov&#225; schr&#225;nka"><path codeLine="39" d="M1232.06,327.07 C1248.15,336.22 1263.68,346.08 1278.2,356.67 C1295.54,369.32 1310.83,388.28 1321.35,403.28 " fill="#FFFFFF" fill-opacity="0.00000" id="Soukromopr&#225;vn&#237; u&#382;ivatel &#250;daj&#367;-Datov&#225; schr&#225;nka" style="stroke:#181818;stroke-width:1;"/><text fill="#000000" font-family="sans-serif" font-size="13" lengthAdjust="spacing" textLength="369.5352" x="1298.2" y="369.7369">M&#225; datovou schr&#225;nku soukromopr&#225;vn&#237;ho u&#382;ivatele &#250;daj&#367;</text></g><!--link Org?n ve?ejn? moci nebo soukromopr?vn? u?ivatel ?daj? to Za?azen? do kategorie--><g id="link_Org&#225;n ve&#345;ejn&#233; moci nebo soukromopr&#225;vn&#237; u&#382;ivatel &#250;daj&#367;_Za&#345;azen&#237; do kategorie"><path codeLine="40" d="M1365.1,55.49 C1426.47,86.22 1535.51,140.84 1614.63,180.47 " fill="#FFFFFF" fill-opacity="0.00000" id="Org&#225;n ve&#345;ejn&#233; moci nebo soukromopr&#225;vn&#237; u&#382;ivatel &#250;daj&#367;-Za&#345;azen&#237; do kategorie" style="stroke:#181818;stroke-width:1;"/><text fill="#000000" font-family="sans-serif" font-size="13" lengthAdjust="spacing" textLength="133.8022" x="1457.2" y="98.0669">M&#225; za&#345;azen&#253; subjekt</text></g><!--link Za?azen? do kategorie to Kategorie--><g id="link_Za&#345;azen&#237; do kategorie_Kategorie"><path codeLine="41" d="M1719.21,278.11 C1726.69,317.84 1737.03,372.67 1742.82,403.4 " fill="#FFFFFF" fill-opacity="0.00000" id="Za&#345;azen&#237; do kategorie-Kategorie" style="stroke:#181818;stroke-width:1;"/><text fill="#000000" font-family="sans-serif" font-size="13" lengthAdjust="spacing" textLength="143.0762" x="1738.2" y="369.7369">Za&#345;azuje do kategorie</text><text fill="#000000" font-family="sans-serif" font-size="13" lengthAdjust="spacing" textLength="24.8066" x="1714.9241" y="392.7391">1..1</text></g><!--SRC=[hPI_Rjj03CPtFmNXFK6p6XqxjIXQ8EZIZVOnZluT1TsTqAZj8-G1Z4mQCnZP2xJBMUzLdcHRiHsZQknD4CdVVSVZHqCMD6PaSfpHDULOeEK2D6iQpL8q1iRNx9A2CyuBNvVQBy4rVw8IBQNWVocCcwSnV1y1Z3_w6XHQbq5PwIXnOFOgRxclfMtn91JHBg3ozQi9aI9jeviemTLzaBkwzqkJCh3XwTrWeh55fES7J5-7zhmEmjFPBQiWwIOgCWUQfWpQrnMLtJTNMZHJoEZ4jd_Zp3zgxhuXvxnP-6MEIgyUkX2kGmXjACvQm529bhxPZS2SApGMIm4y2kn9D0ndWUAzXpWDnseVrooeS4rzBdKduNfrFqSRetmgvZAsK9AGuq3DU1PrZsC6UQX7VP6-QIvRGS-41CqgZupRpKPLa0cfcKowvTtWEp5qAVSriri1wGHtmr-nMM3L7gGO4f4qvoAYjQK_XucI8OFgIDe4fimfeTxpxz7qGw-NTzlSwZ1rg_J39jB9FxNRRtzSN0pQRQD12p30_lre4xduUu8rQVMW8P7h2yulvOb2tMQ-P2s49PYagCJdhYV_XvutbvTNunUcOx9kVnjmtMzP7hAQmduRlZpEhiJufKhnxAU_u819Fu5Sijk6tE33Jno_eEkezJRgjYxw3SPDOqgi77oqAY2lsaRtLWcahi35j9l_5m00]--></g></svg>