<svg xmlns="http://www.w3.org/2000/svg" xmlns:xlink="http://www.w3.org/1999/xlink" contentStyleType="text/css" height="582px" preserveAspectRatio="none" style="width:1246px;height:582px;background:#FFFFFF;" version="1.1" viewBox="0 0 1246 582" width="1246px" zoomAndPan="magnify"><defs/><g><!--class Dokument--><g id="elem_Dokument"><rect codeLine="2" fill="#F1F1F1" height="96.8906" id="Dokument" rx="2.5" ry="2.5" style="stroke:#181818;stroke-width:0.5;" width="245.208" x="455.89" y="7"/><ellipse cx="537.7743" cy="23" fill="#ADD1B2" rx="11" ry="11" style="stroke:#181818;stroke-width:1;"/><path d="M540.743,28.6406 Q540.1649,28.9375 539.5243,29.0781 Q538.8837,29.2344 538.1805,29.2344 Q535.6805,29.2344 534.3524,27.5938 Q533.0399,25.9375 533.0399,22.8125 Q533.0399,19.6875 534.3524,18.0313 Q535.6805,16.375 538.1805,16.375 Q538.8837,16.375 539.5243,16.5313 Q540.1805,16.6875 540.743,16.9844 L540.743,19.7031 Q540.118,19.125 539.5243,18.8594 Q538.9305,18.5781 538.3055,18.5781 Q536.9618,18.5781 536.2743,19.6563 Q535.5868,20.7188 535.5868,22.8125 Q535.5868,24.9063 536.2743,25.9844 Q536.9618,27.0469 538.3055,27.0469 Q538.9305,27.0469 539.5243,26.7813 Q540.118,26.5 540.743,25.9219 L540.743,28.6406 Z " fill="#000000"/><text fill="#000000" font-family="sans-serif" font-size="14" lengthAdjust="spacing" textLength="72.9395" x="558.2743" y="27.8467">Dokument</text><line style="stroke:#181818;stroke-width:0.5;" x1="456.89" x2="700.098" y1="39" y2="39"/><text fill="#000000" font-family="sans-serif" font-size="14" lengthAdjust="spacing" textLength="148.4492" x="461.89" y="55.9951">"&#269;&#237;slo jednac&#237;": string</text><text fill="#000000" font-family="sans-serif" font-size="14" lengthAdjust="spacing" textLength="119.7451" x="461.89" y="72.292">"k ruk&#225;m": string</text><text fill="#000000" font-family="sans-serif" font-size="14" lengthAdjust="spacing" textLength="233.208" x="461.89" y="88.5889">"stru&#269;n&#253; obsah dokumentu": text</text><line style="stroke:#181818;stroke-width:0.5;" x1="456.89" x2="700.098" y1="95.8906" y2="95.8906"/></g><!--class Jednozna?n? identifik?tor--><g id="elem_Jednozna&#269;n&#253; identifik&#225;tor"><rect codeLine="8" fill="#F1F1F1" height="64.2969" id="Jednozna&#269;n&#253; identifik&#225;tor" rx="2.5" ry="2.5" style="stroke:#181818;stroke-width:0.5;" width="408.9834" x="7" y="275.19"/><ellipse cx="118.1763" cy="291.19" fill="#ADD1B2" rx="11" ry="11" style="stroke:#181818;stroke-width:1;"/><path d="M121.145,296.8306 Q120.5669,297.1275 119.9263,297.2681 Q119.2856,297.4244 118.5825,297.4244 Q116.0825,297.4244 114.7544,295.7838 Q113.4419,294.1275 113.4419,291.0025 Q113.4419,287.8775 114.7544,286.2213 Q116.0825,284.565 118.5825,284.565 Q119.2856,284.565 119.9263,284.7213 Q120.5825,284.8775 121.145,285.1744 L121.145,287.8931 Q120.52,287.315 119.9263,287.0494 Q119.3325,286.7681 118.7075,286.7681 Q117.3638,286.7681 116.6763,287.8463 Q115.9888,288.9088 115.9888,291.0025 Q115.9888,293.0963 116.6763,294.1744 Q117.3638,295.2369 118.7075,295.2369 Q119.3325,295.2369 119.9263,294.9713 Q120.52,294.69 121.145,294.1119 L121.145,296.8306 Z " fill="#000000"/><text fill="#000000" font-family="sans-serif" font-size="14" lengthAdjust="spacing" textLength="178.1309" x="138.6763" y="296.0367">Jednozna&#269;n&#253; identifik&#225;tor</text><line style="stroke:#181818;stroke-width:0.5;" x1="8" x2="414.9834" y1="307.19" y2="307.19"/><text fill="#000000" font-family="sans-serif" font-size="14" lengthAdjust="spacing" textLength="396.9834" x="13" y="324.1851">"&#345;et&#283;zcov&#225; podoba jednozna&#269;n&#233;ho identifik&#225;toru": string</text><line style="stroke:#181818;stroke-width:0.5;" x1="8" x2="414.9834" y1="331.4869" y2="331.4869"/></g><!--class Spis--><g id="elem_Spis"><rect codeLine="12" fill="#F1F1F1" height="64.2969" id="Spis" rx="2.5" ry="2.5" style="stroke:#181818;stroke-width:0.5;" width="182.2559" x="308.36" y="180.89"/><ellipse cx="380.7594" cy="196.89" fill="#ADD1B2" rx="11" ry="11" style="stroke:#181818;stroke-width:1;"/><path d="M383.7282,202.5306 Q383.15,202.8275 382.5094,202.9681 Q381.8688,203.1244 381.1657,203.1244 Q378.6657,203.1244 377.3375,201.4838 Q376.025,199.8275 376.025,196.7025 Q376.025,193.5775 377.3375,191.9213 Q378.6657,190.265 381.1657,190.265 Q381.8688,190.265 382.5094,190.4213 Q383.1657,190.5775 383.7282,190.8744 L383.7282,193.5931 Q383.1032,193.015 382.5094,192.7494 Q381.9157,192.4681 381.2907,192.4681 Q379.9469,192.4681 379.2594,193.5463 Q378.5719,194.6088 378.5719,196.7025 Q378.5719,198.7963 379.2594,199.8744 Q379.9469,200.9369 381.2907,200.9369 Q381.9157,200.9369 382.5094,200.6713 Q383.1032,200.39 383.7282,199.8119 L383.7282,202.5306 Z " fill="#000000"/><text fill="#000000" font-family="sans-serif" font-size="14" lengthAdjust="spacing" textLength="28.957" x="401.2594" y="201.7367">Spis</text><line style="stroke:#181818;stroke-width:0.5;" x1="309.36" x2="489.6159" y1="212.89" y2="212.89"/><text fill="#000000" font-family="sans-serif" font-size="14" lengthAdjust="spacing" textLength="170.2559" x="314.36" y="229.8851">"Spisov&#225; zna&#269;ka": string</text><line style="stroke:#181818;stroke-width:0.5;" x1="309.36" x2="489.6159" y1="237.1869" y2="237.1869"/></g><!--class Eviden?n? ??slo ze samostatn? evidence dokument?--><g id="elem_Eviden&#269;n&#237; &#269;&#237;slo ze samostatn&#233; evidence dokument&#367;"><rect codeLine="16" fill="#F1F1F1" height="64.2969" id="Eviden&#269;n&#237; &#269;&#237;slo ze samostatn&#233; evidence dokument&#367;" rx="2.5" ry="2.5" style="stroke:#181818;stroke-width:0.5;" width="395.207" x="843.89" y="275.19"/><ellipse cx="858.89" cy="291.19" fill="#ADD1B2" rx="11" ry="11" style="stroke:#181818;stroke-width:1;"/><path d="M861.8588,296.8306 Q861.2806,297.1275 860.64,297.2681 Q859.9994,297.4244 859.2963,297.4244 Q856.7963,297.4244 855.4681,295.7838 Q854.1556,294.1275 854.1556,291.0025 Q854.1556,287.8775 855.4681,286.2213 Q856.7963,284.565 859.2963,284.565 Q859.9994,284.565 860.64,284.7213 Q861.2963,284.8775 861.8588,285.1744 L861.8588,287.8931 Q861.2338,287.315 860.64,287.0494 Q860.0463,286.7681 859.4213,286.7681 Q858.0775,286.7681 857.39,287.8463 Q856.7025,288.9088 856.7025,291.0025 Q856.7025,293.0963 857.39,294.1744 Q858.0775,295.2369 859.4213,295.2369 Q860.0463,295.2369 860.64,294.9713 Q861.2338,294.69 861.8588,294.1119 L861.8588,296.8306 Z " fill="#000000"/><text fill="#000000" font-family="sans-serif" font-size="14" lengthAdjust="spacing" textLength="363.207" x="872.89" y="296.0367">Eviden&#269;n&#237; &#269;&#237;slo ze samostatn&#233; evidence dokument&#367;</text><line style="stroke:#181818;stroke-width:0.5;" x1="844.89" x2="1238.097" y1="307.19" y2="307.19"/><text fill="#000000" font-family="sans-serif" font-size="14" lengthAdjust="spacing" textLength="313.3115" x="849.89" y="324.1851">"&#345;et&#283;zcov&#225; podoba eviden&#269;n&#237;ho &#269;&#237;sla": string</text><line style="stroke:#181818;stroke-width:0.5;" x1="844.89" x2="1238.097" y1="331.4869" y2="331.4869"/></g><!--class Elektronick? dokument--><g id="elem_Elektronick&#253; dokument"><rect codeLine="20" fill="#F1F1F1" height="48" id="Elektronick&#253; dokument" rx="2.5" ry="2.5" style="stroke:#181818;stroke-width:0.5;" width="193.6152" x="665.68" y="189.04"/><ellipse cx="680.68" cy="205.04" fill="#ADD1B2" rx="11" ry="11" style="stroke:#181818;stroke-width:1;"/><path d="M683.6488,210.6806 Q683.0706,210.9775 682.43,211.1181 Q681.7894,211.2744 681.0863,211.2744 Q678.5863,211.2744 677.2581,209.6338 Q675.9456,207.9775 675.9456,204.8525 Q675.9456,201.7275 677.2581,200.0713 Q678.5863,198.415 681.0863,198.415 Q681.7894,198.415 682.43,198.5713 Q683.0863,198.7275 683.6488,199.0244 L683.6488,201.7431 Q683.0238,201.165 682.43,200.8994 Q681.8363,200.6181 681.2113,200.6181 Q679.8675,200.6181 679.18,201.6963 Q678.4925,202.7588 678.4925,204.8525 Q678.4925,206.9463 679.18,208.0244 Q679.8675,209.0869 681.2113,209.0869 Q681.8363,209.0869 682.43,208.8213 Q683.0238,208.54 683.6488,207.9619 L683.6488,210.6806 Z " fill="#000000"/><text fill="#000000" font-family="sans-serif" font-size="14" lengthAdjust="spacing" textLength="161.6152" x="694.68" y="209.8867">Elektronick&#253; dokument</text><line style="stroke:#181818;stroke-width:0.5;" x1="666.68" x2="858.2952" y1="221.04" y2="221.04"/><line style="stroke:#181818;stroke-width:0.5;" x1="666.68" x2="858.2952" y1="229.04" y2="229.04"/></g><!--class Osoba ve vztahu k dokumentu--><g id="elem_Osoba ve vztahu k dokumentu"><rect codeLine="23" fill="#F1F1F1" height="48" id="Osoba ve vztahu k dokumentu" rx="2.5" ry="2.5" style="stroke:#181818;stroke-width:0.5;" width="246.5186" x="652.23" y="377.63"/><ellipse cx="667.23" cy="393.63" fill="#ADD1B2" rx="11" ry="11" style="stroke:#181818;stroke-width:1;"/><path d="M670.1988,399.2706 Q669.6206,399.5675 668.98,399.7081 Q668.3394,399.8644 667.6363,399.8644 Q665.1363,399.8644 663.8081,398.2238 Q662.4956,396.5675 662.4956,393.4425 Q662.4956,390.3175 663.8081,388.6613 Q665.1363,387.005 667.6363,387.005 Q668.3394,387.005 668.98,387.1613 Q669.6363,387.3175 670.1988,387.6144 L670.1988,390.3331 Q669.5738,389.755 668.98,389.4894 Q668.3863,389.2081 667.7613,389.2081 Q666.4175,389.2081 665.73,390.2863 Q665.0425,391.3488 665.0425,393.4425 Q665.0425,395.5363 665.73,396.6144 Q666.4175,397.6769 667.7613,397.6769 Q668.3863,397.6769 668.98,397.4113 Q669.5738,397.13 670.1988,396.5519 L670.1988,399.2706 Z " fill="#000000"/><text fill="#000000" font-family="sans-serif" font-size="14" lengthAdjust="spacing" textLength="214.5186" x="681.23" y="398.4767">Osoba ve vztahu k dokumentu</text><line style="stroke:#181818;stroke-width:0.5;" x1="653.23" x2="897.7486" y1="409.63" y2="409.63"/><line style="stroke:#181818;stroke-width:0.5;" x1="653.23" x2="897.7486" y1="417.63" y2="417.63"/></g><!--class Dokument?--><g id="elem_Dokument&#8203;"><rect codeLine="26" fill="#F1F1F1" height="48" id="Dokument&#8203;" rx="2.5" ry="2.5" style="stroke:#181818;stroke-width:0.5;" width="104.9395" x="526.02" y="189.04"/><ellipse cx="541.02" cy="205.04" fill="#ADD1B2" rx="11" ry="11" style="stroke:#181818;stroke-width:1;"/><path d="M543.9888,210.6806 Q543.4106,210.9775 542.77,211.1181 Q542.1294,211.2744 541.4263,211.2744 Q538.9263,211.2744 537.5981,209.6338 Q536.2856,207.9775 536.2856,204.8525 Q536.2856,201.7275 537.5981,200.0713 Q538.9263,198.415 541.4263,198.415 Q542.1294,198.415 542.77,198.5713 Q543.4263,198.7275 543.9888,199.0244 L543.9888,201.7431 Q543.3638,201.165 542.77,200.8994 Q542.1763,200.6181 541.5513,200.6181 Q540.2075,200.6181 539.52,201.6963 Q538.8325,202.7588 538.8325,204.8525 Q538.8325,206.9463 539.52,208.0244 Q540.2075,209.0869 541.5513,209.0869 Q542.1763,209.0869 542.77,208.8213 Q543.3638,208.54 543.9888,207.9619 L543.9888,210.6806 Z " fill="#000000"/><text fill="#000000" font-family="sans-serif" font-size="14" lengthAdjust="spacing" textLength="72.9395" x="555.02" y="209.8867">Dokument&#8203;</text><line style="stroke:#181818;stroke-width:0.5;" x1="527.02" x2="629.9595" y1="221.04" y2="221.04"/><line style="stroke:#181818;stroke-width:0.5;" x1="527.02" x2="629.9595" y1="229.04" y2="229.04"/></g><!--class Dokument ve?ejnopr?vn?ho p?vodce--><g id="elem_Dokument ve&#345;ejnopr&#225;vn&#237;ho p&#367;vodce"><rect codeLine="29" fill="#F1F1F1" height="64.2969" id="Dokument ve&#345;ejnopr&#225;vn&#237;ho p&#367;vodce" rx="2.5" ry="2.5" style="stroke:#181818;stroke-width:0.5;" width="287.9512" x="329.52" y="369.49"/><ellipse cx="344.52" cy="385.49" fill="#ADD1B2" rx="11" ry="11" style="stroke:#181818;stroke-width:1;"/><path d="M347.4888,391.1306 Q346.9106,391.4275 346.27,391.5681 Q345.6294,391.7244 344.9263,391.7244 Q342.4263,391.7244 341.0981,390.0838 Q339.7856,388.4275 339.7856,385.3025 Q339.7856,382.1775 341.0981,380.5213 Q342.4263,378.865 344.9263,378.865 Q345.6294,378.865 346.27,379.0213 Q346.9263,379.1775 347.4888,379.4744 L347.4888,382.1931 Q346.8638,381.615 346.27,381.3494 Q345.6763,381.0681 345.0513,381.0681 Q343.7075,381.0681 343.02,382.1463 Q342.3325,383.2088 342.3325,385.3025 Q342.3325,387.3963 343.02,388.4744 Q343.7075,389.5369 345.0513,389.5369 Q345.6763,389.5369 346.27,389.2713 Q346.8638,388.99 347.4888,388.4119 L347.4888,391.1306 Z " fill="#000000"/><text fill="#000000" font-family="sans-serif" font-size="14" lengthAdjust="spacing" textLength="255.9512" x="358.52" y="390.3367">Dokument ve&#345;ejnopr&#225;vn&#237;ho p&#367;vodce</text><line style="stroke:#181818;stroke-width:0.5;" x1="330.52" x2="616.4712" y1="401.49" y2="401.49"/><text fill="#000000" font-family="sans-serif" font-size="14" lengthAdjust="spacing" textLength="148.4492" x="335.52" y="418.4851">"&#269;&#237;slo jednac&#237;&#8203;": string</text><line style="stroke:#181818;stroke-width:0.5;" x1="330.52" x2="616.4712" y1="425.7869" y2="425.7869"/></g><!--class Jednozna?n? identifik?tor?--><g id="elem_Jednozna&#269;n&#253; identifik&#225;tor&#8203;"><rect codeLine="33" fill="#F1F1F1" height="48" id="Jednozna&#269;n&#253; identifik&#225;tor&#8203;" rx="2.5" ry="2.5" style="stroke:#181818;stroke-width:0.5;" width="210.1309" x="126.43" y="518.93"/><ellipse cx="141.43" cy="534.93" fill="#ADD1B2" rx="11" ry="11" style="stroke:#181818;stroke-width:1;"/><path d="M144.3988,540.5706 Q143.8206,540.8675 143.18,541.0081 Q142.5394,541.1644 141.8363,541.1644 Q139.3363,541.1644 138.0081,539.5238 Q136.6956,537.8675 136.6956,534.7425 Q136.6956,531.6175 138.0081,529.9613 Q139.3363,528.305 141.8363,528.305 Q142.5394,528.305 143.18,528.4613 Q143.8363,528.6175 144.3988,528.9144 L144.3988,531.6331 Q143.7738,531.055 143.18,530.7894 Q142.5863,530.5081 141.9613,530.5081 Q140.6175,530.5081 139.93,531.5863 Q139.2425,532.6488 139.2425,534.7425 Q139.2425,536.8363 139.93,537.9144 Q140.6175,538.9769 141.9613,538.9769 Q142.5863,538.9769 143.18,538.7113 Q143.7738,538.43 144.3988,537.8519 L144.3988,540.5706 Z " fill="#000000"/><text fill="#000000" font-family="sans-serif" font-size="14" lengthAdjust="spacing" textLength="178.1309" x="155.43" y="539.7767">Jednozna&#269;n&#253; identifik&#225;tor&#8203;</text><line style="stroke:#181818;stroke-width:0.5;" x1="127.43" x2="335.5609" y1="550.93" y2="550.93"/><line style="stroke:#181818;stroke-width:0.5;" x1="127.43" x2="335.5609" y1="558.93" y2="558.93"/></g><!--class Spis?--><g id="elem_Spis&#8203;"><rect codeLine="36" fill="#F1F1F1" height="64.2969" id="Spis&#8203;" rx="2.5" ry="2.5" style="stroke:#181818;stroke-width:0.5;" width="180.6631" x="391.16" y="510.78"/><ellipse cx="462.763" cy="526.78" fill="#ADD1B2" rx="11" ry="11" style="stroke:#181818;stroke-width:1;"/><path d="M465.7318,532.4206 Q465.1537,532.7175 464.513,532.8581 Q463.8724,533.0144 463.1693,533.0144 Q460.6693,533.0144 459.3412,531.3738 Q458.0287,529.7175 458.0287,526.5925 Q458.0287,523.4675 459.3412,521.8113 Q460.6693,520.155 463.1693,520.155 Q463.8724,520.155 464.513,520.3113 Q465.1693,520.4675 465.7318,520.7644 L465.7318,523.4831 Q465.1068,522.905 464.513,522.6394 Q463.9193,522.3581 463.2943,522.3581 Q461.9505,522.3581 461.263,523.4363 Q460.5755,524.4988 460.5755,526.5925 Q460.5755,528.6863 461.263,529.7644 Q461.9505,530.8269 463.2943,530.8269 Q463.9193,530.8269 464.513,530.5613 Q465.1068,530.28 465.7318,529.7019 L465.7318,532.4206 Z " fill="#000000"/><text fill="#000000" font-family="sans-serif" font-size="14" lengthAdjust="spacing" textLength="28.957" x="483.263" y="531.6267">Spis&#8203;</text><line style="stroke:#181818;stroke-width:0.5;" x1="392.16" x2="570.8231" y1="542.78" y2="542.78"/><text fill="#000000" font-family="sans-serif" font-size="14" lengthAdjust="spacing" textLength="168.6631" x="397.16" y="559.7751">"spisov&#225; zna&#269;ka": string</text><line style="stroke:#181818;stroke-width:0.5;" x1="392.16" x2="570.8231" y1="567.0769" y2="567.0769"/></g><!--class Eviden?n? ??slo ze samostatn? evidence dokument??--><g id="elem_Eviden&#269;n&#237; &#269;&#237;slo ze samostatn&#233; evidence dokument&#367;&#8203;"><rect codeLine="40" fill="#F1F1F1" height="48" id="Eviden&#269;n&#237; &#269;&#237;slo ze samostatn&#233; evidence dokument&#367;&#8203;" rx="2.5" ry="2.5" style="stroke:#181818;stroke-width:0.5;" width="395.207" x="724.89" y="518.93"/><ellipse cx="739.89" cy="534.93" fill="#ADD1B2" rx="11" ry="11" style="stroke:#181818;stroke-width:1;"/><path d="M742.8588,540.5706 Q742.2806,540.8675 741.64,541.0081 Q740.9994,541.1644 740.2963,541.1644 Q737.7963,541.1644 736.4681,539.5238 Q735.1556,537.8675 735.1556,534.7425 Q735.1556,531.6175 736.4681,529.9613 Q737.7963,528.305 740.2963,528.305 Q740.9994,528.305 741.64,528.4613 Q742.2963,528.6175 742.8588,528.9144 L742.8588,531.6331 Q742.2338,531.055 741.64,530.7894 Q741.0463,530.5081 740.4213,530.5081 Q739.0775,530.5081 738.39,531.5863 Q737.7025,532.6488 737.7025,534.7425 Q737.7025,536.8363 738.39,537.9144 Q739.0775,538.9769 740.4213,538.9769 Q741.0463,538.9769 741.64,538.7113 Q742.2338,538.43 742.8588,537.8519 L742.8588,540.5706 Z " fill="#000000"/><text fill="#000000" font-family="sans-serif" font-size="14" lengthAdjust="spacing" textLength="363.207" x="753.89" y="539.7767">Eviden&#269;n&#237; &#269;&#237;slo ze samostatn&#233; evidence dokument&#367;&#8203;</text><line style="stroke:#181818;stroke-width:0.5;" x1="725.89" x2="1119.097" y1="550.93" y2="550.93"/><line style="stroke:#181818;stroke-width:0.5;" x1="725.89" x2="1119.097" y1="558.93" y2="558.93"/></g><!--reverse link Dokument to Elektronick? dokument--><g id="link_Dokument_Elektronick&#253; dokument"><path codeLine="43" d="M648.6944,115.8129 C681.8644,143.8629 708.57,166.45 734.9,188.71 " fill="none" id="Dokument-backto-Elektronick&#253; dokument" style="stroke:#181818;stroke-width:1;"/><polygon fill="none" points="634.95,104.19,644.8201,120.3943,652.5687,111.2314,634.95,104.19" style="stroke:#181818;stroke-width:1;"/></g><!--reverse link Dokument to Dokument?--><g id="link_Dokument_Dokument&#8203;"><path codeLine="44" d="M578.49,121.98 C578.49,150.04 578.49,166.32 578.49,188.65 " fill="none" id="Dokument-backto-Dokument&#8203;" style="stroke:#181818;stroke-width:1;"/><polygon fill="none" points="578.49,103.98,572.49,121.98,584.49,121.98,578.49,103.98" style="stroke:#181818;stroke-width:1;"/></g><!--reverse link Dokument? to Dokument ve?ejnopr?vn?ho p?vodce--><g id="link_Dokument&#8203;_Dokument ve&#345;ejnopr&#225;vn&#237;ho p&#367;vodce"><path codeLine="45" d="M556.5806,252.9857 C537.8306,286.2957 512.11,332 491.13,369.29 " fill="none" id="Dokument&#8203;-backto-Dokument ve&#345;ejnopr&#225;vn&#237;ho p&#367;vodce" style="stroke:#181818;stroke-width:1;"/><polygon fill="none" points="565.41,237.3,551.352,250.0426,561.8092,255.9289,565.41,237.3" style="stroke:#181818;stroke-width:1;"/></g><!--reverse link Jednozna?n? identifik?tor to Jednozna?n? identifik?tor?--><g id="link_Jednozna&#269;n&#253; identifik&#225;tor_Jednozna&#269;n&#253; identifik&#225;tor&#8203;"><path codeLine="46" d="M215.7244,357.7745 C219.7944,405.3445 225.89,476.49 229.5,518.66 " fill="none" id="Jednozna&#269;n&#253; identifik&#225;tor-backto-Jednozna&#269;n&#253; identifik&#225;tor&#8203;" style="stroke:#181818;stroke-width:1;"/><polygon fill="none" points="214.19,339.84,209.7463,358.286,221.7026,357.263,214.19,339.84" style="stroke:#181818;stroke-width:1;"/></g><!--reverse link Eviden?n? ??slo ze samostatn? evidence dokument? to Eviden?n? ??slo ze samostatn? evidence dokument??--><g id="link_Eviden&#269;n&#237; &#269;&#237;slo ze samostatn&#233; evidence dokument&#367;_Eviden&#269;n&#237; &#269;&#237;slo ze samostatn&#233; evidence dokument&#367;&#8203;"><path codeLine="47" d="M1045.9883,357.9346 C1048.2983,394.7146 1045.87,437.88 1018.49,480.78 C1008.39,496.61 992.57,509.11 976.66,518.57 " fill="none" id="Eviden&#269;n&#237; &#269;&#237;slo ze samostatn&#233; evidence dokument&#367;-backto-Eviden&#269;n&#237; &#269;&#237;slo ze samostatn&#233; evidence dokument&#367;&#8203;" style="stroke:#181818;stroke-width:1;"/><polygon fill="none" points="1044.86,339.97,1040.0001,358.3107,1051.9765,357.5585,1044.86,339.97" style="stroke:#181818;stroke-width:1;"/></g><!--link Dokument to Jednozna?n? identifik?tor--><g id="link_Dokument_Jednozna&#269;n&#253; identifik&#225;tor"><path codeLine="48" d="M455.67,71.75 C375.05,84.29 279.37,104.74 250.49,133.89 C213.34,171.4 208.5,236.35 209.33,274.94 " fill="none" id="Dokument-Jednozna&#269;n&#253; identifik&#225;tor" style="stroke:#181818;stroke-width:1;"/><text fill="#000000" font-family="sans-serif" font-size="13" lengthAdjust="spacing" textLength="170.2759" x="251.49" y="146.9569">je opat&#345;en identifik&#225;torem</text><text fill="#000000" font-family="sans-serif" font-size="13" lengthAdjust="spacing" textLength="24.8066" x="182.6213" y="264.165">1..1</text></g><!--link Dokument to Spis--><g id="link_Dokument_Spis"><path codeLine="49" d="M480.25,104.26 C467.05,113.05 454.34,122.96 443.49,133.89 C430.33,147.16 419.84,165.16 412.41,180.54 " fill="none" id="Dokument-Spis" style="stroke:#181818;stroke-width:1;"/><text fill="#000000" font-family="sans-serif" font-size="13" lengthAdjust="spacing" textLength="125.0234" x="444.49" y="146.9569">je za&#345;azen do spisu</text><text fill="#000000" font-family="sans-serif" font-size="13" lengthAdjust="spacing" textLength="24.8066" x="388.6709" y="169.7453">0..1</text></g><!--link Dokument to Eviden?n? ??slo ze samostatn? evidence dokument?--><g id="link_Dokument_Eviden&#269;n&#237; &#269;&#237;slo ze samostatn&#233; evidence dokument&#367;"><path codeLine="50" d="M701.45,99.66 C756.53,121.06 821.36,149.12 876.49,180.89 C924.04,208.29 973.49,247.56 1005.7,274.84 " fill="none" id="Dokument-Eviden&#269;n&#237; &#269;&#237;slo ze samostatn&#233; evidence dokument&#367;" style="stroke:#181818;stroke-width:1;"/><text fill="#000000" font-family="sans-serif" font-size="13" lengthAdjust="spacing" textLength="361.8101" x="815.49" y="146.9569">m&#225; eviden&#269;n&#237; &#269;&#237;slo ze samostatn&#233; evidence dokument&#367;</text><text fill="#000000" font-family="sans-serif" font-size="13" lengthAdjust="spacing" textLength="24.8066" x="972.3701" y="264.0453">0..1</text></g><!--link Dokument to Dokument--><g id="link_Dokument_Dokument"><path codeLine="51" d="M701.4,40.3 C721.93,42.42 736.1,47.47 736.1,55.45 C736.1,63.43 721.93,68.48 701.4,70.6 " fill="none" id="Dokument-Dokument" style="stroke:#181818;stroke-width:1;"/><text fill="#000000" font-family="sans-serif" font-size="13" lengthAdjust="spacing" textLength="166.1499" x="742.1" y="60.0169">je odpov&#283;d&#237; na dokument</text><text fill="#000000" font-family="sans-serif" font-size="13" lengthAdjust="spacing" textLength="24.8066" x="709.2226" y="68.1133">0..1</text></g><!--link Elektronick? dokument to Osoba ve vztahu k dokumentu--><g id="link_Elektronick&#253; dokument_Osoba ve vztahu k dokumentu"><path codeLine="52" d="M761.04,237.24 C759.81,262.47 758.76,303.96 762.49,339.49 C763.82,352.12 766.65,365.97 769.33,377.3 " fill="none" id="Elektronick&#253; dokument-Osoba ve vztahu k dokumentu" style="stroke:#181818;stroke-width:1;"/><text fill="#000000" font-family="sans-serif" font-size="13" lengthAdjust="spacing" textLength="62.8735" x="763.49" y="311.9069">odes&#237;latel</text><text fill="#000000" font-family="sans-serif" font-size="13" lengthAdjust="spacing" textLength="24.8066" x="741.002" y="366.6245">1..1</text></g><!--link Elektronick? dokument to Osoba ve vztahu k dokumentu--><g id="link_Elektronick&#253; dokument_Osoba ve vztahu k dokumentu"><path codeLine="53" d="M725.79,237.45 C713.46,247.44 701.15,260.25 694.49,275.19 C682.86,301.29 681.75,313.91 694.49,339.49 C702.19,354.94 715.86,367.53 729.81,377.17 " fill="none" id="Elektronick&#253; dokument-Osoba ve vztahu k dokumentu-1" style="stroke:#181818;stroke-width:1;"/><text fill="#000000" font-family="sans-serif" font-size="13" lengthAdjust="spacing" textLength="56.6274" x="695.49" y="311.9069">p&#345;&#237;jemce</text><text fill="#000000" font-family="sans-serif" font-size="13" lengthAdjust="spacing" textLength="24.8066" x="691.849" y="366.4628">0..1</text></g><!--link Dokument ve?ejnopr?vn?ho p?vodce to Jednozna?n? identifik?tor?--><g id="link_Dokument ve&#345;ejnopr&#225;vn&#237;ho p&#367;vodce_Jednozna&#269;n&#253; identifik&#225;tor&#8203;"><path codeLine="54" d="M354.25,434.26 C334.39,442.23 314.69,451.97 297.49,463.78 C276.41,478.26 258.17,501.18 246.23,518.46 " fill="none" id="Dokument ve&#345;ejnopr&#225;vn&#237;ho p&#367;vodce-Jednozna&#269;n&#253; identifik&#225;tor&#8203;" style="stroke:#181818;stroke-width:1;"/><text fill="#000000" font-family="sans-serif" font-size="13" lengthAdjust="spacing" textLength="170.2759" x="298.49" y="476.8469">je opat&#345;en identifik&#225;torem&#8203;</text><text fill="#000000" font-family="sans-serif" font-size="13" lengthAdjust="spacing" textLength="24.8066" x="222.9949" y="507.7504">1..1</text></g><!--link Dokument ve?ejnopr?vn?ho p?vodce to Spis?--><g id="link_Dokument ve&#345;ejnopr&#225;vn&#237;ho p&#367;vodce_Spis&#8203;"><path codeLine="55" d="M475.31,434.24 C476.62,457.04 478.38,487.68 479.68,510.45 " fill="none" id="Dokument ve&#345;ejnopr&#225;vn&#237;ho p&#367;vodce-Spis&#8203;" style="stroke:#181818;stroke-width:1;"/><text fill="#000000" font-family="sans-serif" font-size="13" lengthAdjust="spacing" textLength="125.0234" x="479.49" y="476.8469">je za&#345;azen do spisu&#8203;</text><text fill="#000000" font-family="sans-serif" font-size="13" lengthAdjust="spacing" textLength="24.8066" x="453.0403" y="499.6592">0..1</text></g><!--link Dokument ve?ejnopr?vn?ho p?vodce to Eviden?n? ??slo ze samostatn? evidence dokument??--><g id="link_Dokument ve&#345;ejnopr&#225;vn&#237;ho p&#367;vodce_Eviden&#269;n&#237; &#269;&#237;slo ze samostatn&#233; evidence dokument&#367;&#8203;"><path codeLine="56" d="M546.21,434.25 C567.87,443.71 591.66,454.13 613.49,463.78 C630.41,471.26 633.94,474.94 651.49,480.78 C697.26,496.01 748.62,508.68 794.22,518.45 " fill="none" id="Dokument ve&#345;ejnopr&#225;vn&#237;ho p&#367;vodce-Eviden&#269;n&#237; &#269;&#237;slo ze samostatn&#233; evidence dokument&#367;&#8203;" style="stroke:#181818;stroke-width:1;"/><text fill="#000000" font-family="sans-serif" font-size="13" lengthAdjust="spacing" textLength="361.8101" x="652.49" y="476.8469">m&#225; eviden&#269;n&#237; &#269;&#237;slo ze samostatn&#233; evidence dokument&#367;&#8203;</text><text fill="#000000" font-family="sans-serif" font-size="13" lengthAdjust="spacing" textLength="24.8066" x="736.1266" y="507.738">0..1</text></g><!--SRC=[jPIzRjmm3CTtFmNXFK6o1XsJfKk7F05ZiJsVRT6mPADmKg1xaGSuPBenWv4doEJpY_H9AldpVF6T3mww2HBv8_adAKKQ94QaOlJedc9CK7C2aYKvNeXAmIq7QKHImwC3uEwUoqA536iI4hsoS6z0wSINF-nZ04aQbDjeT6bEwUvPbk_03mfN85fUQgmq_TJEBwUDv7urKCubDkQ-C5R-TzyGJKfk4x_QaDwzv1vdvHPY5lo0TIwTs-kA3npJ8Pi-qdtiguPdJpMhzWzmmjYzoopHqWlewiy954QiD6eJ5AWsyQYlhdexaJ0DG9DkWvoE75AW4vQ-5nX1EhOb3pRVb4Lc15ckSPL2iAVmoB1hvD_VVwOV3CHakvOS9-KsQvABgxUCXKVkTFijQoBlKuty4DwseBsqu_BV6Z84xWl-ydHnSLJbGxDz_PonccE3apewCrFUeEO4T1OFPLloOWK7LIpd-lBosfrRt1lJrZK1nwYDBlBWdQ83vbNDh5UqzSonsc1kF0M3dOzqqcEn93PAP2QEblbFvT9VTRMBcBFTYp1aYNiZTdJ3zyGzkU2Mpu9KMOIeAPmXNfr9ZAjDMQmfgkVrlE_Xp6cersLk8CORDX-tBQl_I8wDpKBk9xwRpusMHVm3]--></g></svg>