<svg xmlns="http://www.w3.org/2000/svg" xmlns:xlink="http://www.w3.org/1999/xlink" contentStyleType="text/css" data-diagram-type="CLASS" height="836px" preserveAspectRatio="none" style="width:2186px;height:836px;background:#FFFFFF;" version="1.1" viewBox="0 0 2186 836" width="2186px" zoomAndPan="magnify"><?plantuml 1.2026.4beta2?><defs/><g><!--class ?ablona--><g class="entity" data-qualified-name=".ablona" data-source-line="2" id="ent0002"><rect fill="#F1F1F1" height="308.75" rx="2.5" ry="2.5" style="stroke:#181818;stroke-width:0.5;" width="355.8408" x="663.59" y="7"/><ellipse cx="809.1305" cy="23" fill="#ADD1B2" rx="11" ry="11" style="stroke:#181818;stroke-width:1;"/><path d="M812.0993,28.6406 Q811.5212,28.9375 810.8805,29.0781 Q810.2399,29.2344 809.5368,29.2344 Q807.0368,29.2344 805.7087,27.5938 Q804.3962,25.9375 804.3962,22.8125 Q804.3962,19.6875 805.7087,18.0313 Q807.0368,16.375 809.5368,16.375 Q810.2399,16.375 810.8805,16.5313 Q811.5368,16.6875 812.0993,16.9844 L812.0993,19.7031 Q811.4743,19.125 810.8805,18.8594 Q810.2868,18.5781 809.6618,18.5781 Q808.318,18.5781 807.6305,19.6563 Q806.943,20.7188 806.943,22.8125 Q806.943,24.9063 807.6305,25.9844 Q808.318,27.0469 809.6618,27.0469 Q810.2868,27.0469 810.8805,26.7813 Q811.4743,26.5 812.0993,25.9219 L812.0993,28.6406 Z " fill="#000000"/><text fill="#000000" font-family="sans-serif" font-size="14" lengthAdjust="spacing" textLength="56.2598" x="829.6305" y="27.8467">&#352;ablona</text><line style="stroke:#181818;stroke-width:0.5;" x1="664.59" x2="1018.4308" y1="39" y2="39"/><text fill="#000000" font-family="sans-serif" font-size="14" lengthAdjust="spacing" textLength="228.3477" x="669.59" y="55.9951">"datum schv&#225;len&#237; &#353;ablony": date</text><text fill="#000000" font-family="sans-serif" font-size="14" lengthAdjust="spacing" textLength="244.2822" x="669.59" y="72.292">"datum zneplatn&#283;n&#237; &#353;ablony": date</text><text fill="#000000" font-family="sans-serif" font-size="14" lengthAdjust="spacing" textLength="341.3936" x="669.59" y="88.5889">"je opr&#225;vn&#283;n&#237; zastupov&#225;n&#237; z&#345;et&#283;ziteln&#233;": boolean</text><text fill="#000000" font-family="sans-serif" font-size="14" lengthAdjust="spacing" textLength="187.8037" x="669.59" y="104.8857">"lok&#225;ln&#237; omezen&#237;": boolean</text><text fill="#000000" font-family="sans-serif" font-size="14" lengthAdjust="spacing" textLength="259.3145" x="669.59" y="121.1826">"lze definovat voln&#233; omezen&#237;": string</text><text fill="#000000" font-family="sans-serif" font-size="14" lengthAdjust="spacing" textLength="150.4453" x="669.59" y="137.4795">"n&#225;zev &#353;ablony": text</text><text fill="#000000" font-family="sans-serif" font-size="14" lengthAdjust="spacing" textLength="190.9619" x="669.59" y="153.7764">"Platnost &#353;ablony do": date</text><text fill="#000000" font-family="sans-serif" font-size="14" lengthAdjust="spacing" textLength="190.9619" x="669.59" y="170.0732">"Platnost &#353;ablony od": date</text><text fill="#000000" font-family="sans-serif" font-size="14" lengthAdjust="spacing" textLength="146.2686" x="669.59" y="186.3701">"popis &#353;ablony": text</text><text fill="#000000" font-family="sans-serif" font-size="14" lengthAdjust="spacing" textLength="252.8887" x="669.59" y="202.667">"postupitelnost opr&#225;vn&#283;n&#237;": boolean</text><text fill="#000000" font-family="sans-serif" font-size="14" lengthAdjust="spacing" textLength="255.0693" x="669.59" y="218.9639">"prezidi&#225;ln&#237; postupitelnost": boolean</text><text fill="#000000" font-family="sans-serif" font-size="14" lengthAdjust="spacing" textLength="150.7051" x="669.59" y="235.2607">"stav &#353;ablony": string</text><text fill="#000000" font-family="sans-serif" font-size="14" lengthAdjust="spacing" textLength="261.3379" x="669.59" y="251.5576">"typ opr&#225;vn&#283;n&#237; k zastupov&#225;n&#237;": string</text><text fill="#000000" font-family="sans-serif" font-size="14" lengthAdjust="spacing" textLength="343.8408" x="669.59" y="267.8545">"zastupovan&#233;ho lze definovat n&#225;sobn&#283;": boolean</text><text fill="#000000" font-family="sans-serif" font-size="14" lengthAdjust="spacing" textLength="329.1641" x="669.59" y="284.1514">"zastupuj&#237;c&#237;ho lze definovat n&#225;sobn&#283;": boolean</text><text fill="#000000" font-family="sans-serif" font-size="14" lengthAdjust="spacing" textLength="146.6172" x="669.59" y="300.4482">"k&#243;d &#353;ablony": string</text><line style="stroke:#181818;stroke-width:0.5;" x1="664.59" x2="1018.4308" y1="307.75" y2="307.75"/></g><!--class Role ??astn?k? p?i zastupov?n?--><g class="entity" data-qualified-name="Role ..astn.k. p.i zastupov.n." data-source-line="21" id="ent0003"><rect fill="#F1F1F1" height="48" rx="2.5" ry="2.5" style="stroke:#181818;stroke-width:0.5;" width="247.0176" x="7" y="425.35"/><ellipse cx="22" cy="441.35" fill="#ADD1B2" rx="11" ry="11" style="stroke:#181818;stroke-width:1;"/><path d="M24.9688,446.9906 Q24.3906,447.2875 23.75,447.4281 Q23.1094,447.5844 22.4063,447.5844 Q19.9063,447.5844 18.5781,445.9438 Q17.2656,444.2875 17.2656,441.1625 Q17.2656,438.0375 18.5781,436.3813 Q19.9063,434.725 22.4063,434.725 Q23.1094,434.725 23.75,434.8813 Q24.4063,435.0375 24.9688,435.3344 L24.9688,438.0531 Q24.3438,437.475 23.75,437.2094 Q23.1563,436.9281 22.5313,436.9281 Q21.1875,436.9281 20.5,438.0063 Q19.8125,439.0688 19.8125,441.1625 Q19.8125,443.2563 20.5,444.3344 Q21.1875,445.3969 22.5313,445.3969 Q23.1563,445.3969 23.75,445.1313 Q24.3438,444.85 24.9688,444.2719 L24.9688,446.9906 Z " fill="#000000"/><text fill="#000000" font-family="sans-serif" font-size="14" lengthAdjust="spacing" textLength="215.0176" x="36" y="446.1967">Role &#250;&#269;astn&#237;k&#367; p&#345;i zastupov&#225;n&#237;</text><line style="stroke:#181818;stroke-width:0.5;" x1="8" x2="253.0176" y1="457.35" y2="457.35"/><line style="stroke:#181818;stroke-width:0.5;" x1="8" x2="253.0176" y1="465.35" y2="465.35"/></g><!--class Objekt ?ablony--><g class="entity" data-qualified-name="Objekt .ablony" data-source-line="24" id="ent0004"><rect fill="#F1F1F1" height="80.5938" rx="2.5" ry="2.5" style="stroke:#181818;stroke-width:0.5;" width="382.9658" x="289.03" y="409.05"/><ellipse cx="423.8484" cy="425.05" fill="#ADD1B2" rx="11" ry="11" style="stroke:#181818;stroke-width:1;"/><path d="M426.8171,430.6906 Q426.239,430.9875 425.5984,431.1281 Q424.9577,431.2844 424.2546,431.2844 Q421.7546,431.2844 420.4265,429.6438 Q419.114,427.9875 419.114,424.8625 Q419.114,421.7375 420.4265,420.0813 Q421.7546,418.425 424.2546,418.425 Q424.9577,418.425 425.5984,418.5813 Q426.2546,418.7375 426.8171,419.0344 L426.8171,421.7531 Q426.1921,421.175 425.5984,420.9094 Q425.0046,420.6281 424.3796,420.6281 Q423.0359,420.6281 422.3484,421.7063 Q421.6609,422.7688 421.6609,424.8625 Q421.6609,426.9563 422.3484,428.0344 Q423.0359,429.0969 424.3796,429.0969 Q425.0046,429.0969 425.5984,428.8313 Q426.1921,428.55 426.8171,427.9719 L426.8171,430.6906 Z " fill="#000000"/><text fill="#000000" font-family="sans-serif" font-size="14" lengthAdjust="spacing" textLength="104.8291" x="444.3484" y="429.8967">Objekt &#353;ablony</text><line style="stroke:#181818;stroke-width:0.5;" x1="290.03" x2="670.9958" y1="441.05" y2="441.05"/><text fill="#000000" font-family="sans-serif" font-size="14" lengthAdjust="spacing" textLength="280.5674" x="295.03" y="458.0451">"lze definovat objekt n&#225;sobn&#283;": boolean</text><text fill="#000000" font-family="sans-serif" font-size="14" lengthAdjust="spacing" textLength="370.9658" x="295.03" y="474.342">"lze omezen&#237; objektu definovat u&#382;ivatelem": boolean</text><line style="stroke:#181818;stroke-width:0.5;" x1="290.03" x2="670.9958" y1="481.6438" y2="481.6438"/></g><!--class Omezen? ?ablony--><g class="entity" data-qualified-name="Omezen. .ablony" data-source-line="29" id="ent0005"><rect fill="#F1F1F1" height="96.8906" rx="2.5" ry="2.5" style="stroke:#181818;stroke-width:0.5;" width="268.04" x="707.49" y="400.9"/><ellipse cx="776.8508" cy="416.9" fill="#ADD1B2" rx="11" ry="11" style="stroke:#181818;stroke-width:1;"/><path d="M779.8196,422.5406 Q779.2415,422.8375 778.6008,422.9781 Q777.9602,423.1344 777.2571,423.1344 Q774.7571,423.1344 773.429,421.4938 Q772.1165,419.8375 772.1165,416.7125 Q772.1165,413.5875 773.429,411.9313 Q774.7571,410.275 777.2571,410.275 Q777.9602,410.275 778.6008,410.4313 Q779.2571,410.5875 779.8196,410.8844 L779.8196,413.6031 Q779.1946,413.025 778.6008,412.7594 Q778.0071,412.4781 777.3821,412.4781 Q776.0383,412.4781 775.3508,413.5563 Q774.6633,414.6188 774.6633,416.7125 Q774.6633,418.8063 775.3508,419.8844 Q776.0383,420.9469 777.3821,420.9469 Q778.0071,420.9469 778.6008,420.6813 Q779.1946,420.4 779.8196,419.8219 L779.8196,422.5406 Z " fill="#000000"/><text fill="#000000" font-family="sans-serif" font-size="14" lengthAdjust="spacing" textLength="120.8184" x="797.3508" y="421.7467">Omezen&#237; &#353;ablony</text><line style="stroke:#181818;stroke-width:0.5;" x1="708.49" x2="974.53" y1="432.9" y2="432.9"/><text fill="#000000" font-family="sans-serif" font-size="14" lengthAdjust="spacing" textLength="210.2598" x="713.49" y="449.8951">"popis omezen&#237; &#353;ablony": text</text><text fill="#000000" font-family="sans-serif" font-size="14" lengthAdjust="spacing" textLength="201.6807" x="713.49" y="466.192">"zobrazit jen popis": boolean</text><text fill="#000000" font-family="sans-serif" font-size="14" lengthAdjust="spacing" textLength="256.04" x="713.49" y="482.4889">"u&#382;ivatel m&#367;&#382;e uv&#233;st OVM": boolean</text><line style="stroke:#181818;stroke-width:0.5;" x1="708.49" x2="974.53" y1="489.7906" y2="489.7906"/></g><!--class Specifick? omezen?--><g class="entity" data-qualified-name="Specifick. omezen." data-source-line="35" id="ent0006"><rect fill="#F1F1F1" height="113.1875" rx="2.5" ry="2.5" style="stroke:#181818;stroke-width:0.5;" width="371.0234" x="1011" y="392.75"/><ellipse cx="1124.6611" cy="408.75" fill="#ADD1B2" rx="11" ry="11" style="stroke:#181818;stroke-width:1;"/><path d="M1127.6299,414.3906 Q1127.0518,414.6875 1126.4111,414.8281 Q1125.7705,414.9844 1125.0674,414.9844 Q1122.5674,414.9844 1121.2393,413.3438 Q1119.9268,411.6875 1119.9268,408.5625 Q1119.9268,405.4375 1121.2393,403.7813 Q1122.5674,402.125 1125.0674,402.125 Q1125.7705,402.125 1126.4111,402.2813 Q1127.0674,402.4375 1127.6299,402.7344 L1127.6299,405.4531 Q1127.0049,404.875 1126.4111,404.6094 Q1125.8174,404.3281 1125.1924,404.3281 Q1123.8486,404.3281 1123.1611,405.4063 Q1122.4736,406.4688 1122.4736,408.5625 Q1122.4736,410.6563 1123.1611,411.7344 Q1123.8486,412.7969 1125.1924,412.7969 Q1125.8174,412.7969 1126.4111,412.5313 Q1127.0049,412.25 1127.6299,411.6719 L1127.6299,414.3906 Z " fill="#000000"/><text fill="#000000" font-family="sans-serif" font-size="14" lengthAdjust="spacing" textLength="135.2012" x="1145.1611" y="413.5967">Specifick&#233; omezen&#237;</text><line style="stroke:#181818;stroke-width:0.5;" x1="1012" x2="1381.0234" y1="424.75" y2="424.75"/><text fill="#000000" font-family="sans-serif" font-size="14" lengthAdjust="spacing" textLength="359.0234" x="1017" y="441.7451">"je specifick&#233; omezen&#237; voliteln&#233; u&#382;ivatelem": string</text><text fill="#000000" font-family="sans-serif" font-size="14" lengthAdjust="spacing" textLength="247.1191" x="1017" y="458.042">"n&#225;zev specifick&#233;ho omezen&#237;": text</text><text fill="#000000" font-family="sans-serif" font-size="14" lengthAdjust="spacing" textLength="242.9424" x="1017" y="474.3389">"popis specifick&#233;ho omezen&#237;": text</text><text fill="#000000" font-family="sans-serif" font-size="14" lengthAdjust="spacing" textLength="357.1777" x="1017" y="490.6357">"zobrazit jen popis specifick&#233;ho omezen&#237;": boolean</text><line style="stroke:#181818;stroke-width:0.5;" x1="1012" x2="1381.0234" y1="497.9375" y2="497.9375"/></g><!--class ?ablonu lze vyu??t--><g class="entity" data-qualified-name=".ablonu lze vyu..t" data-source-line="42" id="ent0007"><rect fill="#F1F1F1" height="80.5938" rx="2.5" ry="2.5" style="stroke:#181818;stroke-width:0.5;" width="289.6895" x="1416.66" y="409.05"/><ellipse cx="1493.5164" cy="425.05" fill="#ADD1B2" rx="11" ry="11" style="stroke:#181818;stroke-width:1;"/><path d="M1496.4852,430.6906 Q1495.9071,430.9875 1495.2664,431.1281 Q1494.6258,431.2844 1493.9227,431.2844 Q1491.4227,431.2844 1490.0946,429.6438 Q1488.7821,427.9875 1488.7821,424.8625 Q1488.7821,421.7375 1490.0946,420.0813 Q1491.4227,418.425 1493.9227,418.425 Q1494.6258,418.425 1495.2664,418.5813 Q1495.9227,418.7375 1496.4852,419.0344 L1496.4852,421.7531 Q1495.8602,421.175 1495.2664,420.9094 Q1494.6727,420.6281 1494.0477,420.6281 Q1492.7039,420.6281 1492.0164,421.7063 Q1491.3289,422.7688 1491.3289,424.8625 Q1491.3289,426.9563 1492.0164,428.0344 Q1492.7039,429.0969 1494.0477,429.0969 Q1494.6727,429.0969 1495.2664,428.8313 Q1495.8602,428.55 1496.4852,427.9719 L1496.4852,430.6906 Z " fill="#000000"/><text fill="#000000" font-family="sans-serif" font-size="14" lengthAdjust="spacing" textLength="127.4766" x="1514.0164" y="429.8967">&#352;ablonu lze vyu&#382;&#237;t</text><line style="stroke:#181818;stroke-width:0.5;" x1="1417.66" x2="1705.3495" y1="441.05" y2="441.05"/><text fill="#000000" font-family="sans-serif" font-size="14" lengthAdjust="spacing" textLength="277.6895" x="1422.66" y="458.0451">"syst&#233;m, kde lze &#353;ablonu vyu&#382;&#237;t": string</text><text fill="#000000" font-family="sans-serif" font-size="14" lengthAdjust="spacing" textLength="233.1807" x="1422.66" y="474.342">"URL, kde lze &#353;ablonu vyu&#382;&#237;t": url</text><line style="stroke:#181818;stroke-width:0.5;" x1="1417.66" x2="1705.3495" y1="481.6438" y2="481.6438"/></g><!--class Org?n ve?ejn? moci nebo soukromopr?vn? u?ivatel ?daj?--><g class="entity" data-qualified-name="Org.n ve.ejn. moci nebo soukromopr.vn. u.ivatel .daj." data-source-line="47" id="ent0008"><rect fill="#F1F1F1" height="48" rx="2.5" ry="2.5" style="stroke:#181818;stroke-width:0.5;" width="430.8906" x="1741.06" y="425.35"/><ellipse cx="1756.06" cy="441.35" fill="#ADD1B2" rx="11" ry="11" style="stroke:#181818;stroke-width:1;"/><path d="M1759.0288,446.9906 Q1758.4506,447.2875 1757.81,447.4281 Q1757.1694,447.5844 1756.4663,447.5844 Q1753.9663,447.5844 1752.6381,445.9438 Q1751.3256,444.2875 1751.3256,441.1625 Q1751.3256,438.0375 1752.6381,436.3813 Q1753.9663,434.725 1756.4663,434.725 Q1757.1694,434.725 1757.81,434.8813 Q1758.4663,435.0375 1759.0288,435.3344 L1759.0288,438.0531 Q1758.4038,437.475 1757.81,437.2094 Q1757.2163,436.9281 1756.5913,436.9281 Q1755.2475,436.9281 1754.56,438.0063 Q1753.8725,439.0688 1753.8725,441.1625 Q1753.8725,443.2563 1754.56,444.3344 Q1755.2475,445.3969 1756.5913,445.3969 Q1757.2163,445.3969 1757.81,445.1313 Q1758.4038,444.85 1759.0288,444.2719 L1759.0288,446.9906 Z " fill="#000000"/><text fill="#000000" font-family="sans-serif" font-size="14" lengthAdjust="spacing" textLength="398.8906" x="1770.06" y="446.1967">Org&#225;n ve&#345;ejn&#233; moci nebo soukromopr&#225;vn&#237; u&#382;ivatel &#250;daj&#367;</text><line style="stroke:#181818;stroke-width:0.5;" x1="1742.06" x2="2170.9506" y1="457.35" y2="457.35"/><line style="stroke:#181818;stroke-width:0.5;" x1="1742.06" x2="2170.9506" y1="465.35" y2="465.35"/></g><!--class Skupina omezen? ?ablony--><g class="entity" data-qualified-name="Skupina omezen. .ablony" data-source-line="50" id="ent0009"><rect fill="#F1F1F1" height="113.1875" rx="2.5" ry="2.5" style="stroke:#181818;stroke-width:0.5;" width="336.3311" x="673.34" y="582.94"/><ellipse cx="747.8004" cy="598.94" fill="#ADD1B2" rx="11" ry="11" style="stroke:#181818;stroke-width:1;"/><path d="M750.7692,604.5806 Q750.1911,604.8775 749.5504,605.0181 Q748.9098,605.1744 748.2067,605.1744 Q745.7067,605.1744 744.3786,603.5337 Q743.0661,601.8775 743.0661,598.7525 Q743.0661,595.6275 744.3786,593.9712 Q745.7067,592.315 748.2067,592.315 Q748.9098,592.315 749.5504,592.4712 Q750.2067,592.6275 750.7692,592.9244 L750.7692,595.6431 Q750.1442,595.065 749.5504,594.7994 Q748.9567,594.5181 748.3317,594.5181 Q746.9879,594.5181 746.3004,595.5962 Q745.6129,596.6587 745.6129,598.7525 Q745.6129,600.8462 746.3004,601.9244 Q746.9879,602.9869 748.3317,602.9869 Q748.9567,602.9869 749.5504,602.7212 Q750.1442,602.44 750.7692,601.8619 L750.7692,604.5806 Z " fill="#000000"/><text fill="#000000" font-family="sans-serif" font-size="14" lengthAdjust="spacing" textLength="178.9102" x="768.3004" y="603.7867">Skupina omezen&#237; &#353;ablony</text><line style="stroke:#181818;stroke-width:0.5;" x1="674.34" x2="1008.6711" y1="614.94" y2="614.94"/><text fill="#000000" font-family="sans-serif" font-size="14" lengthAdjust="spacing" textLength="321.2686" x="679.34" y="631.9351">"lze skupina omezen&#237; volit u&#382;ivatelem": string</text><text fill="#000000" font-family="sans-serif" font-size="14" lengthAdjust="spacing" textLength="214.2725" x="679.34" y="648.232">"n&#225;zev skupiny omezen&#237;": text</text><text fill="#000000" font-family="sans-serif" font-size="14" lengthAdjust="spacing" textLength="268.9189" x="679.34" y="664.5289">"popis skupiny omezen&#237; &#353;ablony": text</text><text fill="#000000" font-family="sans-serif" font-size="14" lengthAdjust="spacing" textLength="324.3311" x="679.34" y="680.8257">"zobrazit jen popis skupiny omezen&#237;": boolean</text><line style="stroke:#181818;stroke-width:0.5;" x1="674.34" x2="1008.6711" y1="688.1275" y2="688.1275"/></g><!--class Agenda--><g class="entity" data-qualified-name="Agenda" data-source-line="57" id="ent0010"><rect fill="#F1F1F1" height="48" rx="2.5" ry="2.5" style="stroke:#181818;stroke-width:0.5;" width="85.416" x="83.8" y="773.13"/><ellipse cx="98.8" cy="789.13" fill="#ADD1B2" rx="11" ry="11" style="stroke:#181818;stroke-width:1;"/><path d="M101.7688,794.7706 Q101.1906,795.0675 100.55,795.2081 Q99.9094,795.3644 99.2063,795.3644 Q96.7063,795.3644 95.3781,793.7238 Q94.0656,792.0675 94.0656,788.9425 Q94.0656,785.8175 95.3781,784.1613 Q96.7063,782.505 99.2063,782.505 Q99.9094,782.505 100.55,782.6613 Q101.2063,782.8175 101.7688,783.1144 L101.7688,785.8331 Q101.1438,785.255 100.55,784.9894 Q99.9563,784.7081 99.3313,784.7081 Q97.9875,784.7081 97.3,785.7863 Q96.6125,786.8488 96.6125,788.9425 Q96.6125,791.0363 97.3,792.1144 Q97.9875,793.1769 99.3313,793.1769 Q99.9563,793.1769 100.55,792.9113 Q101.1438,792.63 101.7688,792.0519 L101.7688,794.7706 Z " fill="#000000"/><text fill="#000000" font-family="sans-serif" font-size="14" lengthAdjust="spacing" textLength="53.416" x="112.8" y="793.9767">Agenda</text><line style="stroke:#181818;stroke-width:0.5;" x1="84.8" x2="168.216" y1="805.13" y2="805.13"/><line style="stroke:#181818;stroke-width:0.5;" x1="84.8" x2="168.216" y1="813.13" y2="813.13"/></g><!--class Org?n ve?ejn? moci--><g class="entity" data-qualified-name="Org.n ve.ejn. moci" data-source-line="60" id="ent0011"><rect fill="#F1F1F1" height="48" rx="2.5" ry="2.5" style="stroke:#181818;stroke-width:0.5;" width="170.4482" x="410.28" y="773.13"/><ellipse cx="425.28" cy="789.13" fill="#ADD1B2" rx="11" ry="11" style="stroke:#181818;stroke-width:1;"/><path d="M428.2488,794.7706 Q427.6706,795.0675 427.03,795.2081 Q426.3894,795.3644 425.6863,795.3644 Q423.1863,795.3644 421.8581,793.7238 Q420.5456,792.0675 420.5456,788.9425 Q420.5456,785.8175 421.8581,784.1613 Q423.1863,782.505 425.6863,782.505 Q426.3894,782.505 427.03,782.6613 Q427.6863,782.8175 428.2488,783.1144 L428.2488,785.8331 Q427.6238,785.255 427.03,784.9894 Q426.4363,784.7081 425.8113,784.7081 Q424.4675,784.7081 423.78,785.7863 Q423.0925,786.8488 423.0925,788.9425 Q423.0925,791.0363 423.78,792.1144 Q424.4675,793.1769 425.8113,793.1769 Q426.4363,793.1769 427.03,792.9113 Q427.6238,792.63 428.2488,792.0519 L428.2488,794.7706 Z " fill="#000000"/><text fill="#000000" font-family="sans-serif" font-size="14" lengthAdjust="spacing" textLength="138.4482" x="439.28" y="793.9767">Org&#225;n ve&#345;ejn&#233; moci</text><line style="stroke:#181818;stroke-width:0.5;" x1="411.28" x2="579.7282" y1="805.13" y2="805.13"/><line style="stroke:#181818;stroke-width:0.5;" x1="411.28" x2="579.7282" y1="813.13" y2="813.13"/></g><!--class Slu?ba ve?ejn? spr?vy--><g class="entity" data-qualified-name="Slu.ba ve.ejn. spr.vy" data-source-line="63" id="ent0012"><rect fill="#F1F1F1" height="48" rx="2.5" ry="2.5" style="stroke:#181818;stroke-width:0.5;" width="187.0938" x="747.96" y="773.13"/><ellipse cx="762.96" cy="789.13" fill="#ADD1B2" rx="11" ry="11" style="stroke:#181818;stroke-width:1;"/><path d="M765.9288,794.7706 Q765.3506,795.0675 764.71,795.2081 Q764.0694,795.3644 763.3663,795.3644 Q760.8663,795.3644 759.5381,793.7238 Q758.2256,792.0675 758.2256,788.9425 Q758.2256,785.8175 759.5381,784.1613 Q760.8663,782.505 763.3663,782.505 Q764.0694,782.505 764.71,782.6613 Q765.3663,782.8175 765.9288,783.1144 L765.9288,785.8331 Q765.3038,785.255 764.71,784.9894 Q764.1163,784.7081 763.4913,784.7081 Q762.1475,784.7081 761.46,785.7863 Q760.7725,786.8488 760.7725,788.9425 Q760.7725,791.0363 761.46,792.1144 Q762.1475,793.1769 763.4913,793.1769 Q764.1163,793.1769 764.71,792.9113 Q765.3038,792.63 765.9288,792.0519 L765.9288,794.7706 Z " fill="#000000"/><text fill="#000000" font-family="sans-serif" font-size="14" lengthAdjust="spacing" textLength="155.0938" x="776.96" y="793.9767">Slu&#382;ba ve&#345;ejn&#233; spr&#225;vy</text><line style="stroke:#181818;stroke-width:0.5;" x1="748.96" x2="934.0538" y1="805.13" y2="805.13"/><line style="stroke:#181818;stroke-width:0.5;" x1="748.96" x2="934.0538" y1="813.13" y2="813.13"/></g><!--class ?kon slu?by ve?ejn? spr?vy--><g class="entity" data-qualified-name=".kon slu.by ve.ejn. spr.vy" data-source-line="66" id="ent0013"><rect fill="#F1F1F1" height="48" rx="2.5" ry="2.5" style="stroke:#181818;stroke-width:0.5;" width="225.4502" x="1085.78" y="773.13"/><ellipse cx="1100.78" cy="789.13" fill="#ADD1B2" rx="11" ry="11" style="stroke:#181818;stroke-width:1;"/><path d="M1103.7488,794.7706 Q1103.1706,795.0675 1102.53,795.2081 Q1101.8894,795.3644 1101.1863,795.3644 Q1098.6863,795.3644 1097.3581,793.7238 Q1096.0456,792.0675 1096.0456,788.9425 Q1096.0456,785.8175 1097.3581,784.1613 Q1098.6863,782.505 1101.1863,782.505 Q1101.8894,782.505 1102.53,782.6613 Q1103.1863,782.8175 1103.7488,783.1144 L1103.7488,785.8331 Q1103.1238,785.255 1102.53,784.9894 Q1101.9363,784.7081 1101.3113,784.7081 Q1099.9675,784.7081 1099.28,785.7863 Q1098.5925,786.8488 1098.5925,788.9425 Q1098.5925,791.0363 1099.28,792.1144 Q1099.9675,793.1769 1101.3113,793.1769 Q1101.9363,793.1769 1102.53,792.9113 Q1103.1238,792.63 1103.7488,792.0519 L1103.7488,794.7706 Z " fill="#000000"/><text fill="#000000" font-family="sans-serif" font-size="14" lengthAdjust="spacing" textLength="193.4502" x="1114.78" y="793.9767">&#218;kon slu&#382;by ve&#345;ejn&#233; spr&#225;vy</text><line style="stroke:#181818;stroke-width:0.5;" x1="1086.78" x2="1310.2302" y1="805.13" y2="805.13"/><line style="stroke:#181818;stroke-width:0.5;" x1="1086.78" x2="1310.2302" y1="813.13" y2="813.13"/></g><!--class Identifik?tor specifick?ho omezen?--><g class="entity" data-qualified-name="Identifik.tor specifick.ho omezen." data-source-line="69" id="ent0014"><rect fill="#F1F1F1" height="48" rx="2.5" ry="2.5" style="stroke:#181818;stroke-width:0.5;" width="272.6934" x="1060.16" y="615.54"/><ellipse cx="1075.16" cy="631.54" fill="#ADD1B2" rx="11" ry="11" style="stroke:#181818;stroke-width:1;"/><path d="M1078.1288,637.1806 Q1077.5506,637.4775 1076.91,637.6181 Q1076.2694,637.7744 1075.5663,637.7744 Q1073.0663,637.7744 1071.7381,636.1338 Q1070.4256,634.4775 1070.4256,631.3525 Q1070.4256,628.2275 1071.7381,626.5713 Q1073.0663,624.915 1075.5663,624.915 Q1076.2694,624.915 1076.91,625.0713 Q1077.5663,625.2275 1078.1288,625.5244 L1078.1288,628.2431 Q1077.5038,627.665 1076.91,627.3994 Q1076.3163,627.1181 1075.6913,627.1181 Q1074.3475,627.1181 1073.66,628.1963 Q1072.9725,629.2588 1072.9725,631.3525 Q1072.9725,633.4463 1073.66,634.5244 Q1074.3475,635.5869 1075.6913,635.5869 Q1076.3163,635.5869 1076.91,635.3213 Q1077.5038,635.04 1078.1288,634.4619 L1078.1288,637.1806 Z " fill="#000000"/><text fill="#000000" font-family="sans-serif" font-size="14" lengthAdjust="spacing" textLength="240.6934" x="1089.16" y="636.3867">Identifik&#225;tor specifick&#233;ho omezen&#237;</text><line style="stroke:#181818;stroke-width:0.5;" x1="1061.16" x2="1331.8534" y1="647.54" y2="647.54"/><line style="stroke:#181818;stroke-width:0.5;" x1="1061.16" x2="1331.8534" y1="655.54" y2="655.54"/></g><!--class Kombinace skupiny omezen?--><g class="entity" data-qualified-name="Kombinace skupiny omezen." data-source-line="72" id="ent0015"><rect fill="#F1F1F1" height="48" rx="2.5" ry="2.5" style="stroke:#181818;stroke-width:0.5;" width="232.5732" x="1442.22" y="773.13"/><ellipse cx="1457.22" cy="789.13" fill="#ADD1B2" rx="11" ry="11" style="stroke:#181818;stroke-width:1;"/><path d="M1460.1888,794.7706 Q1459.6106,795.0675 1458.97,795.2081 Q1458.3294,795.3644 1457.6263,795.3644 Q1455.1263,795.3644 1453.7981,793.7238 Q1452.4856,792.0675 1452.4856,788.9425 Q1452.4856,785.8175 1453.7981,784.1613 Q1455.1263,782.505 1457.6263,782.505 Q1458.3294,782.505 1458.97,782.6613 Q1459.6263,782.8175 1460.1888,783.1144 L1460.1888,785.8331 Q1459.5638,785.255 1458.97,784.9894 Q1458.3763,784.7081 1457.7513,784.7081 Q1456.4075,784.7081 1455.72,785.7863 Q1455.0325,786.8488 1455.0325,788.9425 Q1455.0325,791.0363 1455.72,792.1144 Q1456.4075,793.1769 1457.7513,793.1769 Q1458.3763,793.1769 1458.97,792.9113 Q1459.5638,792.63 1460.1888,792.0519 L1460.1888,794.7706 Z " fill="#000000"/><text fill="#000000" font-family="sans-serif" font-size="14" lengthAdjust="spacing" textLength="200.5732" x="1471.22" y="793.9767">Kombinace skupiny omezen&#237;</text><line style="stroke:#181818;stroke-width:0.5;" x1="1443.22" x2="1673.7932" y1="805.13" y2="805.13"/><line style="stroke:#181818;stroke-width:0.5;" x1="1443.22" x2="1673.7932" y1="813.13" y2="813.13"/></g><!--link ?ablona to Role ??astn?k? p?i zastupov?n?--><g class="link" data-entity-1="ent0002" data-entity-2="ent0003" data-link-type="association" data-source-line="75" id="lnk16"><path codeLine="75" d="M663.18,188.11 C482.82,217.78 221,272.12 151.51,345.75 C131.42,367.04 128.29,402.13 128.74,425.24" fill="none" id="&#352;ablona-Role &#250;&#269;astn&#237;k&#367; p&#345;i zastupov&#225;n&#237;" style="stroke:#181818;stroke-width:1;"/><text fill="#000000" font-family="sans-serif" font-size="13" lengthAdjust="spacing" textLength="114.6069" x="152.51" y="358.8169">role zastupuj&#237;c&#237;ho</text></g><!--link ?ablona to Role ??astn?k? p?i zastupov?n?--><g class="link" data-entity-1="ent0002" data-entity-2="ent0003" data-link-type="association" data-source-line="79" id="lnk20"><path codeLine="79" d="M663.47,233.99 C507.78,296.61 291.02,383.79 188.56,425" fill="none" id="&#352;ablona-Role &#250;&#269;astn&#237;k&#367; p&#345;i zastupov&#225;n&#237;-1" style="stroke:#181818;stroke-width:1;"/><text fill="#000000" font-family="sans-serif" font-size="13" lengthAdjust="spacing" textLength="120.5737" x="382.51" y="358.8169">role zastoupen&#233;ho</text></g><!--link ?ablona to Objekt ?ablony--><g class="link" data-entity-1="ent0002" data-entity-2="ent0004" data-link-type="association" data-source-line="76" id="lnk17"><path codeLine="76" d="M663.36,283.13 C636.05,303.31 608.61,324.59 583.51,345.75 C560.36,365.28 536.28,389.04 517.23,408.78" fill="none" id="&#352;ablona-Objekt &#353;ablony" style="stroke:#181818;stroke-width:1;"/><text fill="#000000" font-family="sans-serif" font-size="13" lengthAdjust="spacing" textLength="248.187" x="584.51" y="358.8169">obsahuje informace o objektu &#353;ablony</text></g><!--link ?ablona to Omezen? ?ablony--><g class="link" data-entity-1="ent0002" data-entity-2="ent0005" data-link-type="association" data-source-line="77" id="lnk18"><path codeLine="77" d="M841.51,316.25 C841.51,346.92 841.51,376.92 841.51,400.55" fill="none" id="&#352;ablona-Omezen&#237; &#353;ablony" style="stroke:#181818;stroke-width:1;"/><text fill="#000000" font-family="sans-serif" font-size="13" lengthAdjust="spacing" textLength="173.0752" x="842.51" y="358.8169">obsahuje omezen&#237; &#353;ablony</text></g><!--link ?ablona to Specifick? omezen?--><g class="link" data-entity-1="ent0002" data-entity-2="ent0006" data-link-type="association" data-source-line="78" id="lnk19"><path codeLine="78" d="M1019.79,305.99 C1057.98,336.76 1096.13,367.49 1127.16,392.48" fill="none" id="&#352;ablona-Specifick&#233; omezen&#237;" style="stroke:#181818;stroke-width:1;"/><text fill="#000000" font-family="sans-serif" font-size="13" lengthAdjust="spacing" textLength="187.2305" x="1083.51" y="358.8169">obsahuje specifick&#233; omezen&#237;</text></g><!--link ?ablona to ?ablonu lze vyu??t--><g class="link" data-entity-1="ent0002" data-entity-2="ent0007" data-link-type="association" data-source-line="80" id="lnk21"><path codeLine="80" d="M1019.49,233.07 C1158.78,288.39 1347.42,363.32 1461.47,408.62" fill="none" id="&#352;ablona-&#352;ablonu lze vyu&#382;&#237;t" style="stroke:#181818;stroke-width:1;"/><text fill="#000000" font-family="sans-serif" font-size="13" lengthAdjust="spacing" textLength="259.0923" x="1330.51" y="358.8169">&#353;ablonu lze vyu&#382;&#237;t v r&#367;zn&#253;ch syst&#233;mech</text></g><!--link ?ablona to Org?n ve?ejn? moci nebo soukromopr?vn? u?ivatel ?daj?--><g class="link" data-entity-1="ent0002" data-entity-2="ent0008" data-link-type="association" data-source-line="81" id="lnk22"><path codeLine="81" d="M1019.84,203.38 C1173.58,239.25 1401.26,293.63 1598.51,345.75 C1695.24,371.32 1805.84,403.47 1878.2,424.9" fill="none" id="&#352;ablona-Org&#225;n ve&#345;ejn&#233; moci nebo soukromopr&#225;vn&#237; u&#382;ivatel &#250;daj&#367;" style="stroke:#181818;stroke-width:1;"/><text fill="#000000" font-family="sans-serif" font-size="13" lengthAdjust="spacing" textLength="132.4438" x="1657.51" y="358.8169">je gestorem &#353;ablony</text><text fill="#000000" font-family="sans-serif" font-size="13" lengthAdjust="spacing" textLength="24.8066" x="1832.2864" y="414.1953">1..1</text></g><!--link Omezen? ?ablony to Skupina omezen? ?ablony--><g class="link" data-entity-1="ent0005" data-entity-2="ent0009" data-link-type="association" data-source-line="82" id="lnk23"><path codeLine="82" d="M841.51,497.84 C841.51,523.64 841.51,555.7 841.51,582.7" fill="none" id="Omezen&#237; &#353;ablony-Skupina omezen&#237; &#353;ablony" style="stroke:#181818;stroke-width:1;"/><text fill="#000000" font-family="sans-serif" font-size="13" lengthAdjust="spacing" textLength="178.7373" x="842.51" y="549.0069">up&#345;es&#328;uje omezen&#237; &#353;ablony</text></g><!--link Specifick? omezen? to Identifik?tor specifick?ho omezen?--><g class="link" data-entity-1="ent0006" data-entity-2="ent0014" data-link-type="association" data-source-line="83" id="lnk24"><path codeLine="83" d="M1196.51,506.3 C1196.51,542.71 1196.51,588.28 1196.51,615.31" fill="none" id="Specifick&#233; omezen&#237;-Identifik&#225;tor specifick&#233;ho omezen&#237;" style="stroke:#181818;stroke-width:1;"/><text fill="#000000" font-family="sans-serif" font-size="13" lengthAdjust="spacing" textLength="347.7817" x="1197.51" y="549.0069">m&#225; vydefinovan&#233; identifik&#225;tory specifick&#233;ho omezen&#237;</text></g><!--link Skupina omezen? ?ablony to Agenda--><g class="link" data-entity-1="ent0009" data-entity-2="ent0010" data-link-type="association" data-source-line="84" id="lnk25"><path codeLine="84" d="M673.09,646.79 C503.82,655.77 256.68,677.04 175.51,726.13 C157.74,736.88 144.75,756.81 136.63,772.66" fill="none" id="Skupina omezen&#237; &#353;ablony-Agenda" style="stroke:#181818;stroke-width:1;"/><text fill="#000000" font-family="sans-serif" font-size="13" lengthAdjust="spacing" textLength="327.3042" x="176.51" y="739.1969">vymezuje agendu, na kter&#233; je opr&#225;vn&#283;n&#237; omezeno</text><text fill="#000000" font-family="sans-serif" font-size="13" lengthAdjust="spacing" textLength="24.8066" x="112.2705" y="761.9504">1..1</text></g><!--link Skupina omezen? ?ablony to Org?n ve?ejn? moci--><g class="link" data-entity-1="ent0009" data-entity-2="ent0011" data-link-type="association" data-source-line="85" id="lnk26"><path codeLine="85" d="M672.99,656.72 C620.48,668.94 565.62,690.01 524.51,726.13 C510.87,738.11 503.51,757.52 499.62,772.86" fill="none" id="Skupina omezen&#237; &#353;ablony-Org&#225;n ve&#345;ejn&#233; moci" style="stroke:#181818;stroke-width:1;"/><text fill="#000000" font-family="sans-serif" font-size="13" lengthAdjust="spacing" textLength="304.0972" x="525.51" y="739.1969">vymezuje OVM, u kter&#233;ho lze opr&#225;vn&#283;n&#237; pou&#382;&#237;t</text><text fill="#000000" font-family="sans-serif" font-size="13" lengthAdjust="spacing" textLength="24.8066" x="473.7966" y="762.1991">0..1</text></g><!--link Skupina omezen? ?ablony to Slu?ba ve?ejn? spr?vy--><g class="link" data-entity-1="ent0009" data-entity-2="ent0012" data-link-type="association" data-source-line="86" id="lnk27"><path codeLine="86" d="M838.71,696.44 C838.27,711.59 838.08,727.99 838.51,743.13 C838.78,752.8 839.34,763.46 839.89,772.66" fill="none" id="Skupina omezen&#237; &#353;ablony-Slu&#382;ba ve&#345;ejn&#233; spr&#225;vy" style="stroke:#181818;stroke-width:1;"/><text fill="#000000" font-family="sans-serif" font-size="13" lengthAdjust="spacing" textLength="315.6182" x="839.51" y="739.1969">vymezuje slu&#382;by na kter&#233; je opr&#225;vn&#283;n&#237; omezeno</text><text fill="#000000" font-family="sans-serif" font-size="13" lengthAdjust="spacing" textLength="24.8066" x="812.6692" y="761.9504">0..1</text></g><!--link Skupina omezen? ?ablony to ?kon slu?by ve?ejn? spr?vy--><g class="link" data-entity-1="ent0009" data-entity-2="ent0013" data-link-type="association" data-source-line="87" id="lnk28"><path codeLine="87" d="M1010.06,687.41 C1021.04,690.38 1031.93,693.31 1042.51,696.13 C1094.38,709.95 1116.99,693.35 1159.51,726.13 C1174.71,737.85 1184.86,757.28 1190.98,772.69" fill="none" id="Skupina omezen&#237; &#353;ablony-&#218;kon slu&#382;by ve&#345;ejn&#233; spr&#225;vy" style="stroke:#181818;stroke-width:1;"/><text fill="#000000" font-family="sans-serif" font-size="13" lengthAdjust="spacing" textLength="318.0112" x="1175.51" y="739.1969">vymezuje &#250;kony, na kter&#233; je opr&#225;vn&#283;n&#237; omezeno</text><text fill="#000000" font-family="sans-serif" font-size="13" lengthAdjust="spacing" textLength="24.8066" x="1162.3191" y="761.9877">0..1</text></g><!--link Skupina omezen? ?ablony to Kombinace skupiny omezen?--><g class="link" data-entity-1="ent0009" data-entity-2="ent0015" data-link-type="association" data-source-line="88" id="lnk29"><path codeLine="88" d="M1010.11,689.84 C1021.02,692.21 1031.89,694.33 1042.51,696.13 C1143.51,713.21 1411.67,678.77 1502.51,726.13 C1522.11,736.35 1537.19,756.77 1546.74,772.93" fill="none" id="Skupina omezen&#237; &#353;ablony-Kombinace skupiny omezen&#237;" style="stroke:#181818;stroke-width:1;"/><text fill="#000000" font-family="sans-serif" font-size="13" lengthAdjust="spacing" textLength="248.4155" x="1525.51" y="739.1969">obsahuje kombinace skupiny omezen&#237;</text></g><?plantuml-src hLOzRzim4DtzAmZFIT2isJeMRP4YGRjJqYMM9V44aH8g5Tsxz0UaMUenG-2XMu1cOVI_UfHbYzI7RQ2P0kVUVRrxTvG4nGHFGARSXsj8USOLPaoWW9aVSodPlFxDlHW5dxDlCyRc0LTvmgI_AFGg1g4VMRrg0ENyWf4HEb0b88sv4Y_t4x0bC4mplIfQICMbobEaoCsl-WxKotqLAeY5VY0_3p46BenhZ17bDp1Ce39rzEmLi01kGe45Lwn04y66IfM5ujOWXLvLKDZbAVYgZEMJAHwbsjbOW5RrGpC6bZd5D9HZOLCqNJPT6M-R0RU7D8Cg3CAsJzVDHKh5dGwwxbIPkXn7BiiEU6lXHDO2cSiXyIJHeoXkwerFljIFlduyrYdIVuAHUh_FjgAx8YZJJoy_AJfL6TLhbjPtOQzsKcJdSkaj8Ug6qShLBGStc8cg37OhaHQQMyvv_HpINuWXiVoi0hQklH8sGi21jLD4XLx6IUTi2O8rSBUmNMQMrElw6LXUw0UIpkMNZwELNAVWXpUX7zcQtnH3AoT7h6P3sZthzJbO5CkTncsjLATlq-z1sB3fQPzXY-rLoXkz5INLh1zLswCifT8FoGcB0cZiBULv1xJx-dprOJyqps9xpDajgOyLGETfQVXAq0-P00-Pn3pAC6dtZLZj1gUV0hwirwvahoDQQC57jD69L_OnpQGE3gdnAlUCfmSuJfPZSGUpUNiB8k3kRevnrkCYffOyRc5aGsFfmlIl20MJ3RWy17uNW50aA7egpAis8I_7vJqc7j7jmx3L3Svw3qzFZpvK5qHdPg2zSpdlnnjSCUE9dkIBd5Ot53UO9QOwt1se7NGGQgWg9zXmzFq8utV42J9sJEQlGHBcAJJFq23QnEeRxztssYPMiAnULqB_zHUilGtWBmPnpy_EpkV_lTyNcoDx2zH21ebDxiX06fQdhu09bXDL8EiVKoCR7v89VAJyJP94huYlxLjdkWuTvtBAUxQl_8xLzYQOL4L9GDCCD__BJ-ZxaqKACihP_nxSXCJ3ITxi6TtSpKflvWdBsupjzugJDCLMKSTctNEvdCpRe_Lw_HuyXav-_KJeybNutdSbdVCGJGF_0G00?></g></svg>