<svg xmlns="http://www.w3.org/2000/svg" xmlns:xlink="http://www.w3.org/1999/xlink" contentStyleType="text/css" height="393px" preserveAspectRatio="none" style="width:1394px;height:393px;background:#FFFFFF;" version="1.1" viewBox="0 0 1394 393" width="1394px" zoomAndPan="magnify"><defs/><g><!--class Opr?vn?n? k p??stupu k ?daj?m--><g id="elem_Opr&#225;vn&#283;n&#237; k p&#345;&#237;stupu k &#250;daj&#367;m"><rect codeLine="2" fill="#F1F1F1" height="96.8906" id="Opr&#225;vn&#283;n&#237; k p&#345;&#237;stupu k &#250;daj&#367;m" rx="2.5" ry="2.5" style="stroke:#181818;stroke-width:0.5;" width="348.6289" x="380.19" y="7"/><ellipse cx="441.5152" cy="23" fill="#ADD1B2" rx="11" ry="11" style="stroke:#181818;stroke-width:1.0;"/><path d="M444.4839,28.6406 Q443.9058,28.9375 443.2652,29.0781 Q442.6246,29.2344 441.9214,29.2344 Q439.4214,29.2344 438.0933,27.5938 Q436.7808,25.9375 436.7808,22.8125 Q436.7808,19.6875 438.0933,18.0313 Q439.4214,16.375 441.9214,16.375 Q442.6246,16.375 443.2652,16.5313 Q443.9214,16.6875 444.4839,16.9844 L444.4839,19.7031 Q443.8589,19.125 443.2652,18.8594 Q442.6714,18.5781 442.0464,18.5781 Q440.7027,18.5781 440.0152,19.6563 Q439.3277,20.7188 439.3277,22.8125 Q439.3277,24.9063 440.0152,25.9844 Q440.7027,27.0469 442.0464,27.0469 Q442.6714,27.0469 443.2652,26.7813 Q443.8589,26.5 444.4839,25.9219 L444.4839,28.6406 Z " fill="#000000"/><text fill="#000000" font-family="sans-serif" font-size="14" lengthAdjust="spacing" textLength="217.4785" x="462.0152" y="27.8467">Opr&#225;vn&#283;n&#237; k p&#345;&#237;stupu k &#250;daj&#367;m</text><line style="stroke:#181818;stroke-width:0.5;" x1="381.19" x2="727.8189" y1="39" y2="39"/><text fill="#000000" font-family="sans-serif" font-size="14" lengthAdjust="spacing" textLength="332.377" x="386.19" y="55.9951">"M&#225; k&#243;d opr&#225;vn&#283;n&#237; k p&#345;&#237;stupu k &#250;daj&#367;m": string</text><text fill="#000000" font-family="sans-serif" font-size="14" lengthAdjust="spacing" textLength="336.6289" x="386.19" y="72.292">"Realizov&#225;no na referen&#269;n&#237;m rozhran&#237;": boolean</text><text fill="#000000" font-family="sans-serif" font-size="14" lengthAdjust="spacing" textLength="324.6797" x="386.19" y="88.5889">"Celkov&#233; od&#367;vodn&#283;n&#237; p&#345;&#237;stupu k &#250;daj&#367;m": text</text><line style="stroke:#181818;stroke-width:0.5;" x1="381.19" x2="727.8189" y1="95.8906" y2="95.8906"/></g><!--class Agenda--><g id="elem_Agenda"><rect codeLine="8" fill="#F1F1F1" height="48" id="Agenda" rx="2.5" ry="2.5" style="stroke:#181818;stroke-width:0.5;" width="85.416" x="74.8" y="197.18"/><ellipse cx="89.8" cy="213.18" fill="#ADD1B2" rx="11" ry="11" style="stroke:#181818;stroke-width:1.0;"/><path d="M92.7688,218.8206 Q92.1906,219.1175 91.55,219.2581 Q90.9094,219.4144 90.2063,219.4144 Q87.7063,219.4144 86.3781,217.7738 Q85.0656,216.1175 85.0656,212.9925 Q85.0656,209.8675 86.3781,208.2113 Q87.7063,206.555 90.2063,206.555 Q90.9094,206.555 91.55,206.7113 Q92.2063,206.8675 92.7688,207.1644 L92.7688,209.8831 Q92.1438,209.305 91.55,209.0394 Q90.9563,208.7581 90.3313,208.7581 Q88.9875,208.7581 88.3,209.8363 Q87.6125,210.8988 87.6125,212.9925 Q87.6125,215.0863 88.3,216.1644 Q88.9875,217.2269 90.3313,217.2269 Q90.9563,217.2269 91.55,216.9613 Q92.1438,216.68 92.7688,216.1019 L92.7688,218.8206 Z " fill="#000000"/><text fill="#000000" font-family="sans-serif" font-size="14" lengthAdjust="spacing" textLength="53.416" x="103.8" y="218.0267">Agenda</text><line style="stroke:#181818;stroke-width:0.5;" x1="75.8" x2="159.216" y1="229.18" y2="229.18"/><line style="stroke:#181818;stroke-width:0.5;" x1="75.8" x2="159.216" y1="237.18" y2="237.18"/></g><!--class Opr?vn?n? k p??stupu k ?daji--><g id="elem_Opr&#225;vn&#283;n&#237; k p&#345;&#237;stupu k &#250;daji"><rect codeLine="11" fill="#F1F1F1" height="80.5938" id="Opr&#225;vn&#283;n&#237; k p&#345;&#237;stupu k &#250;daji" rx="2.5" ry="2.5" style="stroke:#181818;stroke-width:0.5;" width="260.2129" x="281.4" y="180.89"/><ellipse cx="309.61" cy="196.89" fill="#ADD1B2" rx="11" ry="11" style="stroke:#181818;stroke-width:1.0;"/><path d="M312.5787,202.5306 Q312.0006,202.8275 311.36,202.9681 Q310.7193,203.1244 310.0162,203.1244 Q307.5162,203.1244 306.1881,201.4838 Q304.8756,199.8275 304.8756,196.7025 Q304.8756,193.5775 306.1881,191.9213 Q307.5162,190.265 310.0162,190.265 Q310.7193,190.265 311.36,190.4213 Q312.0162,190.5775 312.5787,190.8744 L312.5787,193.5931 Q311.9537,193.015 311.36,192.7494 Q310.7662,192.4681 310.1412,192.4681 Q308.7975,192.4681 308.11,193.5463 Q307.4225,194.6088 307.4225,196.7025 Q307.4225,198.7963 308.11,199.8744 Q308.7975,200.9369 310.1412,200.9369 Q310.7662,200.9369 311.36,200.6713 Q311.9537,200.39 312.5787,199.8119 L312.5787,202.5306 Z " fill="#000000"/><text fill="#000000" font-family="sans-serif" font-size="14" lengthAdjust="spacing" textLength="198.8574" x="326.5455" y="201.7367">Opr&#225;vn&#283;n&#237; k p&#345;&#237;stupu k &#250;daji</text><line style="stroke:#181818;stroke-width:0.5;" x1="282.4" x2="540.6129" y1="212.89" y2="212.89"/><text fill="#000000" font-family="sans-serif" font-size="14" lengthAdjust="spacing" textLength="198.707" x="287.4" y="229.8851">"M&#225; &#250;rove&#328; p&#345;&#237;stupu": string</text><text fill="#000000" font-family="sans-serif" font-size="14" lengthAdjust="spacing" textLength="248.2129" x="287.4" y="246.182">"Od&#367;vodn&#283;n&#237; p&#345;&#237;stupu k &#250;daji": text</text><line style="stroke:#181818;stroke-width:0.5;" x1="282.4" x2="540.6129" y1="253.4838" y2="253.4838"/></g><!--class Role--><g id="elem_Role"><rect codeLine="16" fill="#F1F1F1" height="48" id="Role" rx="2.5" ry="2.5" style="stroke:#181818;stroke-width:0.5;" width="62.7959" x="666.11" y="197.18"/><ellipse cx="681.11" cy="213.18" fill="#ADD1B2" rx="11" ry="11" style="stroke:#181818;stroke-width:1.0;"/><path d="M684.0788,218.8206 Q683.5006,219.1175 682.86,219.2581 Q682.2194,219.4144 681.5163,219.4144 Q679.0163,219.4144 677.6881,217.7738 Q676.3756,216.1175 676.3756,212.9925 Q676.3756,209.8675 677.6881,208.2113 Q679.0163,206.555 681.5163,206.555 Q682.2194,206.555 682.86,206.7113 Q683.5163,206.8675 684.0788,207.1644 L684.0788,209.8831 Q683.4538,209.305 682.86,209.0394 Q682.2663,208.7581 681.6413,208.7581 Q680.2975,208.7581 679.61,209.8363 Q678.9225,210.8988 678.9225,212.9925 Q678.9225,215.0863 679.61,216.1644 Q680.2975,217.2269 681.6413,217.2269 Q682.2663,217.2269 682.86,216.9613 Q683.4538,216.68 684.0788,216.1019 L684.0788,218.8206 Z " fill="#000000"/><text fill="#000000" font-family="sans-serif" font-size="14" lengthAdjust="spacing" textLength="30.7959" x="695.11" y="218.0267">Role</text><line style="stroke:#181818;stroke-width:0.5;" x1="667.11" x2="727.9059" y1="229.18" y2="229.18"/><line style="stroke:#181818;stroke-width:0.5;" x1="667.11" x2="727.9059" y1="237.18" y2="237.18"/></g><!--class Ustanoven? pr?vn?ho p?edpisu--><g id="elem_Ustanoven&#237; pr&#225;vn&#237;ho p&#345;edpisu"><rect codeLine="19" fill="#F1F1F1" height="48" id="Ustanoven&#237; pr&#225;vn&#237;ho p&#345;edpisu" rx="2.5" ry="2.5" style="stroke:#181818;stroke-width:0.5;" width="242.4033" x="764.3" y="197.18"/><ellipse cx="779.3" cy="213.18" fill="#ADD1B2" rx="11" ry="11" style="stroke:#181818;stroke-width:1.0;"/><path d="M782.2688,218.8206 Q781.6906,219.1175 781.05,219.2581 Q780.4094,219.4144 779.7063,219.4144 Q777.2063,219.4144 775.8781,217.7738 Q774.5656,216.1175 774.5656,212.9925 Q774.5656,209.8675 775.8781,208.2113 Q777.2063,206.555 779.7063,206.555 Q780.4094,206.555 781.05,206.7113 Q781.7063,206.8675 782.2688,207.1644 L782.2688,209.8831 Q781.6438,209.305 781.05,209.0394 Q780.4563,208.7581 779.8313,208.7581 Q778.4875,208.7581 777.8,209.8363 Q777.1125,210.8988 777.1125,212.9925 Q777.1125,215.0863 777.8,216.1644 Q778.4875,217.2269 779.8313,217.2269 Q780.4563,217.2269 781.05,216.9613 Q781.6438,216.68 782.2688,216.1019 L782.2688,218.8206 Z " fill="#000000"/><text fill="#000000" font-family="sans-serif" font-size="14" lengthAdjust="spacing" textLength="210.4033" x="793.3" y="218.0267">Ustanoven&#237; pr&#225;vn&#237;ho p&#345;edpisu</text><line style="stroke:#181818;stroke-width:0.5;" x1="765.3" x2="1005.7033" y1="229.18" y2="229.18"/><line style="stroke:#181818;stroke-width:0.5;" x1="765.3" x2="1005.7033" y1="237.18" y2="237.18"/></g><!--class ?daj--><g id="elem_&#218;daj"><rect codeLine="22" fill="#F1F1F1" height="48" id="&#218;daj" rx="2.5" ry="2.5" style="stroke:#181818;stroke-width:0.5;" width="63.6025" x="379.7" y="338.48"/><ellipse cx="394.7" cy="354.48" fill="#ADD1B2" rx="11" ry="11" style="stroke:#181818;stroke-width:1.0;"/><path d="M397.6688,360.1206 Q397.0906,360.4175 396.45,360.5581 Q395.8094,360.7144 395.1063,360.7144 Q392.6063,360.7144 391.2781,359.0738 Q389.9656,357.4175 389.9656,354.2925 Q389.9656,351.1675 391.2781,349.5113 Q392.6063,347.855 395.1063,347.855 Q395.8094,347.855 396.45,348.0113 Q397.1063,348.1675 397.6688,348.4644 L397.6688,351.1831 Q397.0438,350.605 396.45,350.3394 Q395.8563,350.0581 395.2313,350.0581 Q393.8875,350.0581 393.2,351.1363 Q392.5125,352.1988 392.5125,354.2925 Q392.5125,356.3863 393.2,357.4644 Q393.8875,358.5269 395.2313,358.5269 Q395.8563,358.5269 396.45,358.2613 Q397.0438,357.98 397.6688,357.4019 L397.6688,360.1206 Z " fill="#000000"/><text fill="#000000" font-family="sans-serif" font-size="14" lengthAdjust="spacing" textLength="31.6025" x="408.7" y="359.3267">&#218;daj</text><line style="stroke:#181818;stroke-width:0.5;" x1="380.7" x2="442.3025" y1="370.48" y2="370.48"/><line style="stroke:#181818;stroke-width:0.5;" x1="380.7" x2="442.3025" y1="378.48" y2="378.48"/></g><!--class Typ opr?vn?n? k p??stupu k ?daj?m--><g id="elem_Typ opr&#225;vn&#283;n&#237; k p&#345;&#237;stupu k &#250;daj&#367;m"><rect codeLine="25" fill="#F1F1F1" height="48" id="Typ opr&#225;vn&#283;n&#237; k p&#345;&#237;stupu k &#250;daj&#367;m" rx="2.5" ry="2.5" style="stroke:#181818;stroke-width:0.5;" width="277.1982" x="1061.91" y="197.18"/><ellipse cx="1076.91" cy="213.18" fill="#ADD1B2" rx="11" ry="11" style="stroke:#181818;stroke-width:1.0;"/><path d="M1079.8788,218.8206 Q1079.3006,219.1175 1078.66,219.2581 Q1078.0194,219.4144 1077.3163,219.4144 Q1074.8163,219.4144 1073.4881,217.7738 Q1072.1756,216.1175 1072.1756,212.9925 Q1072.1756,209.8675 1073.4881,208.2113 Q1074.8163,206.555 1077.3163,206.555 Q1078.0194,206.555 1078.66,206.7113 Q1079.3163,206.8675 1079.8788,207.1644 L1079.8788,209.8831 Q1079.2538,209.305 1078.66,209.0394 Q1078.0663,208.7581 1077.4413,208.7581 Q1076.0975,208.7581 1075.41,209.8363 Q1074.7225,210.8988 1074.7225,212.9925 Q1074.7225,215.0863 1075.41,216.1644 Q1076.0975,217.2269 1077.4413,217.2269 Q1078.0663,217.2269 1078.66,216.9613 Q1079.2538,216.68 1079.8788,216.1019 L1079.8788,218.8206 Z " fill="#000000"/><text fill="#000000" font-family="sans-serif" font-size="14" lengthAdjust="spacing" textLength="245.1982" x="1090.91" y="218.0267">Typ opr&#225;vn&#283;n&#237; k p&#345;&#237;stupu k &#250;daj&#367;m</text><line style="stroke:#181818;stroke-width:0.5;" x1="1062.91" x2="1338.1082" y1="229.18" y2="229.18"/><line style="stroke:#181818;stroke-width:0.5;" x1="1062.91" x2="1338.1082" y1="237.18" y2="237.18"/></g><!--link Opr?vn?n? k p??stupu k ?daj?m to Agenda--><g id="link_Opr&#225;vn&#283;n&#237; k p&#345;&#237;stupu k &#250;daj&#367;m_Agenda"><path codeLine="28" d="M379.89,58.35 C244.54,63.98 72.65,81.62 27.51,133.89 C6,158.79 41.76,184.54 74.36,201.36 " fill="none" id="Opr&#225;vn&#283;n&#237; k p&#345;&#237;stupu k &#250;daj&#367;m-Agenda" style="stroke:#181818;stroke-width:1.0;"/><text fill="#000000" font-family="sans-serif" font-size="13" lengthAdjust="spacing" textLength="142.3271" x="28.51" y="146.9569">&#268;erp&#225; &#250;daje z agendy</text><text fill="#000000" font-family="sans-serif" font-size="13" lengthAdjust="spacing" textLength="24.8066" x="41.9772" y="194.2537">1..1</text></g><!--link Opr?vn?n? k p??stupu k ?daj?m to Agenda--><g id="link_Opr&#225;vn&#283;n&#237; k p&#345;&#237;stupu k &#250;daj&#367;m_Agenda"><path codeLine="29" d="M379.95,86.75 C332.81,98.26 282.66,113.64 238.51,133.89 C203.09,150.13 167.36,177.23 144,196.74 " fill="none" id="Opr&#225;vn&#283;n&#237; k p&#345;&#237;stupu k &#250;daj&#367;m-Agenda-1" style="stroke:#181818;stroke-width:1.0;"/><text fill="#000000" font-family="sans-serif" font-size="13" lengthAdjust="spacing" textLength="155.7715" x="239.51" y="146.9569">Poskytuje &#250;daje agend&#283;</text><text fill="#000000" font-family="sans-serif" font-size="13" lengthAdjust="spacing" textLength="24.8066" x="123.6307" y="186.0377">1..1</text></g><!--link Opr?vn?n? k p??stupu k ?daj?m to Opr?vn?n? k p??stupu k ?daji--><g id="link_Opr&#225;vn&#283;n&#237; k p&#345;&#237;stupu k &#250;daj&#367;m_Opr&#225;vn&#283;n&#237; k p&#345;&#237;stupu k &#250;daji"><path codeLine="30" d="M435.02,104.18 C424.58,112.62 415.38,122.45 408.51,133.89 C400.24,147.63 399.41,164.96 401.24,180.48 " fill="none" id="Opr&#225;vn&#283;n&#237; k p&#345;&#237;stupu k &#250;daj&#367;m-Opr&#225;vn&#283;n&#237; k p&#345;&#237;stupu k &#250;daji" style="stroke:#181818;stroke-width:1.0;"/><text fill="#000000" font-family="sans-serif" font-size="13" lengthAdjust="spacing" textLength="245.0513" x="409.51" y="146.9569">Zahrnuje opr&#225;vn&#283;n&#237; k p&#345;&#237;stupu k &#250;daji</text></g><!--link Opr?vn?n? k p??stupu k ?daj?m to Role--><g id="link_Opr&#225;vn&#283;n&#237; k p&#345;&#237;stupu k &#250;daj&#367;m_Role"><path codeLine="31" d="M629.7,104.24 C640.56,113.22 650.94,123.19 659.51,133.89 C674.54,152.67 684.84,178.34 690.88,196.79 " fill="none" id="Opr&#225;vn&#283;n&#237; k p&#345;&#237;stupu k &#250;daj&#367;m-Role" style="stroke:#181818;stroke-width:1.0;"/><text fill="#000000" font-family="sans-serif" font-size="13" lengthAdjust="spacing" textLength="144.2632" x="671.51" y="146.9569">Je opr&#225;vn&#283;n&#237;m pro roli</text></g><!--link Opr?vn?n? k p??stupu k ?daj?m to Ustanoven? pr?vn?ho p?edpisu--><g id="link_Opr&#225;vn&#283;n&#237; k p&#345;&#237;stupu k &#250;daj&#367;m_Ustanoven&#237; pr&#225;vn&#237;ho p&#345;edpisu"><path codeLine="32" d="M729.14,87.8 C762.7,98.85 796.18,113.77 824.51,133.89 C847.25,150.03 864.49,177.43 874.74,197.02 " fill="none" id="Opr&#225;vn&#283;n&#237; k p&#345;&#237;stupu k &#250;daj&#367;m-Ustanoven&#237; pr&#225;vn&#237;ho p&#345;edpisu" style="stroke:#181818;stroke-width:1.0;"/><text fill="#000000" font-family="sans-serif" font-size="13" lengthAdjust="spacing" textLength="273.3237" x="843.51" y="146.9569">Zp&#345;&#237;stup&#328;uje &#250;daje na z&#225;klad&#283; ustanoven&#237;</text></g><!--link Opr?vn?n? k p??stupu k ?daj?m to Typ opr?vn?n? k p??stupu k ?daj?m--><g id="link_Opr&#225;vn&#283;n&#237; k p&#345;&#237;stupu k &#250;daj&#367;m_Typ opr&#225;vn&#283;n&#237; k p&#345;&#237;stupu k &#250;daj&#367;m"><path codeLine="33" d="M729.28,66.65 C871.4,77.4 1058.88,97.91 1125.51,133.89 C1152.4,148.41 1174.08,176.69 1187.09,196.92 " fill="none" id="Opr&#225;vn&#283;n&#237; k p&#345;&#237;stupu k &#250;daj&#367;m-Typ opr&#225;vn&#283;n&#237; k p&#345;&#237;stupu k &#250;daj&#367;m" style="stroke:#181818;stroke-width:1.0;"/><text fill="#000000" font-family="sans-serif" font-size="13" lengthAdjust="spacing" textLength="237.9419" x="1148.51" y="146.9569">m&#225; typ opr&#225;vn&#283;n&#237; p&#345;&#237;stupu k &#250;daj&#367;m</text><text fill="#000000" font-family="sans-serif" font-size="13" lengthAdjust="spacing" textLength="24.8066" x="1156.9924" y="186.2616">0..1</text></g><!--link Opr?vn?n? k p??stupu k ?daji to ?daj--><g id="link_Opr&#225;vn&#283;n&#237; k p&#345;&#237;stupu k &#250;daji_&#218;daj"><path codeLine="34" d="M411.51,261.73 C411.51,286.34 411.51,317.16 411.51,337.98 " fill="none" id="Opr&#225;vn&#283;n&#237; k p&#345;&#237;stupu k &#250;daji-&#218;daj" style="stroke:#181818;stroke-width:1.0;"/><text fill="#000000" font-family="sans-serif" font-size="13" lengthAdjust="spacing" textLength="114.7656" x="412.51" y="304.5469">Zp&#345;&#237;stup&#328;uje &#250;daj</text><text fill="#000000" font-family="sans-serif" font-size="13" lengthAdjust="spacing" textLength="24.8066" x="384.6854" y="327.2631">1..1</text></g><!--SRC=[fPE_JiCm4CRtFCN9UokwTaDiIAYemC9ccgCDIUp8TY8QnDu17W0wPMIeEh1rTV9UN4B_1QYQY2rn_Ftk- -uk6Wq87gAE-0YlCEAA6wb0I87EAE1Q0nj4ocQ9oEV2Bi27g7Yp2stYAAONktBvGx4C6Jmv0Ep2Pk3RJnTa4qqVj56U69VA8VB0IsLYCo7942YyHuKYVoL024gc4yNfaJHtKWR8HIawmy0doGT8jrWcqbtNErJDuADndfrrhjCn2fUJx-t9yQJUNawxKZB1OhPthPPeSCIJzylHa8BL_DnemmKLgG2LDRkOo9A5RkJfcDLkstUYre-kfr6pKNoh6ewwqm7MwtPxRDF3FiNDNr15LLle6a8AlFmsPV-2NahjJqrCl3MsWkRpLjGcKosBtVA94cKjULpGedurrP9_NYU7D599cnsqeZNOYIhBbb3Czjf7FrPgCp_Wr4E8TwHM3awgARNOhT9GIAjXVYh-lkyqcjXkNpQBVp0t-m80]--></g></svg>