<?xml version="1.0" encoding="UTF-8"?>
<!DOCTYPE svg PUBLIC "-//W3C//DTD SVG 1.1//EN" "http://www.w3.org/Graphics/SVG/1.1/DTD/svg11.dtd">
<svg xmlns="http://www.w3.org/2000/svg" xmlns:xlink="http://www.w3.org/1999/xlink" version="1.1" width="146px" height="233px" viewBox="-0.5 -0.5 146 233" style="background-color: rgb(255, 255, 255);"><defs><clipPath id="mx-clip-5-31-137-26-0"><rect x="5" y="31" width="137" height="26"/></clipPath><clipPath id="mx-clip-5-57-137-26-0"><rect x="5" y="57" width="137" height="26"/></clipPath><clipPath id="mx-clip-5-83-137-26-0"><rect x="5" y="83" width="137" height="26"/></clipPath><clipPath id="mx-clip-5-109-137-26-0"><rect x="5" y="109" width="137" height="26"/></clipPath><clipPath id="mx-clip-7-208-132-26-0"><rect x="7" y="208" width="132" height="26"/></clipPath></defs><g><path d="M 73 177 L 73 157 L 73 160 L 73 148.12" fill="none" stroke="#000000" stroke-miterlimit="10" pointer-events="stroke"/><path d="M 73 131.12 L 81.5 148.12 L 64.5 148.12 Z" fill="none" stroke="#000000" stroke-miterlimit="10" pointer-events="all"/><path d="M 0.5 26 L 0.5 0 L 145.5 0 L 145.5 26" fill="#cccccc" stroke="#000000" stroke-miterlimit="10" pointer-events="all"/><path d="M 0.5 26 L 0.5 130 L 145.5 130 L 145.5 26" fill="none" stroke="#000000" stroke-miterlimit="10" pointer-events="none"/><path d="M 0.5 26 L 145.5 26" fill="none" stroke="#000000" stroke-miterlimit="10" pointer-events="none"/><g fill="#000000" font-family="Helvetica" font-weight="bold" pointer-events="none" text-anchor="middle" font-size="12px"><text x="72.5" y="17.5">Věc</text></g><g fill="#000000" font-family="Helvetica" pointer-events="none" clip-path="url(#mx-clip-5-31-137-26-0)" font-size="12px"><text x="6" y="43.5">iri</text></g><g fill="#000000" font-family="Helvetica" pointer-events="none" clip-path="url(#mx-clip-5-57-137-26-0)" font-size="12px"><text x="6" y="69.5">název</text></g><g fill="#000000" font-family="Helvetica" pointer-events="none" clip-path="url(#mx-clip-5-83-137-26-0)" font-size="12px"><text x="6" y="95.5">relevantní do</text></g><g fill="#000000" font-family="Helvetica" pointer-events="none" clip-path="url(#mx-clip-5-109-137-26-0)" font-size="12px"><text x="6" y="121.5">...</text></g><path d="M 3 203 L 3 177 L 143 177 L 143 203" fill="#cccccc" stroke="#000000" stroke-miterlimit="10" pointer-events="none"/><path d="M 3 203 L 3 229 L 143 229 L 143 203" fill="none" stroke="#000000" stroke-miterlimit="10" pointer-events="none"/><path d="M 3 203 L 143 203" fill="none" stroke="#000000" stroke-miterlimit="10" pointer-events="none"/><g fill="#000000" font-family="Helvetica" font-weight="bold" pointer-events="none" text-anchor="middle" font-size="12px"><text x="72.5" y="194.5">Studijní program</text></g><g fill="#000000" font-family="Helvetica" pointer-events="none" clip-path="url(#mx-clip-7-208-132-26-0)" font-size="12px"><text x="8.5" y="220.5">kód</text></g></g></svg>