<svg xmlns="http://www.w3.org/2000/svg" xmlns:xlink="http://www.w3.org/1999/xlink" contentStyleType="text/css" height="1432px" preserveAspectRatio="none" style="width:3233px;height:1432px;background:#FFFFFF;" version="1.1" viewBox="0 0 3233 1432" width="3233px" zoomAndPan="magnify"><defs/><g><!--class M?sto--><g id="elem_M&#237;sto"><rect codeLine="2" fill="#F1F1F1" height="64.2969" id="M&#237;sto" rx="2.5" ry="2.5" style="stroke:#181818;stroke-width:0.5;" width="277.7744" x="814.97" y="7"/><ellipse cx="930.9485" cy="23" fill="#ADD1B2" rx="11" ry="11" style="stroke:#181818;stroke-width:1.0;"/><path d="M933.9173,28.6406 Q933.3391,28.9375 932.6985,29.0781 Q932.0579,29.2344 931.3548,29.2344 Q928.8548,29.2344 927.5266,27.5938 Q926.2141,25.9375 926.2141,22.8125 Q926.2141,19.6875 927.5266,18.0313 Q928.8548,16.375 931.3548,16.375 Q932.0579,16.375 932.6985,16.5313 Q933.3548,16.6875 933.9173,16.9844 L933.9173,19.7031 Q933.2923,19.125 932.6985,18.8594 Q932.1048,18.5781 931.4798,18.5781 Q930.136,18.5781 929.4485,19.6563 Q928.761,20.7188 928.761,22.8125 Q928.761,24.9063 929.4485,25.9844 Q930.136,27.0469 931.4798,27.0469 Q932.1048,27.0469 932.6985,26.7813 Q933.2923,26.5 933.9173,25.9219 L933.9173,28.6406 Z " fill="#000000"/><text fill="#000000" font-family="sans-serif" font-size="14" lengthAdjust="spacing" textLength="37.3174" x="951.4485" y="27.8467">M&#237;sto</text><line style="stroke:#181818;stroke-width:0.5;" x1="815.97" x2="1091.7444" y1="39" y2="39"/><text fill="#000000" font-family="sans-serif" font-size="14" lengthAdjust="spacing" textLength="265.7744" x="820.97" y="55.9951">"adresa neevidovan&#225; v R&#218;IAN": string</text><line style="stroke:#181818;stroke-width:0.5;" x1="815.97" x2="1091.7444" y1="63.2969" y2="63.2969"/></g><!--class adresa--><g id="elem_adresa"><rect codeLine="6" fill="#F1F1F1" height="48" id="adresa" rx="2.5" ry="2.5" style="stroke:#181818;stroke-width:0.5;" width="79.708" x="1093" y="148.3"/><ellipse cx="1108" cy="164.3" fill="#ADD1B2" rx="11" ry="11" style="stroke:#181818;stroke-width:1.0;"/><path d="M1110.9688,169.9406 Q1110.3906,170.2375 1109.75,170.3781 Q1109.1094,170.5344 1108.4063,170.5344 Q1105.9063,170.5344 1104.5781,168.8937 Q1103.2656,167.2375 1103.2656,164.1125 Q1103.2656,160.9875 1104.5781,159.3312 Q1105.9063,157.675 1108.4063,157.675 Q1109.1094,157.675 1109.75,157.8312 Q1110.4063,157.9875 1110.9688,158.2844 L1110.9688,161.0031 Q1110.3438,160.425 1109.75,160.1594 Q1109.1563,159.8781 1108.5313,159.8781 Q1107.1875,159.8781 1106.5,160.9562 Q1105.8125,162.0187 1105.8125,164.1125 Q1105.8125,166.2062 1106.5,167.2844 Q1107.1875,168.3469 1108.5313,168.3469 Q1109.1563,168.3469 1109.75,168.0812 Q1110.3438,167.8 1110.9688,167.2219 L1110.9688,169.9406 Z " fill="#000000"/><text fill="#000000" font-family="sans-serif" font-size="14" lengthAdjust="spacing" textLength="47.708" x="1122" y="169.1467">adresa</text><line style="stroke:#181818;stroke-width:0.5;" x1="1094" x2="1171.708" y1="180.3" y2="180.3"/><line style="stroke:#181818;stroke-width:0.5;" x1="1094" x2="1171.708" y1="188.3" y2="188.3"/></g><!--class Zahrani?n? adresa--><g id="elem_Zahrani&#269;n&#237; adresa"><rect codeLine="9" fill="#F1F1F1" height="48" id="Zahrani&#269;n&#237; adresa" rx="2.5" ry="2.5" style="stroke:#181818;stroke-width:0.5;" width="158.7588" x="640.48" y="148.3"/><ellipse cx="655.48" cy="164.3" fill="#ADD1B2" rx="11" ry="11" style="stroke:#181818;stroke-width:1.0;"/><path d="M658.4488,169.9406 Q657.8706,170.2375 657.23,170.3781 Q656.5894,170.5344 655.8863,170.5344 Q653.3863,170.5344 652.0581,168.8937 Q650.7456,167.2375 650.7456,164.1125 Q650.7456,160.9875 652.0581,159.3312 Q653.3863,157.675 655.8863,157.675 Q656.5894,157.675 657.23,157.8312 Q657.8863,157.9875 658.4488,158.2844 L658.4488,161.0031 Q657.8238,160.425 657.23,160.1594 Q656.6363,159.8781 656.0113,159.8781 Q654.6675,159.8781 653.98,160.9562 Q653.2925,162.0187 653.2925,164.1125 Q653.2925,166.2062 653.98,167.2844 Q654.6675,168.3469 656.0113,168.3469 Q656.6363,168.3469 657.23,168.0812 Q657.8238,167.8 658.4488,167.2219 L658.4488,169.9406 Z " fill="#000000"/><text fill="#000000" font-family="sans-serif" font-size="14" lengthAdjust="spacing" textLength="126.7588" x="669.48" y="169.1467">Zahrani&#269;n&#237; adresa</text><line style="stroke:#181818;stroke-width:0.5;" x1="641.48" x2="798.2388" y1="180.3" y2="180.3"/><line style="stroke:#181818;stroke-width:0.5;" x1="641.48" x2="798.2388" y1="188.3" y2="188.3"/></g><!--class Lokalizace popisem--><g id="elem_Lokalizace popisem"><rect codeLine="12" fill="#F1F1F1" height="64.2969" id="Lokalizace popisem" rx="2.5" ry="2.5" style="stroke:#181818;stroke-width:0.5;" width="189.5156" x="590.1" y="7"/><ellipse cx="614.2002" cy="23" fill="#ADD1B2" rx="11" ry="11" style="stroke:#181818;stroke-width:1.0;"/><path d="M617.1689,28.6406 Q616.5908,28.9375 615.9502,29.0781 Q615.3096,29.2344 614.6064,29.2344 Q612.1064,29.2344 610.7783,27.5938 Q609.4658,25.9375 609.4658,22.8125 Q609.4658,19.6875 610.7783,18.0313 Q612.1064,16.375 614.6064,16.375 Q615.3096,16.375 615.9502,16.5313 Q616.6064,16.6875 617.1689,16.9844 L617.1689,19.7031 Q616.5439,19.125 615.9502,18.8594 Q615.3564,18.5781 614.7314,18.5781 Q613.3877,18.5781 612.7002,19.6563 Q612.0127,20.7188 612.0127,22.8125 Q612.0127,24.9063 612.7002,25.9844 Q613.3877,27.0469 614.7314,27.0469 Q615.3564,27.0469 615.9502,26.7813 Q616.5439,26.5 617.1689,25.9219 L617.1689,28.6406 Z " fill="#000000"/><text fill="#000000" font-family="sans-serif" font-size="14" lengthAdjust="spacing" textLength="137.293" x="630.2225" y="27.8467">Lokalizace popisem</text><line style="stroke:#181818;stroke-width:0.5;" x1="591.1" x2="778.6156" y1="39" y2="39"/><text fill="#000000" font-family="sans-serif" font-size="14" lengthAdjust="spacing" textLength="177.5156" x="596.1" y="55.9951">"lokaliza&#269;n&#237; popis": string</text><line style="stroke:#181818;stroke-width:0.5;" x1="591.1" x2="778.6156" y1="63.2969" y2="63.2969"/></g><!--class adresn? m?sto--><g id="elem_adresn&#237; m&#237;sto"><rect codeLine="16" fill="#F1F1F1" height="64.2969" id="adresn&#237; m&#237;sto" rx="2.5" ry="2.5" style="stroke:#181818;stroke-width:0.5;" width="216.9141" x="1038.4" y="330.34"/><ellipse cx="1094.9981" cy="346.34" fill="#ADD1B2" rx="11" ry="11" style="stroke:#181818;stroke-width:1.0;"/><path d="M1097.9669,351.9806 Q1097.3888,352.2775 1096.7481,352.4181 Q1096.1075,352.5744 1095.4044,352.5744 Q1092.9044,352.5744 1091.5763,350.9338 Q1090.2638,349.2775 1090.2638,346.1525 Q1090.2638,343.0275 1091.5763,341.3713 Q1092.9044,339.715 1095.4044,339.715 Q1096.1075,339.715 1096.7481,339.8713 Q1097.4044,340.0275 1097.9669,340.3244 L1097.9669,343.0431 Q1097.3419,342.465 1096.7481,342.1994 Q1096.1544,341.9181 1095.5294,341.9181 Q1094.1856,341.9181 1093.4981,342.9963 Q1092.8106,344.0588 1092.8106,346.1525 Q1092.8106,348.2463 1093.4981,349.3244 Q1094.1856,350.3869 1095.5294,350.3869 Q1096.1544,350.3869 1096.7481,350.1213 Q1097.3419,349.84 1097.9669,349.2619 L1097.9669,351.9806 Z " fill="#000000"/><text fill="#000000" font-family="sans-serif" font-size="14" lengthAdjust="spacing" textLength="95.2178" x="1115.4981" y="351.1867">adresn&#237; m&#237;sto</text><line style="stroke:#181818;stroke-width:0.5;" x1="1039.4" x2="1254.3141" y1="362.34" y2="362.34"/><text fill="#000000" font-family="sans-serif" font-size="14" lengthAdjust="spacing" textLength="204.9141" x="1044.4" y="379.3351">"k&#243;d adresn&#237;ho m&#237;sta": string</text><line style="stroke:#181818;stroke-width:0.5;" x1="1039.4" x2="1254.3141" y1="386.6369" y2="386.6369"/></g><!--class Pr?vnick? osoba--><g id="elem_Pr&#225;vnick&#225; osoba"><rect codeLine="20" fill="#F1F1F1" height="64.2969" id="Pr&#225;vnick&#225; osoba" rx="2.5" ry="2.5" style="stroke:#181818;stroke-width:0.5;" width="179.7129" x="7" y="808.49"/><ellipse cx="36.9234" cy="824.49" fill="#ADD1B2" rx="11" ry="11" style="stroke:#181818;stroke-width:1.0;"/><path d="M39.8921,830.1306 Q39.314,830.4275 38.6734,830.5681 Q38.0328,830.7244 37.3296,830.7244 Q34.8296,830.7244 33.5015,829.0838 Q32.189,827.4275 32.189,824.3025 Q32.189,821.1775 33.5015,819.5213 Q34.8296,817.865 37.3296,817.865 Q38.0328,817.865 38.6734,818.0213 Q39.3296,818.1775 39.8921,818.4744 L39.8921,821.1931 Q39.2671,820.615 38.6734,820.3494 Q38.0796,820.0681 37.4546,820.0681 Q36.1109,820.0681 35.4234,821.1463 Q34.7359,822.2088 34.7359,824.3025 Q34.7359,826.3963 35.4234,827.4744 Q36.1109,828.5369 37.4546,828.5369 Q38.0796,828.5369 38.6734,828.2713 Q39.2671,827.99 39.8921,827.4119 L39.8921,830.1306 Z " fill="#000000"/><text fill="#000000" font-family="sans-serif" font-size="14" lengthAdjust="spacing" textLength="114.5498" x="54.2397" y="829.3367">Pr&#225;vnick&#225; osoba</text><line style="stroke:#181818;stroke-width:0.5;" x1="8" x2="185.7129" y1="840.49" y2="840.49"/><text fill="#000000" font-family="sans-serif" font-size="14" lengthAdjust="spacing" textLength="167.7129" x="13" y="857.4851">"obchodn&#237; firma": string</text><line style="stroke:#181818;stroke-width:0.5;" x1="8" x2="185.7129" y1="864.7869" y2="864.7869"/></g><!--class Fyzick? osoba--><g id="elem_Fyzick&#225; osoba"><rect codeLine="24" fill="#F1F1F1" height="48" id="Fyzick&#225; osoba" rx="2.5" ry="2.5" style="stroke:#181818;stroke-width:0.5;" width="130.3008" x="2244.71" y="602.01"/><ellipse cx="2259.71" cy="618.01" fill="#ADD1B2" rx="11" ry="11" style="stroke:#181818;stroke-width:1.0;"/><path d="M2262.6788,623.6506 Q2262.1006,623.9475 2261.46,624.0881 Q2260.8194,624.2444 2260.1163,624.2444 Q2257.6163,624.2444 2256.2881,622.6038 Q2254.9756,620.9475 2254.9756,617.8225 Q2254.9756,614.6975 2256.2881,613.0413 Q2257.6163,611.385 2260.1163,611.385 Q2260.8194,611.385 2261.46,611.5413 Q2262.1163,611.6975 2262.6788,611.9944 L2262.6788,614.7131 Q2262.0538,614.135 2261.46,613.8694 Q2260.8663,613.5881 2260.2413,613.5881 Q2258.8975,613.5881 2258.21,614.6663 Q2257.5225,615.7288 2257.5225,617.8225 Q2257.5225,619.9163 2258.21,620.9944 Q2258.8975,622.0569 2260.2413,622.0569 Q2260.8663,622.0569 2261.46,621.7913 Q2262.0538,621.51 2262.6788,620.9319 L2262.6788,623.6506 Z " fill="#000000"/><text fill="#000000" font-family="sans-serif" font-size="14" lengthAdjust="spacing" textLength="98.3008" x="2273.71" y="622.8567">Fyzick&#225; osoba</text><line style="stroke:#181818;stroke-width:0.5;" x1="2245.71" x2="2374.0108" y1="634.01" y2="634.01"/><line style="stroke:#181818;stroke-width:0.5;" x1="2245.71" x2="2374.0108" y1="642.01" y2="642.01"/></g><!--class Podnikaj?c? fyzick? osoba--><g id="elem_Podnikaj&#237;c&#237; fyzick&#225; osoba"><rect codeLine="27" fill="#F1F1F1" height="48" id="Podnikaj&#237;c&#237; fyzick&#225; osoba" rx="2.5" ry="2.5" style="stroke:#181818;stroke-width:0.5;" width="206.3369" x="1446.69" y="1159.94"/><ellipse cx="1461.69" cy="1175.94" fill="#ADD1B2" rx="11" ry="11" style="stroke:#181818;stroke-width:1.0;"/><path d="M1464.6588,1181.5806 Q1464.0806,1181.8775 1463.44,1182.0181 Q1462.7994,1182.1744 1462.0963,1182.1744 Q1459.5963,1182.1744 1458.2681,1180.5338 Q1456.9556,1178.8775 1456.9556,1175.7525 Q1456.9556,1172.6275 1458.2681,1170.9713 Q1459.5963,1169.315 1462.0963,1169.315 Q1462.7994,1169.315 1463.44,1169.4713 Q1464.0963,1169.6275 1464.6588,1169.9244 L1464.6588,1172.6431 Q1464.0338,1172.065 1463.44,1171.7994 Q1462.8463,1171.5181 1462.2213,1171.5181 Q1460.8775,1171.5181 1460.19,1172.5963 Q1459.5025,1173.6588 1459.5025,1175.7525 Q1459.5025,1177.8463 1460.19,1178.9244 Q1460.8775,1179.9869 1462.2213,1179.9869 Q1462.8463,1179.9869 1463.44,1179.7213 Q1464.0338,1179.44 1464.6588,1178.8619 L1464.6588,1181.5806 Z " fill="#000000"/><text fill="#000000" font-family="sans-serif" font-size="14" lengthAdjust="spacing" textLength="174.3369" x="1475.69" y="1180.7867">Podnikaj&#237;c&#237; fyzick&#225; osoba</text><line style="stroke:#181818;stroke-width:0.5;" x1="1447.69" x2="1652.0269" y1="1191.94" y2="1191.94"/><line style="stroke:#181818;stroke-width:0.5;" x1="1447.69" x2="1652.0269" y1="1199.94" y2="1199.94"/></g><!--class Osoba--><g id="elem_Osoba"><rect codeLine="30" fill="#F1F1F1" height="64.2969" id="Osoba" rx="2.5" ry="2.5" style="stroke:#181818;stroke-width:0.5;" width="241.6738" x="837.02" y="593.86"/><ellipse cx="931.4346" cy="609.86" fill="#ADD1B2" rx="11" ry="11" style="stroke:#181818;stroke-width:1.0;"/><path d="M934.4033,615.5006 Q933.8252,615.7975 933.1846,615.9381 Q932.5439,616.0944 931.8408,616.0944 Q929.3408,616.0944 928.0127,614.4538 Q926.7002,612.7975 926.7002,609.6725 Q926.7002,606.5475 928.0127,604.8913 Q929.3408,603.235 931.8408,603.235 Q932.5439,603.235 933.1846,603.3913 Q933.8408,603.5475 934.4033,603.8444 L934.4033,606.5631 Q933.7783,605.985 933.1846,605.7194 Q932.5908,605.4381 931.9658,605.4381 Q930.6221,605.4381 929.9346,606.5163 Q929.2471,607.5788 929.2471,609.6725 Q929.2471,611.7663 929.9346,612.8444 Q930.6221,613.9069 931.9658,613.9069 Q932.5908,613.9069 933.1846,613.6413 Q933.7783,613.36 934.4033,612.7819 L934.4033,615.5006 Z " fill="#000000"/><text fill="#000000" font-family="sans-serif" font-size="14" lengthAdjust="spacing" textLength="44.3447" x="951.9346" y="614.7067">Osoba</text><line style="stroke:#181818;stroke-width:0.5;" x1="838.02" x2="1077.6938" y1="625.86" y2="625.86"/><text fill="#000000" font-family="sans-serif" font-size="14" lengthAdjust="spacing" textLength="229.6738" x="843.02" y="642.8551">"identifika&#269;n&#237; &#269;&#237;slo osoby": string</text><line style="stroke:#181818;stroke-width:0.5;" x1="838.02" x2="1077.6938" y1="650.1569" y2="650.1569"/></g><!--class Pr?vnick? osoba?--><g id="elem_Pr&#225;vnick&#225; osoba&#8203;"><rect codeLine="34" fill="#F1F1F1" height="194.6719" id="Pr&#225;vnick&#225; osoba&#8203;" rx="2.5" ry="2.5" style="stroke:#181818;stroke-width:0.5;" width="636.9072" x="161.4" y="528.67"/><ellipse cx="418.3287" cy="544.67" fill="#ADD1B2" rx="11" ry="11" style="stroke:#181818;stroke-width:1.0;"/><path d="M421.2975,550.3106 Q420.7193,550.6075 420.0787,550.7481 Q419.4381,550.9044 418.735,550.9044 Q416.235,550.9044 414.9068,549.2638 Q413.5943,547.6075 413.5943,544.4825 Q413.5943,541.3575 414.9068,539.7013 Q416.235,538.045 418.735,538.045 Q419.4381,538.045 420.0787,538.2013 Q420.735,538.3575 421.2975,538.6544 L421.2975,541.3731 Q420.6725,540.795 420.0787,540.5294 Q419.485,540.2481 418.86,540.2481 Q417.5162,540.2481 416.8287,541.3263 Q416.1412,542.3888 416.1412,544.4825 Q416.1412,546.5763 416.8287,547.6544 Q417.5162,548.7169 418.86,548.7169 Q419.485,548.7169 420.0787,548.4513 Q420.6725,548.17 421.2975,547.5919 L421.2975,550.3106 Z " fill="#000000"/><text fill="#000000" font-family="sans-serif" font-size="14" lengthAdjust="spacing" textLength="114.5498" x="438.8287" y="549.5167">Pr&#225;vnick&#225; osoba&#8203;</text><line style="stroke:#181818;stroke-width:0.5;" x1="162.4" x2="797.3072" y1="560.67" y2="560.67"/><text fill="#000000" font-family="sans-serif" font-size="14" lengthAdjust="spacing" textLength="284.9902" x="167.4" y="577.6651">"&#269;&#237;slo pro &#250;&#269;ely spot&#345;ebn&#237;ch dan&#237;": string</text><text fill="#000000" font-family="sans-serif" font-size="14" lengthAdjust="spacing" textLength="624.9072" x="167.4" y="593.962">"jedine&#269;n&#253; identifik&#225;tor pr&#225;vnick&#233; osoby vytvo&#345;en&#253; odes&#237;laj&#237;c&#237;m &#269;lensk&#253;m st&#225;tem": string</text><text fill="#000000" font-family="sans-serif" font-size="14" lengthAdjust="spacing" textLength="271.8174" x="167.4" y="610.2589">"identifika&#269;n&#237; k&#243;d 2009/101/ES": string</text><text fill="#000000" font-family="sans-serif" font-size="14" lengthAdjust="spacing" textLength="297.0352" x="167.4" y="626.5557">"identifika&#269;n&#237; k&#243;d pr&#225;vnick&#233; osoby": string</text><text fill="#000000" font-family="sans-serif" font-size="14" lengthAdjust="spacing" textLength="299.332" x="167.4" y="642.8526">"sou&#269;asn&#225; adresa pr&#225;vnick&#233; osoby": string</text><text fill="#000000" font-family="sans-serif" font-size="14" lengthAdjust="spacing" textLength="232.4971" x="167.4" y="659.1495">"sou&#269;asn&#253; ofici&#225;ln&#237; n&#225;zev": string</text><text fill="#000000" font-family="sans-serif" font-size="14" lengthAdjust="spacing" textLength="228.9971" x="167.4" y="675.4464">"da&#328;ov&#233; registra&#269;n&#237; &#269;&#237;slo": string</text><text fill="#000000" font-family="sans-serif" font-size="14" lengthAdjust="spacing" textLength="287.2939" x="167.4" y="691.7432">"identifika&#269;n&#237; &#269;&#237;slo pro &#250;&#269;ely DPH": string</text><line style="stroke:#181818;stroke-width:0.5;" x1="162.4" x2="797.3072" y1="699.045" y2="699.045"/><text fill="#000000" font-family="sans-serif" font-size="14" lengthAdjust="spacing" textLength="499.5156" x="167.4" y="716.0401">"registra&#269;n&#237; a identifika&#269;n&#237; &#269;&#237;slo hospod&#225;&#345;sk&#253;ch subjekt&#367; (EORI)": string</text></g><!--class Pr?vnick? osoba??--><g id="elem_Pr&#225;vnick&#225; osoba&#8203;&#8203;"><rect codeLine="46" fill="#F1F1F1" height="48" id="Pr&#225;vnick&#225; osoba&#8203;&#8203;" rx="2.5" ry="2.5" style="stroke:#181818;stroke-width:0.5;" width="146.5498" x="377.58" y="15.15"/><ellipse cx="392.58" cy="31.15" fill="#ADD1B2" rx="11" ry="11" style="stroke:#181818;stroke-width:1.0;"/><path d="M395.5488,36.7906 Q394.9706,37.0875 394.33,37.2281 Q393.6894,37.3844 392.9863,37.3844 Q390.4863,37.3844 389.1581,35.7438 Q387.8456,34.0875 387.8456,30.9625 Q387.8456,27.8375 389.1581,26.1813 Q390.4863,24.525 392.9863,24.525 Q393.6894,24.525 394.33,24.6813 Q394.9863,24.8375 395.5488,25.1344 L395.5488,27.8531 Q394.9238,27.275 394.33,27.0094 Q393.7363,26.7281 393.1113,26.7281 Q391.7675,26.7281 391.08,27.8063 Q390.3925,28.8688 390.3925,30.9625 Q390.3925,33.0563 391.08,34.1344 Q391.7675,35.1969 393.1113,35.1969 Q393.7363,35.1969 394.33,34.9313 Q394.9238,34.65 395.5488,34.0719 L395.5488,36.7906 Z " fill="#000000"/><text fill="#000000" font-family="sans-serif" font-size="14" lengthAdjust="spacing" textLength="114.5498" x="406.58" y="35.9967">Pr&#225;vnick&#225; osoba&#8203;&#8203;</text><line style="stroke:#181818;stroke-width:0.5;" x1="378.58" x2="523.1298" y1="47.15" y2="47.15"/><line style="stroke:#181818;stroke-width:0.5;" x1="378.58" x2="523.1298" y1="55.15" y2="55.15"/></g><!--class Datov? schr?nka--><g id="elem_Datov&#225; schr&#225;nka"><rect codeLine="49" fill="#F1F1F1" height="64.2969" id="Datov&#225; schr&#225;nka" rx="2.5" ry="2.5" style="stroke:#181818;stroke-width:0.5;" width="305.084" x="2157.31" y="808.49"/><ellipse cx="2246.3583" cy="824.49" fill="#ADD1B2" rx="11" ry="11" style="stroke:#181818;stroke-width:1.0;"/><path d="M2249.3271,830.1306 Q2248.749,830.4275 2248.1083,830.5681 Q2247.4677,830.7244 2246.7646,830.7244 Q2244.2646,830.7244 2242.9365,829.0838 Q2241.624,827.4275 2241.624,824.3025 Q2241.624,821.1775 2242.9365,819.5213 Q2244.2646,817.865 2246.7646,817.865 Q2247.4677,817.865 2248.1083,818.0213 Q2248.7646,818.1775 2249.3271,818.4744 L2249.3271,821.1931 Q2248.7021,820.615 2248.1083,820.3494 Q2247.5146,820.0681 2246.8896,820.0681 Q2245.5458,820.0681 2244.8583,821.1463 Q2244.1708,822.2088 2244.1708,824.3025 Q2244.1708,826.3963 2244.8583,827.4744 Q2245.5458,828.5369 2246.8896,828.5369 Q2247.5146,828.5369 2248.1083,828.2713 Q2248.7021,827.99 2249.3271,827.4119 L2249.3271,830.1306 Z " fill="#000000"/><text fill="#000000" font-family="sans-serif" font-size="14" lengthAdjust="spacing" textLength="118.4873" x="2266.8583" y="829.3367">Datov&#225; schr&#225;nka</text><line style="stroke:#181818;stroke-width:0.5;" x1="2158.31" x2="2461.394" y1="840.49" y2="840.49"/><text fill="#000000" font-family="sans-serif" font-size="14" lengthAdjust="spacing" textLength="293.084" x="2163.31" y="857.4851">"M&#225; identifik&#225;tor datov&#233; schr&#225;nky": string</text><line style="stroke:#181818;stroke-width:0.5;" x1="2158.31" x2="2461.394" y1="864.7869" y2="864.7869"/></g><!--class S?dlo--><g id="elem_S&#237;dlo"><rect codeLine="53" fill="#F1F1F1" height="48" id="S&#237;dlo" rx="2.5" ry="2.5" style="stroke:#181818;stroke-width:0.5;" width="66.1182" x="514.8" y="148.3"/><ellipse cx="529.8" cy="164.3" fill="#ADD1B2" rx="11" ry="11" style="stroke:#181818;stroke-width:1.0;"/><path d="M532.7688,169.9406 Q532.1906,170.2375 531.55,170.3781 Q530.9094,170.5344 530.2063,170.5344 Q527.7063,170.5344 526.3781,168.8937 Q525.0656,167.2375 525.0656,164.1125 Q525.0656,160.9875 526.3781,159.3312 Q527.7063,157.675 530.2063,157.675 Q530.9094,157.675 531.55,157.8312 Q532.2063,157.9875 532.7688,158.2844 L532.7688,161.0031 Q532.1438,160.425 531.55,160.1594 Q530.9563,159.8781 530.3313,159.8781 Q528.9875,159.8781 528.3,160.9562 Q527.6125,162.0187 527.6125,164.1125 Q527.6125,166.2062 528.3,167.2844 Q528.9875,168.3469 530.3313,168.3469 Q530.9563,168.3469 531.55,168.0812 Q532.1438,167.8 532.7688,167.2219 L532.7688,169.9406 Z " fill="#000000"/><text fill="#000000" font-family="sans-serif" font-size="14" lengthAdjust="spacing" textLength="34.1182" x="543.8" y="169.1467">S&#237;dlo</text><line style="stroke:#181818;stroke-width:0.5;" x1="515.8" x2="579.9182" y1="180.3" y2="180.3"/><line style="stroke:#181818;stroke-width:0.5;" x1="515.8" x2="579.9182" y1="188.3" y2="188.3"/></g><!--class M?sto?--><g id="elem_M&#237;sto&#8203;"><rect codeLine="56" fill="#F1F1F1" height="48" id="M&#237;sto&#8203;" rx="2.5" ry="2.5" style="stroke:#181818;stroke-width:0.5;" width="69.3174" x="842.2" y="338.49"/><ellipse cx="857.2" cy="354.49" fill="#ADD1B2" rx="11" ry="11" style="stroke:#181818;stroke-width:1.0;"/><path d="M860.1688,360.1306 Q859.5906,360.4275 858.95,360.5681 Q858.3094,360.7244 857.6063,360.7244 Q855.1063,360.7244 853.7781,359.0838 Q852.4656,357.4275 852.4656,354.3025 Q852.4656,351.1775 853.7781,349.5213 Q855.1063,347.865 857.6063,347.865 Q858.3094,347.865 858.95,348.0213 Q859.6063,348.1775 860.1688,348.4744 L860.1688,351.1931 Q859.5438,350.615 858.95,350.3494 Q858.3563,350.0681 857.7313,350.0681 Q856.3875,350.0681 855.7,351.1463 Q855.0125,352.2088 855.0125,354.3025 Q855.0125,356.3963 855.7,357.4744 Q856.3875,358.5369 857.7313,358.5369 Q858.3563,358.5369 858.95,358.2713 Q859.5438,357.99 860.1688,357.4119 L860.1688,360.1306 Z " fill="#000000"/><text fill="#000000" font-family="sans-serif" font-size="14" lengthAdjust="spacing" textLength="37.3174" x="871.2" y="359.3367">M&#237;sto&#8203;</text><line style="stroke:#181818;stroke-width:0.5;" x1="843.2" x2="910.5174" y1="370.49" y2="370.49"/><line style="stroke:#181818;stroke-width:0.5;" x1="843.2" x2="910.5174" y1="378.49" y2="378.49"/></g><!--class Fyzick? osoba?--><g id="elem_Fyzick&#225; osoba&#8203;"><rect codeLine="59" fill="#F1F1F1" height="96.8906" id="Fyzick&#225; osoba&#8203;" rx="2.5" ry="2.5" style="stroke:#181818;stroke-width:0.5;" width="254.1699" x="1752.77" y="314.04"/><ellipse cx="1826.4546" cy="330.04" fill="#ADD1B2" rx="11" ry="11" style="stroke:#181818;stroke-width:1.0;"/><path d="M1829.4233,335.6806 Q1828.8452,335.9775 1828.2046,336.1181 Q1827.5639,336.2744 1826.8608,336.2744 Q1824.3608,336.2744 1823.0327,334.6337 Q1821.7202,332.9775 1821.7202,329.8525 Q1821.7202,326.7275 1823.0327,325.0712 Q1824.3608,323.415 1826.8608,323.415 Q1827.5639,323.415 1828.2046,323.5712 Q1828.8608,323.7275 1829.4233,324.0244 L1829.4233,326.7431 Q1828.7983,326.165 1828.2046,325.8994 Q1827.6108,325.6181 1826.9858,325.6181 Q1825.6421,325.6181 1824.9546,326.6962 Q1824.2671,327.7587 1824.2671,329.8525 Q1824.2671,331.9462 1824.9546,333.0244 Q1825.6421,334.0869 1826.9858,334.0869 Q1827.6108,334.0869 1828.2046,333.8212 Q1828.7983,333.54 1829.4233,332.9619 L1829.4233,335.6806 Z " fill="#000000"/><text fill="#000000" font-family="sans-serif" font-size="14" lengthAdjust="spacing" textLength="98.3008" x="1846.9546" y="334.8867">Fyzick&#225; osoba&#8203;</text><line style="stroke:#181818;stroke-width:0.5;" x1="1753.77" x2="2005.9399" y1="346.04" y2="346.04"/><text fill="#000000" font-family="sans-serif" font-size="14" lengthAdjust="spacing" textLength="242.1699" x="1758.77" y="363.0351">"dal&#353;&#237; jm&#233;no fyzick&#233; osoby": string</text><text fill="#000000" font-family="sans-serif" font-size="14" lengthAdjust="spacing" textLength="205.1807" x="1758.77" y="379.332">"jm&#233;no fyzick&#233; osoby": string</text><text fill="#000000" font-family="sans-serif" font-size="14" lengthAdjust="spacing" textLength="219.0371" x="1758.77" y="395.6289">"p&#345;&#237;jmen&#237; fyzick&#233; osoby": string</text><line style="stroke:#181818;stroke-width:0.5;" x1="1753.77" x2="2005.9399" y1="402.9306" y2="402.9306"/></g><!--class Fyzick? osoba??--><g id="elem_Fyzick&#225; osoba&#8203;&#8203;"><rect codeLine="65" fill="#F1F1F1" height="178.375" id="Fyzick&#225; osoba&#8203;&#8203;" rx="2.5" ry="2.5" style="stroke:#181818;stroke-width:0.5;" width="617.0898" x="2310.31" y="273.3"/><ellipse cx="2565.4545" cy="289.3" fill="#ADD1B2" rx="11" ry="11" style="stroke:#181818;stroke-width:1.0;"/><path d="M2568.4233,294.9406 Q2567.8452,295.2375 2567.2045,295.3781 Q2566.5639,295.5344 2565.8608,295.5344 Q2563.3608,295.5344 2562.0327,293.8937 Q2560.7202,292.2375 2560.7202,289.1125 Q2560.7202,285.9875 2562.0327,284.3312 Q2563.3608,282.675 2565.8608,282.675 Q2566.5639,282.675 2567.2045,282.8312 Q2567.8608,282.9875 2568.4233,283.2844 L2568.4233,286.0031 Q2567.7983,285.425 2567.2045,285.1594 Q2566.6108,284.8781 2565.9858,284.8781 Q2564.642,284.8781 2563.9545,285.9562 Q2563.267,287.0187 2563.267,289.1125 Q2563.267,291.2062 2563.9545,292.2844 Q2564.642,293.3469 2565.9858,293.3469 Q2566.6108,293.3469 2567.2045,293.0812 Q2567.7983,292.8 2568.4233,292.2219 L2568.4233,294.9406 Z " fill="#000000"/><text fill="#000000" font-family="sans-serif" font-size="14" lengthAdjust="spacing" textLength="98.3008" x="2585.9545" y="294.1467">Fyzick&#225; osoba&#8203;&#8203;</text><line style="stroke:#181818;stroke-width:0.5;" x1="2311.31" x2="2926.3998" y1="305.3" y2="305.3"/><text fill="#000000" font-family="sans-serif" font-size="14" lengthAdjust="spacing" textLength="164.0283" x="2316.31" y="322.2951">"datum narozen&#237;": date</text><text fill="#000000" font-family="sans-serif" font-size="14" lengthAdjust="spacing" textLength="605.0898" x="2316.31" y="338.592">"jedine&#269;n&#253; identifik&#225;tor fyzick&#233; osoby vytvo&#345;en&#253; odes&#237;laj&#237;c&#237;m &#269;lensk&#253;m st&#225;tem": string</text><text fill="#000000" font-family="sans-serif" font-size="14" lengthAdjust="spacing" textLength="279.5146" x="2316.31" y="354.8889">"sou&#269;asn&#225; adresa fyzick&#233; osoby": string</text><text fill="#000000" font-family="sans-serif" font-size="14" lengthAdjust="spacing" textLength="166.0586" x="2316.31" y="371.1857">"m&#237;sto narozen&#237;": string</text><text fill="#000000" font-family="sans-serif" font-size="14" lengthAdjust="spacing" textLength="113.2031" x="2316.31" y="387.4826">"pohlav&#237;": string</text><line style="stroke:#181818;stroke-width:0.5;" x1="2311.31" x2="2926.3998" y1="394.7844" y2="394.7844"/><text fill="#000000" font-family="sans-serif" font-size="14" lengthAdjust="spacing" textLength="235.0195" x="2316.31" y="411.7795">"sou&#269;asn&#233; jm&#233;no (jm&#233;na)": string</text><text fill="#000000" font-family="sans-serif" font-size="14" lengthAdjust="spacing" textLength="271.0381" x="2316.31" y="428.0764">"sou&#269;asn&#233; (sou&#269;asn&#225;) p&#345;&#237;jmen&#237;": string</text><text fill="#000000" font-family="sans-serif" font-size="14" lengthAdjust="spacing" textLength="327.626" x="2316.31" y="444.3732">"jm&#233;no (jm&#233;na) a p&#345;&#237;jmen&#237; p&#345;i narozen&#237;": string</text></g><!--class Bydli?t? fyzick? osoby--><g id="elem_Bydli&#353;t&#283; fyzick&#233; osoby"><rect codeLine="76" fill="#F1F1F1" height="48" id="Bydli&#353;t&#283; fyzick&#233; osoby" rx="2.5" ry="2.5" style="stroke:#181818;stroke-width:0.5;" width="187.3193" x="1541.2" y="602.01"/><ellipse cx="1556.2" cy="618.01" fill="#ADD1B2" rx="11" ry="11" style="stroke:#181818;stroke-width:1.0;"/><path d="M1559.1688,623.6506 Q1558.5906,623.9475 1557.95,624.0881 Q1557.3094,624.2444 1556.6063,624.2444 Q1554.1063,624.2444 1552.7781,622.6038 Q1551.4656,620.9475 1551.4656,617.8225 Q1551.4656,614.6975 1552.7781,613.0413 Q1554.1063,611.385 1556.6063,611.385 Q1557.3094,611.385 1557.95,611.5413 Q1558.6063,611.6975 1559.1688,611.9944 L1559.1688,614.7131 Q1558.5438,614.135 1557.95,613.8694 Q1557.3563,613.5881 1556.7313,613.5881 Q1555.3875,613.5881 1554.7,614.6663 Q1554.0125,615.7288 1554.0125,617.8225 Q1554.0125,619.9163 1554.7,620.9944 Q1555.3875,622.0569 1556.7313,622.0569 Q1557.3563,622.0569 1557.95,621.7913 Q1558.5438,621.51 1559.1688,620.9319 L1559.1688,623.6506 Z " fill="#000000"/><text fill="#000000" font-family="sans-serif" font-size="14" lengthAdjust="spacing" textLength="155.3193" x="1570.2" y="622.8567">Bydli&#353;t&#283; fyzick&#233; osoby</text><line style="stroke:#181818;stroke-width:0.5;" x1="1542.2" x2="1727.5193" y1="634.01" y2="634.01"/><line style="stroke:#181818;stroke-width:0.5;" x1="1542.2" x2="1727.5193" y1="642.01" y2="642.01"/></g><!--class Podnikatel--><g id="elem_Podnikatel"><rect codeLine="79" fill="#F1F1F1" height="80.5938" id="Podnikatel" rx="2.5" ry="2.5" style="stroke:#181818;stroke-width:0.5;" width="554.8486" x="1567.43" y="800.35"/><ellipse cx="1803.9363" cy="816.35" fill="#ADD1B2" rx="11" ry="11" style="stroke:#181818;stroke-width:1.0;"/><path d="M1806.9051,821.9906 Q1806.327,822.2875 1805.6863,822.4281 Q1805.0457,822.5844 1804.3426,822.5844 Q1801.8426,822.5844 1800.5145,820.9438 Q1799.202,819.2875 1799.202,816.1625 Q1799.202,813.0375 1800.5145,811.3813 Q1801.8426,809.725 1804.3426,809.725 Q1805.0457,809.725 1805.6863,809.8813 Q1806.3426,810.0375 1806.9051,810.3344 L1806.9051,813.0531 Q1806.2801,812.475 1805.6863,812.2094 Q1805.0926,811.9281 1804.4676,811.9281 Q1803.1238,811.9281 1802.4363,813.0063 Q1801.7488,814.0688 1801.7488,816.1625 Q1801.7488,818.2563 1802.4363,819.3344 Q1803.1238,820.3969 1804.4676,820.3969 Q1805.0926,820.3969 1805.6863,820.1313 Q1806.2801,819.85 1806.9051,819.2719 L1806.9051,821.9906 Z " fill="#000000"/><text fill="#000000" font-family="sans-serif" font-size="14" lengthAdjust="spacing" textLength="73.3359" x="1824.4363" y="821.1967">Podnikatel</text><line style="stroke:#181818;stroke-width:0.5;" x1="1568.43" x2="2121.2786" y1="832.35" y2="832.35"/><text fill="#000000" font-family="sans-serif" font-size="14" lengthAdjust="spacing" textLength="542.8486" x="1573.43" y="849.3451">"dodatky charakterizuj&#237;c&#237; bl&#237;&#382;e osobu podnikatele nebo obchodn&#237; z&#225;vod": text</text><text fill="#000000" font-family="sans-serif" font-size="14" lengthAdjust="spacing" textLength="167.7129" x="1573.43" y="865.642">"obchodn&#237; firma&#8203;": string</text><line style="stroke:#181818;stroke-width:0.5;" x1="1568.43" x2="2121.2786" y1="872.9438" y2="872.9438"/></g><!--class Zapsan? fyzick? osoba--><g id="elem_Zapsan&#225; fyzick&#225; osoba"><rect codeLine="84" fill="#F1F1F1" height="48" id="Zapsan&#225; fyzick&#225; osoba" rx="2.5" ry="2.5" style="stroke:#181818;stroke-width:0.5;" width="192.0088" x="1730.85" y="941.94"/><ellipse cx="1745.85" cy="957.94" fill="#ADD1B2" rx="11" ry="11" style="stroke:#181818;stroke-width:1.0;"/><path d="M1748.8188,963.5806 Q1748.2406,963.8775 1747.6,964.0181 Q1746.9594,964.1744 1746.2563,964.1744 Q1743.7563,964.1744 1742.4281,962.5338 Q1741.1156,960.8775 1741.1156,957.7525 Q1741.1156,954.6275 1742.4281,952.9713 Q1743.7563,951.315 1746.2563,951.315 Q1746.9594,951.315 1747.6,951.4713 Q1748.2563,951.6275 1748.8188,951.9244 L1748.8188,954.6431 Q1748.1938,954.065 1747.6,953.7994 Q1747.0063,953.5181 1746.3813,953.5181 Q1745.0375,953.5181 1744.35,954.5963 Q1743.6625,955.6588 1743.6625,957.7525 Q1743.6625,959.8463 1744.35,960.9244 Q1745.0375,961.9869 1746.3813,961.9869 Q1747.0063,961.9869 1747.6,961.7213 Q1748.1938,961.44 1748.8188,960.8619 L1748.8188,963.5806 Z " fill="#000000"/><text fill="#000000" font-family="sans-serif" font-size="14" lengthAdjust="spacing" textLength="160.0088" x="1759.85" y="962.7867">Zapsan&#225; fyzick&#225; osoba</text><line style="stroke:#181818;stroke-width:0.5;" x1="1731.85" x2="1921.8588" y1="973.94" y2="973.94"/><line style="stroke:#181818;stroke-width:0.5;" x1="1731.85" x2="1921.8588" y1="981.94" y2="981.94"/></g><!--class Fyzick? osoba???--><g id="elem_Fyzick&#225; osoba&#8203;&#8203;&#8203;"><rect codeLine="87" fill="#F1F1F1" height="48" id="Fyzick&#225; osoba&#8203;&#8203;&#8203;" rx="2.5" ry="2.5" style="stroke:#181818;stroke-width:0.5;" width="130.3008" x="3095.71" y="816.64"/><ellipse cx="3110.71" cy="832.64" fill="#ADD1B2" rx="11" ry="11" style="stroke:#181818;stroke-width:1.0;"/><path d="M3113.6788,838.2806 Q3113.1006,838.5775 3112.46,838.7181 Q3111.8194,838.8744 3111.1163,838.8744 Q3108.6163,838.8744 3107.2881,837.2338 Q3105.9756,835.5775 3105.9756,832.4525 Q3105.9756,829.3275 3107.2881,827.6713 Q3108.6163,826.015 3111.1163,826.015 Q3111.8194,826.015 3112.46,826.1713 Q3113.1163,826.3275 3113.6788,826.6244 L3113.6788,829.3431 Q3113.0538,828.765 3112.46,828.4994 Q3111.8663,828.2181 3111.2413,828.2181 Q3109.8975,828.2181 3109.21,829.2963 Q3108.5225,830.3588 3108.5225,832.4525 Q3108.5225,834.5463 3109.21,835.6244 Q3109.8975,836.6869 3111.2413,836.6869 Q3111.8663,836.6869 3112.46,836.4213 Q3113.0538,836.14 3113.6788,835.5619 L3113.6788,838.2806 Z " fill="#000000"/><text fill="#000000" font-family="sans-serif" font-size="14" lengthAdjust="spacing" textLength="98.3008" x="3124.71" y="837.4867">Fyzick&#225; osoba&#8203;&#8203;&#8203;</text><line style="stroke:#181818;stroke-width:0.5;" x1="3096.71" x2="3225.0108" y1="848.64" y2="848.64"/><line style="stroke:#181818;stroke-width:0.5;" x1="3096.71" x2="3225.0108" y1="856.64" y2="856.64"/></g><!--class Zapsan? osoba--><g id="elem_Zapsan&#225; osoba"><rect codeLine="90" fill="#F1F1F1" height="48" id="Zapsan&#225; osoba" rx="2.5" ry="2.5" style="stroke:#181818;stroke-width:0.5;" width="138.7227" x="907.5" y="816.64"/><ellipse cx="922.5" cy="832.64" fill="#ADD1B2" rx="11" ry="11" style="stroke:#181818;stroke-width:1.0;"/><path d="M925.4688,838.2806 Q924.8906,838.5775 924.25,838.7181 Q923.6094,838.8744 922.9063,838.8744 Q920.4063,838.8744 919.0781,837.2338 Q917.7656,835.5775 917.7656,832.4525 Q917.7656,829.3275 919.0781,827.6713 Q920.4063,826.015 922.9063,826.015 Q923.6094,826.015 924.25,826.1713 Q924.9063,826.3275 925.4688,826.6244 L925.4688,829.3431 Q924.8438,828.765 924.25,828.4994 Q923.6563,828.2181 923.0313,828.2181 Q921.6875,828.2181 921,829.2963 Q920.3125,830.3588 920.3125,832.4525 Q920.3125,834.5463 921,835.6244 Q921.6875,836.6869 923.0313,836.6869 Q923.6563,836.6869 924.25,836.4213 Q924.8438,836.14 925.4688,835.5619 L925.4688,838.2806 Z " fill="#000000"/><text fill="#000000" font-family="sans-serif" font-size="14" lengthAdjust="spacing" textLength="106.7227" x="936.5" y="837.4867">Zapsan&#225; osoba</text><line style="stroke:#181818;stroke-width:0.5;" x1="908.5" x2="1045.2227" y1="848.64" y2="848.64"/><line style="stroke:#181818;stroke-width:0.5;" x1="908.5" x2="1045.2227" y1="856.64" y2="856.64"/></g><!--class Zapsan? fyzick? osoba kter? je podnikatelem--><g id="elem_Zapsan&#225; fyzick&#225; osoba kter&#225; je podnikatelem"><rect codeLine="93" fill="#F1F1F1" height="48" id="Zapsan&#225; fyzick&#225; osoba kter&#225; je podnikatelem" rx="2.5" ry="2.5" style="stroke:#181818;stroke-width:0.5;" width="350.4385" x="1430.64" y="1050.94"/><ellipse cx="1445.64" cy="1066.94" fill="#ADD1B2" rx="11" ry="11" style="stroke:#181818;stroke-width:1.0;"/><path d="M1448.6088,1072.5806 Q1448.0306,1072.8775 1447.39,1073.0181 Q1446.7494,1073.1744 1446.0463,1073.1744 Q1443.5463,1073.1744 1442.2181,1071.5338 Q1440.9056,1069.8775 1440.9056,1066.7525 Q1440.9056,1063.6275 1442.2181,1061.9713 Q1443.5463,1060.315 1446.0463,1060.315 Q1446.7494,1060.315 1447.39,1060.4713 Q1448.0463,1060.6275 1448.6088,1060.9244 L1448.6088,1063.6431 Q1447.9838,1063.065 1447.39,1062.7994 Q1446.7963,1062.5181 1446.1713,1062.5181 Q1444.8275,1062.5181 1444.14,1063.5963 Q1443.4525,1064.6588 1443.4525,1066.7525 Q1443.4525,1068.8463 1444.14,1069.9244 Q1444.8275,1070.9869 1446.1713,1070.9869 Q1446.7963,1070.9869 1447.39,1070.7213 Q1447.9838,1070.44 1448.6088,1069.8619 L1448.6088,1072.5806 Z " fill="#000000"/><text fill="#000000" font-family="sans-serif" font-size="14" lengthAdjust="spacing" textLength="318.4385" x="1459.64" y="1071.7867">Zapsan&#225; fyzick&#225; osoba kter&#225; je podnikatelem</text><line style="stroke:#181818;stroke-width:0.5;" x1="1431.64" x2="1780.0785" y1="1082.94" y2="1082.94"/><line style="stroke:#181818;stroke-width:0.5;" x1="1431.64" x2="1780.0785" y1="1090.94" y2="1090.94"/></g><!--class Osoba ve vztahu k dokumentu--><g id="elem_Osoba ve vztahu k dokumentu"><rect codeLine="96" fill="#F1F1F1" height="48" id="Osoba ve vztahu k dokumentu" rx="2.5" ry="2.5" style="stroke:#181818;stroke-width:0.5;" width="246.5186" x="1113.6" y="602.01"/><ellipse cx="1128.6" cy="618.01" fill="#ADD1B2" rx="11" ry="11" style="stroke:#181818;stroke-width:1.0;"/><path d="M1131.5688,623.6506 Q1130.9906,623.9475 1130.35,624.0881 Q1129.7094,624.2444 1129.0063,624.2444 Q1126.5063,624.2444 1125.1781,622.6038 Q1123.8656,620.9475 1123.8656,617.8225 Q1123.8656,614.6975 1125.1781,613.0413 Q1126.5063,611.385 1129.0063,611.385 Q1129.7094,611.385 1130.35,611.5413 Q1131.0063,611.6975 1131.5688,611.9944 L1131.5688,614.7131 Q1130.9438,614.135 1130.35,613.8694 Q1129.7563,613.5881 1129.1313,613.5881 Q1127.7875,613.5881 1127.1,614.6663 Q1126.4125,615.7288 1126.4125,617.8225 Q1126.4125,619.9163 1127.1,620.9944 Q1127.7875,622.0569 1129.1313,622.0569 Q1129.7563,622.0569 1130.35,621.7913 Q1130.9438,621.51 1131.5688,620.9319 L1131.5688,623.6506 Z " fill="#000000"/><text fill="#000000" font-family="sans-serif" font-size="14" lengthAdjust="spacing" textLength="214.5186" x="1142.6" y="622.8567">Osoba ve vztahu k dokumentu</text><line style="stroke:#181818;stroke-width:0.5;" x1="1114.6" x2="1359.1186" y1="634.01" y2="634.01"/><line style="stroke:#181818;stroke-width:0.5;" x1="1114.6" x2="1359.1186" y1="642.01" y2="642.01"/></g><!--class Pr?vnick? osoba jako osoba ve vztahu k dokumentu--><g id="elem_Pr&#225;vnick&#225; osoba jako osoba ve vztahu k dokumentu"><rect codeLine="99" fill="#F1F1F1" height="48" id="Pr&#225;vnick&#225; osoba jako osoba ve vztahu k dokumentu" rx="2.5" ry="2.5" style="stroke:#181818;stroke-width:0.5;" width="396.6563" x="632.53" y="941.94"/><ellipse cx="647.53" cy="957.94" fill="#ADD1B2" rx="11" ry="11" style="stroke:#181818;stroke-width:1.0;"/><path d="M650.4988,963.5806 Q649.9206,963.8775 649.28,964.0181 Q648.6394,964.1744 647.9363,964.1744 Q645.4363,964.1744 644.1081,962.5338 Q642.7956,960.8775 642.7956,957.7525 Q642.7956,954.6275 644.1081,952.9713 Q645.4363,951.315 647.9363,951.315 Q648.6394,951.315 649.28,951.4713 Q649.9363,951.6275 650.4988,951.9244 L650.4988,954.6431 Q649.8738,954.065 649.28,953.7994 Q648.6863,953.5181 648.0613,953.5181 Q646.7175,953.5181 646.03,954.5963 Q645.3425,955.6588 645.3425,957.7525 Q645.3425,959.8463 646.03,960.9244 Q646.7175,961.9869 648.0613,961.9869 Q648.6863,961.9869 649.28,961.7213 Q649.8738,961.44 650.4988,960.8619 L650.4988,963.5806 Z " fill="#000000"/><text fill="#000000" font-family="sans-serif" font-size="14" lengthAdjust="spacing" textLength="364.6563" x="661.53" y="962.7867">Pr&#225;vnick&#225; osoba jako osoba ve vztahu k dokumentu</text><line style="stroke:#181818;stroke-width:0.5;" x1="633.53" x2="1028.1863" y1="973.94" y2="973.94"/><line style="stroke:#181818;stroke-width:0.5;" x1="633.53" x2="1028.1863" y1="981.94" y2="981.94"/></g><!--class Fyzick? osoba jako osoba ve vztahu k dokumentu--><g id="elem_Fyzick&#225; osoba jako osoba ve vztahu k dokumentu"><rect codeLine="102" fill="#F1F1F1" height="48" id="Fyzick&#225; osoba jako osoba ve vztahu k dokumentu" rx="2.5" ry="2.5" style="stroke:#181818;stroke-width:0.5;" width="380.4072" x="1151.65" y="816.64"/><ellipse cx="1166.65" cy="832.64" fill="#ADD1B2" rx="11" ry="11" style="stroke:#181818;stroke-width:1.0;"/><path d="M1169.6188,838.2806 Q1169.0406,838.5775 1168.4,838.7181 Q1167.7594,838.8744 1167.0563,838.8744 Q1164.5563,838.8744 1163.2281,837.2338 Q1161.9156,835.5775 1161.9156,832.4525 Q1161.9156,829.3275 1163.2281,827.6713 Q1164.5563,826.015 1167.0563,826.015 Q1167.7594,826.015 1168.4,826.1713 Q1169.0563,826.3275 1169.6188,826.6244 L1169.6188,829.3431 Q1168.9938,828.765 1168.4,828.4994 Q1167.8063,828.2181 1167.1813,828.2181 Q1165.8375,828.2181 1165.15,829.2963 Q1164.4625,830.3588 1164.4625,832.4525 Q1164.4625,834.5463 1165.15,835.6244 Q1165.8375,836.6869 1167.1813,836.6869 Q1167.8063,836.6869 1168.4,836.4213 Q1168.9938,836.14 1169.6188,835.5619 L1169.6188,838.2806 Z " fill="#000000"/><text fill="#000000" font-family="sans-serif" font-size="14" lengthAdjust="spacing" textLength="348.4072" x="1180.65" y="837.4867">Fyzick&#225; osoba jako osoba ve vztahu k dokumentu</text><line style="stroke:#181818;stroke-width:0.5;" x1="1152.65" x2="1531.0572" y1="848.64" y2="848.64"/><line style="stroke:#181818;stroke-width:0.5;" x1="1152.65" x2="1531.0572" y1="856.64" y2="856.64"/></g><!--class Podnikaj?c? fyzick? osoba jako osoba ve vztahu k dokumentu--><g id="elem_Podnikaj&#237;c&#237; fyzick&#225; osoba jako osoba ve vztahu k dokumentu"><rect codeLine="105" fill="#F1F1F1" height="48" id="Podnikaj&#237;c&#237; fyzick&#225; osoba jako osoba ve vztahu k dokumentu" rx="2.5" ry="2.5" style="stroke:#181818;stroke-width:0.5;" width="456.4434" x="890.63" y="1268.94"/><ellipse cx="905.63" cy="1284.94" fill="#ADD1B2" rx="11" ry="11" style="stroke:#181818;stroke-width:1.0;"/><path d="M908.5988,1290.5806 Q908.0206,1290.8775 907.38,1291.0181 Q906.7394,1291.1744 906.0363,1291.1744 Q903.5363,1291.1744 902.2081,1289.5338 Q900.8956,1287.8775 900.8956,1284.7525 Q900.8956,1281.6275 902.2081,1279.9713 Q903.5363,1278.315 906.0363,1278.315 Q906.7394,1278.315 907.38,1278.4713 Q908.0363,1278.6275 908.5988,1278.9244 L908.5988,1281.6431 Q907.9738,1281.065 907.38,1280.7994 Q906.7863,1280.5181 906.1613,1280.5181 Q904.8175,1280.5181 904.13,1281.5963 Q903.4425,1282.6588 903.4425,1284.7525 Q903.4425,1286.8463 904.13,1287.9244 Q904.8175,1288.9869 906.1613,1288.9869 Q906.7863,1288.9869 907.38,1288.7213 Q907.9738,1288.44 908.5988,1287.8619 L908.5988,1290.5806 Z " fill="#000000"/><text fill="#000000" font-family="sans-serif" font-size="14" lengthAdjust="spacing" textLength="424.4434" x="919.63" y="1289.7867">Podnikaj&#237;c&#237; fyzick&#225; osoba jako osoba ve vztahu k dokumentu</text><line style="stroke:#181818;stroke-width:0.5;" x1="891.63" x2="1346.0734" y1="1300.94" y2="1300.94"/><line style="stroke:#181818;stroke-width:0.5;" x1="891.63" x2="1346.0734" y1="1308.94" y2="1308.94"/></g><!--class Podnikaj?c? fyzick? osoba zapsan? v obchodn?m rejst??ku jako osoba ve vztahu k dokumentu--><g id="elem_Podnikaj&#237;c&#237; fyzick&#225; osoba zapsan&#225; v obchodn&#237;m rejst&#345;&#237;ku jako osoba ve vztahu k dokumentu"><rect codeLine="108" fill="#F1F1F1" height="48" id="Podnikaj&#237;c&#237; fyzick&#225; osoba zapsan&#225; v obchodn&#237;m rejst&#345;&#237;ku jako osoba ve vztahu k dokumentu" rx="2.5" ry="2.5" style="stroke:#181818;stroke-width:0.5;" width="676.2119" x="420.75" y="1377.94"/><ellipse cx="435.75" cy="1393.94" fill="#ADD1B2" rx="11" ry="11" style="stroke:#181818;stroke-width:1.0;"/><path d="M438.7188,1399.5806 Q438.1406,1399.8775 437.5,1400.0181 Q436.8594,1400.1744 436.1563,1400.1744 Q433.6563,1400.1744 432.3281,1398.5338 Q431.0156,1396.8775 431.0156,1393.7525 Q431.0156,1390.6275 432.3281,1388.9713 Q433.6563,1387.315 436.1563,1387.315 Q436.8594,1387.315 437.5,1387.4713 Q438.1563,1387.6275 438.7188,1387.9244 L438.7188,1390.6431 Q438.0938,1390.065 437.5,1389.7994 Q436.9063,1389.5181 436.2813,1389.5181 Q434.9375,1389.5181 434.25,1390.5963 Q433.5625,1391.6588 433.5625,1393.7525 Q433.5625,1395.8463 434.25,1396.9244 Q434.9375,1397.9869 436.2813,1397.9869 Q436.9063,1397.9869 437.5,1397.7213 Q438.0938,1397.44 438.7188,1396.8619 L438.7188,1399.5806 Z " fill="#000000"/><text fill="#000000" font-family="sans-serif" font-size="14" lengthAdjust="spacing" textLength="644.2119" x="449.75" y="1398.7867">Podnikaj&#237;c&#237; fyzick&#225; osoba zapsan&#225; v obchodn&#237;m rejst&#345;&#237;ku jako osoba ve vztahu k dokumentu</text><line style="stroke:#181818;stroke-width:0.5;" x1="421.75" x2="1095.9619" y1="1409.94" y2="1409.94"/><line style="stroke:#181818;stroke-width:0.5;" x1="421.75" x2="1095.9619" y1="1417.94" y2="1417.94"/></g><!--class Podnikaj?c? fyzick? osoba nezapsan? v obchodn?m rejst??ku jako osoba ve vztahu k dokumentu--><g id="elem_Podnikaj&#237;c&#237; fyzick&#225; osoba nezapsan&#225; v obchodn&#237;m rejst&#345;&#237;ku jako osoba ve vztahu k dokumentu"><rect codeLine="111" fill="#F1F1F1" height="48" id="Podnikaj&#237;c&#237; fyzick&#225; osoba nezapsan&#225; v obchodn&#237;m rejst&#345;&#237;ku jako osoba ve vztahu k dokumentu" rx="2.5" ry="2.5" style="stroke:#181818;stroke-width:0.5;" width="693.6982" x="1132.01" y="1377.94"/><ellipse cx="1147.01" cy="1393.94" fill="#ADD1B2" rx="11" ry="11" style="stroke:#181818;stroke-width:1.0;"/><path d="M1149.9788,1399.5806 Q1149.4006,1399.8775 1148.76,1400.0181 Q1148.1194,1400.1744 1147.4163,1400.1744 Q1144.9163,1400.1744 1143.5881,1398.5338 Q1142.2756,1396.8775 1142.2756,1393.7525 Q1142.2756,1390.6275 1143.5881,1388.9713 Q1144.9163,1387.315 1147.4163,1387.315 Q1148.1194,1387.315 1148.76,1387.4713 Q1149.4163,1387.6275 1149.9788,1387.9244 L1149.9788,1390.6431 Q1149.3538,1390.065 1148.76,1389.7994 Q1148.1663,1389.5181 1147.5413,1389.5181 Q1146.1975,1389.5181 1145.51,1390.5963 Q1144.8225,1391.6588 1144.8225,1393.7525 Q1144.8225,1395.8463 1145.51,1396.9244 Q1146.1975,1397.9869 1147.5413,1397.9869 Q1148.1663,1397.9869 1148.76,1397.7213 Q1149.3538,1397.44 1149.9788,1396.8619 L1149.9788,1399.5806 Z " fill="#000000"/><text fill="#000000" font-family="sans-serif" font-size="14" lengthAdjust="spacing" textLength="661.6982" x="1161.01" y="1398.7867">Podnikaj&#237;c&#237; fyzick&#225; osoba nezapsan&#225; v obchodn&#237;m rejst&#345;&#237;ku jako osoba ve vztahu k dokumentu</text><line style="stroke:#181818;stroke-width:0.5;" x1="1133.01" x2="1824.7082" y1="1409.94" y2="1409.94"/><line style="stroke:#181818;stroke-width:0.5;" x1="1133.01" x2="1824.7082" y1="1417.94" y2="1417.94"/></g><!--class Fyzick? osoba identifikovan? skrz eIDAS jako osoba ve vztahu k dokumentu--><g id="elem_Fyzick&#225; osoba identifikovan&#225; skrz eIDAS jako osoba ve vztahu k dokumentu"><rect codeLine="114" fill="#F1F1F1" height="48" id="Fyzick&#225; osoba identifikovan&#225; skrz eIDAS jako osoba ve vztahu k dokumentu" rx="2.5" ry="2.5" style="stroke:#181818;stroke-width:0.5;" width="563.6992" x="2497.01" y="816.64"/><ellipse cx="2512.01" cy="832.64" fill="#ADD1B2" rx="11" ry="11" style="stroke:#181818;stroke-width:1.0;"/><path d="M2514.9788,838.2806 Q2514.4006,838.5775 2513.76,838.7181 Q2513.1194,838.8744 2512.4163,838.8744 Q2509.9163,838.8744 2508.5881,837.2338 Q2507.2756,835.5775 2507.2756,832.4525 Q2507.2756,829.3275 2508.5881,827.6713 Q2509.9163,826.015 2512.4163,826.015 Q2513.1194,826.015 2513.76,826.1713 Q2514.4163,826.3275 2514.9788,826.6244 L2514.9788,829.3431 Q2514.3538,828.765 2513.76,828.4994 Q2513.1663,828.2181 2512.5413,828.2181 Q2511.1975,828.2181 2510.51,829.2963 Q2509.8225,830.3588 2509.8225,832.4525 Q2509.8225,834.5463 2510.51,835.6244 Q2511.1975,836.6869 2512.5413,836.6869 Q2513.1663,836.6869 2513.76,836.4213 Q2514.3538,836.14 2514.9788,835.5619 L2514.9788,838.2806 Z " fill="#000000"/><text fill="#000000" font-family="sans-serif" font-size="14" lengthAdjust="spacing" textLength="531.6992" x="2526.01" y="837.4867">Fyzick&#225; osoba identifikovan&#225; skrz eIDAS jako osoba ve vztahu k dokumentu</text><line style="stroke:#181818;stroke-width:0.5;" x1="2498.01" x2="3059.7092" y1="848.64" y2="848.64"/><line style="stroke:#181818;stroke-width:0.5;" x1="2498.01" x2="3059.7092" y1="856.64" y2="856.64"/></g><!--class Pr?vnick? osoba identifikovan? skrz eIDAS jako osoba ve vztahu k dokumentu--><g id="elem_Pr&#225;vnick&#225; osoba identifikovan&#225; skrz eIDAS jako osoba ve vztahu k dokumentu"><rect codeLine="117" fill="#F1F1F1" height="48" id="Pr&#225;vnick&#225; osoba identifikovan&#225; skrz eIDAS jako osoba ve vztahu k dokumentu" rx="2.5" ry="2.5" style="stroke:#181818;stroke-width:0.5;" width="579.9482" x="221.88" y="816.64"/><ellipse cx="236.88" cy="832.64" fill="#ADD1B2" rx="11" ry="11" style="stroke:#181818;stroke-width:1.0;"/><path d="M239.8488,838.2806 Q239.2706,838.5775 238.63,838.7181 Q237.9894,838.8744 237.2863,838.8744 Q234.7863,838.8744 233.4581,837.2338 Q232.1456,835.5775 232.1456,832.4525 Q232.1456,829.3275 233.4581,827.6713 Q234.7863,826.015 237.2863,826.015 Q237.9894,826.015 238.63,826.1713 Q239.2863,826.3275 239.8488,826.6244 L239.8488,829.3431 Q239.2238,828.765 238.63,828.4994 Q238.0363,828.2181 237.4113,828.2181 Q236.0675,828.2181 235.38,829.2963 Q234.6925,830.3588 234.6925,832.4525 Q234.6925,834.5463 235.38,835.6244 Q236.0675,836.6869 237.4113,836.6869 Q238.0363,836.6869 238.63,836.4213 Q239.2238,836.14 239.8488,835.5619 L239.8488,838.2806 Z " fill="#000000"/><text fill="#000000" font-family="sans-serif" font-size="14" lengthAdjust="spacing" textLength="547.9482" x="250.88" y="837.4867">Pr&#225;vnick&#225; osoba identifikovan&#225; skrz eIDAS jako osoba ve vztahu k dokumentu</text><line style="stroke:#181818;stroke-width:0.5;" x1="222.88" x2="800.8282" y1="848.64" y2="848.64"/><line style="stroke:#181818;stroke-width:0.5;" x1="222.88" x2="800.8282" y1="856.64" y2="856.64"/></g><!--reverse link Lokalizace popisem to Zahrani?n? adresa--><g id="link_Lokalizace popisem_Zahrani&#269;n&#237; adresa"><path codeLine="120" d="M697.8802,88.9516 C704.1502,112.4516 707.94,126.66 713.62,147.95 " fill="none" id="Lokalizace popisem-backto-Zahrani&#269;n&#237; adresa" style="stroke:#181818;stroke-width:1.0;"/><polygon fill="none" points="693.24,71.56,692.083,90.4984,703.6774,87.4049,693.24,71.56" style="stroke:#181818;stroke-width:1.0;"/></g><!--reverse link Osoba to Pr?vnick? osoba--><g id="link_Osoba_Pr&#225;vnick&#225; osoba"><path codeLine="121" d="M907.7097,669.961 C880.5097,691.901 855.3,708.47 815.86,723.35 C559.77,819.95 470.9,736.04 204.86,800.35 C195.94,802.5 186.73,805.15 177.64,808.05 " fill="none" id="Osoba-backto-Pr&#225;vnick&#225; osoba" style="stroke:#181818;stroke-width:1.0;"/><polygon fill="none" points="921.72,658.66,903.9427,665.2909,911.4767,674.6311,921.72,658.66" style="stroke:#181818;stroke-width:1.0;"/></g><!--reverse link Pr?vnick? osoba? to Pr?vnick? osoba--><g id="link_Pr&#225;vnick&#225; osoba&#8203;_Pr&#225;vnick&#225; osoba"><path codeLine="122" d="M289.7116,732.5752 C235.0116,762.9352 194.19,785.61 153.78,808.04 " fill="none" id="Pr&#225;vnick&#225; osoba&#8203;-backto-Pr&#225;vnick&#225; osoba" style="stroke:#181818;stroke-width:1.0;"/><polygon fill="none" points="305.45,723.84,286.7999,727.3291,292.6234,737.8213,305.45,723.84" style="stroke:#181818;stroke-width:1.0;"/></g><!--reverse link Pr?vnick? osoba?? to Pr?vnick? osoba--><g id="link_Pr&#225;vnick&#225; osoba&#8203;&#8203;_Pr&#225;vnick&#225; osoba"><path codeLine="123" d="M359.5837,55.6124 C256.6537,74.7624 99.86,112.59 99.86,171.3 C99.86,171.3 99.86,171.3 99.86,627.01 C99.86,691.43 98.46,766.83 97.58,808.3 " fill="none" id="Pr&#225;vnick&#225; osoba&#8203;&#8203;-backto-Pr&#225;vnick&#225; osoba" style="stroke:#181818;stroke-width:1.0;"/><polygon fill="none" points="377.28,52.32,358.4862,49.7136,360.6811,61.5112,377.28,52.32" style="stroke:#181818;stroke-width:1.0;"/></g><!--reverse link Fyzick? osoba? to Fyzick? osoba--><g id="link_Fyzick&#225; osoba&#8203;_Fyzick&#225; osoba"><path codeLine="124" d="M1973.6087,420.5039 C2066.1387,476.7839 2200.95,558.78 2271.26,601.53 " fill="none" id="Fyzick&#225; osoba&#8203;-backto-Fyzick&#225; osoba" style="stroke:#181818;stroke-width:1.0;"/><polygon fill="none" points="1958.23,411.15,1970.4908,425.6301,1976.7267,415.3776,1958.23,411.15" style="stroke:#181818;stroke-width:1.0;"/></g><!--reverse link Fyzick? osoba?? to Fyzick? osoba--><g id="link_Fyzick&#225; osoba&#8203;&#8203;_Fyzick&#225; osoba"><path codeLine="125" d="M2500.5007,463.6589 C2438.0007,516.5589 2377.03,568.16 2337.52,601.59 " fill="none" id="Fyzick&#225; osoba&#8203;&#8203;-backto-Fyzick&#225; osoba" style="stroke:#181818;stroke-width:1.0;"/><polygon fill="none" points="2514.24,452.03,2496.6244,459.0792,2504.377,468.2387,2514.24,452.03" style="stroke:#181818;stroke-width:1.0;"/></g><!--reverse link Zapsan? fyzick? osoba kter? je podnikatelem to Podnikaj?c? fyzick? osoba--><g id="link_Zapsan&#225; fyzick&#225; osoba kter&#225; je podnikatelem_Podnikaj&#237;c&#237; fyzick&#225; osoba"><path codeLine="126" d="M1585.2212,1115.3667 C1575.8812,1133.2067 1571.45,1141.69 1562.12,1159.51 " fill="none" id="Zapsan&#225; fyzick&#225; osoba kter&#225; je podnikatelem-backto-Podnikaj&#237;c&#237; fyzick&#225; osoba" style="stroke:#181818;stroke-width:1.0;"/><polygon fill="none" points="1593.57,1099.42,1579.9056,1112.5838,1590.5368,1118.1496,1593.57,1099.42" style="stroke:#181818;stroke-width:1.0;"/></g><!--reverse link M?sto to M?sto?--><g id="link_M&#237;sto_M&#237;sto&#8203;"><path codeLine="127" d="M942.1357,89.0545 C926.7357,153.3245 896.11,281.12 882.48,338.02 " fill="none" id="M&#237;sto-backto-M&#237;sto&#8203;" style="stroke:#181818;stroke-width:1.0;"/><polygon fill="none" points="946.33,71.55,936.3008,87.6564,947.9705,90.4526,946.33,71.55" style="stroke:#181818;stroke-width:1.0;"/></g><!--reverse link Podnikatel to Zapsan? fyzick? osoba--><g id="link_Podnikatel_Zapsan&#225; fyzick&#225; osoba"><path codeLine="128" d="M1836.4592,899.1411 C1833.5592,919.0011 1832.76,924.53 1830.28,941.5 " fill="none" id="Podnikatel-backto-Zapsan&#225; fyzick&#225; osoba" style="stroke:#181818;stroke-width:1.0;"/><polygon fill="none" points="1839.06,881.33,1830.5221,898.2742,1842.3962,900.0081,1839.06,881.33" style="stroke:#181818;stroke-width:1.0;"/></g><!--reverse link Fyzick? osoba??? to Zapsan? fyzick? osoba--><g id="link_Fyzick&#225; osoba&#8203;&#8203;&#8203;_Zapsan&#225; fyzick&#225; osoba"><path codeLine="129" d="M3103.1514,872.8483 C3090.2314,879.0883 3091.9,877.29 3077.86,880.94 C2859.96,937.65 2177.28,957.56 1923.3,963.11 " fill="none" id="Fyzick&#225; osoba&#8203;&#8203;&#8203;-backto-Zapsan&#225; fyzick&#225; osoba" style="stroke:#181818;stroke-width:1.0;"/><polygon fill="none" points="3119.36,865.02,3100.542,867.4454,3105.7609,878.2511,3119.36,865.02" style="stroke:#181818;stroke-width:1.0;"/></g><!--reverse link Zapsan? osoba to Zapsan? fyzick? osoba--><g id="link_Zapsan&#225; osoba_Zapsan&#225; fyzick&#225; osoba"><path codeLine="130" d="M1063.8226,865.5527 C1090.9426,872.5927 1104.98,875.6 1133.86,880.94 C1345.09,920.02 1596.03,945.25 1730.43,957.08 " fill="none" id="Zapsan&#225; osoba-backto-Zapsan&#225; fyzick&#225; osoba" style="stroke:#181818;stroke-width:1.0;"/><polygon fill="none" points="1046.4,861.03,1062.315,871.3602,1065.3301,859.7452,1046.4,861.03" style="stroke:#181818;stroke-width:1.0;"/></g><!--reverse link Fyzick? osoba to Fyzick? osoba???--><g id="link_Fyzick&#225; osoba_Fyzick&#225; osoba&#8203;&#8203;&#8203;"><path codeLine="131" d="M2393.2012,639.5983 C2527.5312,660.7383 2824.91,713.12 3077.86,800.35 C3090.52,804.71 3103.81,810.44 3115.95,816.18 " fill="none" id="Fyzick&#225; osoba-backto-Fyzick&#225; osoba&#8203;&#8203;&#8203;" style="stroke:#181818;stroke-width:1.0;"/><polygon fill="none" points="2375.42,636.8,2392.2684,645.5253,2394.1339,633.6712,2375.42,636.8" style="stroke:#181818;stroke-width:1.0;"/></g><!--reverse link Osoba to Zapsan? osoba--><g id="link_Osoba_Zapsan&#225; osoba"><path codeLine="132" d="M962.2619,676.3086 C966.1119,719.3986 971.35,777.98 974.77,816.35 " fill="none" id="Osoba-backto-Zapsan&#225; osoba" style="stroke:#181818;stroke-width:1.0;"/><polygon fill="none" points="960.66,658.38,956.2857,676.8425,968.2381,675.7746,960.66,658.38" style="stroke:#181818;stroke-width:1.0;"/></g><!--reverse link Zapsan? fyzick? osoba to Zapsan? fyzick? osoba kter? je podnikatelem--><g id="link_Zapsan&#225; fyzick&#225; osoba_Zapsan&#225; fyzick&#225; osoba kter&#225; je podnikatelem"><path codeLine="133" d="M1762.1587,998.2634 C1725.3087,1016.1034 1691.06,1032.69 1654.24,1050.51 " fill="none" id="Zapsan&#225; fyzick&#225; osoba-backto-Zapsan&#225; fyzick&#225; osoba kter&#225; je podnikatelem" style="stroke:#181818;stroke-width:1.0;"/><polygon fill="none" points="1778.36,990.42,1759.5443,992.863,1764.7732,1003.6638,1778.36,990.42" style="stroke:#181818;stroke-width:1.0;"/></g><!--reverse link Osoba ve vztahu k dokumentu to Pr?vnick? osoba jako osoba ve vztahu k dokumentu--><g id="link_Osoba ve vztahu k dokumentu_Pr&#225;vnick&#225; osoba jako osoba ve vztahu k dokumentu"><path codeLine="134" d="M1192.7837,661.3875 C1165.1237,682.4275 1136.52,702.25 1095.86,723.35 C1009.09,768.36 958.5,730.77 889.86,800.35 C851.06,839.68 837.6,906.27 833.07,941.49 " fill="none" id="Osoba ve vztahu k dokumentu-backto-Pr&#225;vnick&#225; osoba jako osoba ve vztahu k dokumentu" style="stroke:#181818;stroke-width:1.0;"/><polygon fill="none" points="1207.11,650.49,1189.1512,656.6121,1196.4162,666.163,1207.11,650.49" style="stroke:#181818;stroke-width:1.0;"/></g><!--reverse link Pr?vnick? osoba to Pr?vnick? osoba jako osoba ve vztahu k dokumentu--><g id="link_Pr&#225;vnick&#225; osoba_Pr&#225;vnick&#225; osoba jako osoba ve vztahu k dokumentu"><path codeLine="135" d="M195.0992,878.7287 C204.0992,881.5987 196.04,878.77 204.86,880.94 C345.68,915.58 508.07,936.84 632.16,949.31 " fill="none" id="Pr&#225;vnick&#225; osoba-backto-Pr&#225;vnick&#225; osoba jako osoba ve vztahu k dokumentu" style="stroke:#181818;stroke-width:1.0;"/><polygon fill="none" points="177.95,873.26,193.2763,884.4451,196.922,873.0123,177.95,873.26" style="stroke:#181818;stroke-width:1.0;"/></g><!--reverse link Osoba ve vztahu k dokumentu to Fyzick? osoba jako osoba ve vztahu k dokumentu--><g id="link_Osoba ve vztahu k dokumentu_Fyzick&#225; osoba jako osoba ve vztahu k dokumentu"><path codeLine="136" d="M1256.2622,666.3083 C1276.4122,707.0983 1310.03,775.19 1330.27,816.19 " fill="none" id="Osoba ve vztahu k dokumentu-backto-Fyzick&#225; osoba jako osoba ve vztahu k dokumentu" style="stroke:#181818;stroke-width:1.0;"/><polygon fill="none" points="1248.29,650.17,1250.8828,668.9657,1261.6416,663.6509,1248.29,650.17" style="stroke:#181818;stroke-width:1.0;"/></g><!--reverse link Fyzick? osoba to Fyzick? osoba jako osoba ve vztahu k dokumentu--><g id="link_Fyzick&#225; osoba_Fyzick&#225; osoba jako osoba ve vztahu k dokumentu"><path codeLine="137" d="M2226.6937,646.3093 C2111.6937,672.9293 1883.75,725.28 1675.86,770.35 C1603.37,786.06 1521.86,802.98 1457.51,816.17 " fill="none" id="Fyzick&#225; osoba-backto-Fyzick&#225; osoba jako osoba ve vztahu k dokumentu" style="stroke:#181818;stroke-width:1.0;"/><polygon fill="none" points="2244.23,642.25,2225.3406,640.4638,2228.0468,652.1547,2244.23,642.25" style="stroke:#181818;stroke-width:1.0;"/></g><!--reverse link Osoba ve vztahu k dokumentu to Podnikaj?c? fyzick? osoba jako osoba ve vztahu k dokumentu--><g id="link_Osoba ve vztahu k dokumentu_Podnikaj&#237;c&#237; fyzick&#225; osoba jako osoba ve vztahu k dokumentu"><path codeLine="138" d="M1195.1659,662.2402 C1154.7859,698.2502 1098.86,759.77 1098.86,839.64 C1098.86,839.64 1098.86,839.64 1098.86,1184.94 C1098.86,1214.23 1106.19,1247.28 1111.97,1268.79 " fill="none" id="Osoba ve vztahu k dokumentu-backto-Podnikaj&#237;c&#237; fyzick&#225; osoba jako osoba ve vztahu k dokumentu" style="stroke:#181818;stroke-width:1.0;"/><polygon fill="none" points="1208.6,650.26,1191.1725,657.7622,1199.1593,666.7182,1208.6,650.26" style="stroke:#181818;stroke-width:1.0;"/></g><!--reverse link Podnikaj?c? fyzick? osoba to Podnikaj?c? fyzick? osoba jako osoba ve vztahu k dokumentu--><g id="link_Podnikaj&#237;c&#237; fyzick&#225; osoba_Podnikaj&#237;c&#237; fyzick&#225; osoba jako osoba ve vztahu k dokumentu"><path codeLine="139" d="M1437.8003,1212.757 C1365.9403,1230.597 1285.03,1250.69 1213.22,1268.51 " fill="none" id="Podnikaj&#237;c&#237; fyzick&#225; osoba-backto-Podnikaj&#237;c&#237; fyzick&#225; osoba jako osoba ve vztahu k dokumentu" style="stroke:#181818;stroke-width:1.0;"/><polygon fill="none" points="1455.27,1208.42,1436.3546,1206.9338,1439.246,1218.5803,1455.27,1208.42" style="stroke:#181818;stroke-width:1.0;"/></g><!--reverse link Podnikaj?c? fyzick? osoba jako osoba ve vztahu k dokumentu to Podnikaj?c? fyzick? osoba zapsan? v obchodn?m rejst??ku jako osoba ve vztahu k dokumentu--><g id="link_Podnikaj&#237;c&#237; fyzick&#225; osoba jako osoba ve vztahu k dokumentu_Podnikaj&#237;c&#237; fyzick&#225; osoba zapsan&#225; v obchodn&#237;m rejst&#345;&#237;ku jako osoba ve vztahu k dokumentu"><path codeLine="140" d="M1022.596,1322.5485 C962.576,1340.3885 897.65,1359.69 837.68,1377.51 " fill="none" id="Podnikaj&#237;c&#237; fyzick&#225; osoba jako osoba ve vztahu k dokumentu-backto-Podnikaj&#237;c&#237; fyzick&#225; osoba zapsan&#225; v obchodn&#237;m rejst&#345;&#237;ku jako osoba ve vztahu k dokumentu" style="stroke:#181818;stroke-width:1.0;"/><polygon fill="none" points="1039.85,1317.42,1020.8866,1316.7971,1024.3055,1328.2998,1039.85,1317.42" style="stroke:#181818;stroke-width:1.0;"/></g><!--reverse link Podnikaj?c? fyzick? osoba jako osoba ve vztahu k dokumentu to Podnikaj?c? fyzick? osoba nezapsan? v obchodn?m rejst??ku jako osoba ve vztahu k dokumentu--><g id="link_Podnikaj&#237;c&#237; fyzick&#225; osoba jako osoba ve vztahu k dokumentu_Podnikaj&#237;c&#237; fyzick&#225; osoba nezapsan&#225; v obchodn&#237;m rejst&#345;&#237;ku jako osoba ve vztahu k dokumentu"><path codeLine="141" d="M1215.114,1322.5485 C1275.134,1340.3885 1340.06,1359.69 1400.04,1377.51 " fill="none" id="Podnikaj&#237;c&#237; fyzick&#225; osoba jako osoba ve vztahu k dokumentu-backto-Podnikaj&#237;c&#237; fyzick&#225; osoba nezapsan&#225; v obchodn&#237;m rejst&#345;&#237;ku jako osoba ve vztahu k dokumentu" style="stroke:#181818;stroke-width:1.0;"/><polygon fill="none" points="1197.86,1317.42,1213.4045,1328.2998,1216.8234,1316.7971,1197.86,1317.42" style="stroke:#181818;stroke-width:1.0;"/></g><!--reverse link Fyzick? osoba?? to Fyzick? osoba identifikovan? skrz eIDAS jako osoba ve vztahu k dokumentu--><g id="link_Fyzick&#225; osoba&#8203;&#8203;_Fyzick&#225; osoba identifikovan&#225; skrz eIDAS jako osoba ve vztahu k dokumentu"><path codeLine="142" d="M2654.3126,468.9927 C2692.0826,581.4127 2749.28,751.63 2771.11,816.6 " fill="none" id="Fyzick&#225; osoba&#8203;&#8203;-backto-Fyzick&#225; osoba identifikovan&#225; skrz eIDAS jako osoba ve vztahu k dokumentu" style="stroke:#181818;stroke-width:1.0;"/><polygon fill="none" points="2648.58,451.93,2648.625,470.9036,2660.0002,467.0819,2648.58,451.93" style="stroke:#181818;stroke-width:1.0;"/></g><!--reverse link Osoba ve vztahu k dokumentu to Fyzick? osoba identifikovan? skrz eIDAS jako osoba ve vztahu k dokumentu--><g id="link_Osoba ve vztahu k dokumentu_Fyzick&#225; osoba identifikovan&#225; skrz eIDAS jako osoba ve vztahu k dokumentu"><path codeLine="143" d="M1307.5221,657.3585 C1364.3021,680.7585 1440.16,708.42 1523.86,723.35 C1749.07,763.51 2328.52,708.58 2552.86,753.35 C2617.11,766.17 2686.98,795.41 2731.76,816.3 " fill="none" id="Osoba ve vztahu k dokumentu-backto-Fyzick&#225; osoba identifikovan&#225; skrz eIDAS jako osoba ve vztahu k dokumentu" style="stroke:#181818;stroke-width:1.0;"/><polygon fill="none" points="1290.88,650.5,1305.236,662.9059,1309.8083,651.8111,1290.88,650.5" style="stroke:#181818;stroke-width:1.0;"/></g><!--reverse link Pr?vnick? osoba? to Pr?vnick? osoba identifikovan? skrz eIDAS jako osoba ve vztahu k dokumentu--><g id="link_Pr&#225;vnick&#225; osoba&#8203;_Pr&#225;vnick&#225; osoba identifikovan&#225; skrz eIDAS jako osoba ve vztahu k dokumentu"><path codeLine="144" d="M497.0864,741.4799 C502.2664,775.9299 504.98,793.94 508.37,816.49 " fill="none" id="Pr&#225;vnick&#225; osoba&#8203;-backto-Pr&#225;vnick&#225; osoba identifikovan&#225; skrz eIDAS jako osoba ve vztahu k dokumentu" style="stroke:#181818;stroke-width:1.0;"/><polygon fill="none" points="494.41,723.68,491.1531,742.3721,503.0197,740.5878,494.41,723.68" style="stroke:#181818;stroke-width:1.0;"/></g><!--reverse link Osoba ve vztahu k dokumentu to Pr?vnick? osoba identifikovan? skrz eIDAS jako osoba ve vztahu k dokumentu--><g id="link_Osoba ve vztahu k dokumentu_Pr&#225;vnick&#225; osoba identifikovan&#225; skrz eIDAS jako osoba ve vztahu k dokumentu"><path codeLine="145" d="M1197.8207,661.7995 C1171.1507,684.6095 1140.6,706.73 1095.86,723.35 C983.92,764.92 946.15,730.93 828.86,753.35 C744.26,769.51 649.17,796.63 585.4,816.16 " fill="none" id="Osoba ve vztahu k dokumentu-backto-Pr&#225;vnick&#225; osoba identifikovan&#225; skrz eIDAS jako osoba ve vztahu k dokumentu" style="stroke:#181818;stroke-width:1.0;"/><polygon fill="none" points="1211.5,650.1,1193.9209,657.2397,1201.7205,666.3592,1211.5,650.1" style="stroke:#181818;stroke-width:1.0;"/></g><!--link M?sto to adresa--><g id="link_M&#237;sto_adresa"><path codeLine="146" d="M996.73,71.56 C1028.79,95.06 1071.93,126.66 1100.98,147.95 " fill="none" id="M&#237;sto-adresa" style="stroke:#181818;stroke-width:1.0;"/><text fill="#000000" font-family="sans-serif" font-size="13" lengthAdjust="spacing" textLength="69.3354" x="1059.86" y="114.3669">m&#225; adresu</text><text fill="#000000" font-family="sans-serif" font-size="13" lengthAdjust="spacing" textLength="24.8066" x="1066.384" y="137.2696">1..1</text></g><!--link M?sto to Zahrani?n? adresa--><g id="link_M&#237;sto_Zahrani&#269;n&#237; adresa"><path codeLine="147" d="M814.87,71.57 C796.29,79.4 778.34,89.16 762.86,101.3 C747.48,113.35 736.25,132.55 729.12,147.8 " fill="none" id="M&#237;sto-Zahrani&#269;n&#237; adresa" style="stroke:#181818;stroke-width:1.0;"/><text fill="#000000" font-family="sans-serif" font-size="13" lengthAdjust="spacing" textLength="140.6577" x="763.86" y="114.3669">m&#225; zahrani&#269;n&#237; adresu</text><text fill="#000000" font-family="sans-serif" font-size="13" lengthAdjust="spacing" textLength="24.8066" x="704.5506" y="137.0831">1..1</text></g><!--link adresa to adresn? m?sto--><g id="link_adresa_adresn&#237; m&#237;sto"><path codeLine="148" d="M1134.6,196.75 C1137.1,230.35 1141.71,292.27 1144.5,329.88 " fill="none" id="adresa-adresn&#237; m&#237;sto" style="stroke:#181818;stroke-width:1.0;"/><text fill="#000000" font-family="sans-serif" font-size="13" lengthAdjust="spacing" textLength="69.3354" x="1137.86" y="239.3669">m&#225; adresu&#8203;</text><text fill="#000000" font-family="sans-serif" font-size="13" lengthAdjust="spacing" textLength="24.8066" x="1117.8401" y="319.3139">1..1</text></g><!--link adresn? m?sto to Osoba--><g id="link_adresn&#237; m&#237;sto_Osoba"><path codeLine="149" d="M1151.17,394.93 C1153.57,423.83 1153.05,466.87 1134.86,498.67 C1132.85,502.18 1054.55,557.37 1002.78,593.63 " fill="none" id="adresn&#237; m&#237;sto-Osoba" style="stroke:#181818;stroke-width:1.0;"/><text fill="#000000" font-family="sans-serif" font-size="13" lengthAdjust="spacing" textLength="144.9932" x="1142.86" y="494.7369">M&#225; adresu s&#237;dla osoby</text></g><!--link Fyzick? osoba to Datov? schr?nka--><g id="link_Fyzick&#225; osoba_Datov&#225; schr&#225;nka"><path codeLine="150" d="M2309.86,650.17 C2309.86,688.49 2309.86,765.12 2309.86,808.26 " fill="none" id="Fyzick&#225; osoba-Datov&#225; schr&#225;nka" style="stroke:#181818;stroke-width:1.0;"/><text fill="#000000" font-family="sans-serif" font-size="13" lengthAdjust="spacing" textLength="233.7969" x="2310.86" y="766.4169">m&#225; datovou schr&#225;nku fyzick&#233; osoby</text><text fill="#000000" font-family="sans-serif" font-size="13" lengthAdjust="spacing" textLength="24.8066" x="2283.5785" y="797.4889">0..1</text></g><!--link Osoba to Datov? schr?nka--><g id="link_Osoba_Datov&#225; schr&#225;nka"><path codeLine="151" d="M991.77,658.57 C1018.04,680.93 1056.49,709.35 1095.86,723.35 C1534.24,879.18 1679.85,730.64 2139.86,800.35 C2153.78,802.46 2168.26,805.1 2182.63,808 " fill="none" id="Osoba-Datov&#225; schr&#225;nka" style="stroke:#181818;stroke-width:1.0;"/><text fill="#000000" font-family="sans-serif" font-size="13" lengthAdjust="spacing" textLength="182.8379" x="1242.86" y="766.4169">M&#225; datovou schr&#225;nku osoby</text><text fill="#000000" font-family="sans-serif" font-size="13" lengthAdjust="spacing" textLength="24.8066" x="972.0241" y="678.2863">0..1</text><text fill="#000000" font-family="sans-serif" font-size="13" lengthAdjust="spacing" textLength="24.8066" x="2132.1677" y="797.4282">1..1</text></g><!--link Pr?vnick? osoba?? to S?dlo--><g id="link_Pr&#225;vnick&#225; osoba&#8203;&#8203;_S&#237;dlo"><path codeLine="152" d="M468.2,63.6 C485.85,87.47 513.06,124.26 530.66,148.06 " fill="none" id="Pr&#225;vnick&#225; osoba&#8203;&#8203;-S&#237;dlo" style="stroke:#181818;stroke-width:1.0;"/><text fill="#000000" font-family="sans-serif" font-size="13" lengthAdjust="spacing" textLength="164.1885" x="509.86" y="114.3669">M&#225; s&#237;dlo pr&#225;vnick&#233; osoby</text><text fill="#000000" font-family="sans-serif" font-size="13" lengthAdjust="spacing" textLength="23.0356" x="446.5558" y="83.0707">1..*</text><text fill="#000000" font-family="sans-serif" font-size="13" lengthAdjust="spacing" textLength="24.8066" x="499.641" y="137.4065">1..1</text></g><!--link S?dlo to M?sto?--><g id="link_S&#237;dlo_M&#237;sto&#8203;"><path codeLine="153" d="M581.21,192.38 C643.78,228.17 778.18,305.04 841.93,341.51 " fill="none" id="S&#237;dlo-M&#237;sto&#8203;" style="stroke:#181818;stroke-width:1.0;"/><text fill="#000000" font-family="sans-serif" font-size="13" lengthAdjust="spacing" textLength="95.2085" x="664.86" y="239.3669">m&#225; m&#237;sto s&#237;dla</text><text fill="#000000" font-family="sans-serif" font-size="13" lengthAdjust="spacing" textLength="24.8066" x="809.3519" y="333.3381">1..1</text></g><!--link M?sto? to Bydli?t? fyzick? osoby--><g id="link_M&#237;sto&#8203;_Bydli&#353;t&#283; fyzick&#233; osoby"><path codeLine="154" d="M891.61,386.84 C913.08,418.5 956.16,473.91 1008.86,498.67 C1083.32,533.66 1297.57,510.73 1377.86,528.67 C1452.26,545.3 1534.05,578.78 1584.93,601.54 " fill="none" id="M&#237;sto&#8203;-Bydli&#353;t&#283; fyzick&#233; osoby" style="stroke:#181818;stroke-width:1.0;"/><text fill="#000000" font-family="sans-serif" font-size="13" lengthAdjust="spacing" textLength="116.2827" x="1009.86" y="494.7369">m&#225; m&#237;sto bydli&#353;t&#283;</text><text fill="#000000" font-family="sans-serif" font-size="13" lengthAdjust="spacing" textLength="24.8066" x="868.3789" y="406.6865">1..1</text></g><!--link M?sto? to Osoba ve vztahu k dokumentu--><g id="link_M&#237;sto&#8203;_Osoba ve vztahu k dokumentu"><path codeLine="155" d="M864.25,386.96 C850.18,416.73 832.73,467.88 859.86,498.67 C894.8,538.34 1046.43,509.91 1095.86,528.67 C1140.2,545.51 1184.19,578.94 1210.95,601.63 " fill="none" id="M&#237;sto&#8203;-Osoba ve vztahu k dokumentu" style="stroke:#181818;stroke-width:1.0;"/><text fill="#000000" font-family="sans-serif" font-size="13" lengthAdjust="spacing" textLength="111.541" x="860.86" y="494.7369">doru&#269;ovac&#237; m&#237;sto</text><text fill="#000000" font-family="sans-serif" font-size="13" lengthAdjust="spacing" textLength="24.8066" x="834.6525" y="406.4353">0..1</text></g><!--link Fyzick? osoba? to Bydli?t? fyzick? osoby--><g id="link_Fyzick&#225; osoba&#8203;_Bydli&#353;t&#283; fyzick&#233; osoby"><path codeLine="156" d="M1835.2,411.15 C1782.48,467.43 1696.91,558.78 1656.85,601.53 " fill="none" id="Fyzick&#225; osoba&#8203;-Bydli&#353;t&#283; fyzick&#233; osoby" style="stroke:#181818;stroke-width:1.0;"/><text fill="#000000" font-family="sans-serif" font-size="13" lengthAdjust="spacing" textLength="168.3208" x="1764.86" y="494.7369">m&#225; bydli&#353;t&#283; fyzick&#233; osoby</text><text fill="#000000" font-family="sans-serif" font-size="13" lengthAdjust="spacing" textLength="23.0356" x="1804.3057" y="431.1244">1..*</text><text fill="#000000" font-family="sans-serif" font-size="13" lengthAdjust="spacing" textLength="24.8066" x="1635.3835" y="590.818">1..1</text></g><!--SRC=[lLZDZjis4BxhAGYVTWiasUsjYrvIR8ekq6s2x2qtMk96j7ueY9HGAotGOu5Y7s2Rauy-63daLY2zo7wHFab78gbVof9Z9oVBuiptpGo7Cnnn8b280y8ZR9Cx4k4O2nQZa8N4idtCEPhTvXiks0ozin2QOISc7AEGa9GwBCLXla8fUft_VVFybzaLuYAcuLlhTqifA_5tzPlP6-p6EAJRXp3VgFLPI-1dvc6VPc0FYbX4EGaKjwyMf6gvPg2K9XOIGTDmB__e8BtaChc8JVgludoLXjJsm3N6sHmh13QtNUOKmFSq3eogFowpZbu35dIfXnVvnYuWXYLV5cya9NL8AEWzg4cVjmzWjSzAfUKas__xuozbljQDOeRoVxOFn5yY7Z6nUoHpmBPTvC1kRcfKq8d9Mmh_53j6G_Qu392SVBLxv5x-2Q1uCbyGJ-m-eBCNBr_VdBTG5yIX8IaGFjM8-Qh8kwYoVosTHEbIf0niB8IPGtY-yLKC0w3tILWm1e0E090fJPwkjMKAV7jnyTspoulBPo_kneLxvhHKE4ks3vWNHq3b-KHvyEIUsZHV-GKJw6SaRKawUFSdIm6alG4gt7ljDctpzQkVfYQBofTQw1hgGGe2t7P1FFJqQRY5TvtDSqhHTILgpD2xVEFuhCqXAqoFkdsQwansiBzRWQkB85-7J1ybKyJ79QBTOxvP12Iip-Hw-7ZrB6eQ9P80IcdCCYAF4RmX8-dUPZmcrwlSMkkmd9M_-7n8xAnEttFK2CD8Yez7MnD3lMX65vvfApwreYpK0uiHStsSDb_M-_73ql7fRYMsxxjsDHD9LLv1VBLL3BR6MoBRXMxd2HBJB55bUUxdczs_f0H9eCLeHG8TRmvrjse16HmTve1DWlmg3DsXI0o3mMzmnCkUkQV-6xEiTpWg90F000igV8K_2zBqB6ZhokwJ4fHc0hi9yf33l0IsK2ITVjQj7cY1FQOU9-YtlJnGULypFILKfYEPrdiVG5LUS56ajfUSaYmafwRhnBYgFkhYnhquG-Jc-ldTeMxqzlvuQEEzx_lVdZmnNnajcQXIe7zbimQkGeV9ZwWO6fGKxjm3hO76CI1ywF5L1kwxNrhLBLuArntNQbH77MrpZRA62zEOOhTO7KPa3bHDtqg53fKrN7Bt6Z4KR6j_WHp8bV4pO9d6ZYFG9bXvQ06UjYqdCkwu0c-DJ5jVdcD2rPjWn0dwmTSmyoIDwv0YULIx-Pp3SHpVGQteo_jsQahTMWhiowTFBsTwLhWgx_PgT31BcZy7QSMijmWe2ho1qVlYqoOkUqHV201aiAxKE2kb4IycLApcY7xHAtWl9AzXDjRCvIpCacefwGuegcafg8Op0w2tHb1jvE3bfK3zfeMl1t0DMhhB39ykh4gqeTqOrRMhQdgJOQiskM9NtkqPrJf0yqgo0rQ7Qc-INvKZNWo3AsIpNM-uyRxMZyy4G-U38ly3]--></g></svg>