<?xml version="1.0" encoding="UTF-8"?><svg xmlns="http://www.w3.org/2000/svg" xmlns:xlink="http://www.w3.org/1999/xlink" fill-opacity="1" color-rendering="auto" color-interpolation="auto" text-rendering="auto" stroke="black" stroke-linecap="square" width="973" stroke-miterlimit="10" shape-rendering="auto" stroke-opacity="1" fill="black" stroke-dasharray="none" font-weight="normal" stroke-width="1" height="220" font-family="'Dialog'" font-style="normal" stroke-linejoin="miter" font-size="12px" stroke-dashoffset="0" image-rendering="auto">
  <!--Generated by ySVG 2.5-->
  <defs id="genericDefs"/>
  <g>
    <defs id="defs1">
      <clipPath clipPathUnits="userSpaceOnUse" id="clipPath1">
        <path d="M0 0 L973 0 L973 220 L0 220 L0 0 Z"/>
      </clipPath>
      <clipPath clipPathUnits="userSpaceOnUse" id="clipPath2">
        <path d="M-140 118 L833 118 L833 338 L-140 338 L-140 118 Z"/>
      </clipPath>
    </defs>
    <g fill="white" text-rendering="geometricPrecision" shape-rendering="geometricPrecision" transform="translate(140,-118)" stroke="white">
      <rect x="-140" width="973" height="220" y="118" clip-path="url(#clipPath2)" stroke="none"/>
    </g>
    <g text-rendering="geometricPrecision" stroke-miterlimit="1.45" shape-rendering="geometricPrecision" transform="matrix(1,0,0,1,140,-118)" stroke-linecap="butt">
      <rect fill="none" x="664.524" width="168.1664" height="175.6144" y="145.4408" clip-path="url(#clipPath2)"/>
      <text x="670.524" xml:space="preserve" y="158.1601" clip-path="url(#clipPath2)" font-family="'Consolas'" stroke="none">"položky": {</text>
      <text x="670.524" xml:space="preserve" y="170.1601" clip-path="url(#clipPath2)" font-family="'Consolas'" stroke="none">  "type": "array",</text>
      <text x="670.524" xml:space="preserve" y="182.1601" clip-path="url(#clipPath2)" font-family="'Consolas'" stroke="none">  "items": {</text>
      <text x="670.524" xml:space="preserve" y="194.1601" clip-path="url(#clipPath2)" font-family="'Consolas'" stroke="none"> </text>
      <text x="670.524" xml:space="preserve" y="206.1601" clip-path="url(#clipPath2)" font-family="'Consolas'" stroke="none"> </text>
      <text x="670.524" xml:space="preserve" y="218.1601" clip-path="url(#clipPath2)" font-family="'Consolas'" stroke="none"> </text>
      <text x="670.524" xml:space="preserve" y="230.1601" clip-path="url(#clipPath2)" font-family="'Consolas'" stroke="none"> </text>
      <text x="670.524" xml:space="preserve" y="242.1601" clip-path="url(#clipPath2)" font-family="'Consolas'" stroke="none"> </text>
      <text x="670.524" xml:space="preserve" y="254.1601" clip-path="url(#clipPath2)" font-family="'Consolas'" stroke="none"> </text>
      <text x="670.524" xml:space="preserve" y="266.1601" clip-path="url(#clipPath2)" font-family="'Consolas'" stroke="none"> </text>
      <text x="670.524" xml:space="preserve" y="278.1601" clip-path="url(#clipPath2)" font-family="'Consolas'" stroke="none"> </text>
      <text x="670.524" xml:space="preserve" y="290.1601" clip-path="url(#clipPath2)" font-family="'Consolas'" stroke="none"> </text>
      <text x="670.524" xml:space="preserve" y="302.1601" clip-path="url(#clipPath2)" font-family="'Consolas'" stroke="none">  }       </text>
      <text x="670.524" xml:space="preserve" y="314.1601" clip-path="url(#clipPath2)" font-family="'Consolas'" stroke="none">}</text>
      <rect fill="none" x="-139.8391" width="193.1664" height="198.552" y="138.8451" clip-path="url(#clipPath2)"/>
      <text x="-133.8391" xml:space="preserve" y="151.0332" clip-path="url(#clipPath2)" font-family="'Consolas'" stroke="none">"položky": {</text>
      <text x="-133.8391" xml:space="preserve" y="163.0332" clip-path="url(#clipPath2)" font-family="'Consolas'" stroke="none">  "type": "array",</text>
      <text x="-133.8391" xml:space="preserve" y="175.0332" clip-path="url(#clipPath2)" font-family="'Consolas'" stroke="none">  "items": {</text>
      <text x="-133.8391" xml:space="preserve" y="187.0332" clip-path="url(#clipPath2)" font-family="'Consolas'" stroke="none"> </text>
      <text x="-133.8391" xml:space="preserve" y="199.0332" clip-path="url(#clipPath2)" font-family="'Consolas'" stroke="none"> </text>
      <text x="-133.8391" xml:space="preserve" y="211.0332" clip-path="url(#clipPath2)" font-family="'Consolas'" stroke="none"> </text>
      <text x="-133.8391" xml:space="preserve" y="223.0332" clip-path="url(#clipPath2)" font-family="'Consolas'" stroke="none"> </text>
      <text x="-133.8391" xml:space="preserve" y="235.0332" clip-path="url(#clipPath2)" font-family="'Consolas'" stroke="none"> </text>
      <text x="-133.8391" xml:space="preserve" y="247.0332" clip-path="url(#clipPath2)" font-family="'Consolas'" stroke="none"> </text>
      <text x="-133.8391" xml:space="preserve" y="259.0332" clip-path="url(#clipPath2)" font-family="'Consolas'" stroke="none"> </text>
      <text x="-133.8391" xml:space="preserve" y="271.0332" clip-path="url(#clipPath2)" font-family="'Consolas'" stroke="none"> </text>
      <text x="-133.8391" xml:space="preserve" y="283.0332" clip-path="url(#clipPath2)" font-family="'Consolas'" stroke="none"> </text>
      <text x="-133.8391" xml:space="preserve" y="295.0332" clip-path="url(#clipPath2)" font-family="'Consolas'" stroke="none"> </text>
      <text x="-133.8391" xml:space="preserve" y="307.0332" clip-path="url(#clipPath2)" font-family="'Consolas'" stroke="none"> </text>
      <text x="-133.8391" xml:space="preserve" y="319.0332" clip-path="url(#clipPath2)" font-family="'Consolas'" stroke="none">  }       </text>
      <text x="-133.8391" xml:space="preserve" y="331.0332" clip-path="url(#clipPath2)" font-family="'Consolas'" stroke="none">}</text>
    </g>
    <g fill="rgb(153,204,255)" text-rendering="geometricPrecision" shape-rendering="geometricPrecision" transform="matrix(1,0,0,1,140,-118)" stroke="rgb(153,204,255)">
      <rect x="-113.8951" width="159.44" height="124.48" y="178.3761" clip-path="url(#clipPath2)" stroke="none"/>
    </g>
    <g text-rendering="geometricPrecision" stroke-miterlimit="1.45" shape-rendering="geometricPrecision" transform="matrix(1,0,0,1,140,-118)" stroke-linecap="butt">
      <rect fill="none" x="-113.8951" width="159.44" height="124.48" y="178.3761" clip-path="url(#clipPath2)"/>
      <text x="-107.8951" xml:space="preserve" y="189.5282" clip-path="url(#clipPath2)" font-family="'Consolas'" stroke="none">"type": "object",</text>
      <text x="-107.8951" xml:space="preserve" y="201.5282" clip-path="url(#clipPath2)" font-family="'Consolas'" stroke="none">"properties": {</text>
      <text x="-107.8951" xml:space="preserve" y="213.5282" clip-path="url(#clipPath2)" font-family="'Consolas'" stroke="none">      </text>
      <text x="-107.8951" xml:space="preserve" y="225.5282" clip-path="url(#clipPath2)" font-family="'Consolas'" stroke="none"> </text>
      <text x="-107.8951" xml:space="preserve" y="237.5282" clip-path="url(#clipPath2)" font-family="'Consolas'" stroke="none"> </text>
      <text x="-107.8951" xml:space="preserve" y="249.5282" clip-path="url(#clipPath2)" font-family="'Consolas'" stroke="none"> </text>
      <text x="-107.8951" xml:space="preserve" y="261.5282" clip-path="url(#clipPath2)" font-family="'Consolas'" stroke="none"> </text>
      <text x="-107.8951" xml:space="preserve" y="273.5282" clip-path="url(#clipPath2)" font-family="'Consolas'" stroke="none"> </text>
      <text x="-107.8951" xml:space="preserve" y="285.5282" clip-path="url(#clipPath2)" font-family="'Consolas'" stroke="none"> </text>
      <text x="-107.8951" xml:space="preserve" y="297.5282" clip-path="url(#clipPath2)" font-family="'Consolas'" stroke="none">}</text>
    </g>
    <g fill="rgb(102,204,255)" text-rendering="geometricPrecision" shape-rendering="geometricPrecision" transform="matrix(1,0,0,1,140,-118)" stroke="rgb(102,204,255)">
      <rect x="-97.4551" width="130" height="18" y="209.2851" clip-path="url(#clipPath2)" stroke="none"/>
    </g>
    <g text-rendering="geometricPrecision" stroke-miterlimit="1.45" shape-rendering="geometricPrecision" transform="matrix(1,0,0,1,140,-118)" stroke-linecap="butt">
      <rect fill="none" x="-97.4551" width="130" height="18" y="209.2851" clip-path="url(#clipPath2)"/>
      <text x="-91.4551" xml:space="preserve" y="221.1972" clip-path="url(#clipPath2)" font-family="'Consolas'" stroke="none">"název": {},</text>
    </g>
    <g fill="rgb(204,255,204)" text-rendering="geometricPrecision" shape-rendering="geometricPrecision" transform="matrix(1,0,0,1,140,-118)" stroke="rgb(204,255,204)">
      <rect x="156.1177" width="80" height="20" y="178.2851" clip-path="url(#clipPath2)" stroke="none"/>
    </g>
    <g text-rendering="geometricPrecision" stroke-miterlimit="1.45" shape-rendering="geometricPrecision" transform="matrix(1,0,0,1,140,-118)" stroke-linecap="butt">
      <rect fill="none" x="156.1177" width="80" height="20" y="178.2851" clip-path="url(#clipPath2)"/>
      <text x="175.4312" xml:space="preserve" y="192.999" clip-path="url(#clipPath2)" font-family="sans-serif" stroke="none">Agenda</text>
    </g>
    <g fill="rgb(204,255,204)" text-rendering="geometricPrecision" shape-rendering="geometricPrecision" transform="matrix(1,0,0,1,140,-118)" stroke="rgb(204,255,204)">
      <rect x="75.5449" width="105.768" height="20" y="240.1557" clip-path="url(#clipPath2)" stroke="none"/>
    </g>
    <g text-rendering="geometricPrecision" stroke-miterlimit="1.45" shape-rendering="geometricPrecision" transform="matrix(1,0,0,1,140,-118)" stroke-linecap="butt">
      <rect fill="none" x="75.5449" width="105.768" height="20" y="240.1557" clip-path="url(#clipPath2)"/>
      <text x="87.4015" xml:space="preserve" y="254.8696" clip-path="url(#clipPath2)" font-family="sans-serif" stroke="none">Má kód agendy</text>
    </g>
    <g fill="rgb(204,255,204)" text-rendering="geometricPrecision" shape-rendering="geometricPrecision" transform="matrix(1,0,0,1,140,-118)" stroke="rgb(204,255,204)">
      <rect x="389.485" width="114.0787" height="20" y="178.2851" clip-path="url(#clipPath2)" stroke="none"/>
    </g>
    <g text-rendering="geometricPrecision" stroke-miterlimit="1.45" shape-rendering="geometricPrecision" transform="matrix(1,0,0,1,140,-118)" stroke-linecap="butt">
      <rect fill="none" x="389.485" width="114.0787" height="20" y="178.2851" clip-path="url(#clipPath2)"/>
      <text x="394.1679" xml:space="preserve" y="192.999" clip-path="url(#clipPath2)" font-family="sans-serif" stroke="none">Orgán veřejné moci</text>
    </g>
    <g fill="rgb(204,255,204)" text-rendering="geometricPrecision" shape-rendering="geometricPrecision" transform="matrix(1,0,0,1,140,-118)" stroke="rgb(204,255,204)">
      <rect x="259.9173" width="105.768" height="20" y="178.2851" clip-path="url(#clipPath2)" stroke="none"/>
    </g>
    <g text-rendering="geometricPrecision" stroke-miterlimit="1.45" shape-rendering="geometricPrecision" transform="matrix(1,0,0,1,140,-118)" stroke-linecap="butt">
      <rect fill="none" x="259.9173" width="105.768" height="20" y="178.2851" clip-path="url(#clipPath2)"/>
      <text x="267.4322" xml:space="preserve" y="192.999" clip-path="url(#clipPath2)" font-family="sans-serif" stroke="none">Ohlašuje agendu</text>
    </g>
    <g fill="rgb(204,255,204)" text-rendering="geometricPrecision" shape-rendering="geometricPrecision" transform="matrix(1,0,0,1,140,-118)" stroke="rgb(204,255,204)">
      <rect x="75.5449" width="105.768" height="20" y="208.2851" clip-path="url(#clipPath2)" stroke="none"/>
    </g>
    <g text-rendering="geometricPrecision" stroke-miterlimit="1.45" shape-rendering="geometricPrecision" transform="matrix(1,0,0,1,140,-118)" stroke-linecap="butt">
      <rect fill="none" x="75.5449" width="105.768" height="20" y="208.2851" clip-path="url(#clipPath2)"/>
      <text x="81.0646" xml:space="preserve" y="222.999" clip-path="url(#clipPath2)" font-family="sans-serif" stroke="none">Má název agendy</text>
      <rect fill="none" x="-139.8391" width="117.552" height="20" y="118.8451" clip-path="url(#clipPath2)"/>
      <text x="-136.0973" xml:space="preserve" y="133.559" clip-path="url(#clipPath2)" font-family="sans-serif" stroke="none">agendy.schema.json</text>
    </g>
    <g fill="rgb(204,255,204)" text-rendering="geometricPrecision" shape-rendering="geometricPrecision" transform="matrix(1,0,0,1,140,-118)" stroke="rgb(204,255,204)">
      <rect x="471.724" width="173.8" height="20" y="252.8618" clip-path="url(#clipPath2)" stroke="none"/>
    </g>
    <g text-rendering="geometricPrecision" stroke-miterlimit="1.45" shape-rendering="geometricPrecision" transform="matrix(1,0,0,1,140,-118)" stroke-linecap="butt">
      <rect fill="none" x="471.724" width="173.8" height="20" y="252.8618" clip-path="url(#clipPath2)"/>
      <text x="476.581" xml:space="preserve" y="267.5757" clip-path="url(#clipPath2)" font-family="sans-serif" stroke="none">Má název orgánu veřejné moci</text>
    </g>
    <g fill="rgb(204,255,204)" text-rendering="geometricPrecision" shape-rendering="geometricPrecision" transform="matrix(1,0,0,1,140,-118)" stroke="rgb(204,255,204)">
      <rect x="468.7891" width="176.7348" height="34.4" y="208.3735" clip-path="url(#clipPath2)" stroke="none"/>
    </g>
    <g text-rendering="geometricPrecision" stroke-miterlimit="1.45" shape-rendering="geometricPrecision" transform="matrix(1,0,0,1,140,-118)" stroke-linecap="butt">
      <rect fill="none" x="468.7891" width="176.7348" height="34.4" y="208.3735" clip-path="url(#clipPath2)"/>
      <text x="483.7884" xml:space="preserve" y="222.9368" clip-path="url(#clipPath2)" font-family="sans-serif" stroke="none">Má identifikační číslo osoby</text>
      <text x="502.7933" xml:space="preserve" y="237.6379" clip-path="url(#clipPath2)" font-family="sans-serif" stroke="none">orgánu veřejné moci</text>
    </g>
    <g fill="rgb(102,204,255)" text-rendering="geometricPrecision" shape-rendering="geometricPrecision" transform="matrix(1,0,0,1,140,-118)" stroke="rgb(102,204,255)">
      <rect x="-97.4551" width="130" height="18" y="237.7601" clip-path="url(#clipPath2)" stroke="none"/>
    </g>
    <g text-rendering="geometricPrecision" stroke-miterlimit="1.45" shape-rendering="geometricPrecision" transform="matrix(1,0,0,1,140,-118)" stroke-linecap="butt">
      <rect fill="none" x="-97.4551" width="130" height="18" y="237.7601" clip-path="url(#clipPath2)"/>
      <text x="-91.4551" xml:space="preserve" y="249.6722" clip-path="url(#clipPath2)" font-family="'Consolas'" stroke="none">"kód": {},</text>
    </g>
    <g fill="rgb(102,204,255)" text-rendering="geometricPrecision" shape-rendering="geometricPrecision" transform="matrix(1,0,0,1,140,-118)" stroke="rgb(102,204,255)">
      <rect x="-97.4551" width="130" height="18" y="266.2351" clip-path="url(#clipPath2)" stroke="none"/>
    </g>
    <g text-rendering="geometricPrecision" stroke-miterlimit="1.45" shape-rendering="geometricPrecision" transform="matrix(1,0,0,1,140,-118)" stroke-linecap="butt">
      <rect fill="none" x="-97.4551" width="130" height="18" y="266.2351" clip-path="url(#clipPath2)"/>
      <text x="-91.4551" xml:space="preserve" y="278.1472" clip-path="url(#clipPath2)" font-family="'Consolas'" stroke="none">"ohlašovatel": {}</text>
    </g>
    <g fill="rgb(153,204,255)" text-rendering="geometricPrecision" shape-rendering="geometricPrecision" transform="matrix(1,0,0,1,140,-118)" stroke="rgb(153,204,255)">
      <rect x="690.468" width="136.44" height="103.0541" y="184.9718" clip-path="url(#clipPath2)" stroke="none"/>
    </g>
    <g text-rendering="geometricPrecision" stroke-miterlimit="1.45" shape-rendering="geometricPrecision" transform="matrix(1,0,0,1,140,-118)" stroke-linecap="butt">
      <rect fill="none" x="690.468" width="136.44" height="103.0541" y="184.9718" clip-path="url(#clipPath2)"/>
      <text x="696.468" xml:space="preserve" y="197.4109" clip-path="url(#clipPath2)" font-family="'Consolas'" stroke="none">"type": "object",</text>
      <text x="696.468" xml:space="preserve" y="209.4109" clip-path="url(#clipPath2)" font-family="'Consolas'" stroke="none">"properties": {</text>
      <text x="696.468" xml:space="preserve" y="221.4109" clip-path="url(#clipPath2)" font-family="'Consolas'" stroke="none">      </text>
      <text x="696.468" xml:space="preserve" y="233.4109" clip-path="url(#clipPath2)" font-family="'Consolas'" stroke="none"> </text>
      <text x="696.468" xml:space="preserve" y="245.4109" clip-path="url(#clipPath2)" font-family="'Consolas'" stroke="none"> </text>
      <text x="696.468" xml:space="preserve" y="257.4109" clip-path="url(#clipPath2)" font-family="'Consolas'" stroke="none"> </text>
      <text x="696.468" xml:space="preserve" y="269.4109" clip-path="url(#clipPath2)" font-family="'Consolas'" stroke="none"> </text>
      <text x="696.468" xml:space="preserve" y="281.4109" clip-path="url(#clipPath2)" font-family="'Consolas'" stroke="none">}</text>
    </g>
    <g fill="rgb(102,204,255)" text-rendering="geometricPrecision" shape-rendering="geometricPrecision" transform="matrix(1,0,0,1,140,-118)" stroke="rgb(102,204,255)">
      <rect x="706.908" width="114.0787" height="18" y="217.0342" clip-path="url(#clipPath2)" stroke="none"/>
    </g>
    <g text-rendering="geometricPrecision" stroke-miterlimit="1.45" shape-rendering="geometricPrecision" transform="matrix(1,0,0,1,140,-118)" stroke-linecap="butt">
      <rect fill="none" x="706.908" width="114.0787" height="18" y="217.0342" clip-path="url(#clipPath2)"/>
      <text x="712.908" xml:space="preserve" y="228.9463" clip-path="url(#clipPath2)" font-family="'Consolas'" stroke="none">"název": {},</text>
      <rect fill="none" x="664.524" width="117.552" height="20" y="125.4408" clip-path="url(#clipPath2)"/>
      <text x="676.6154" xml:space="preserve" y="140.1546" clip-path="url(#clipPath2)" font-family="sans-serif" stroke="none">ovm.schema.json</text>
    </g>
    <g fill="rgb(102,204,255)" text-rendering="geometricPrecision" shape-rendering="geometricPrecision" transform="matrix(1,0,0,1,140,-118)" stroke="rgb(102,204,255)">
      <rect x="706.908" width="114.0787" height="18" y="245.5092" clip-path="url(#clipPath2)" stroke="none"/>
    </g>
    <g text-rendering="geometricPrecision" stroke-miterlimit="1.45" shape-rendering="geometricPrecision" transform="matrix(1,0,0,1,140,-118)" stroke-linecap="butt">
      <rect fill="none" x="706.908" width="114.0787" height="18" y="245.5092" clip-path="url(#clipPath2)"/>
      <text x="712.908" xml:space="preserve" y="257.4213" clip-path="url(#clipPath2)" font-family="'Consolas'" stroke="none">"ičo": {}</text>
      <path fill="none" stroke-dasharray="6,2" d="M45.5644 190.5591 L156.1177 188.8893" clip-path="url(#clipPath2)"/>
      <path fill="none" d="M196.1177 198.2851 L196.1177 250.1557 L189.3129 250.1557" clip-path="url(#clipPath2)"/>
      <path d="M181.3129 250.1557 L193.3129 255.1557 L190.3129 250.1557 L193.3129 245.1557 Z" clip-path="url(#clipPath2)" stroke="none"/>
      <path fill="none" d="M259.9174 188.2851 L244.1177 188.2851" clip-path="url(#clipPath2)"/>
      <path d="M236.1177 188.2851 L248.1177 193.2851 L245.1177 188.2851 L248.1177 183.2851 Z" clip-path="url(#clipPath2)" stroke="none"/>
      <path fill="none" d="M365.6854 188.2851 L381.485 188.2851" clip-path="url(#clipPath2)"/>
      <path d="M389.485 188.2851 L377.485 183.2851 L380.485 188.2851 L377.485 193.2851 Z" clip-path="url(#clipPath2)" stroke="none"/>
      <path fill="none" d="M196.1177 198.2851 L196.1177 218.2851 L189.3129 218.2851" clip-path="url(#clipPath2)"/>
      <path d="M181.3129 218.2851 L193.3129 223.2851 L190.3129 218.2851 L193.3129 213.2851 Z" clip-path="url(#clipPath2)" stroke="none"/>
      <path fill="none" stroke-dasharray="6,2" d="M32.5449 218.2851 L75.5449 218.2851" clip-path="url(#clipPath2)"/>
      <path fill="none" d="M446.5244 198.2851 L446.5244 262.8618 L463.724 262.8618" clip-path="url(#clipPath2)"/>
      <path d="M471.724 262.8618 L459.724 257.8618 L462.724 262.8618 L459.724 267.8618 Z" clip-path="url(#clipPath2)" stroke="none"/>
      <path fill="none" d="M446.5244 198.2851 L446.5244 225.5735 L460.7891 225.5735" clip-path="url(#clipPath2)"/>
      <path d="M468.7891 225.5735 L456.7891 220.5735 L459.7891 225.5735 L456.7891 230.5735 Z" clip-path="url(#clipPath2)" stroke="none"/>
      <path fill="none" stroke-dasharray="6,2" d="M32.5449 248.132 L75.5449 249.0395" clip-path="url(#clipPath2)"/>
      <path fill="none" stroke-dasharray="6,2" d="M32.5449 276.4768 L312.8014 281.8307 L312.8014 198.2851" clip-path="url(#clipPath2)"/>
      <path fill="none" stroke-dasharray="6,2" d="M690.4501 202.8389 L503.5638 191.6884" clip-path="url(#clipPath2)"/>
      <path fill="none" stroke-dasharray="6,2" d="M706.878 226.034 L645.524 225.5735" clip-path="url(#clipPath2)"/>
      <path fill="none" stroke-dasharray="6,2" d="M706.878 254.5133 L645.524 262.8618" clip-path="url(#clipPath2)"/>
    </g>
  </g>
</svg>
