<svg xmlns="http://www.w3.org/2000/svg" xmlns:xlink="http://www.w3.org/1999/xlink" contentStyleType="text/css" data-diagram-type="CLASS" height="116px" preserveAspectRatio="none" style="width:377px;height:116px;background:#FFFFFF;" version="1.1" viewBox="0 0 377 116" width="377px" zoomAndPan="magnify"><?plantuml 1.2026.4beta2?><defs/><g><!--class Identifik?tor specifick?ho omezen?--><g class="entity" data-qualified-name="Identifik.tor specifick.ho omezen." data-source-line="2" id="ent0002"><rect fill="#F1F1F1" height="96.8906" rx="2.5" ry="2.5" style="stroke:#181818;stroke-width:0.5;" width="357.3994" x="7" y="7"/><ellipse cx="61.103" cy="23" fill="#ADD1B2" rx="11" ry="11" style="stroke:#181818;stroke-width:1;"/><path d="M64.0718,28.6406 Q63.4937,28.9375 62.853,29.0781 Q62.2124,29.2344 61.5093,29.2344 Q59.0093,29.2344 57.6812,27.5938 Q56.3687,25.9375 56.3687,22.8125 Q56.3687,19.6875 57.6812,18.0313 Q59.0093,16.375 61.5093,16.375 Q62.2124,16.375 62.853,16.5313 Q63.5093,16.6875 64.0718,16.9844 L64.0718,19.7031 Q63.4468,19.125 62.853,18.8594 Q62.2593,18.5781 61.6343,18.5781 Q60.2905,18.5781 59.603,19.6563 Q58.9155,20.7188 58.9155,22.8125 Q58.9155,24.9063 59.603,25.9844 Q60.2905,27.0469 61.6343,27.0469 Q62.2593,27.0469 62.853,26.7813 Q63.4468,26.5 64.0718,25.9219 L64.0718,28.6406 Z " fill="#000000"/><text fill="#000000" font-family="sans-serif" font-size="14" lengthAdjust="spacing" textLength="240.6934" x="81.603" y="27.8467">Identifik&#225;tor specifick&#233;ho omezen&#237;</text><line style="stroke:#181818;stroke-width:0.5;" x1="8" x2="363.3994" y1="39" y2="39"/><text fill="#000000" font-family="sans-serif" font-size="14" lengthAdjust="spacing" textLength="341.5713" x="13" y="55.9951">"k&#243;d identifik&#225;toru specifick&#233;ho omezen&#237;": string</text><text fill="#000000" font-family="sans-serif" font-size="14" lengthAdjust="spacing" textLength="345.3994" x="13" y="72.292">"n&#225;zev identifik&#225;toru specifick&#233;ho omezen&#237;": text</text><text fill="#000000" font-family="sans-serif" font-size="14" lengthAdjust="spacing" textLength="341.2227" x="13" y="88.5889">"popis identifik&#225;toru specifick&#233;ho omezen&#237;": text</text><line style="stroke:#181818;stroke-width:0.5;" x1="8" x2="363.3994" y1="95.8906" y2="95.8906"/></g><?plantuml-src bSkn3G8n34RX_gQmCWORK3E1bVi1AvmJnGQXGmnp9SLLZ93582K54fHFJv_1INc25OxOeN1bpvKqAuPuOZCAsn7gifVKbhwi8BuhflOuPieJPcXR0zq6ef3QSoJv0ETlOaFcLVJGdRPbnkLtwRXwToKNiJ_P_GK0?></g></svg>