<svg xmlns="http://www.w3.org/2000/svg" xmlns:xlink="http://www.w3.org/1999/xlink" xmlns:lucid="lucid" width="1164.57" height="988"><g transform="translate(-39.99999999999997 -40)" lucid:page-tab-id="0_0"><path d="M0 0h1760v1040H0z" fill="#f2f2f2"/><path d="M540 300h201.82v276H540z" stroke="#2ba9e0" stroke-width="2" fill="#fff"/><path d="M540 333.84h201.82M540 531h201.82" stroke="#2ba9e0" stroke-width="2" fill="none"/><use xlink:href="#a" transform="matrix(1,0,0,1,548,308) translate(30.65478515625 13.9658203125)"/><use xlink:href="#b" transform="matrix(1,0,0,1,548,308) translate(107.69091796875 13.9658203125)"/><use xlink:href="#c" transform="matrix(1,0,0,1,552,341.841796875) translate(0 33.51953125)"/><use xlink:href="#d" transform="matrix(1,0,0,1,552,341.841796875) translate(17.0068359375 33.51953125)"/><use xlink:href="#c" transform="matrix(1,0,0,1,552,341.841796875) translate(0 51.361328125)"/><use xlink:href="#e" transform="matrix(1,0,0,1,552,341.841796875) translate(17.0068359375 51.361328125)"/><use xlink:href="#c" transform="matrix(1,0,0,1,552,341.841796875) translate(0 69.203125)"/><use xlink:href="#f" transform="matrix(1,0,0,1,552,341.841796875) translate(17.0068359375 69.203125)"/><use xlink:href="#c" transform="matrix(1,0,0,1,552,341.841796875) translate(0 87.044921875)"/><use xlink:href="#g" transform="matrix(1,0,0,1,552,341.841796875) translate(17.0068359375 87.044921875)"/><use xlink:href="#c" transform="matrix(1,0,0,1,552,341.841796875) translate(0 104.88671875)"/><use xlink:href="#h" transform="matrix(1,0,0,1,552,341.841796875) translate(17.0068359375 104.88671875)"/><use xlink:href="#c" transform="matrix(1,0,0,1,552,341.841796875) translate(0 122.728515625)"/><use xlink:href="#i" transform="matrix(1,0,0,1,552,341.841796875) translate(17.0068359375 122.728515625)"/><use xlink:href="#j" transform="matrix(1,0,0,1,552,341.841796875) translate(80.1650390625 122.728515625)"/><use xlink:href="#k" transform="matrix(1,0,0,1,552,341.841796875) translate(111.8759765625 122.728515625)"/><use xlink:href="#l" transform="matrix(1,0,0,1,552,341.841796875) translate(0 140.5703125)"/><use xlink:href="#m" transform="matrix(1,0,0,1,552,341.841796875) translate(17.0068359375 140.5703125)"/><use xlink:href="#n" transform="matrix(1,0,0,1,552,341.841796875) translate(80.1650390625 140.5703125)"/><use xlink:href="#l" transform="matrix(1,0,0,1,552,341.841796875) translate(0 158.412109375)"/><use xlink:href="#o" transform="matrix(1,0,0,1,552,341.841796875) translate(17.0068359375 158.412109375)"/><use xlink:href="#p" transform="matrix(1,0,0,1,552,341.841796875) translate(69.275390625 158.412109375)"/><use xlink:href="#q" transform="matrix(1,0,0,1,552,341.841796875) translate(122.0185546875 158.412109375)"/><path d="M980 560h201.82v136H980z" stroke="#2ba9e0" stroke-width="2" fill="#fff"/><path d="M980 593.84h201.82M980 644.96h201.82" stroke="#2ba9e0" stroke-width="2" fill="none"/><use xlink:href="#r" transform="matrix(1,0,0,1,988,568) translate(16.95703125 13.9658203125)"/><use xlink:href="#s" transform="matrix(1,0,0,1,988,568) translate(85.8984375 13.9658203125)"/><use xlink:href="#t" transform="matrix(1,0,0,1,992,601.841796875) translate(0 22.9658203125)"/><path d="M380 60h201.82v175H380z" stroke="#2ba9e0" stroke-width="2" fill="#fff"/><path d="M380 93.84h201.82M380 188.62h201.82" stroke="#2ba9e0" stroke-width="2" fill="none"/><use xlink:href="#u" transform="matrix(1,0,0,1,388,68) translate(46.9189453125 13.9658203125)"/><use xlink:href="#c" transform="matrix(1,0,0,1,392,101.841796875) translate(0 26.6240234375)"/><use xlink:href="#g" transform="matrix(1,0,0,1,392,101.841796875) translate(17.0068359375 26.6240234375)"/><use xlink:href="#l" transform="matrix(1,0,0,1,392,101.841796875) translate(0 44.4658203125)"/><use xlink:href="#v" transform="matrix(1,0,0,1,392,101.841796875) translate(17.0068359375 44.4658203125)"/><use xlink:href="#l" transform="matrix(1,0,0,1,392,101.841796875) translate(0 62.3076171875)"/><use xlink:href="#w" transform="matrix(1,0,0,1,392,101.841796875) translate(17.0068359375 62.3076171875)"/><path d="M578 298v-30.5h-97.1V237" stroke="#000" stroke-width="2" fill="none"/><path d="M579 299h-2v-1.03h2zM481.9 237.03h-2V236h2z"/><use xlink:href="#x" transform="matrix(1,0,0,1,586,278.3490032765919) translate(0 14.4)"/><use xlink:href="#x" transform="matrix(1,0,0,1,488.9090909090909,240.70961991706653) translate(0 14.4)"/><use xlink:href="#y" transform="matrix(1,0,0,1,457.3080168397364,271.5) translate(0 14.4)"/><path d="M978 628H860.9V527.93H743.83" stroke="#000" stroke-width="2" fill="none"/><path d="M979 629h-1.03v-2H979zM743.84 528.93h-1.02v-2h1.02z"/><use xlink:href="#z" transform="matrix(1,0,0,1,712.0090909999999,592.5573086835078) translate(0 14.4)"/><use xlink:href="#A" transform="matrix(1,0,0,1,712.0090909999999,592.5573086835078) translate(62.95 14.4)"/><use xlink:href="#B" transform="matrix(1,0,0,1,939.460791437347,602.4) translate(0 14.4)"/><use xlink:href="#x" transform="matrix(1,0,0,1,747.9648446541939,502.3279279279279) translate(0 14.4)"/><path d="M540 691h201.82v120H540z" stroke="#2ba9e0" stroke-width="2" fill="#fff"/><path d="M540 724.84h201.82M540 776.54h201.82" stroke="#2ba9e0" stroke-width="2" fill="none"/><use xlink:href="#C" transform="matrix(1,0,0,1,548,699) translate(48.5625 13.9658203125)"/><use xlink:href="#c" transform="matrix(1,0,0,1,552,732.841796875) translate(0 14.044921875)"/><use xlink:href="#f" transform="matrix(1,0,0,1,552,732.841796875) translate(17.0068359375 14.044921875)"/><use xlink:href="#c" transform="matrix(1,0,0,1,552,732.841796875) translate(0 31.88671875)"/><use xlink:href="#D" transform="matrix(1,0,0,1,552,732.841796875) translate(17.0068359375 31.88671875)"/><path d="M640.9 578v111" stroke="#000" stroke-width="2" fill="none"/><path d="M641.9 578.03h-2V577h2zM641.9 690h-2v-1.03h2z"/><use xlink:href="#E" transform="matrix(1,0,0,1,551.0090909090909,614.2409604519775) translate(0 14.4)"/><use xlink:href="#F" transform="matrix(1,0,0,1,605.9090909090909,586.1188206922742) translate(0 14.4)"/><use xlink:href="#G" transform="matrix(1,0,0,1,648.9090909090909,669.2) translate(0 14.4)"/><path d="M660 60h201.82v136H660z" stroke="#2ba9e0" stroke-width="2" fill="#ccc"/><path d="M660 93.84h201.82M660 144.96h201.82" stroke="#2ba9e0" stroke-width="2" fill="none"/><use xlink:href="#H" transform="matrix(1,0,0,1,668,68) translate(20.2353515625 13.9658203125)"/><use xlink:href="#I" transform="matrix(1,0,0,1,668,68) translate(127.6640625 13.9658203125)"/><use xlink:href="#c" transform="matrix(1,0,0,1,672,101.841796875) translate(0 22.9658203125)"/><use xlink:href="#J" transform="matrix(1,0,0,1,672,101.841796875) translate(17.0068359375 22.9658203125)"/><path d="M640.9 298v-50h120v-50" stroke="#000" stroke-width="2" fill="none"/><path d="M641.9 299h-2v-1.03h2zM761.9 198.03h-2V197h2z"/><use xlink:href="#K" transform="matrix(1,0,0,1,648.9090909090909,276.9861959482711) translate(0 14.4)"/><use xlink:href="#K" transform="matrix(1,0,0,1,725.9090909090911,210.0280604385468) translate(0 14.4)"/><use xlink:href="#L" transform="matrix(1,0,0,1,683.9429757177227,251.99999999999994) translate(0 14.4)"/><use xlink:href="#M" transform="matrix(1,0,0,1,683.9429757177227,251.99999999999994) translate(99.9 14.4)"/><path d="M743.82 751h39V650h-71.7v39" stroke="#000" stroke-width="2" fill="none"/><path d="M743.84 752h-1.02v-2h1.02zM712.13 690h-2v-1.03h2z"/><use xlink:href="#K" transform="matrix(1,0,0,1,760.5219255111185,755.0000000000001) translate(0 14.4)"/><use xlink:href="#N" transform="matrix(1,0,0,1,719.1301864801865,662.4913550869846) translate(0 14.4)"/><use xlink:href="#O" transform="matrix(1,0,0,1,790.818182,696.0452290296374) translate(0 14.4)"/><use xlink:href="#P" transform="matrix(1,0,0,1,790.818182,696.0452290296374) translate(18.95 14.4)"/><path d="M980 60h201.82v154H980z" stroke="#2ba9e0" stroke-width="2" fill="#ccc"/><path d="M980 111.68h201.82M980 162.8h201.82" stroke="#2ba9e0" stroke-width="2" fill="none"/><use xlink:href="#Q" transform="matrix(1,0,0,1,988,68) translate(30.15380859375 14.044921875)"/><use xlink:href="#R" transform="matrix(1,0,0,1,988,68) translate(63.73681640625 14.044921875)"/><use xlink:href="#S" transform="matrix(1,0,0,1,988,68) translate(64.69921875 31.88671875)"/><use xlink:href="#l" transform="matrix(1,0,0,1,992,119.68359375) translate(0 22.9658203125)"/><use xlink:href="#T" transform="matrix(1,0,0,1,992,119.68359375) translate(17.0068359375 22.9658203125)"/><path d="M743.82 347.78h127.9V270h148.8v-54" stroke="#000" stroke-width="2" fill="none"/><path d="M743.84 348.78h-1.02v-2h1.02zM1021.53 216.03h-2V215h2z"/><use xlink:href="#K" transform="matrix(1,0,0,1,751.5058999704701,351.7829457364341) translate(0 14.4)"/><use xlink:href="#N" transform="matrix(1,0,0,1,982.5318182818182,222.32761059051975) translate(0 14.4)"/><use xlink:href="#U" transform="matrix(1,0,0,1,879.7155036780025,288.33438514105075) translate(0 14.4)"/><use xlink:href="#V" transform="matrix(1,0,0,1,879.7155036780025,288.33438514105075) translate(29 14.4)"/><use xlink:href="#W" transform="matrix(1,0,0,1,879.7155036780025,288.33438514105075) translate(122.95 14.4)"/><path d="M60 180h201.82v154H60z" stroke="#2ba9e0" stroke-width="2" fill="#fff"/><path d="M60 213.84h201.82M60 282.8h201.82" stroke="#2ba9e0" stroke-width="2" fill="none"/><use xlink:href="#X" transform="matrix(1,0,0,1,67.99999999999997,188) translate(49.37548828125 13.9658203125)"/><use xlink:href="#c" transform="matrix(1,0,0,1,71.99999999999997,221.841796875) translate(0 22.544921875)"/><use xlink:href="#f" transform="matrix(1,0,0,1,71.99999999999997,221.841796875) translate(17.0068359375 22.544921875)"/><use xlink:href="#c" transform="matrix(1,0,0,1,71.99999999999997,221.841796875) translate(0 40.38671875)"/><use xlink:href="#Y" transform="matrix(1,0,0,1,71.99999999999997,221.841796875) translate(17.0068359375 40.38671875)"/><path d="M980 836h201.82v172H980z" stroke="#2ba9e0" stroke-width="2" fill="#ccc"/><path d="M980 869.84h201.82M980 956.64h201.82" stroke="#2ba9e0" stroke-width="2" fill="none"/><use xlink:href="#Z" transform="matrix(1,0,0,1,988,844) translate(63.6884765625 13.9658203125)"/><use xlink:href="#c" transform="matrix(1,0,0,1,992,877.841796875) translate(0 22.6240234375)"/><use xlink:href="#aa" transform="matrix(1,0,0,1,992,877.841796875) translate(17.0068359375 22.6240234375)"/><use xlink:href="#c" transform="matrix(1,0,0,1,992,877.841796875) translate(0 40.4658203125)"/><use xlink:href="#ab" transform="matrix(1,0,0,1,992,877.841796875) translate(17.0068359375 40.4658203125)"/><use xlink:href="#c" transform="matrix(1,0,0,1,992,877.841796875) translate(0 58.3076171875)"/><use xlink:href="#ac" transform="matrix(1,0,0,1,992,877.841796875) translate(17.0068359375 58.3076171875)"/><path d="M1010.33 834h-2v-57.2h2zm0-78.8h-2V698h2z"/><path d="M1010.33 698.03h-2V697h2zM1010.33 835h-2v-1.03h2z"/><use xlink:href="#K" transform="matrix(1,0,0,1,974.3333333333333,714.0271604938273) translate(0 14.4)"/><use xlink:href="#N" transform="matrix(1,0,0,1,1017.3333333333333,804.9704918032787) translate(0 14.4)"/><use xlink:href="#ad" transform="matrix(1,0,0,1,994.8583333333332,755.2) translate(0 14.4)"/><path d="M980 340h201.82v172H980z" stroke="#2ba9e0" stroke-width="2" fill="#ccc"/><path d="M980 373.84h201.82M980 460.64h201.82" stroke="#2ba9e0" stroke-width="2" fill="none"/><use xlink:href="#ae" transform="matrix(1,0,0,1,988,348) translate(60.0234375 13.9658203125)"/><use xlink:href="#c" transform="matrix(1,0,0,1,992,381.841796875) translate(0 22.6240234375)"/><use xlink:href="#af" transform="matrix(1,0,0,1,992,381.841796875) translate(17.0068359375 22.6240234375)"/><use xlink:href="#c" transform="matrix(1,0,0,1,992,381.841796875) translate(0 40.4658203125)"/><use xlink:href="#ag" transform="matrix(1,0,0,1,992,381.841796875) translate(17.0068359375 40.4658203125)"/><use xlink:href="#c" transform="matrix(1,0,0,1,992,381.841796875) translate(0 58.3076171875)"/><use xlink:href="#ah" transform="matrix(1,0,0,1,992,381.841796875) translate(17.0068359375 58.3076171875)"/><path d="M743.82 402.77H978" stroke="#000" stroke-width="2" fill="none"/><path d="M743.84 403.77h-1.02v-2h1.02zM979 403.77h-1.03v-2H979z"/><use xlink:href="#ai" transform="matrix(1,0,0,1,808.9577066650893,406.77477477477476) translate(0 14.4)"/><use xlink:href="#F" transform="matrix(1,0,0,1,750.9309531256112,406.77477477477476) translate(0 14.4)"/><use xlink:href="#F" transform="matrix(1,0,0,1,940.5670983771056,377.17477477477473) translate(0 14.4)"/><path d="M60 691h201.82v120H60z" stroke="#2ba9e0" stroke-width="2" fill="#ccc"/><path d="M60 724.84h201.82M60 776.54h201.82" stroke="#2ba9e0" stroke-width="2" fill="none"/><use xlink:href="#aj" transform="matrix(1,0,0,1,67.99999999999997,699) translate(66.791015625 13.9658203125)"/><use xlink:href="#c" transform="matrix(1,0,0,1,71.99999999999997,732.841796875) translate(0 14.044921875)"/><use xlink:href="#ak" transform="matrix(1,0,0,1,71.99999999999997,732.841796875) translate(17.0068359375 14.044921875)"/><use xlink:href="#c" transform="matrix(1,0,0,1,71.99999999999997,732.841796875) translate(0 31.88671875)"/><use xlink:href="#J" transform="matrix(1,0,0,1,71.99999999999997,732.841796875) translate(17.0068359375 31.88671875)"/><path d="M263.82 751H538" stroke="#000" stroke-width="2" fill="none"/><path d="M263.84 752h-1.02v-2h1.02zM539 752h-1.03v-2H539z"/><g><use xlink:href="#al" transform="matrix(1,0,0,1,331.6081394646269,725.4000000000001) translate(0 14.4)"/></g><g><use xlink:href="#N" transform="matrix(1,0,0,1,275.5994830925796,755.0000000000001) translate(0 14.4)"/></g><g><use xlink:href="#K" transform="matrix(1,0,0,1,512.5,725.4000000000001) translate(0 14.4)"/></g><path d="M60 420h201.82v172H60z" stroke="#2ba9e0" stroke-width="2" fill="#ccc"/><path d="M60 453.84h201.82M60 540.64h201.82" stroke="#2ba9e0" stroke-width="2" fill="none"/><g><use xlink:href="#am" transform="matrix(1,0,0,1,67.99999999999997,428) translate(24.65185546875 13.9658203125)"/><use xlink:href="#an" transform="matrix(1,0,0,1,67.99999999999997,428) translate(90.83349609375 13.9658203125)"/></g><g><use xlink:href="#c" transform="matrix(1,0,0,1,71.99999999999997,461.841796875) translate(0 22.6240234375)"/><use xlink:href="#ao" transform="matrix(1,0,0,1,71.99999999999997,461.841796875) translate(17.0068359375 22.6240234375)"/><use xlink:href="#c" transform="matrix(1,0,0,1,71.99999999999997,461.841796875) translate(0 40.4658203125)"/><use xlink:href="#ap" transform="matrix(1,0,0,1,71.99999999999997,461.841796875) translate(17.0068359375 40.4658203125)"/><use xlink:href="#c" transform="matrix(1,0,0,1,71.99999999999997,461.841796875) translate(0 58.3076171875)"/><use xlink:href="#aq" transform="matrix(1,0,0,1,71.99999999999997,461.841796875) translate(17.0068359375 58.3076171875)"/><use xlink:href="#ar" transform="matrix(1,0,0,1,71.99999999999997,461.841796875) translate(76.9306640625 58.3076171875)"/><use xlink:href="#as" transform="matrix(1,0,0,1,71.99999999999997,461.841796875) translate(92.109375 58.3076171875)"/></g><path d="M538 466H263.82" stroke="#000" stroke-width="2" fill="none"/><path d="M539 467h-1.03v-2H539zM263.84 467h-1.02v-2h1.02z"/><g><use xlink:href="#K" transform="matrix(1,0,0,1,504.511950265279,440.4) translate(0 14.4)"/></g><g><use xlink:href="#N" transform="matrix(1,0,0,1,276.70415620250014,470) translate(0 14.4)"/></g><g><use xlink:href="#at" transform="matrix(1,0,0,1,367.409091,440.4) translate(0 14.4)"/></g><path d="M538 522H263.82" stroke="#000" stroke-width="2" fill="none"/><path d="M539 523h-1.03v-2H539zM263.84 523h-1.02v-2h1.02z"/><g><use xlink:href="#F" transform="matrix(1,0,0,1,504.19811300780566,496.4) translate(0 14.4)"/></g><g><use xlink:href="#G" transform="matrix(1,0,0,1,278.6140458709922,526) translate(0 14.4)"/></g><g><use xlink:href="#au" transform="matrix(1,0,0,1,291.4402625149928,496.4) translate(0 14.4)"/><use xlink:href="#av" transform="matrix(1,0,0,1,291.4402625149928,496.4) translate(55.9 14.4)"/><use xlink:href="#aw" transform="matrix(1,0,0,1,291.4402625149928,496.4) translate(115.9 14.4)"/></g><path d="M538 562.58H263.82" stroke="#000" stroke-width="2" fill="none"/><path d="M539 563.58h-1.03v-2H539zM263.84 563.58h-1.02v-2h1.02z"/><g><use xlink:href="#F" transform="matrix(1,0,0,1,505.4263410339214,536.9833333333333) translate(0 14.4)"/></g><g><use xlink:href="#G" transform="matrix(1,0,0,1,278.20695533945525,566.5833333333334) translate(0 14.4)"/></g><g><use xlink:href="#ax" transform="matrix(1,0,0,1,358.3152625149928,536.9833333333333) translate(0 14.4)"/></g><path d="M538 371.68H400.9v-64H263.83" stroke="#000" stroke-width="2" fill="none"/><path d="M539 372.68h-1.03v-2H539zM263.84 308.67h-1.02v-2h1.02z"/><g><use xlink:href="#K" transform="matrix(1,0,0,1,503.9847960878068,375.6833333333333) translate(0 14.4)"/></g><g><use xlink:href="#K" transform="matrix(1,0,0,1,273.5839016153156,311.66666666666663) translate(0 14.4)"/></g><g><use xlink:href="#ay" transform="matrix(1,0,0,1,338.00909099999996,326.21481032044034) translate(0 14.4)"/></g><path d="M540 906h201.82v102H540z" stroke="#2ba9e0" stroke-width="2" fill="#ccc"/><path d="M540 939.84h201.82M540 973.68h201.82" stroke="#2ba9e0" stroke-width="2" fill="none"/><g><use xlink:href="#az" transform="matrix(1,0,0,1,548,914) translate(32.03466796875 13.9658203125)"/><use xlink:href="#aA" transform="matrix(1,0,0,1,548,914) translate(65.61767578125 13.9658203125)"/></g><g><use xlink:href="#c" transform="matrix(1,0,0,1,552,947.841796875) translate(0 13.9658203125)"/><use xlink:href="#J" transform="matrix(1,0,0,1,552,947.841796875) translate(17.0068359375 13.9658203125)"/></g><path d="M640.9 904v-91" stroke="#000" stroke-width="2" fill="none"/><path d="M641.9 905h-2v-1.03h2zM641.9 813.03h-2V812h2z"/><g><use xlink:href="#U" transform="matrix(1,0,0,1,648.9090909090909,847.7) translate(0 14.4)"/><use xlink:href="#aB" transform="matrix(1,0,0,1,648.9090909090909,847.7) translate(29 14.4)"/></g><g><use xlink:href="#G" transform="matrix(1,0,0,1,648.9090909090909,884.2) translate(0 14.4)"/></g><g><use xlink:href="#F" transform="matrix(1,0,0,1,605.9090909090909,817.0256896020428) translate(0 14.4)"/></g><path d="M1081.9 834h-2v-42.66h2zm0-64.26h-2V698h2z"/><path d="M1081.9 698.03h-2V697h2zM1081.9 835h-2v-1.03h2z"/><g><use xlink:href="#F" transform="matrix(1,0,0,1,1045.909090909091,714.0271604938273) translate(0 14.4)"/></g><g><use xlink:href="#G" transform="matrix(1,0,0,1,1088.909090909091,804.9704918032787) translate(0 14.4)"/></g><g><use xlink:href="#aC" transform="matrix(1,0,0,1,1044.534090909091,769.7389105965849) translate(0 14.4)"/></g><path d="M1155.67 834h-2v-68.45h2zm0-90.05h-2V698h2z"/><path d="M1155.67 698.03h-2V697h2zM1155.67 835h-2v-1.03h2z"/><g><use xlink:href="#F" transform="matrix(1,0,0,1,1119.6666666666667,714.0271604938273) translate(0 14.4)"/></g><g><use xlink:href="#G" transform="matrix(1,0,0,1,1162.6666666666667,804.9704918032787) translate(0 14.4)"/></g><g><use xlink:href="#aD" transform="matrix(1,0,0,1,1115.7666666666667,743.9461220481533) translate(0 14.4)"/></g><defs><path fill="#3d4752" d="M205-1489h426c365 0 548 153 548 458S998-573 635-573H478V0H205v-1489zm273 219v478h161c177 0 265-80 265-239s-88-239-265-239H478" id="aE"/><path fill="#3d4752" d="M431-770V0H168v-1094h263v110c156-133 232-175 396-74l-84 220c-129-52-218-25-312 68" id="aF"/><path fill="#3d4752" d="M711-687c-7-170-35-229-188-230-74 0-147 18-220 53l-88-179c111-51 229-76 353-76 303 0 405 148 405 459V0H717v-81C651-13 566 21 461 21 236 21 81-120 81-346c0-158 85-260 254-311 103-31 245-40 376-30zM326-329c0 101 84 155 189 155 91 0 157-36 196-109v-226c-23-4-49-6-78-6-205 0-307 62-307 186" id="aG"/><path fill="#3d4752" d="M94-547c0-294 207-569 494-569 131 0 260 50 386 150L872-811c-96-74-188-111-277-112-163-2-225 186-225 376 0 251 82 377 246 377 81 0 168-36 260-107l103 137C862-32 733 22 593 22 292 22 94-208 94-547" id="aH"/><path fill="#3d4752" d="M578-1116c196 0 337 93 423 279 40 87 60 183 60 290 0 225-77 390-230 494-74 50-158 75-253 75-197 0-338-93-424-279-40-87-60-183-60-290 0-226 77-391 231-495 73-49 158-74 253-74zm0 194c-139 0-208 125-208 375s69 375 208 375c138 0 207-125 207-375s-69-375-207-375" id="aI"/><path fill="#3d4752" d="M452 0L25-1094h272l252 709 263-709h249L634 0H452" id="aJ"/><path fill="#3d4752" d="M783-1116c173 0 283 89 283 264V0H803v-754c0-92-46-138-139-138-73 0-151 30-233 91V0H168v-1094h263v93c117-77 234-115 352-115" id="aK"/><path fill="#3d4752" d="M431-1094V0H168v-1094h263zm-31-185H207l144-315h292" id="aL"/><g id="a"><use transform="matrix(0.0087890625,0,0,0.0087890625,0,0)" xlink:href="#aE"/><use transform="matrix(0.0087890625,0,0,0.0087890625,11.1357421875,0)" xlink:href="#aF"/><use transform="matrix(0.0087890625,0,0,0.0087890625,17.5693359375,0)" xlink:href="#aG"/><use transform="matrix(0.0087890625,0,0,0.0087890625,27.474609375,0)" xlink:href="#aH"/><use transform="matrix(0.0087890625,0,0,0.0087890625,36.0791015625,0)" xlink:href="#aI"/><use transform="matrix(0.0087890625,0,0,0.0087890625,46.23046875,0)" xlink:href="#aJ"/><use transform="matrix(0.0087890625,0,0,0.0087890625,55.775390625,0)" xlink:href="#aK"/><use transform="matrix(0.0087890625,0,0,0.0087890625,66.498046875,0)" xlink:href="#aL"/></g><path fill="#3d4752" d="M1420-1116c172-1 282 89 282 264V0h-263v-754c0-92-46-138-138-138-75 0-153 30-235 90V0H803v-754c0-92-46-138-138-138-71 0-149 30-234 90V0H168v-1094h263v93c117-77 234-115 353-115 121 0 206 45 254 134 124-89 251-134 382-134" id="aM"/><path fill="#3d4752" d="M925-326c0 213-197 348-437 348C341 22 194-16 47-93l93-183c121 69 236 103 345 103s164-42 164-127c0-41-24-75-72-100-19-10-61-25-126-44-165-49-270-109-315-179-27-41-40-94-40-158 0-210 193-335 432-335 111 0 229 34 354 103l-83 176c-101-56-191-84-271-84-107 0-161 40-161 121 0 37 23 66 70 89 16 12 285 99 327 123 105 60 161 144 161 262" id="aN"/><path fill="#3d4752" d="M503-384c-2 129 8 204 107 204 41 0 91-13 150-38l66 171C737-1 639 22 533 22c-230-2-293-122-293-358v-559H42v-199h198v-395h263v395h265v199H503v511" id="aO"/><g id="b"><use transform="matrix(0.0087890625,0,0,0.0087890625,0,0)" xlink:href="#aM"/><use transform="matrix(0.0087890625,0,0,0.0087890625,16.3125,0)" xlink:href="#aL"/><use transform="matrix(0.0087890625,0,0,0.0087890625,21.5771484375,0)" xlink:href="#aN"/><use transform="matrix(0.0087890625,0,0,0.0087890625,30.4013671875,0)" xlink:href="#aO"/><use transform="matrix(0.0087890625,0,0,0.0087890625,37.5029296875,0)" xlink:href="#aI"/></g><path fill="#3d4752" d="M1230-642H783v452H552v-452H106v-221h446v-452h231v452h447v221" id="aP"/><use transform="matrix(0.0087890625,0,0,0.0087890625,0,0)" xlink:href="#aP" id="c"/><path fill="#3d4752" d="M431-1094V0H168v-1094h263zm0-190H168v-296h263v296" id="aQ"/><g id="d"><use transform="matrix(0.0087890625,0,0,0.0087890625,0,0)" xlink:href="#aQ"/><use transform="matrix(0.0087890625,0,0,0.0087890625,5.2646484375,0)" xlink:href="#aF"/><use transform="matrix(0.0087890625,0,0,0.0087890625,12.4541015625,0)" xlink:href="#aQ"/></g><path fill="#3d4752" d="M94-505c0-321 128-611 419-611 101 0 188 30 263 91v-555h263V-1H787v-91C712-16 620 22 509 22c-171 0-293-85-364-254-34-81-51-172-51-273zm682 228v-551c-64-56-127-84-189-84-145 0-218 134-218 401 0 213 68 320 203 320 69 0 137-29 204-86" id="aR"/><g id="e"><use transform="matrix(0.0087890625,0,0,0.0087890625,0,0)" xlink:href="#aQ"/><use transform="matrix(0.0087890625,0,0,0.0087890625,5.2646484375,0)" xlink:href="#aR"/></g><path fill="#3d4752" d="M711-687c-7-170-35-229-188-230-74 0-147 18-220 53l-88-179c111-51 229-76 353-76 303 0 405 148 405 459V0H717v-81C651-13 566 21 461 21 236 21 81-120 81-346c0-158 85-260 254-311 103-31 245-40 376-30zM326-329c0 101 84 155 189 155 91 0 157-36 196-109v-226c-23-4-49-6-78-6-205 0-307 62-307 186zm359-950H492l144-315h292" id="aS"/><path fill="#3d4752" d="M913-199V0H57v-145l540-750H116v-199h789v167L377-199h536" id="aT"/><path fill="#3d4752" d="M94-548c0-302 191-568 483-568 311 0 493 270 482 633H370c7 207 93 311 256 311 93 0 196-46 308-137l103 144C907-40 760 22 595 22 293 22 94-237 94-548zm282-120h403c-18-170-85-255-202-255s-184 85-201 255" id="aU"/><g id="f"><use transform="matrix(0.0087890625,0,0,0.0087890625,0,0)" xlink:href="#aK"/><use transform="matrix(0.0087890625,0,0,0.0087890625,10.72265625,0)" xlink:href="#aS"/><use transform="matrix(0.0087890625,0,0,0.0087890625,20.6279296875,0)" xlink:href="#aT"/><use transform="matrix(0.0087890625,0,0,0.0087890625,29.232421875,0)" xlink:href="#aU"/><use transform="matrix(0.0087890625,0,0,0.0087890625,39.3662109375,0)" xlink:href="#aJ"/></g><path fill="#3d4752" d="M690-1116c279 0 423 232 423 527 0 261-67 439-196 539C782 54 551 41 431-69v481H168v-1506h253v93c71-77 160-115 269-115zM431-810v545c64 56 127 84 189 84 145 0 218-134 218-402 0-214-68-321-203-321-71 0-139 31-204 94" id="aV"/><g id="g"><use transform="matrix(0.0087890625,0,0,0.0087890625,0,0)" xlink:href="#aV"/><use transform="matrix(0.0087890625,0,0,0.0087890625,10.6083984375,0)" xlink:href="#aI"/><use transform="matrix(0.0087890625,0,0,0.0087890625,20.759765625,0)" xlink:href="#aV"/><use transform="matrix(0.0087890625,0,0,0.0087890625,31.3681640625,0)" xlink:href="#aQ"/><use transform="matrix(0.0087890625,0,0,0.0087890625,36.6328125,0)" xlink:href="#aN"/></g><path fill="#3d4752" d="M1152 0H835L431-519V0H168v-1580h263v869l332-383h308L654-620" id="aW"/><g id="h"><use transform="matrix(0.0087890625,0,0,0.0087890625,0,0)" xlink:href="#aN"/><use transform="matrix(0.0087890625,0,0,0.0087890625,8.82421875,0)" xlink:href="#aO"/><use transform="matrix(0.0087890625,0,0,0.0087890625,15.92578125,0)" xlink:href="#aF"/><use transform="matrix(0.0087890625,0,0,0.0087890625,22.359375,0)" xlink:href="#aS"/><use transform="matrix(0.0087890625,0,0,0.0087890625,32.2646484375,0)" xlink:href="#aK"/><use transform="matrix(0.0087890625,0,0,0.0087890625,42.9873046875,0)" xlink:href="#aW"/><use transform="matrix(0.0087890625,0,0,0.0087890625,52.927734375,0)" xlink:href="#aG"/></g><path fill="#3d4752" d="M437 22c-177 0-283-91-283-265v-851h263v755c0 91 46 137 139 137 75 0 152-32 233-95v-797h263V0H789v-93C670-16 552 22 437 22" id="aX"/><g id="i"><use transform="matrix(0.0087890625,0,0,0.0087890625,0,0)" xlink:href="#aK"/><use transform="matrix(0.0087890625,0,0,0.0087890625,10.72265625,0)" xlink:href="#aS"/><use transform="matrix(0.0087890625,0,0,0.0087890625,20.6279296875,0)" xlink:href="#aN"/><use transform="matrix(0.0087890625,0,0,0.0087890625,29.4521484375,0)" xlink:href="#aO"/><use transform="matrix(0.0087890625,0,0,0.0087890625,36.5537109375,0)" xlink:href="#aX"/><use transform="matrix(0.0087890625,0,0,0.0087890625,47.2763671875,0)" xlink:href="#aV"/></g><path fill="#3d4752" d="M446 22C216 22 155-90 155-336v-1244h263v1196c0 75 6 126 18 153 27 62 110 61 177 31l67 172C603 5 525 22 446 22" id="aY"/><g id="j"><use transform="matrix(0.0087890625,0,0,0.0087890625,0,0)" xlink:href="#aR"/><use transform="matrix(0.0087890625,0,0,0.0087890625,10.6083984375,0)" xlink:href="#aY"/><use transform="matrix(0.0087890625,0,0,0.0087890625,16.3037109375,0)" xlink:href="#aU"/></g><path fill="#3d4752" d="M784-1116c178 0 282 88 282 264V0H803v-754c0-92-46-138-138-138-74 0-152 32-234 95V0H168v-1580h263v579c117-77 234-115 353-115" id="aZ"/><path fill="#3d4752" d="M421-36L25-1094h272l251 717 263-717h249L649 1c-97 251-201 366-459 445L96 279c173-62 281-167 325-315" id="ba"/><g id="k"><use transform="matrix(0.0087890625,0,0,0.0087890625,0,0)" xlink:href="#aR"/><use transform="matrix(0.0087890625,0,0,0.0087890625,10.6083984375,0)" xlink:href="#aI"/><use transform="matrix(0.0087890625,0,0,0.0087890625,20.759765625,0)" xlink:href="#aZ"/><use transform="matrix(0.0087890625,0,0,0.0087890625,31.482421875,0)" xlink:href="#aI"/><use transform="matrix(0.0087890625,0,0,0.0087890625,41.6337890625,0)" xlink:href="#aR"/><use transform="matrix(0.0087890625,0,0,0.0087890625,52.2421875,0)" xlink:href="#ba"/></g><use transform="matrix(0.0087890625,0,0,0.0087890625,0,0)" xlink:href="#aP" id="l"/><g id="m"><use transform="matrix(0.0087890625,0,0,0.0087890625,0,0)" xlink:href="#aK"/><use transform="matrix(0.0087890625,0,0,0.0087890625,10.72265625,0)" xlink:href="#aS"/><use transform="matrix(0.0087890625,0,0,0.0087890625,20.6279296875,0)" xlink:href="#aN"/><use transform="matrix(0.0087890625,0,0,0.0087890625,29.4521484375,0)" xlink:href="#aO"/><use transform="matrix(0.0087890625,0,0,0.0087890625,36.5537109375,0)" xlink:href="#aX"/><use transform="matrix(0.0087890625,0,0,0.0087890625,47.2763671875,0)" xlink:href="#aV"/></g><g id="n"><use transform="matrix(0.0087890625,0,0,0.0087890625,0,0)" xlink:href="#aQ"/><use transform="matrix(0.0087890625,0,0,0.0087890625,5.2646484375,0)" xlink:href="#aZ"/><use transform="matrix(0.0087890625,0,0,0.0087890625,15.9873046875,0)" xlink:href="#aK"/><use transform="matrix(0.0087890625,0,0,0.0087890625,26.7099609375,0)" xlink:href="#aU"/><use transform="matrix(0.0087890625,0,0,0.0087890625,36.84375,0)" xlink:href="#aR"/></g><path fill="#3d4752" d="M546-961c-228 0-273 188-273 415 0 228 51 427 273 427 137 0 233-80 245-216l182 11C939-114 797 23 552 23 216 23 120-210 86-540c-57-529 575-745 836-364 23 40 28 80 40 125l-182 17c-23-119-91-199-233-199zm108-239H449c-74-102-176-171-233-290 182-11 222 114 336 171 108-57 148-182 324-171-51 119-154 188-222 290" id="bb"/><g id="o"><use transform="matrix(0.0087890625,0,0,0.0087890625,0,0)" xlink:href="#aV"/><use transform="matrix(0.0087890625,0,0,0.0087890625,10.6083984375,0)" xlink:href="#aI"/><use transform="matrix(0.0087890625,0,0,0.0087890625,20.759765625,0)" xlink:href="#bb"/><use transform="matrix(0.0087890625,0,0,0.0087890625,29.759765625,0)" xlink:href="#aU"/><use transform="matrix(0.0087890625,0,0,0.0087890625,39.8935546875,0)" xlink:href="#aO"/></g><g id="p"><use transform="matrix(0.0087890625,0,0,0.0087890625,0,0)" xlink:href="#aZ"/><use transform="matrix(0.0087890625,0,0,0.0087890625,10.72265625,0)" xlink:href="#aI"/><use transform="matrix(0.0087890625,0,0,0.0087890625,20.8740234375,0)" xlink:href="#aR"/><use transform="matrix(0.0087890625,0,0,0.0087890625,31.482421875,0)" xlink:href="#aQ"/><use transform="matrix(0.0087890625,0,0,0.0087890625,36.7470703125,0)" xlink:href="#aK"/></g><path fill="#3d4752" d="M421-36L25-1094h272l251 717 263-717h249L649 1c-97 251-201 366-459 445L96 279c173-62 281-167 325-315zm228-1243H456l144-315h292" id="bc"/><path fill="#3d4752" d="M569-1104c358 0 489 239 478 603H279c0 228 80 381 302 387 148 6 245-68 279-165l159 46C956-74 809 23 581 23 251 23 80-187 86-546c6-347 148-558 484-558zm296 461c34-341-432-438-552-159-17 40-34 97-34 159h586zm-194-557H466c-74-102-176-171-233-290 182-11 222 114 336 171 108-57 148-182 324-171-51 119-154 188-222 290" id="bd"/><g id="q"><use transform="matrix(0.0087890625,0,0,0.0087890625,0,0)" xlink:href="#aO"/><use transform="matrix(0.0087890625,0,0,0.0087890625,7.1015625,0)" xlink:href="#bc"/><use transform="matrix(0.0087890625,0,0,0.0087890625,16.6376953125,0)" xlink:href="#aR"/><use transform="matrix(0.0087890625,0,0,0.0087890625,27.24609375,0)" xlink:href="#aK"/><use transform="matrix(0.0087890625,0,0,0.0087890625,37.96875,0)" xlink:href="#bd"/></g><path fill="#3d4752" d="M94-548c0-302 191-568 483-568 311 0 493 270 482 633H370c7 207 93 311 256 311 93 0 196-46 308-137l103 144C907-40 760 22 595 22 293 22 94-237 94-548zm282-120h403c-18-170-85-255-202-255s-184 85-201 255zm312-611H495l144-315h292" id="be"/><g id="r"><use transform="matrix(0.0087890625,0,0,0.0087890625,0,0)" xlink:href="#aE"/><use transform="matrix(0.0087890625,0,0,0.0087890625,11.1357421875,0)" xlink:href="#aY"/><use transform="matrix(0.0087890625,0,0,0.0087890625,16.8310546875,0)" xlink:href="#aG"/><use transform="matrix(0.0087890625,0,0,0.0087890625,26.736328125,0)" xlink:href="#aO"/><use transform="matrix(0.0087890625,0,0,0.0087890625,33.837890625,0)" xlink:href="#aI"/><use transform="matrix(0.0087890625,0,0,0.0087890625,43.9892578125,0)" xlink:href="#aJ"/><use transform="matrix(0.0087890625,0,0,0.0087890625,53.5341796875,0)" xlink:href="#be"/></g><g id="s"><use transform="matrix(0.0087890625,0,0,0.0087890625,0,0)" xlink:href="#aV"/><use transform="matrix(0.0087890625,0,0,0.0087890625,10.6083984375,0)" xlink:href="#aI"/><use transform="matrix(0.0087890625,0,0,0.0087890625,20.759765625,0)" xlink:href="#aR"/><use transform="matrix(0.0087890625,0,0,0.0087890625,31.3681640625,0)" xlink:href="#aM"/><use transform="matrix(0.0087890625,0,0,0.0087890625,47.6806640625,0)" xlink:href="#aL"/><use transform="matrix(0.0087890625,0,0,0.0087890625,52.9453125,0)" xlink:href="#aK"/><use transform="matrix(0.0087890625,0,0,0.0087890625,63.66796875,0)" xlink:href="#aW"/><use transform="matrix(0.0087890625,0,0,0.0087890625,73.6083984375,0)" xlink:href="#ba"/></g><g id="t"><use transform="matrix(0.0087890625,0,0,0.0087890625,0,0)" xlink:href="#aP"/><use transform="matrix(0.0087890625,0,0,0.0087890625,11.7333984375,0)" xlink:href="#aK"/><use transform="matrix(0.0087890625,0,0,0.0087890625,22.4560546875,0)" xlink:href="#aS"/><use transform="matrix(0.0087890625,0,0,0.0087890625,32.361328125,0)" xlink:href="#aT"/><use transform="matrix(0.0087890625,0,0,0.0087890625,40.9658203125,0)" xlink:href="#aU"/><use transform="matrix(0.0087890625,0,0,0.0087890625,51.099609375,0)" xlink:href="#aJ"/></g><path fill="#3d4752" d="M970 0L478-694V0H205v-1489h273v622l490-622h310L717-790 1296 0H970" id="bf"/><path fill="#3d4752" d="M806-1530l-66 177c-158-82-260-41-259 189v70h264v199H481V0H218v-895H19v-199h199c-9-207 32-364 147-449 126-93 294-66 441 13" id="bg"/><g id="u"><use transform="matrix(0.0087890625,0,0,0.0087890625,0,0)" xlink:href="#bf"/><use transform="matrix(0.0087890625,0,0,0.0087890625,11.390625,0)" xlink:href="#aJ"/><use transform="matrix(0.0087890625,0,0,0.0087890625,20.5751953125,0)" xlink:href="#aG"/><use transform="matrix(0.0087890625,0,0,0.0087890625,30.48046875,0)" xlink:href="#aY"/><use transform="matrix(0.0087890625,0,0,0.0087890625,36.17578125,0)" xlink:href="#aQ"/><use transform="matrix(0.0087890625,0,0,0.0087890625,41.4404296875,0)" xlink:href="#bg"/><use transform="matrix(0.0087890625,0,0,0.0087890625,48.3134765625,0)" xlink:href="#aQ"/><use transform="matrix(0.0087890625,0,0,0.0087890625,53.578125,0)" xlink:href="#aW"/><use transform="matrix(0.0087890625,0,0,0.0087890625,63.5185546875,0)" xlink:href="#aG"/><use transform="matrix(0.0087890625,0,0,0.0087890625,73.423828125,0)" xlink:href="#aH"/><use transform="matrix(0.0087890625,0,0,0.0087890625,82.0283203125,0)" xlink:href="#aU"/></g><g id="v"><use transform="matrix(0.0087890625,0,0,0.0087890625,0,0)" xlink:href="#aR"/><use transform="matrix(0.0087890625,0,0,0.0087890625,10.6083984375,0)" xlink:href="#be"/><use transform="matrix(0.0087890625,0,0,0.0087890625,20.7421875,0)" xlink:href="#aY"/><use transform="matrix(0.0087890625,0,0,0.0087890625,26.4375,0)" xlink:href="#aW"/><use transform="matrix(0.0087890625,0,0,0.0087890625,36.3779296875,0)" xlink:href="#aG"/></g><g id="w"><use transform="matrix(0.0087890625,0,0,0.0087890625,0,0)" xlink:href="#aR"/><use transform="matrix(0.0087890625,0,0,0.0087890625,10.6083984375,0)" xlink:href="#aI"/><use transform="matrix(0.0087890625,0,0,0.0087890625,20.759765625,0)" xlink:href="#aW"/><use transform="matrix(0.0087890625,0,0,0.0087890625,30.7001953125,0)" xlink:href="#aY"/><use transform="matrix(0.0087890625,0,0,0.0087890625,36.3955078125,0)" xlink:href="#aG"/><use transform="matrix(0.0087890625,0,0,0.0087890625,46.30078125,0)" xlink:href="#aR"/></g><path fill="#3d4752" d="M101-251c68 0 85 55 85 127S166 4 100 4C33 4 14-52 14-124c0-73 17-127 87-127zm-1 229c47 0 54-49 54-102s-4-102-53-102c-51 0-55 48-55 102 0 53 5 102 54 102" id="bh"/><path fill="#3d4752" d="M33 0v-38h34V0H33" id="bi"/><path fill="#3d4752" d="M80-196l47-18 7 23-49 13 32 44-20 13-27-46-27 45-21-12 33-44-49-13 8-23 47 19-2-53h23" id="bj"/><g id="x"><use transform="matrix(0.05,0,0,0.05,0,0)" xlink:href="#bh"/><use transform="matrix(0.05,0,0,0.05,10,0)" xlink:href="#bi"/><use transform="matrix(0.05,0,0,0.05,15,0)" xlink:href="#bi"/><use transform="matrix(0.05,0,0,0.05,20,0)" xlink:href="#bj"/></g><path fill="#3d4752" d="M143 0L79-87 56-68V0H24v-261h32v163l83-92h37l-77 82L181 0h-38" id="bk"/><path fill="#3d4752" d="M108 0H70L1-190h34L89-25l56-165h34" id="bl"/><path fill="#3d4752" d="M141-36C126-15 110 5 73 4 37 3 15-17 15-53c-1-64 63-63 125-63 3-35-9-54-41-54-24 1-41 7-42 31l-33-3c5-37 33-52 76-52 45 0 72 20 72 64v82c-1 20 7 32 28 27v20c-31 9-61-2-59-35zM48-53c0 20 12 33 32 33 41-3 63-29 60-74-43 2-92-5-92 41" id="bm"/><path fill="#3d4752" d="M24 0v-261h32V0H24" id="bn"/><path fill="#3d4752" d="M24-231v-30h32v30H24zM24 0v-190h32V0H24" id="bo"/><path fill="#3d4752" d="M101-234c-31-9-42 10-38 44h38v23H63V0H32v-167H5v-23h27c-7-52 17-82 69-68v24" id="bp"/><path fill="#3d4752" d="M96-169c-40 0-48 33-48 73s9 75 48 75c24 0 41-14 43-38l32 2c-6 37-31 61-74 61-59 0-76-41-82-99-10-93 101-131 147-64 4 7 5 14 7 22l-32 3c-4-21-16-35-41-35" id="bq"/><path fill="#3d4752" d="M100-194c63 0 86 42 84 106H49c0 40 14 67 53 68 26 1 43-12 49-29l28 8c-11 28-37 45-77 45C44 4 14-33 15-96c1-61 26-98 85-98zm52 81c6-60-76-77-97-28-3 7-6 17-6 28h103" id="br"/><g id="y"><use transform="matrix(0.05,0,0,0.05,0,0)" xlink:href="#bk"/><use transform="matrix(0.05,0,0,0.05,9,0)" xlink:href="#bl"/><use transform="matrix(0.05,0,0,0.05,18,0)" xlink:href="#bm"/><use transform="matrix(0.05,0,0,0.05,28,0)" xlink:href="#bn"/><use transform="matrix(0.05,0,0,0.05,31.950000000000003,0)" xlink:href="#bo"/><use transform="matrix(0.05,0,0,0.05,35.9,0)" xlink:href="#bp"/><use transform="matrix(0.05,0,0,0.05,40.9,0)" xlink:href="#bo"/><use transform="matrix(0.05,0,0,0.05,44.85,0)" xlink:href="#bk"/><use transform="matrix(0.05,0,0,0.05,53.85,0)" xlink:href="#bm"/><use transform="matrix(0.05,0,0,0.05,63.85,0)" xlink:href="#bq"/><use transform="matrix(0.05,0,0,0.05,72.85,0)" xlink:href="#br"/></g><path fill="#3d4752" d="M115-194c55 1 70 41 70 98S169 2 115 4C84 4 66-9 55-30l1 105H24l-1-265h31l2 30c10-21 28-34 59-34zm-8 174c40 0 45-34 45-75s-6-73-45-74c-42 0-51 32-51 76 0 43 10 73 51 73" id="bs"/><path fill="#3d4752" d="M59-47c-2 24 18 29 38 22v24C64 9 27 4 27-40v-127H5v-23h24l9-43h21v43h35v23H59v120" id="bt"/><path fill="#3d4752" d="M100-194c62-1 85 37 85 99 1 63-27 99-86 99S16-35 15-95c0-66 28-99 85-99zM99-20c44 1 53-31 53-75 0-43-8-75-51-75s-53 32-53 75 10 74 51 75" id="bu"/><path fill="#3d4752" d="M100-194c63 0 86 42 84 106H49c0 40 14 67 53 68 26 1 43-12 49-29l28 8c-11 28-37 45-77 45C44 4 14-33 15-96c1-61 26-98 85-98zm52 81c6-60-76-77-97-28-3 7-6 17-6 28h103zm-74-98c8-23 27-35 38-54h36v5l-58 49H78" id="bv"/><g id="z"><use transform="matrix(0.05,0,0,0.05,0,0)" xlink:href="#bs"/><use transform="matrix(0.05,0,0,0.05,10,0)" xlink:href="#bn"/><use transform="matrix(0.05,0,0,0.05,13.949999999999998,0)" xlink:href="#bm"/><use transform="matrix(0.05,0,0,0.05,23.95,0)" xlink:href="#bt"/><use transform="matrix(0.05,0,0,0.05,28.950000000000003,0)" xlink:href="#bu"/><use transform="matrix(0.05,0,0,0.05,38.95,0)" xlink:href="#bl"/><use transform="matrix(0.05,0,0,0.05,47.95,0)" xlink:href="#bv"/></g><path fill="#3d4752" d="M85-194c31 0 48 13 60 33l-1-100h32l1 261h-30c-2-10 0-23-3-31C134-8 116 4 85 4 32 4 16-35 15-94c0-66 23-100 70-100zm9 24c-40 0-46 34-46 75 0 40 6 74 45 74 42 0 51-32 51-76 0-42-9-74-50-73" id="bw"/><path fill="#3d4752" d="M210-169c-67 3-38 105-44 169h-31v-121c0-29-5-50-35-48C34-165 62-65 56 0H25l-1-190h30c1 10-1 24 2 32 10-44 99-50 107 0 11-21 27-35 58-36 85-2 47 119 55 194h-31v-121c0-29-5-49-35-48" id="bx"/><path fill="#3d4752" d="M34 0v-190h32V0H34zM24-211c8-23 27-35 38-54h36v5l-58 49H24" id="by"/><path fill="#3d4752" d="M117-194c89-4 53 116 60 194h-32v-121c0-31-8-49-39-48C34-167 62-67 57 0H25l-1-190h30c1 10-1 24 2 32 11-22 29-35 61-36" id="bz"/><path fill="#3d4752" d="M179-190L93 31C79 59 56 82 12 73V49c39 6 53-20 64-50L1-190h34L92-34l54-156h33" id="bA"/><g id="A"><use transform="matrix(0.05,0,0,0.05,0,0)" xlink:href="#bs"/><use transform="matrix(0.05,0,0,0.05,10,0)" xlink:href="#bu"/><use transform="matrix(0.05,0,0,0.05,20,0)" xlink:href="#bw"/><use transform="matrix(0.05,0,0,0.05,30,0)" xlink:href="#bx"/><use transform="matrix(0.05,0,0,0.05,44.95,0)" xlink:href="#by"/><use transform="matrix(0.05,0,0,0.05,49.95,0)" xlink:href="#bz"/><use transform="matrix(0.05,0,0,0.05,59.95,0)" xlink:href="#bk"/><use transform="matrix(0.05,0,0,0.05,68.95,0)" xlink:href="#bA"/></g><path fill="#3d4752" d="M27 0v-27h64v-190l-56 39v-29l58-41h29v221h61V0H27" id="bB"/><g id="B"><use transform="matrix(0.05,0,0,0.05,0,0)" xlink:href="#bh"/><use transform="matrix(0.05,0,0,0.05,10,0)" xlink:href="#bi"/><use transform="matrix(0.05,0,0,0.05,15,0)" xlink:href="#bi"/><use transform="matrix(0.05,0,0,0.05,20,0)" xlink:href="#bB"/></g><path fill="#3d4752" d="M768-814c-17-193-489-216-495 0 85 302 654 68 677 512S97 119 57-256l159-28c23 205 552 256 558 0-57-319-643-85-671-512-23-324 466-358 694-239 68 40 119 108 137 199zm-159-386H404c-74-102-176-171-233-290 182-11 222 114 336 171 108-57 148-182 324-171-51 119-154 188-222 290" id="bC"/><g id="C"><use transform="matrix(0.0087890625,0,0,0.0087890625,0,0)" xlink:href="#aE"/><use transform="matrix(0.0087890625,0,0,0.0087890625,11.1357421875,0)" xlink:href="#aF"/><use transform="matrix(0.0087890625,0,0,0.0087890625,17.5693359375,0)" xlink:href="#aG"/><use transform="matrix(0.0087890625,0,0,0.0087890625,27.474609375,0)" xlink:href="#aH"/><use transform="matrix(0.0087890625,0,0,0.0087890625,36.0791015625,0)" xlink:href="#aI"/><use transform="matrix(0.0087890625,0,0,0.0087890625,46.23046875,0)" xlink:href="#aJ"/><use transform="matrix(0.0087890625,0,0,0.0087890625,55.775390625,0)" xlink:href="#aQ"/><use transform="matrix(0.0087890625,0,0,0.0087890625,61.0400390625,0)" xlink:href="#bC"/><use transform="matrix(0.0087890625,0,0,0.0087890625,70.0400390625,0)" xlink:href="#aO"/><use transform="matrix(0.0087890625,0,0,0.0087890625,77.1416015625,0)" xlink:href="#bd"/></g><path fill="#3d4752" d="M168-1094h263V8c0 183-50 314-155 383-129 85-293 60-435-19l64-181c165 82 263 14 263-222v-1063zm263-190H168v-296h263v296" id="bD"/><g id="D"><use transform="matrix(0.0087890625,0,0,0.0087890625,0,0)" xlink:href="#aI"/><use transform="matrix(0.0087890625,0,0,0.0087890625,10.1513671875,0)" xlink:href="#aF"/><use transform="matrix(0.0087890625,0,0,0.0087890625,17.3408203125,0)" xlink:href="#bD"/><use transform="matrix(0.0087890625,0,0,0.0087890625,22.60546875,0)" xlink:href="#aW"/></g><path d="M115-194c55 1 70 41 70 98S169 2 115 4C84 4 66-9 55-30l1 105H24l-1-265h31l2 30c10-21 28-34 59-34zm-8 174c40 0 45-34 45-75s-6-73-45-74c-42 0-51 32-51 76 0 43 10 73 51 73" id="bE"/><path d="M114-163C36-179 61-72 57 0H25l-1-190h30c1 12-1 29 2 39 6-27 23-49 58-41v29" id="bF"/><path d="M141-36C126-15 110 5 73 4 37 3 15-17 15-53c-1-64 63-63 125-63 3-35-9-54-41-54-24 1-41 7-42 31l-33-3c5-37 33-52 76-52 45 0 72 20 72 64v82c-1 20 7 32 28 27v20c-31 9-61-2-59-35zM48-53c0 20 12 33 32 33 41-3 63-29 60-74-43 2-92-5-92 41" id="bG"/><path d="M96-169c-40 0-48 33-48 73s9 75 48 75c24 0 41-14 43-38l32 2c-6 37-31 61-74 61-59 0-76-41-82-99-10-93 101-131 147-64 4 7 5 14 7 22l-32 3c-4-21-16-35-41-35" id="bH"/><path d="M100-194c62-1 85 37 85 99 1 63-27 99-86 99S16-35 15-95c0-66 28-99 85-99zM99-20c44 1 53-31 53-75 0-43-8-75-51-75s-53 32-53 75 10 74 51 75" id="bI"/><path d="M108 0H70L1-190h34L89-25l56-165h34" id="bJ"/><path d="M24-231v-30h32v30H24zM24 0v-190h32V0H24" id="bK"/><path d="M135-143c-3-34-86-38-87 0 15 53 115 12 119 90S17 21 10-45l28-5c4 36 97 45 98 0-10-56-113-15-118-90-4-57 82-63 122-42 12 7 21 19 24 35zm-28-68H71c-13-18-31-30-41-51 32-2 39 20 59 30 19-10 26-32 57-30-9 21-27 33-39 51" id="bL"/><path d="M59-47c-2 24 18 29 38 22v24C64 9 27 4 27-40v-127H5v-23h24l9-43h21v43h35v23H59v120" id="bM"/><path d="M100-194c63 0 86 42 84 106H49c0 40 14 67 53 68 26 1 43-12 49-29l28 8c-11 28-37 45-77 45C44 4 14-33 15-96c1-61 26-98 85-98zm52 81c6-60-76-77-97-28-3 7-6 17-6 28h103zm-34-98H82c-13-18-31-30-41-51 32-2 39 20 59 30 19-10 26-32 57-30-9 21-27 33-39 51" id="bN"/><g id="E"><use transform="matrix(0.05,0,0,0.05,0,0)" xlink:href="#bE"/><use transform="matrix(0.05,0,0,0.05,10,0)" xlink:href="#bF"/><use transform="matrix(0.05,0,0,0.05,15.949999999999998,0)" xlink:href="#bG"/><use transform="matrix(0.05,0,0,0.05,25.950000000000003,0)" xlink:href="#bH"/><use transform="matrix(0.05,0,0,0.05,34.95,0)" xlink:href="#bI"/><use transform="matrix(0.05,0,0,0.05,44.95,0)" xlink:href="#bJ"/><use transform="matrix(0.05,0,0,0.05,53.95,0)" xlink:href="#bK"/><use transform="matrix(0.05,0,0,0.05,57.900000000000006,0)" xlink:href="#bL"/><use transform="matrix(0.05,0,0,0.05,66.9,0)" xlink:href="#bM"/><use transform="matrix(0.05,0,0,0.05,71.9,0)" xlink:href="#bN"/></g><path d="M101-251c68 0 85 55 85 127S166 4 100 4C33 4 14-52 14-124c0-73 17-127 87-127zm-1 229c47 0 54-49 54-102s-4-102-53-102c-51 0-55 48-55 102 0 53 5 102 54 102" id="bO"/><path d="M33 0v-38h34V0H33" id="bP"/><path d="M80-196l47-18 7 23-49 13 32 44-20 13-27-46-27 45-21-12 33-44-49-13 8-23 47 19-2-53h23" id="bQ"/><g id="F"><use transform="matrix(0.05,0,0,0.05,0,0)" xlink:href="#bO"/><use transform="matrix(0.05,0,0,0.05,10,0)" xlink:href="#bP"/><use transform="matrix(0.05,0,0,0.05,15,0)" xlink:href="#bP"/><use transform="matrix(0.05,0,0,0.05,20,0)" xlink:href="#bQ"/></g><path d="M27 0v-27h64v-190l-56 39v-29l58-41h29v221h61V0H27" id="bR"/><g id="G"><use transform="matrix(0.05,0,0,0.05,0,0)" xlink:href="#bO"/><use transform="matrix(0.05,0,0,0.05,10,0)" xlink:href="#bP"/><use transform="matrix(0.05,0,0,0.05,15,0)" xlink:href="#bP"/><use transform="matrix(0.05,0,0,0.05,20,0)" xlink:href="#bR"/></g><path fill="#3d4752" d="M491-632h326l-163-487zM1028 0L887-418H421L279 0H11l527-1489h248L1312 0h-284" id="bS"/><g id="H"><use transform="matrix(0.0087890625,0,0,0.0087890625,0,0)" xlink:href="#bS"/><use transform="matrix(0.0087890625,0,0,0.0087890625,11.9091796875,0)" xlink:href="#aW"/><use transform="matrix(0.0087890625,0,0,0.0087890625,21.849609375,0)" xlink:href="#aG"/><use transform="matrix(0.0087890625,0,0,0.0087890625,31.7548828125,0)" xlink:href="#aR"/><use transform="matrix(0.0087890625,0,0,0.0087890625,42.36328125,0)" xlink:href="#aU"/><use transform="matrix(0.0087890625,0,0,0.0087890625,52.4970703125,0)" xlink:href="#aM"/><use transform="matrix(0.0087890625,0,0,0.0087890625,68.8095703125,0)" xlink:href="#aQ"/><use transform="matrix(0.0087890625,0,0,0.0087890625,74.07421875,0)" xlink:href="#aH"/><use transform="matrix(0.0087890625,0,0,0.0087890625,82.6787109375,0)" xlink:href="#aW"/><use transform="matrix(0.0087890625,0,0,0.0087890625,92.619140625,0)" xlink:href="#bc"/></g><path fill="#3d4752" d="M1113-589c0 325-126 613-421 611-108 0-198-32-271-96V0H168v-1580h263v560c76-64 164-96 265-96 269 0 417 244 417 527zM431-818v553c64 56 127 84 189 84 145 0 218-134 218-402 0-214-68-321-203-321-67 0-135 29-204 86" id="bT"/><g id="I"><use transform="matrix(0.0087890625,0,0,0.0087890625,0,0)" xlink:href="#aI"/><use transform="matrix(0.0087890625,0,0,0.0087890625,10.1513671875,0)" xlink:href="#bT"/><use transform="matrix(0.0087890625,0,0,0.0087890625,20.759765625,0)" xlink:href="#aI"/><use transform="matrix(0.0087890625,0,0,0.0087890625,30.9111328125,0)" xlink:href="#aF"/></g><g id="J"><use transform="matrix(0.0087890625,0,0,0.0087890625,0,0)" xlink:href="#aK"/><use transform="matrix(0.0087890625,0,0,0.0087890625,10.72265625,0)" xlink:href="#aS"/><use transform="matrix(0.0087890625,0,0,0.0087890625,20.6279296875,0)" xlink:href="#aT"/><use transform="matrix(0.0087890625,0,0,0.0087890625,29.232421875,0)" xlink:href="#aU"/><use transform="matrix(0.0087890625,0,0,0.0087890625,39.3662109375,0)" xlink:href="#aJ"/></g><g id="K"><use transform="matrix(0.05,0,0,0.05,0,0)" xlink:href="#bO"/><use transform="matrix(0.05,0,0,0.05,10,0)" xlink:href="#bP"/><use transform="matrix(0.05,0,0,0.05,15,0)" xlink:href="#bP"/><use transform="matrix(0.05,0,0,0.05,20,0)" xlink:href="#bQ"/></g><path d="M143 0L79-87 56-68V0H24v-261h32v163l83-92h37l-77 82L181 0h-38" id="bU"/><path d="M85-194c31 0 48 13 60 33l-1-100h32l1 261h-30c-2-10 0-23-3-31C134-8 116 4 85 4 32 4 16-35 15-94c0-66 23-100 70-100zm9 24c-40 0-46 34-46 75 0 40 6 74 45 74 42 0 51-32 51-76 0-42-9-74-50-73" id="bV"/><path d="M100-194c63 0 86 42 84 106H49c0 40 14 67 53 68 26 1 43-12 49-29l28 8c-11 28-37 45-77 45C44 4 14-33 15-96c1-61 26-98 85-98zm52 81c6-60-76-77-97-28-3 7-6 17-6 28h103" id="bW"/><path d="M210-169c-67 3-38 105-44 169h-31v-121c0-29-5-50-35-48C34-165 62-65 56 0H25l-1-190h30c1 10-1 24 2 32 10-44 99-50 107 0 11-21 27-35 58-36 85-2 47 119 55 194h-31v-121c0-29-5-49-35-48" id="bX"/><path d="M179-190L93 31C79 59 56 82 12 73V49c39 6 53-20 64-50L1-190h34L92-34l54-156h33zM63-211c8-23 27-35 38-54h36v5l-58 49H63" id="bY"/><g id="L"><use transform="matrix(0.05,0,0,0.05,0,0)" xlink:href="#bG"/><use transform="matrix(0.05,0,0,0.05,10,0)" xlink:href="#bU"/><use transform="matrix(0.05,0,0,0.05,19,0)" xlink:href="#bG"/><use transform="matrix(0.05,0,0,0.05,29,0)" xlink:href="#bV"/><use transform="matrix(0.05,0,0,0.05,39,0)" xlink:href="#bW"/><use transform="matrix(0.05,0,0,0.05,49,0)" xlink:href="#bX"/><use transform="matrix(0.05,0,0,0.05,63.95,0)" xlink:href="#bK"/><use transform="matrix(0.05,0,0,0.05,67.9,0)" xlink:href="#bH"/><use transform="matrix(0.05,0,0,0.05,76.9,0)" xlink:href="#bU"/><use transform="matrix(0.05,0,0,0.05,85.9,0)" xlink:href="#bY"/></g><path d="M115-194c53 0 69 39 70 98 0 66-23 100-70 100C84 3 66-7 56-30L54 0H23l1-261h32v101c10-23 28-34 59-34zm-8 174c40 0 45-34 45-75 0-40-5-75-45-74-42 0-51 32-51 76 0 43 10 73 51 73" id="bZ"/><g id="M"><use transform="matrix(0.05,0,0,0.05,0,0)" xlink:href="#bI"/><use transform="matrix(0.05,0,0,0.05,10,0)" xlink:href="#bZ"/><use transform="matrix(0.05,0,0,0.05,20,0)" xlink:href="#bI"/><use transform="matrix(0.05,0,0,0.05,30,0)" xlink:href="#bF"/></g><g id="N"><use transform="matrix(0.05,0,0,0.05,0,0)" xlink:href="#bO"/><use transform="matrix(0.05,0,0,0.05,10,0)" xlink:href="#bP"/><use transform="matrix(0.05,0,0,0.05,15,0)" xlink:href="#bP"/><use transform="matrix(0.05,0,0,0.05,20,0)" xlink:href="#bR"/></g><path d="M24-231v-30h32v30H24zM-9 49c24 4 33-6 33-30v-209h32V24c2 40-23 58-65 49V49" id="ca"/><g id="O"><use transform="matrix(0.05,0,0,0.05,0,0)" xlink:href="#ca"/><use transform="matrix(0.05,0,0,0.05,3.95,0)" xlink:href="#bW"/></g><path d="M135-143c-3-34-86-38-87 0 15 53 115 12 119 90S17 21 10-45l28-5c4 36 97 45 98 0-10-56-113-15-118-90-4-57 82-63 122-42 12 7 21 19 24 35" id="cb"/><path d="M84 4C-5 8 30-112 23-190h32v120c0 31 7 50 39 49 72-2 45-101 50-169h31l1 190h-30c-1-10 1-25-2-33-11 22-28 36-60 37" id="cc"/><path d="M96-169c-40 0-48 33-48 73s9 75 48 75c24 0 41-14 43-38l32 2c-6 37-31 61-74 61-59 0-76-41-82-99-10-93 101-131 147-64 4 7 5 14 7 22l-32 3c-4-21-16-35-41-35zm19-42H79c-13-18-31-30-41-51 32-2 39 20 59 30 19-10 26-32 57-30-9 21-27 33-39 51" id="cd"/><path d="M141-36C126-15 110 5 73 4 37 3 15-17 15-53c-1-64 63-63 125-63 3-35-9-54-41-54-24 1-41 7-42 31l-33-3c5-37 33-52 76-52 45 0 72 20 72 64v82c-1 20 7 32 28 27v20c-31 9-61-2-59-35zM48-53c0 20 12 33 32 33 41-3 63-29 60-74-43 2-92-5-92 41zm25-158c8-23 27-35 38-54h36v5l-58 49H73" id="ce"/><path d="M34 0v-190h32V0H34zM24-211c8-23 27-35 38-54h36v5l-58 49H24" id="cf"/><g id="P"><use transform="matrix(0.05,0,0,0.05,0,0)" xlink:href="#cb"/><use transform="matrix(0.05,0,0,0.05,9,0)" xlink:href="#bI"/><use transform="matrix(0.05,0,0,0.05,19,0)" xlink:href="#cc"/><use transform="matrix(0.05,0,0,0.05,29,0)" xlink:href="#cd"/><use transform="matrix(0.05,0,0,0.05,38,0)" xlink:href="#ce"/><use transform="matrix(0.05,0,0,0.05,48,0)" xlink:href="#cb"/><use transform="matrix(0.05,0,0,0.05,57,0)" xlink:href="#bM"/><use transform="matrix(0.05,0,0,0.05,62,0)" xlink:href="#cf"/></g><path fill="#3d4752" d="M45-1270v-219h1063v219H713V0H440v-1270H45" id="cg"/><g id="Q"><use transform="matrix(0.0087890625,0,0,0.0087890625,0,0)" xlink:href="#cg"/><use transform="matrix(0.0087890625,0,0,0.0087890625,8.1650390625,0)" xlink:href="#ba"/><use transform="matrix(0.0087890625,0,0,0.0087890625,17.701171875,0)" xlink:href="#aV"/></g><g id="R"><use transform="matrix(0.0087890625,0,0,0.0087890625,0,0)" xlink:href="#aV"/><use transform="matrix(0.0087890625,0,0,0.0087890625,10.6083984375,0)" xlink:href="#aF"/><use transform="matrix(0.0087890625,0,0,0.0087890625,17.0419921875,0)" xlink:href="#aG"/><use transform="matrix(0.0087890625,0,0,0.0087890625,26.947265625,0)" xlink:href="#aH"/><use transform="matrix(0.0087890625,0,0,0.0087890625,35.5517578125,0)" xlink:href="#aI"/><use transform="matrix(0.0087890625,0,0,0.0087890625,45.703125,0)" xlink:href="#aJ"/><use transform="matrix(0.0087890625,0,0,0.0087890625,55.248046875,0)" xlink:href="#aK"/><use transform="matrix(0.0087890625,0,0,0.0087890625,65.970703125,0)" xlink:href="#aL"/><use transform="matrix(0.0087890625,0,0,0.0087890625,71.2353515625,0)" xlink:href="#aZ"/><use transform="matrix(0.0087890625,0,0,0.0087890625,81.9580078125,0)" xlink:href="#aI"/></g><g id="S"><use transform="matrix(0.0087890625,0,0,0.0087890625,0,0)" xlink:href="#aJ"/><use transform="matrix(0.0087890625,0,0,0.0087890625,9.544921875,0)" xlink:href="#aT"/><use transform="matrix(0.0087890625,0,0,0.0087890625,18.1494140625,0)" xlink:href="#aO"/><use transform="matrix(0.0087890625,0,0,0.0087890625,25.2509765625,0)" xlink:href="#aG"/><use transform="matrix(0.0087890625,0,0,0.0087890625,35.15625,0)" xlink:href="#aZ"/><use transform="matrix(0.0087890625,0,0,0.0087890625,45.87890625,0)" xlink:href="#aX"/></g><g id="T"><use transform="matrix(0.0087890625,0,0,0.0087890625,0,0)" xlink:href="#aK"/><use transform="matrix(0.0087890625,0,0,0.0087890625,10.72265625,0)" xlink:href="#aS"/><use transform="matrix(0.0087890625,0,0,0.0087890625,20.6279296875,0)" xlink:href="#aT"/><use transform="matrix(0.0087890625,0,0,0.0087890625,29.232421875,0)" xlink:href="#aU"/><use transform="matrix(0.0087890625,0,0,0.0087890625,39.3662109375,0)" xlink:href="#aJ"/></g><path d="M179-190L93 31C79 59 56 82 12 73V49c39 6 53-20 64-50L1-190h34L92-34l54-156h33" id="ch"/><g id="U"><use transform="matrix(0.05,0,0,0.05,0,0)" xlink:href="#bM"/><use transform="matrix(0.05,0,0,0.05,5,0)" xlink:href="#ch"/><use transform="matrix(0.05,0,0,0.05,14,0)" xlink:href="#bE"/></g><path d="M117-194c89-4 53 116 60 194h-32v-121c0-31-8-49-39-48C34-167 62-67 57 0H25l-1-190h30c1 10-1 24 2 32 11-22 29-35 61-36" id="ci"/><path d="M106-169C34-169 62-67 57 0H25v-261h32l-1 103c12-21 28-36 61-36 89 0 53 116 60 194h-32v-121c2-32-8-49-39-48" id="cj"/><g id="V"><use transform="matrix(0.05,0,0,0.05,0,0)" xlink:href="#bE"/><use transform="matrix(0.05,0,0,0.05,10,0)" xlink:href="#bF"/><use transform="matrix(0.05,0,0,0.05,15.949999999999998,0)" xlink:href="#bG"/><use transform="matrix(0.05,0,0,0.05,25.950000000000003,0)" xlink:href="#bH"/><use transform="matrix(0.05,0,0,0.05,34.95,0)" xlink:href="#bI"/><use transform="matrix(0.05,0,0,0.05,44.95,0)" xlink:href="#bJ"/><use transform="matrix(0.05,0,0,0.05,53.95,0)" xlink:href="#ci"/><use transform="matrix(0.05,0,0,0.05,63.95,0)" xlink:href="#cf"/><use transform="matrix(0.05,0,0,0.05,68.95,0)" xlink:href="#cj"/><use transform="matrix(0.05,0,0,0.05,78.95,0)" xlink:href="#bI"/></g><path d="M9 0v-24l116-142H16v-24h144v24L44-24h123V0H9" id="ck"/><g id="W"><use transform="matrix(0.05,0,0,0.05,0,0)" xlink:href="#bJ"/><use transform="matrix(0.05,0,0,0.05,9,0)" xlink:href="#ck"/><use transform="matrix(0.05,0,0,0.05,18,0)" xlink:href="#bM"/><use transform="matrix(0.05,0,0,0.05,23,0)" xlink:href="#bG"/><use transform="matrix(0.05,0,0,0.05,33,0)" xlink:href="#cj"/><use transform="matrix(0.05,0,0,0.05,43,0)" xlink:href="#cc"/></g><path fill="#3d4752" d="M1282-743c0 396-250 743-634 743H205v-1489h417c437-2 660 295 660 746zM637-225c233 9 365-240 365-518 0-216-61-366-177-458-90-72-200-63-346-63v1039h158" id="cl"/><g id="X"><use transform="matrix(0.0087890625,0,0,0.0087890625,0,0)" xlink:href="#cl"/><use transform="matrix(0.0087890625,0,0,0.0087890625,12.1640625,0)" xlink:href="#aI"/><use transform="matrix(0.0087890625,0,0,0.0087890625,22.3154296875,0)" xlink:href="#aW"/><use transform="matrix(0.0087890625,0,0,0.0087890625,32.255859375,0)" xlink:href="#aX"/><use transform="matrix(0.0087890625,0,0,0.0087890625,42.978515625,0)" xlink:href="#aM"/><use transform="matrix(0.0087890625,0,0,0.0087890625,59.291015625,0)" xlink:href="#aU"/><use transform="matrix(0.0087890625,0,0,0.0087890625,69.4248046875,0)" xlink:href="#aK"/><use transform="matrix(0.0087890625,0,0,0.0087890625,80.1474609375,0)" xlink:href="#aO"/></g><g id="Y"><use transform="matrix(0.0087890625,0,0,0.0087890625,0,0)" xlink:href="#aX"/><use transform="matrix(0.0087890625,0,0,0.0087890625,10.72265625,0)" xlink:href="#aF"/><use transform="matrix(0.0087890625,0,0,0.0087890625,17.912109375,0)" xlink:href="#aY"/></g><path fill="#3d4752" d="M899-1530H694c-74-91-182-148-233-262 171-11 222 97 336 142 108-51 154-154 324-142-46 114-154 165-222 262zm307 512c-57-159-199-256-415-256-336 0-495 228-495 563 0 341 165 575 506 575 245 0 353-137 444-296l154 80C1298-136 1110 23 791 23c-455 0-666-284-688-734-34-592 563-870 1064-631 108 51 176 148 222 262" id="cm"/><g id="Z"><use transform="matrix(0.0087890625,0,0,0.0087890625,0,0)" xlink:href="#cm"/><use transform="matrix(0.0087890625,0,0,0.0087890625,12.9462890625,0)" xlink:href="#aS"/><use transform="matrix(0.0087890625,0,0,0.0087890625,22.8515625,0)" xlink:href="#aN"/><use transform="matrix(0.0087890625,0,0,0.0087890625,31.67578125,0)" xlink:href="#aO"/><use transform="matrix(0.0087890625,0,0,0.0087890625,38.77734375,0)" xlink:href="#aW"/><use transform="matrix(0.0087890625,0,0,0.0087890625,48.7177734375,0)" xlink:href="#aG"/></g><g id="aa"><use transform="matrix(0.0087890625,0,0,0.0087890625,0,0)" xlink:href="#bb"/><use transform="matrix(0.0087890625,0,0,0.0087890625,9,0)" xlink:href="#aS"/><use transform="matrix(0.0087890625,0,0,0.0087890625,18.9052734375,0)" xlink:href="#aN"/><use transform="matrix(0.0087890625,0,0,0.0087890625,27.7294921875,0)" xlink:href="#aO"/><use transform="matrix(0.0087890625,0,0,0.0087890625,34.8310546875,0)" xlink:href="#aW"/><use transform="matrix(0.0087890625,0,0,0.0087890625,44.771484375,0)" xlink:href="#aG"/></g><g id="ab"><use transform="matrix(0.0087890625,0,0,0.0087890625,0,0)" xlink:href="#aM"/><use transform="matrix(0.0087890625,0,0,0.0087890625,16.3125,0)" xlink:href="#bd"/><use transform="matrix(0.0087890625,0,0,0.0087890625,28.0458984375,0)" xlink:href="#aK"/><use transform="matrix(0.0087890625,0,0,0.0087890625,38.7685546875,0)" xlink:href="#aG"/></g><g id="ac"><use transform="matrix(0.0087890625,0,0,0.0087890625,0,0)" xlink:href="#bD"/><use transform="matrix(0.0087890625,0,0,0.0087890625,5.2646484375,0)" xlink:href="#aU"/><use transform="matrix(0.0087890625,0,0,0.0087890625,15.3984375,0)" xlink:href="#aR"/><use transform="matrix(0.0087890625,0,0,0.0087890625,26.0068359375,0)" xlink:href="#aK"/><use transform="matrix(0.0087890625,0,0,0.0087890625,36.7294921875,0)" xlink:href="#aI"/><use transform="matrix(0.0087890625,0,0,0.0087890625,46.880859375,0)" xlink:href="#aO"/><use transform="matrix(0.0087890625,0,0,0.0087890625,53.982421875,0)" xlink:href="#aW"/><use transform="matrix(0.0087890625,0,0,0.0087890625,63.9228515625,0)" xlink:href="#aG"/></g><path d="M24 0v-261h32V0H24" id="cn"/><g id="ad"><use transform="matrix(0.05,0,0,0.05,0,0)" xlink:href="#bE"/><use transform="matrix(0.05,0,0,0.05,10,0)" xlink:href="#cn"/><use transform="matrix(0.05,0,0,0.05,13.949999999999998,0)" xlink:href="#bG"/><use transform="matrix(0.05,0,0,0.05,23.95,0)" xlink:href="#bM"/></g><g id="ae"><use transform="matrix(0.0087890625,0,0,0.0087890625,0,0)" xlink:href="#bf"/><use transform="matrix(0.0087890625,0,0,0.0087890625,11.0302734375,0)" xlink:href="#aI"/><use transform="matrix(0.0087890625,0,0,0.0087890625,21.181640625,0)" xlink:href="#aK"/><use transform="matrix(0.0087890625,0,0,0.0087890625,31.904296875,0)" xlink:href="#aO"/><use transform="matrix(0.0087890625,0,0,0.0087890625,39.005859375,0)" xlink:href="#aG"/><use transform="matrix(0.0087890625,0,0,0.0087890625,48.9111328125,0)" xlink:href="#aW"/><use transform="matrix(0.0087890625,0,0,0.0087890625,58.8515625,0)" xlink:href="#aO"/></g><g id="af"><use transform="matrix(0.0087890625,0,0,0.0087890625,0,0)" xlink:href="#aR"/><use transform="matrix(0.0087890625,0,0,0.0087890625,10.6083984375,0)" xlink:href="#aF"/><use transform="matrix(0.0087890625,0,0,0.0087890625,17.7978515625,0)" xlink:href="#aX"/><use transform="matrix(0.0087890625,0,0,0.0087890625,28.5205078125,0)" xlink:href="#aZ"/></g><g id="ag"><use transform="matrix(0.0087890625,0,0,0.0087890625,0,0)" xlink:href="#aU"/><use transform="matrix(0.0087890625,0,0,0.0087890625,10.1337890625,0)" xlink:href="#aM"/><use transform="matrix(0.0087890625,0,0,0.0087890625,26.4462890625,0)" xlink:href="#aG"/><use transform="matrix(0.0087890625,0,0,0.0087890625,36.3515625,0)" xlink:href="#aQ"/><use transform="matrix(0.0087890625,0,0,0.0087890625,41.6162109375,0)" xlink:href="#aY"/></g><g id="ah"><use transform="matrix(0.0087890625,0,0,0.0087890625,0,0)" xlink:href="#aO"/><use transform="matrix(0.0087890625,0,0,0.0087890625,7.1015625,0)" xlink:href="#aU"/><use transform="matrix(0.0087890625,0,0,0.0087890625,17.2353515625,0)" xlink:href="#aY"/><use transform="matrix(0.0087890625,0,0,0.0087890625,22.9306640625,0)" xlink:href="#aU"/><use transform="matrix(0.0087890625,0,0,0.0087890625,33.064453125,0)" xlink:href="#bg"/><use transform="matrix(0.0087890625,0,0,0.0087890625,39.5771484375,0)" xlink:href="#aI"/><use transform="matrix(0.0087890625,0,0,0.0087890625,49.728515625,0)" xlink:href="#aK"/></g><g id="ai"><use transform="matrix(0.05,0,0,0.05,0,0)" xlink:href="#bU"/><use transform="matrix(0.05,0,0,0.05,9,0)" xlink:href="#bI"/><use transform="matrix(0.05,0,0,0.05,19,0)" xlink:href="#ci"/><use transform="matrix(0.05,0,0,0.05,29,0)" xlink:href="#bM"/><use transform="matrix(0.05,0,0,0.05,34,0)" xlink:href="#bG"/><use transform="matrix(0.05,0,0,0.05,44,0)" xlink:href="#bU"/><use transform="matrix(0.05,0,0,0.05,53,0)" xlink:href="#bM"/></g><path fill="#3d4752" d="M413-1411c192-134 466-131 654 5 174 126 303 370 302 662-1 301-123 542-306 668C871 56 592 54 403-80 225-206 101-446 102-744c2-299 128-540 311-667zm623 951c106-314 22-833-300-833-233 0-343 288-343 549 0 222 54 382 163 479 52 47 112 70 180 70 139 0 240-88 300-265" id="co"/><g id="aj"><use transform="matrix(0.0087890625,0,0,0.0087890625,0,0)" xlink:href="#co"/><use transform="matrix(0.0087890625,0,0,0.0087890625,12.9287109375,0)" xlink:href="#aN"/><use transform="matrix(0.0087890625,0,0,0.0087890625,21.7529296875,0)" xlink:href="#aI"/><use transform="matrix(0.0087890625,0,0,0.0087890625,31.904296875,0)" xlink:href="#bT"/><use transform="matrix(0.0087890625,0,0,0.0087890625,42.5126953125,0)" xlink:href="#aG"/></g><g id="ak"><use transform="matrix(0.0087890625,0,0,0.0087890625,0,0)" xlink:href="#aQ"/><use transform="matrix(0.0087890625,0,0,0.0087890625,5.2646484375,0)" xlink:href="#bb"/></g><g id="al"><use transform="matrix(0.05,0,0,0.05,0,0)" xlink:href="#bE"/><use transform="matrix(0.05,0,0,0.05,10,0)" xlink:href="#bF"/><use transform="matrix(0.05,0,0,0.05,15.949999999999998,0)" xlink:href="#bI"/><use transform="matrix(0.05,0,0,0.05,25.950000000000003,0)" xlink:href="#bJ"/><use transform="matrix(0.05,0,0,0.05,34.95,0)" xlink:href="#bI"/><use transform="matrix(0.05,0,0,0.05,44.95,0)" xlink:href="#ck"/><use transform="matrix(0.05,0,0,0.05,53.95,0)" xlink:href="#bI"/><use transform="matrix(0.05,0,0,0.05,63.95,0)" xlink:href="#bJ"/><use transform="matrix(0.05,0,0,0.05,72.95,0)" xlink:href="#bG"/><use transform="matrix(0.05,0,0,0.05,82.95,0)" xlink:href="#bM"/><use transform="matrix(0.05,0,0,0.05,87.95,0)" xlink:href="#bW"/><use transform="matrix(0.05,0,0,0.05,97.95,0)" xlink:href="#cn"/></g><g id="am"><use transform="matrix(0.0087890625,0,0,0.0087890625,0,0)" xlink:href="#cm"/><use transform="matrix(0.0087890625,0,0,0.0087890625,12.9462890625,0)" xlink:href="#aG"/><use transform="matrix(0.0087890625,0,0,0.0087890625,22.8515625,0)" xlink:href="#aN"/><use transform="matrix(0.0087890625,0,0,0.0087890625,31.67578125,0)" xlink:href="#aI"/><use transform="matrix(0.0087890625,0,0,0.0087890625,41.8271484375,0)" xlink:href="#aJ"/><use transform="matrix(0.0087890625,0,0,0.0087890625,51.3720703125,0)" xlink:href="#bc"/></g><path fill="#3d4752" d="M51 0v-137l660-808H91v-137h819v137L250-137h700V0H51zm541-1200H387c-74-102-176-171-233-290 182-11 222 114 336 171 108-57 148-182 324-171-51 119-154 188-222 290" id="cp"/><g id="an"><use transform="matrix(0.0087890625,0,0,0.0087890625,0,0)" xlink:href="#aI"/><use transform="matrix(0.0087890625,0,0,0.0087890625,10.1513671875,0)" xlink:href="#aW"/><use transform="matrix(0.0087890625,0,0,0.0087890625,20.091796875,0)" xlink:href="#aG"/><use transform="matrix(0.0087890625,0,0,0.0087890625,29.9970703125,0)" xlink:href="#aM"/><use transform="matrix(0.0087890625,0,0,0.0087890625,46.3095703125,0)" xlink:href="#cp"/><use transform="matrix(0.0087890625,0,0,0.0087890625,55.3095703125,0)" xlink:href="#aQ"/><use transform="matrix(0.0087890625,0,0,0.0087890625,60.57421875,0)" xlink:href="#aW"/></g><g id="ao"><use transform="matrix(0.0087890625,0,0,0.0087890625,0,0)" xlink:href="#aR"/><use transform="matrix(0.0087890625,0,0,0.0087890625,10.6083984375,0)" xlink:href="#aG"/><use transform="matrix(0.0087890625,0,0,0.0087890625,20.513671875,0)" xlink:href="#aO"/><use transform="matrix(0.0087890625,0,0,0.0087890625,27.615234375,0)" xlink:href="#aX"/><use transform="matrix(0.0087890625,0,0,0.0087890625,38.337890625,0)" xlink:href="#aM"/></g><g id="ap"><use transform="matrix(0.0087890625,0,0,0.0087890625,0,0)" xlink:href="#bb"/><use transform="matrix(0.0087890625,0,0,0.0087890625,9,0)" xlink:href="#aG"/><use transform="matrix(0.0087890625,0,0,0.0087890625,18.9052734375,0)" xlink:href="#aN"/></g><g id="aq"><use transform="matrix(0.0087890625,0,0,0.0087890625,0,0)" xlink:href="#aR"/><use transform="matrix(0.0087890625,0,0,0.0087890625,10.6083984375,0)" xlink:href="#aG"/><use transform="matrix(0.0087890625,0,0,0.0087890625,20.513671875,0)" xlink:href="#aO"/><use transform="matrix(0.0087890625,0,0,0.0087890625,27.615234375,0)" xlink:href="#aX"/><use transform="matrix(0.0087890625,0,0,0.0087890625,38.337890625,0)" xlink:href="#aM"/></g><use transform="matrix(0.0087890625,0,0,0.0087890625,0,0)" xlink:href="#aG" id="ar"/><g id="as"><use transform="matrix(0.0087890625,0,0,0.0087890625,0,0)" xlink:href="#bb"/><use transform="matrix(0.0087890625,0,0,0.0087890625,9,0)" xlink:href="#aG"/><use transform="matrix(0.0087890625,0,0,0.0087890625,18.9052734375,0)" xlink:href="#aN"/></g><g id="at"><use transform="matrix(0.05,0,0,0.05,0,0)" xlink:href="#bJ"/><use transform="matrix(0.05,0,0,0.05,9,0)" xlink:href="#ch"/><use transform="matrix(0.05,0,0,0.05,18,0)" xlink:href="#bE"/><use transform="matrix(0.05,0,0,0.05,28,0)" xlink:href="#cb"/><use transform="matrix(0.05,0,0,0.05,37,0)" xlink:href="#ce"/><use transform="matrix(0.05,0,0,0.05,47,0)" xlink:href="#ci"/><use transform="matrix(0.05,0,0,0.05,57,0)" xlink:href="#bI"/></g><g id="au"><use transform="matrix(0.05,0,0,0.05,0,0)" xlink:href="#bM"/><use transform="matrix(0.05,0,0,0.05,5,0)" xlink:href="#bW"/><use transform="matrix(0.05,0,0,0.05,15,0)" xlink:href="#bF"/><use transform="matrix(0.05,0,0,0.05,20.95,0)" xlink:href="#bX"/><use transform="matrix(0.05,0,0,0.05,35.9,0)" xlink:href="#cf"/><use transform="matrix(0.05,0,0,0.05,40.9,0)" xlink:href="#ci"/></g><g id="av"><use transform="matrix(0.05,0,0,0.05,0,0)" xlink:href="#bE"/><use transform="matrix(0.05,0,0,0.05,10,0)" xlink:href="#bI"/><use transform="matrix(0.05,0,0,0.05,20,0)" xlink:href="#bV"/><use transform="matrix(0.05,0,0,0.05,30,0)" xlink:href="#ce"/><use transform="matrix(0.05,0,0,0.05,40,0)" xlink:href="#ci"/><use transform="matrix(0.05,0,0,0.05,50,0)" xlink:href="#cf"/></g><path d="M114-163C36-179 61-72 57 0H25l-1-190h30c1 12-1 29 2 39 6-27 23-49 58-41v29zm-27-48H51c-13-18-31-30-41-51 32-2 39 20 59 30 19-10 26-32 57-30-9 21-27 33-39 51" id="cq"/><g id="aw"><use transform="matrix(0.05,0,0,0.05,0,0)" xlink:href="#bE"/><use transform="matrix(0.05,0,0,0.05,10,0)" xlink:href="#cq"/><use transform="matrix(0.05,0,0,0.05,15.949999999999998,0)" xlink:href="#bK"/><use transform="matrix(0.05,0,0,0.05,19.9,0)" xlink:href="#cj"/><use transform="matrix(0.05,0,0,0.05,29.899999999999995,0)" xlink:href="#cn"/><use transform="matrix(0.05,0,0,0.05,33.85,0)" xlink:href="#ce"/><use transform="matrix(0.05,0,0,0.05,43.85,0)" xlink:href="#bL"/><use transform="matrix(0.05,0,0,0.05,52.85,0)" xlink:href="#bW"/><use transform="matrix(0.05,0,0,0.05,62.85,0)" xlink:href="#bU"/></g><g id="ax"><use transform="matrix(0.05,0,0,0.05,0,0)" xlink:href="#ci"/><use transform="matrix(0.05,0,0,0.05,10,0)" xlink:href="#ce"/><use transform="matrix(0.05,0,0,0.05,20,0)" xlink:href="#cb"/><use transform="matrix(0.05,0,0,0.05,29,0)" xlink:href="#bM"/><use transform="matrix(0.05,0,0,0.05,34,0)" xlink:href="#cc"/><use transform="matrix(0.05,0,0,0.05,44,0)" xlink:href="#bE"/></g><g id="ay"><use transform="matrix(0.05,0,0,0.05,0,0)" xlink:href="#bE"/><use transform="matrix(0.05,0,0,0.05,10,0)" xlink:href="#cq"/><use transform="matrix(0.05,0,0,0.05,15.949999999999998,0)" xlink:href="#cf"/><use transform="matrix(0.05,0,0,0.05,20.95,0)" xlink:href="#cn"/><use transform="matrix(0.05,0,0,0.05,24.9,0)" xlink:href="#bI"/><use transform="matrix(0.05,0,0,0.05,34.9,0)" xlink:href="#cj"/><use transform="matrix(0.05,0,0,0.05,44.9,0)" xlink:href="#bG"/></g><g id="az"><use transform="matrix(0.0087890625,0,0,0.0087890625,0,0)" xlink:href="#cg"/><use transform="matrix(0.0087890625,0,0,0.0087890625,8.1650390625,0)" xlink:href="#ba"/><use transform="matrix(0.0087890625,0,0,0.0087890625,17.701171875,0)" xlink:href="#aV"/></g><g id="aA"><use transform="matrix(0.0087890625,0,0,0.0087890625,0,0)" xlink:href="#aV"/><use transform="matrix(0.0087890625,0,0,0.0087890625,10.6083984375,0)" xlink:href="#aF"/><use transform="matrix(0.0087890625,0,0,0.0087890625,17.0419921875,0)" xlink:href="#aG"/><use transform="matrix(0.0087890625,0,0,0.0087890625,26.947265625,0)" xlink:href="#aH"/><use transform="matrix(0.0087890625,0,0,0.0087890625,35.5517578125,0)" xlink:href="#aI"/><use transform="matrix(0.0087890625,0,0,0.0087890625,45.703125,0)" xlink:href="#aJ"/><use transform="matrix(0.0087890625,0,0,0.0087890625,55.248046875,0)" xlink:href="#aQ"/><use transform="matrix(0.0087890625,0,0,0.0087890625,60.5126953125,0)" xlink:href="#bC"/><use transform="matrix(0.0087890625,0,0,0.0087890625,69.5126953125,0)" xlink:href="#aO"/><use transform="matrix(0.0087890625,0,0,0.0087890625,76.6142578125,0)" xlink:href="#bd"/></g><g id="aB"><use transform="matrix(0.05,0,0,0.05,0,0)" xlink:href="#bE"/><use transform="matrix(0.05,0,0,0.05,10,0)" xlink:href="#bF"/><use transform="matrix(0.05,0,0,0.05,15.949999999999998,0)" xlink:href="#bG"/><use transform="matrix(0.05,0,0,0.05,25.950000000000003,0)" xlink:href="#bH"/><use transform="matrix(0.05,0,0,0.05,34.95,0)" xlink:href="#bI"/><use transform="matrix(0.05,0,0,0.05,44.95,0)" xlink:href="#bJ"/><use transform="matrix(0.05,0,0,0.05,53.95,0)" xlink:href="#bK"/><use transform="matrix(0.05,0,0,0.05,57.900000000000006,0)" xlink:href="#bL"/><use transform="matrix(0.05,0,0,0.05,66.9,0)" xlink:href="#bM"/><use transform="matrix(0.05,0,0,0.05,71.9,0)" xlink:href="#bN"/></g><g id="aC"><use transform="matrix(0.05,0,0,0.05,0,0)" xlink:href="#bX"/><use transform="matrix(0.05,0,0,0.05,14.950000000000001,0)" xlink:href="#bK"/><use transform="matrix(0.05,0,0,0.05,18.900000000000002,0)" xlink:href="#ci"/><use transform="matrix(0.05,0,0,0.05,28.900000000000002,0)" xlink:href="#bK"/><use transform="matrix(0.05,0,0,0.05,32.85,0)" xlink:href="#bX"/><use transform="matrix(0.05,0,0,0.05,47.800000000000004,0)" xlink:href="#cc"/><use transform="matrix(0.05,0,0,0.05,57.800000000000004,0)" xlink:href="#bX"/></g><path d="M141 0L90-78 38 0H4l68-98-65-92h35l48 74 47-74h35l-64 92 68 98h-35" id="cr"/><g id="aD"><use transform="matrix(0.05,0,0,0.05,0,0)" xlink:href="#bX"/><use transform="matrix(0.05,0,0,0.05,14.950000000000001,0)" xlink:href="#bG"/><use transform="matrix(0.05,0,0,0.05,24.950000000000003,0)" xlink:href="#cr"/><use transform="matrix(0.05,0,0,0.05,33.95,0)" xlink:href="#bK"/><use transform="matrix(0.05,0,0,0.05,37.900000000000006,0)" xlink:href="#bX"/><use transform="matrix(0.05,0,0,0.05,52.85,0)" xlink:href="#cc"/><use transform="matrix(0.05,0,0,0.05,62.85,0)" xlink:href="#bX"/></g></defs></g></svg>