<svg xmlns="http://www.w3.org/2000/svg" xmlns:xlink="http://www.w3.org/1999/xlink" contentStyleType="text/css" data-diagram-type="CLASS" height="616px" preserveAspectRatio="none" style="width:2052px;height:616px;background:#FFFFFF;" version="1.1" viewBox="0 0 2052 616" width="2052px" zoomAndPan="magnify"><defs/><g><!--class Org?n ve?ejn? moci--><g id="elem_Org&#225;n ve&#345;ejn&#233; moci"><rect codeLine="2" fill="#F1F1F1" height="210.9688" id="Org&#225;n ve&#345;ejn&#233; moci" rx="2.5" ry="2.5" style="stroke:#181818;stroke-width:0.5;" width="498.5752" x="818.96" y="132"/><ellipse cx="994.7735" cy="148" fill="#ADD1B2" rx="11" ry="11" style="stroke:#181818;stroke-width:1;"/><path d="M997.7422,153.6406 Q997.1641,153.9375 996.5235,154.0781 Q995.8829,154.2344 995.1797,154.2344 Q992.6797,154.2344 991.3516,152.5938 Q990.0391,150.9375 990.0391,147.8125 Q990.0391,144.6875 991.3516,143.0313 Q992.6797,141.375 995.1797,141.375 Q995.8829,141.375 996.5235,141.5313 Q997.1797,141.6875 997.7422,141.9844 L997.7422,144.7031 Q997.1172,144.125 996.5235,143.8594 Q995.9297,143.5781 995.3047,143.5781 Q993.961,143.5781 993.2735,144.6563 Q992.586,145.7188 992.586,147.8125 Q992.586,149.9063 993.2735,150.9844 Q993.961,152.0469 995.3047,152.0469 Q995.9297,152.0469 996.5235,151.7813 Q997.1172,151.5 997.7422,150.9219 L997.7422,153.6406 Z " fill="#000000"/><text fill="#000000" font-family="sans-serif" font-size="14" lengthAdjust="spacing" textLength="138.4482" x="1015.2735" y="152.8467">Org&#225;n ve&#345;ejn&#233; moci</text><line style="stroke:#181818;stroke-width:0.5;" x1="819.96" x2="1316.5352" y1="164" y2="164"/><text fill="#000000" font-family="sans-serif" font-size="14" lengthAdjust="spacing" textLength="321.6172" x="824.96" y="180.9951">"M&#225; identifik&#225;tor org&#225;nu ve&#345;ejn&#233; moci": string</text><text fill="#000000" font-family="sans-serif" font-size="14" lengthAdjust="spacing" textLength="278.3594" x="824.96" y="197.292">"M&#225; n&#225;zev org&#225;nu ve&#345;ejn&#233; moci": string</text><text fill="#000000" font-family="sans-serif" font-size="14" lengthAdjust="spacing" textLength="284.1836" x="824.96" y="213.5889">"Je vnit&#345;n&#237; organiza&#269;n&#237; jednotkou": string</text><text fill="#000000" font-family="sans-serif" font-size="14" lengthAdjust="spacing" textLength="404.0996" x="824.96" y="229.8857">"M&#225; identifika&#269;n&#237; &#269;&#237;slo osoby org&#225;nu ve&#345;ejn&#233; moci": string</text><text fill="#000000" font-family="sans-serif" font-size="14" lengthAdjust="spacing" textLength="481.7285" x="824.96" y="246.1826">"M&#225; datum zah&#225;jen&#237; v&#253;konu p&#367;sobnosti org&#225;nu ve&#345;ejn&#233; moci": string</text><text fill="#000000" font-family="sans-serif" font-size="14" lengthAdjust="spacing" textLength="486.5752" x="824.96" y="262.4795">"M&#225; datum ukon&#269;en&#237; v&#253;konu p&#367;sobnosti org&#225;nu ve&#345;ejn&#233; moci": string</text><text fill="#000000" font-family="sans-serif" font-size="14" lengthAdjust="spacing" textLength="474.9951" x="824.96" y="278.7764">"M&#225; pozastaven&#253; v&#253;kon p&#367;sobnosti org&#225;nu ve&#345;ejn&#233; moci od": string</text><text fill="#000000" font-family="sans-serif" font-size="14" lengthAdjust="spacing" textLength="474.9951" x="824.96" y="295.0732">"M&#225; pozastaven&#253; v&#253;kon p&#367;sobnosti org&#225;nu ve&#345;ejn&#233; moci do": string</text><text fill="#000000" font-family="sans-serif" font-size="14" lengthAdjust="spacing" textLength="457.1465" x="824.96" y="311.3701">"M&#225; p&#345;eru&#353;en&#253; v&#253;kon p&#367;sobnosti org&#225;nu ve&#345;ejn&#233; moci od": string</text><text fill="#000000" font-family="sans-serif" font-size="14" lengthAdjust="spacing" textLength="457.1465" x="824.96" y="327.667">"M&#225; p&#345;eru&#353;en&#253; v&#253;kon p&#367;sobnosti org&#225;nu ve&#345;ejn&#233; moci do": string</text><line style="stroke:#181818;stroke-width:0.5;" x1="819.96" x2="1316.5352" y1="334.9688" y2="334.9688"/></g><!--class Org?n ve?ejn? moci nebo soukromopr?vn? u?ivatel ?daj?--><g id="elem_Org&#225;n ve&#345;ejn&#233; moci nebo soukromopr&#225;vn&#237; u&#382;ivatel &#250;daj&#367;"><rect codeLine="15" fill="#F1F1F1" height="48" id="Org&#225;n ve&#345;ejn&#233; moci nebo soukromopr&#225;vn&#237; u&#382;ivatel &#250;daj&#367;" rx="2.5" ry="2.5" style="stroke:#181818;stroke-width:0.5;" width="430.8906" x="1194.8" y="7"/><ellipse cx="1209.8" cy="23" fill="#ADD1B2" rx="11" ry="11" style="stroke:#181818;stroke-width:1;"/><path d="M1212.7688,28.6406 Q1212.1906,28.9375 1211.55,29.0781 Q1210.9094,29.2344 1210.2063,29.2344 Q1207.7063,29.2344 1206.3781,27.5938 Q1205.0656,25.9375 1205.0656,22.8125 Q1205.0656,19.6875 1206.3781,18.0313 Q1207.7063,16.375 1210.2063,16.375 Q1210.9094,16.375 1211.55,16.5313 Q1212.2063,16.6875 1212.7688,16.9844 L1212.7688,19.7031 Q1212.1438,19.125 1211.55,18.8594 Q1210.9563,18.5781 1210.3313,18.5781 Q1208.9875,18.5781 1208.3,19.6563 Q1207.6125,20.7188 1207.6125,22.8125 Q1207.6125,24.9063 1208.3,25.9844 Q1208.9875,27.0469 1210.3313,27.0469 Q1210.9563,27.0469 1211.55,26.7813 Q1212.1438,26.5 1212.7688,25.9219 L1212.7688,28.6406 Z " fill="#000000"/><text fill="#000000" font-family="sans-serif" font-size="14" lengthAdjust="spacing" textLength="398.8906" x="1223.8" y="27.8467">Org&#225;n ve&#345;ejn&#233; moci nebo soukromopr&#225;vn&#237; u&#382;ivatel &#250;daj&#367;</text><line style="stroke:#181818;stroke-width:0.5;" x1="1195.8" x2="1624.6906" y1="39" y2="39"/><line style="stroke:#181818;stroke-width:0.5;" x1="1195.8" x2="1624.6906" y1="47" y2="47"/></g><!--class Datov? schr?nka--><g id="elem_Datov&#225; schr&#225;nka"><rect codeLine="18" fill="#F1F1F1" height="48" id="Datov&#225; schr&#225;nka" rx="2.5" ry="2.5" style="stroke:#181818;stroke-width:0.5;" width="150.4873" x="7" y="428.12"/><ellipse cx="22" cy="444.12" fill="#ADD1B2" rx="11" ry="11" style="stroke:#181818;stroke-width:1;"/><path d="M24.9688,449.7606 Q24.3906,450.0575 23.75,450.1981 Q23.1094,450.3544 22.4063,450.3544 Q19.9063,450.3544 18.5781,448.7138 Q17.2656,447.0575 17.2656,443.9325 Q17.2656,440.8075 18.5781,439.1513 Q19.9063,437.495 22.4063,437.495 Q23.1094,437.495 23.75,437.6513 Q24.4063,437.8075 24.9688,438.1044 L24.9688,440.8231 Q24.3438,440.245 23.75,439.9794 Q23.1563,439.6981 22.5313,439.6981 Q21.1875,439.6981 20.5,440.7763 Q19.8125,441.8388 19.8125,443.9325 Q19.8125,446.0263 20.5,447.1044 Q21.1875,448.1669 22.5313,448.1669 Q23.1563,448.1669 23.75,447.9013 Q24.3438,447.62 24.9688,447.0419 L24.9688,449.7606 Z " fill="#000000"/><text fill="#000000" font-family="sans-serif" font-size="14" lengthAdjust="spacing" textLength="118.4873" x="36" y="448.9667">Datov&#225; schr&#225;nka</text><line style="stroke:#181818;stroke-width:0.5;" x1="8" x2="156.4873" y1="460.12" y2="460.12"/><line style="stroke:#181818;stroke-width:0.5;" x1="8" x2="156.4873" y1="468.12" y2="468.12"/></g><!--class Ustanoven? pr?vn?ho p?edpisu--><g id="elem_Ustanoven&#237; pr&#225;vn&#237;ho p&#345;edpisu"><rect codeLine="21" fill="#F1F1F1" height="48" id="Ustanoven&#237; pr&#225;vn&#237;ho p&#345;edpisu" rx="2.5" ry="2.5" style="stroke:#181818;stroke-width:0.5;" width="242.4033" x="281.04" y="428.12"/><ellipse cx="296.04" cy="444.12" fill="#ADD1B2" rx="11" ry="11" style="stroke:#181818;stroke-width:1;"/><path d="M299.0088,449.7606 Q298.4306,450.0575 297.79,450.1981 Q297.1494,450.3544 296.4463,450.3544 Q293.9463,450.3544 292.6181,448.7138 Q291.3056,447.0575 291.3056,443.9325 Q291.3056,440.8075 292.6181,439.1513 Q293.9463,437.495 296.4463,437.495 Q297.1494,437.495 297.79,437.6513 Q298.4463,437.8075 299.0088,438.1044 L299.0088,440.8231 Q298.3838,440.245 297.79,439.9794 Q297.1963,439.6981 296.5713,439.6981 Q295.2275,439.6981 294.54,440.7763 Q293.8525,441.8388 293.8525,443.9325 Q293.8525,446.0263 294.54,447.1044 Q295.2275,448.1669 296.5713,448.1669 Q297.1963,448.1669 297.79,447.9013 Q298.3838,447.62 299.0088,447.0419 L299.0088,449.7606 Z " fill="#000000"/><text fill="#000000" font-family="sans-serif" font-size="14" lengthAdjust="spacing" textLength="210.4033" x="310.04" y="448.9667">Ustanoven&#237; pr&#225;vn&#237;ho p&#345;edpisu</text><line style="stroke:#181818;stroke-width:0.5;" x1="282.04" x2="522.4433" y1="460.12" y2="460.12"/><line style="stroke:#181818;stroke-width:0.5;" x1="282.04" x2="522.4433" y1="468.12" y2="468.12"/></g><!--class Za?azen? do kategorie--><g id="elem_Za&#345;azen&#237; do kategorie"><rect codeLine="24" fill="#F1F1F1" height="96.8906" id="Za&#345;azen&#237; do kategorie" rx="2.5" ry="2.5" style="stroke:#181818;stroke-width:0.5;" width="301.0986" x="1688.69" y="189.04"/><ellipse cx="1757.9483" cy="205.04" fill="#ADD1B2" rx="11" ry="11" style="stroke:#181818;stroke-width:1;"/><path d="M1760.9171,210.6806 Q1760.3389,210.9775 1759.6983,211.1181 Q1759.0577,211.2744 1758.3546,211.2744 Q1755.8546,211.2744 1754.5264,209.6337 Q1753.2139,207.9775 1753.2139,204.8525 Q1753.2139,201.7275 1754.5264,200.0712 Q1755.8546,198.415 1758.3546,198.415 Q1759.0577,198.415 1759.6983,198.5712 Q1760.3546,198.7275 1760.9171,199.0244 L1760.9171,201.7431 Q1760.2921,201.165 1759.6983,200.8994 Q1759.1046,200.6181 1758.4796,200.6181 Q1757.1358,200.6181 1756.4483,201.6962 Q1755.7608,202.7587 1755.7608,204.8525 Q1755.7608,206.9462 1756.4483,208.0244 Q1757.1358,209.0869 1758.4796,209.0869 Q1759.1046,209.0869 1759.6983,208.8212 Q1760.2921,208.54 1760.9171,207.9619 L1760.9171,210.6806 Z " fill="#000000"/><text fill="#000000" font-family="sans-serif" font-size="14" lengthAdjust="spacing" textLength="154.082" x="1778.4483" y="209.8867">Za&#345;azen&#237; do kategorie</text><line style="stroke:#181818;stroke-width:0.5;" x1="1689.69" x2="1988.7886" y1="221.04" y2="221.04"/><text fill="#000000" font-family="sans-serif" font-size="14" lengthAdjust="spacing" textLength="289.0986" x="1694.69" y="238.0351">"M&#225; datum za&#345;azen&#237; do kategorie": string</text><text fill="#000000" font-family="sans-serif" font-size="14" lengthAdjust="spacing" textLength="279.6377" x="1694.69" y="254.332">"M&#225; datum vy&#345;azen&#237; z kategorie": string</text><text fill="#000000" font-family="sans-serif" font-size="14" lengthAdjust="spacing" textLength="258.8633" x="1694.69" y="270.6289">"P&#345;&#237;m&#233; za&#345;azen&#237; do kategorie": string</text><line style="stroke:#181818;stroke-width:0.5;" x1="1689.69" x2="1988.7886" y1="277.9306" y2="277.9306"/></g><!--class Kategorie--><g id="elem_Kategorie"><rect codeLine="30" fill="#F1F1F1" height="48" id="Kategorie" rx="2.5" ry="2.5" style="stroke:#181818;stroke-width:0.5;" width="99.5732" x="1877.46" y="428.12"/><ellipse cx="1892.46" cy="444.12" fill="#ADD1B2" rx="11" ry="11" style="stroke:#181818;stroke-width:1;"/><path d="M1895.4288,449.7606 Q1894.8506,450.0575 1894.21,450.1981 Q1893.5694,450.3544 1892.8663,450.3544 Q1890.3663,450.3544 1889.0381,448.7138 Q1887.7256,447.0575 1887.7256,443.9325 Q1887.7256,440.8075 1889.0381,439.1513 Q1890.3663,437.495 1892.8663,437.495 Q1893.5694,437.495 1894.21,437.6513 Q1894.8663,437.8075 1895.4288,438.1044 L1895.4288,440.8231 Q1894.8038,440.245 1894.21,439.9794 Q1893.6163,439.6981 1892.9913,439.6981 Q1891.6475,439.6981 1890.96,440.7763 Q1890.2725,441.8388 1890.2725,443.9325 Q1890.2725,446.0263 1890.96,447.1044 Q1891.6475,448.1669 1892.9913,448.1669 Q1893.6163,448.1669 1894.21,447.9013 Q1894.8038,447.62 1895.4288,447.0419 L1895.4288,449.7606 Z " fill="#000000"/><text fill="#000000" font-family="sans-serif" font-size="14" lengthAdjust="spacing" textLength="67.5732" x="1906.46" y="448.9667">Kategorie</text><line style="stroke:#181818;stroke-width:0.5;" x1="1878.46" x2="1976.0332" y1="460.12" y2="460.12"/><line style="stroke:#181818;stroke-width:0.5;" x1="1878.46" x2="1976.0332" y1="468.12" y2="468.12"/></g><!--class adresn? m?sto--><g id="elem_adresn&#237; m&#237;sto"><rect codeLine="33" fill="#F1F1F1" height="64.2969" id="adresn&#237; m&#237;sto" rx="2.5" ry="2.5" style="stroke:#181818;stroke-width:0.5;" width="242.0225" x="777.23" y="419.97"/><ellipse cx="846.3823" cy="435.97" fill="#ADD1B2" rx="11" ry="11" style="stroke:#181818;stroke-width:1;"/><path d="M849.3511,441.6106 Q848.773,441.9075 848.1323,442.0481 Q847.4917,442.2044 846.7886,442.2044 Q844.2886,442.2044 842.9605,440.5637 Q841.648,438.9075 841.648,435.7825 Q841.648,432.6575 842.9605,431.0012 Q844.2886,429.345 846.7886,429.345 Q847.4917,429.345 848.1323,429.5012 Q848.7886,429.6575 849.3511,429.9544 L849.3511,432.6731 Q848.7261,432.095 848.1323,431.8294 Q847.5386,431.5481 846.9136,431.5481 Q845.5698,431.5481 844.8823,432.6262 Q844.1948,433.6887 844.1948,435.7825 Q844.1948,437.8762 844.8823,438.9544 Q845.5698,440.0169 846.9136,440.0169 Q847.5386,440.0169 848.1323,439.7512 Q848.7261,439.47 849.3511,438.8919 L849.3511,441.6106 Z " fill="#000000"/><text fill="#000000" font-family="sans-serif" font-size="14" lengthAdjust="spacing" textLength="95.2178" x="866.8823" y="440.8167">adresn&#237; m&#237;sto</text><line style="stroke:#181818;stroke-width:0.5;" x1="778.23" x2="1018.2525" y1="451.97" y2="451.97"/><text fill="#000000" font-family="sans-serif" font-size="14" lengthAdjust="spacing" textLength="230.0225" x="783.23" y="468.9651">"M&#225; k&#243;d adresn&#237;ho m&#237;sta": string</text><line style="stroke:#181818;stroke-width:0.5;" x1="778.23" x2="1018.2525" y1="476.2669" y2="476.2669"/></g><!--class Osoba stoj?c? v ?ele org?nu ve?ejn? moci--><g id="elem_Osoba stoj&#237;c&#237; v &#269;ele org&#225;nu ve&#345;ejn&#233; moci"><rect codeLine="37" fill="#F1F1F1" height="64.2969" id="Osoba stoj&#237;c&#237; v &#269;ele org&#225;nu ve&#345;ejn&#233; moci" rx="2.5" ry="2.5" style="stroke:#181818;stroke-width:0.5;" width="504.3652" x="1054.06" y="419.97"/><ellipse cx="1159.5795" cy="435.97" fill="#ADD1B2" rx="11" ry="11" style="stroke:#181818;stroke-width:1;"/><path d="M1162.5483,441.6106 Q1161.9702,441.9075 1161.3295,442.0481 Q1160.6889,442.2044 1159.9858,442.2044 Q1157.4858,442.2044 1156.1577,440.5637 Q1154.8452,438.9075 1154.8452,435.7825 Q1154.8452,432.6575 1156.1577,431.0012 Q1157.4858,429.345 1159.9858,429.345 Q1160.6889,429.345 1161.3295,429.5012 Q1161.9858,429.6575 1162.5483,429.9544 L1162.5483,432.6731 Q1161.9233,432.095 1161.3295,431.8294 Q1160.7358,431.5481 1160.1108,431.5481 Q1158.767,431.5481 1158.0795,432.6262 Q1157.392,433.6887 1157.392,435.7825 Q1157.392,437.8762 1158.0795,438.9544 Q1158.767,440.0169 1160.1108,440.0169 Q1160.7358,440.0169 1161.3295,439.7512 Q1161.9233,439.47 1162.5483,438.8919 L1162.5483,441.6106 Z " fill="#000000"/><text fill="#000000" font-family="sans-serif" font-size="14" lengthAdjust="spacing" textLength="284.8262" x="1180.0795" y="440.8167">Osoba stoj&#237;c&#237; v &#269;ele org&#225;nu ve&#345;ejn&#233; moci</text><line style="stroke:#181818;stroke-width:0.5;" x1="1055.06" x2="1557.4252" y1="451.97" y2="451.97"/><text fill="#000000" font-family="sans-serif" font-size="14" lengthAdjust="spacing" textLength="492.3652" x="1060.06" y="468.9651">"M&#225; jm&#233;no a p&#345;&#237;jmen&#237; osoby stoj&#237;c&#237; v &#269;ele org&#225;nu ve&#345;ejn&#233; moci": string</text><line style="stroke:#181818;stroke-width:0.5;" x1="1055.06" x2="1557.4252" y1="476.2669" y2="476.2669"/></g><!--class Pracovi?t?--><g id="elem_Pracovi&#353;t&#283;"><rect codeLine="41" fill="#F1F1F1" height="48" id="Pracovi&#353;t&#283;" rx="2.5" ry="2.5" style="stroke:#181818;stroke-width:0.5;" width="104.6113" x="1210.94" y="561.27"/><ellipse cx="1225.94" cy="577.27" fill="#ADD1B2" rx="11" ry="11" style="stroke:#181818;stroke-width:1;"/><path d="M1228.9088,582.9106 Q1228.3306,583.2075 1227.69,583.3481 Q1227.0494,583.5044 1226.3463,583.5044 Q1223.8463,583.5044 1222.5181,581.8638 Q1221.2056,580.2075 1221.2056,577.0825 Q1221.2056,573.9575 1222.5181,572.3013 Q1223.8463,570.645 1226.3463,570.645 Q1227.0494,570.645 1227.69,570.8013 Q1228.3463,570.9575 1228.9088,571.2544 L1228.9088,573.9731 Q1228.2838,573.395 1227.69,573.1294 Q1227.0963,572.8481 1226.4713,572.8481 Q1225.1275,572.8481 1224.44,573.9263 Q1223.7525,574.9888 1223.7525,577.0825 Q1223.7525,579.1763 1224.44,580.2544 Q1225.1275,581.3169 1226.4713,581.3169 Q1227.0963,581.3169 1227.69,581.0513 Q1228.2838,580.77 1228.9088,580.1919 L1228.9088,582.9106 Z " fill="#000000"/><text fill="#000000" font-family="sans-serif" font-size="14" lengthAdjust="spacing" textLength="72.6113" x="1239.94" y="582.1167">Pracovi&#353;t&#283;</text><line style="stroke:#181818;stroke-width:0.5;" x1="1211.94" x2="1314.5513" y1="593.27" y2="593.27"/><line style="stroke:#181818;stroke-width:0.5;" x1="1211.94" x2="1314.5513" y1="601.27" y2="601.27"/></g><!--reverse link Org?n ve?ejn? moci nebo soukromopr?vn? u?ivatel ?daj? to Org?n ve?ejn? moci--><g id="link_Org&#225;n ve&#345;ejn&#233; moci nebo soukromopr&#225;vn&#237; u&#382;ivatel &#250;daj&#367;_Org&#225;n ve&#345;ejn&#233; moci"><path codeLine="44" d="M1355.5606,64.6967 C1323.6306,83.7867 1291.59,102.95 1243.64,131.62 " fill="#FFFFFF" fill-opacity="0.00000" id="Org&#225;n ve&#345;ejn&#233; moci nebo soukromopr&#225;vn&#237; u&#382;ivatel &#250;daj&#367;-backto-Org&#225;n ve&#345;ejn&#233; moci" style="stroke:#181818;stroke-width:1;"/><polygon fill="#FFFFFF" fill-opacity="0.00000" points="1371.01,55.46,1352.4817,59.5469,1358.6395,69.8465,1371.01,55.46" style="stroke:#181818;stroke-width:1;"/></g><!--link Org?n ve?ejn? moci to Datov? schr?nka--><g id="link_Org&#225;n ve&#345;ejn&#233; moci_Datov&#225; schr&#225;nka"><path codeLine="45" d="M818.46,249.42 C578.16,264.27 235.67,298.13 126.24,372.97 C107.35,385.89 95.65,409.74 89.11,427.71 " fill="#FFFFFF" fill-opacity="0.00000" id="Org&#225;n ve&#345;ejn&#233; moci-Datov&#225; schr&#225;nka" style="stroke:#181818;stroke-width:1;"/><text fill="#000000" font-family="sans-serif" font-size="13" lengthAdjust="spacing" textLength="278.7319" x="127.24" y="386.0369">M&#225; datovou schr&#225;nku org&#225;nu ve&#345;ejn&#233; moci</text></g><!--link Org?n ve?ejn? moci to Ustanoven? pr?vn?ho p?edpisu--><g id="link_Org&#225;n ve&#345;ejn&#233; moci_Ustanoven&#237; pr&#225;vn&#237;ho p&#345;edpisu"><path codeLine="46" d="M818.66,264.19 C663.42,285.07 482.76,319.89 425.24,372.97 C410.17,386.88 404.8,410.11 402.97,427.63 " fill="#FFFFFF" fill-opacity="0.00000" id="Org&#225;n ve&#345;ejn&#233; moci-Ustanoven&#237; pr&#225;vn&#237;ho p&#345;edpisu" style="stroke:#181818;stroke-width:1;"/><text fill="#000000" font-family="sans-serif" font-size="13" lengthAdjust="spacing" textLength="286.1587" x="426.24" y="386.0369">Vykon&#225;v&#225; p&#367;sobnost na z&#225;klad&#283; ustanoven&#237;</text></g><!--link Org?n ve?ejn? moci to adresn? m?sto--><g id="link_Org&#225;n ve&#345;ejn&#233; moci_adresn&#237; m&#237;sto"><path codeLine="47" d="M818.77,295.36 C782.67,314.26 750.07,339.43 727.24,372.97 C706.72,403.13 736.7,421.85 777,433.37 " fill="#FFFFFF" fill-opacity="0.00000" id="Org&#225;n ve&#345;ejn&#233; moci-adresn&#237; m&#237;sto" style="stroke:#181818;stroke-width:1;"/><text fill="#000000" font-family="sans-serif" font-size="13" lengthAdjust="spacing" textLength="296.4038" x="728.24" y="386.0369">M&#225; adresu m&#237;sta pobytu org&#225;nu ve&#345;ejn&#233; moci</text><text fill="#000000" font-family="sans-serif" font-size="13" lengthAdjust="spacing" textLength="24.8066" x="744.4901" y="428.7596">0..1</text></g><!--link Org?n ve?ejn? moci to adresn? m?sto--><g id="link_Org&#225;n ve&#345;ejn&#233; moci_adresn&#237; m&#237;sto"><path codeLine="48" d="M1054.21,343.35 C1048.46,360.2 1040.43,376.5 1029.24,389.97 C1019.3,401.94 1006.49,411.7 992.79,419.62 " fill="#FFFFFF" fill-opacity="0.00000" id="Org&#225;n ve&#345;ejn&#233; moci-adresn&#237; m&#237;sto-1" style="stroke:#181818;stroke-width:1;"/><text fill="#000000" font-family="sans-serif" font-size="13" lengthAdjust="spacing" textLength="240.8872" x="1040.24" y="386.0369">M&#225; adresu s&#237;dla org&#225;nu ve&#345;ejn&#233; moci</text><text fill="#000000" font-family="sans-serif" font-size="13" lengthAdjust="spacing" textLength="24.8066" x="985.1212" y="408.8253">0..1</text></g><!--link Org?n ve?ejn? moci to Osoba stoj?c? v ?ele org?nu ve?ejn? moci--><g id="link_Org&#225;n ve&#345;ejn&#233; moci_Osoba stoj&#237;c&#237; v &#269;ele org&#225;nu ve&#345;ejn&#233; moci"><path codeLine="49" d="M1263.55,343.17 C1273,352.44 1281.68,362.37 1289.24,372.97 C1298.83,386.43 1303.18,404.26 1305.09,419.49 " fill="#FFFFFF" fill-opacity="0.00000" id="Org&#225;n ve&#345;ejn&#233; moci-Osoba stoj&#237;c&#237; v &#269;ele org&#225;nu ve&#345;ejn&#233; moci" style="stroke:#181818;stroke-width:1;"/><text fill="#000000" font-family="sans-serif" font-size="13" lengthAdjust="spacing" textLength="209.8916" x="1298.24" y="386.0369">Stoj&#237; v &#269;ele org&#225;nu ve&#345;ejn&#233; moci</text></g><!--link Org?n ve?ejn? moci to Pracovi?t?--><g id="link_Org&#225;n ve&#345;ejn&#233; moci_Pracovi&#353;t&#283;"><path codeLine="50" d="M1317.76,292.9 C1433.49,324.54 1551.1,368.35 1576.24,419.97 C1588.75,445.67 1593.1,461.19 1576.24,484.27 C1516.36,566.27 1388.43,582.59 1316.03,584.91 " fill="#FFFFFF" fill-opacity="0.00000" id="Org&#225;n ve&#345;ejn&#233; moci-Pracovi&#353;t&#283;" style="stroke:#181818;stroke-width:1;"/><text fill="#000000" font-family="sans-serif" font-size="13" lengthAdjust="spacing" textLength="212.0942" x="1588.24" y="456.6869">M&#225; pracovi&#353;t&#283; vykon&#225;vaj&#237;c&#237; &#250;kon</text></g><!--link Org?n ve?ejn? moci to Org?n ve?ejn? moci--><g id="link_Org&#225;n ve&#345;ejn&#233; moci_Org&#225;n ve&#345;ejn&#233; moci"><path codeLine="51" d="M1317.74,216.42 C1339.16,220.91 1352.53,227.93 1352.53,237.49 C1352.53,247.05 1339.16,254.07 1317.74,258.55 " fill="#FFFFFF" fill-opacity="0.00000" id="Org&#225;n ve&#345;ejn&#233; moci-Org&#225;n ve&#345;ejn&#233; moci" style="stroke:#181818;stroke-width:1;"/><text fill="#000000" font-family="sans-serif" font-size="13" lengthAdjust="spacing" textLength="219.3433" x="1358.53" y="242.0569">m&#225; nad&#345;&#237;zen&#253; org&#225;n ve&#345;ejn&#233; moci</text><text fill="#000000" font-family="sans-serif" font-size="13" lengthAdjust="spacing" textLength="24.8066" x="1325.515" y="256.0216">0..1</text></g><!--link Org?n ve?ejn? moci nebo soukromopr?vn? u?ivatel ?daj? to Za?azen? do kategorie--><g id="link_Org&#225;n ve&#345;ejn&#233; moci nebo soukromopr&#225;vn&#237; u&#382;ivatel &#250;daj&#367;_Za&#345;azen&#237; do kategorie"><path codeLine="52" d="M1459.46,55.46 C1527.24,87.77 1650.91,146.72 1738.7,188.56 " fill="#FFFFFF" fill-opacity="0.00000" id="Org&#225;n ve&#345;ejn&#233; moci nebo soukromopr&#225;vn&#237; u&#382;ivatel &#250;daj&#367;-Za&#345;azen&#237; do kategorie" style="stroke:#181818;stroke-width:1;"/><text fill="#000000" font-family="sans-serif" font-size="13" lengthAdjust="spacing" textLength="133.8022" x="1549.24" y="98.0669">M&#225; za&#345;azen&#253; subjekt</text></g><!--link Za?azen? do kategorie to Kategorie--><g id="link_Za&#345;azen&#237; do kategorie_Kategorie"><path codeLine="53" d="M1858.99,286.21 C1877.24,330.29 1903.57,393.91 1917.59,427.8 " fill="#FFFFFF" fill-opacity="0.00000" id="Za&#345;azen&#237; do kategorie-Kategorie" style="stroke:#181818;stroke-width:1;"/><text fill="#000000" font-family="sans-serif" font-size="13" lengthAdjust="spacing" textLength="143.0762" x="1901.24" y="386.0369">Za&#345;azuje do kategorie</text><text fill="#000000" font-family="sans-serif" font-size="13" lengthAdjust="spacing" textLength="24.8066" x="1888.4095" y="417.127">1..1</text></g><!--link adresn? m?sto to Pracovi?t?--><g id="link_adresn&#237; m&#237;sto_Pracovi&#353;t&#283;"><path codeLine="54" d="M986.13,484.7 C1056.17,509.87 1151.89,544.26 1210.54,565.33 " fill="#FFFFFF" fill-opacity="0.00000" id="adresn&#237; m&#237;sto-Pracovi&#353;t&#283;" style="stroke:#181818;stroke-width:1;"/><text fill="#000000" font-family="sans-serif" font-size="13" lengthAdjust="spacing" textLength="139.8579" x="1114.24" y="527.3369">M&#225; adresu pracovi&#353;t&#283;</text></g><!--SRC=[hLMvRjj04Etr5GlrDkBMI9agGH03HbAa6t4tqlBO8RW782Rv17s0u8fb2i95EWDEi-9_PPSYTLYaHCakkVFcpVLcA9aY0X8cKmZOFKiX0uKP4IZOA8X1IZB-aarj8OXXrPA5mluX2GPyJ7wE21b_jWNXb0d5V_385juLQxX-YRybKcLSJ5ilOOkScI7eZumOmLMr5BRqU10yXzN2VuMC2bGHwWFwJL8DShMmfOoHeCJ9V6YE59HEI0upMuJCinZx7A7pIwj7noDGAduUbtRkgyLhkLBCGIemZkUvuHb0Gv2-5HF5GoO7o7HLl45Ebp7jvlHxT5IyHB094eawoZ31DBE5yHFHrJzkGB6Os2SAOVNeHRwb-k0smxZyP31p7YA2VVDNrqU1ffvjIpd3kXgQSgdtqT-XMa9UWocIo4MTOiRPpbgrukl6TSlBp3Vel0TyLorjcRX6d6JU9FkfjUrL03HZqdidRhCKxcGUsR-Kj6RNWXe0dTDnGmNtZA4j0xyJRazPpFhsO1iYT1K89E3RQyimgSjOx_PWjevyxZ88qF2gKAk7PbwlLT3xNrTNVJTqr7TRlKk7t6wtmqQ3UcFIVIKU3N1Qi3xUjxdRFsUi5xDTGlVB8BajeXZewe7eBT7nYE-khs_67SffwweDkj6BkqsJkRgij861f2rf31T5E5UvFl9zZJu5FHfsNw1jEUdEgxi1wu51avbzSj-3sjM3y54I_yS6wfSjh-yodYFeuTlYi-azZMsvcylrJAIUX2nIBd2lbwUygGlStZ7Fj7RG8Tl7ZmvLqz_uHaUx_H__1m00]--></g></svg>