<svg xmlns="http://www.w3.org/2000/svg" xmlns:xlink="http://www.w3.org/1999/xlink" contentStyleType="text/css" height="991px" preserveAspectRatio="none" style="width:1983px;height:991px;background:#FFFFFF;" version="1.1" viewBox="0 0 1983 991" width="1983px" zoomAndPan="magnify"><defs/><g><!--class Osv?d?en? o digit?ln?m ?konu--><g id="elem_Osv&#283;d&#269;en&#237; o digit&#225;ln&#237;m &#250;konu"><rect codeLine="2" fill="#F1F1F1" height="113.1875" id="Osv&#283;d&#269;en&#237; o digit&#225;ln&#237;m &#250;konu" rx="2.5" ry="2.5" style="stroke:#181818;stroke-width:0.5;" width="387.5459" x="408.89" y="322.19"/><ellipse cx="494.2674" cy="338.19" fill="#ADD1B2" rx="11" ry="11" style="stroke:#181818;stroke-width:1.0;"/><path d="M497.2362,343.8306 Q496.6581,344.1275 496.0174,344.2681 Q495.3768,344.4244 494.6737,344.4244 Q492.1737,344.4244 490.8456,342.7837 Q489.5331,341.1275 489.5331,338.0025 Q489.5331,334.8775 490.8456,333.2212 Q492.1737,331.565 494.6737,331.565 Q495.3768,331.565 496.0174,331.7212 Q496.6737,331.8775 497.2362,332.1744 L497.2362,334.8931 Q496.6112,334.315 496.0174,334.0494 Q495.4237,333.7681 494.7987,333.7681 Q493.4549,333.7681 492.7674,334.8462 Q492.0799,335.9087 492.0799,338.0025 Q492.0799,340.0962 492.7674,341.1744 Q493.4549,342.2369 494.7987,342.2369 Q495.4237,342.2369 496.0174,341.9712 Q496.6112,341.69 497.2362,341.1119 L497.2362,343.8306 Z " fill="#000000"/><text fill="#000000" font-family="sans-serif" font-size="14" lengthAdjust="spacing" textLength="208.291" x="514.7674" y="343.0367">Osv&#283;d&#269;en&#237; o digit&#225;ln&#237;m &#250;konu</text><line style="stroke:#181818;stroke-width:0.5;" x1="409.89" x2="795.4359" y1="354.19" y2="354.19"/><text fill="#000000" font-family="sans-serif" font-size="14" lengthAdjust="spacing" textLength="322.0342" x="414.89" y="371.1851">"datum a &#269;as vystaven&#237; osv&#283;d&#269;en&#237;": dateTime</text><text fill="#000000" font-family="sans-serif" font-size="14" lengthAdjust="spacing" textLength="375.5459" x="414.89" y="387.482">"datum a &#269;as proveden&#237; digit&#225;ln&#237;ho &#250;konu": dateTime</text><text fill="#000000" font-family="sans-serif" font-size="14" lengthAdjust="spacing" textLength="354.4365" x="414.89" y="403.7789">"k&#243;d &#250;sp&#283;&#353;n&#233; autorizace digit&#225;ln&#237;ho &#250;konu": string</text><text fill="#000000" font-family="sans-serif" font-size="14" lengthAdjust="spacing" textLength="147.9844" x="414.89" y="420.0757">"hash pod&#225;n&#237;": string</text><line style="stroke:#181818;stroke-width:0.5;" x1="409.89" x2="795.4359" y1="427.3775" y2="427.3775"/></g><!--class Dokument--><g id="elem_Dokument"><rect codeLine="9" fill="#F1F1F1" height="48" id="Dokument" rx="2.5" ry="2.5" style="stroke:#181818;stroke-width:0.5;" width="104.9395" x="960.19" y="189.04"/><ellipse cx="975.19" cy="205.04" fill="#ADD1B2" rx="11" ry="11" style="stroke:#181818;stroke-width:1.0;"/><path d="M978.1588,210.6806 Q977.5806,210.9775 976.94,211.1181 Q976.2994,211.2744 975.5963,211.2744 Q973.0963,211.2744 971.7681,209.6337 Q970.4556,207.9775 970.4556,204.8525 Q970.4556,201.7275 971.7681,200.0712 Q973.0963,198.415 975.5963,198.415 Q976.2994,198.415 976.94,198.5712 Q977.5963,198.7275 978.1588,199.0244 L978.1588,201.7431 Q977.5338,201.165 976.94,200.8994 Q976.3463,200.6181 975.7213,200.6181 Q974.3775,200.6181 973.69,201.6962 Q973.0025,202.7587 973.0025,204.8525 Q973.0025,206.9462 973.69,208.0244 Q974.3775,209.0869 975.7213,209.0869 Q976.3463,209.0869 976.94,208.8212 Q977.5338,208.54 978.1588,207.9619 L978.1588,210.6806 Z " fill="#000000"/><text fill="#000000" font-family="sans-serif" font-size="14" lengthAdjust="spacing" textLength="72.9395" x="989.19" y="209.8867">Dokument</text><line style="stroke:#181818;stroke-width:0.5;" x1="961.19" x2="1064.1295" y1="221.04" y2="221.04"/><line style="stroke:#181818;stroke-width:0.5;" x1="961.19" x2="1064.1295" y1="229.04" y2="229.04"/></g><!--class Elektronick? dokument--><g id="elem_Elektronick&#253; dokument"><rect codeLine="12" fill="#F1F1F1" height="64.2969" id="Elektronick&#253; dokument" rx="2.5" ry="2.5" style="stroke:#181818;stroke-width:0.5;" width="193.6152" x="1273.86" y="180.89"/><ellipse cx="1288.86" cy="196.89" fill="#ADD1B2" rx="11" ry="11" style="stroke:#181818;stroke-width:1.0;"/><path d="M1291.8288,202.5306 Q1291.2506,202.8275 1290.61,202.9681 Q1289.9694,203.1244 1289.2663,203.1244 Q1286.7663,203.1244 1285.4381,201.4838 Q1284.1256,199.8275 1284.1256,196.7025 Q1284.1256,193.5775 1285.4381,191.9213 Q1286.7663,190.265 1289.2663,190.265 Q1289.9694,190.265 1290.61,190.4213 Q1291.2663,190.5775 1291.8288,190.8744 L1291.8288,193.5931 Q1291.2038,193.015 1290.61,192.7494 Q1290.0163,192.4681 1289.3913,192.4681 Q1288.0475,192.4681 1287.36,193.5463 Q1286.6725,194.6088 1286.6725,196.7025 Q1286.6725,198.7963 1287.36,199.8744 Q1288.0475,200.9369 1289.3913,200.9369 Q1290.0163,200.9369 1290.61,200.6713 Q1291.2038,200.39 1291.8288,199.8119 L1291.8288,202.5306 Z " fill="#000000"/><text fill="#000000" font-family="sans-serif" font-size="14" lengthAdjust="spacing" textLength="161.6152" x="1302.86" y="201.7367">Elektronick&#253; dokument</text><line style="stroke:#181818;stroke-width:0.5;" x1="1274.86" x2="1466.4752" y1="212.89" y2="212.89"/><text fill="#000000" font-family="sans-serif" font-size="14" lengthAdjust="spacing" textLength="155.7295" x="1279.86" y="229.8851">"po&#269;et p&#345;&#237;loh": integer</text><line style="stroke:#181818;stroke-width:0.5;" x1="1274.86" x2="1466.4752" y1="237.1869" y2="237.1869"/></g><!--class Dokument vytvo?en? elektronick?m formul??em--><g id="elem_Dokument vytvo&#345;en&#253; elektronick&#253;m formul&#225;&#345;em"><rect codeLine="16" fill="#F1F1F1" height="48" id="Dokument vytvo&#345;en&#253; elektronick&#253;m formul&#225;&#345;em" rx="2.5" ry="2.5" style="stroke:#181818;stroke-width:0.5;" width="370.4883" x="1358.42" y="528.68"/><ellipse cx="1373.42" cy="544.68" fill="#ADD1B2" rx="11" ry="11" style="stroke:#181818;stroke-width:1.0;"/><path d="M1376.3888,550.3206 Q1375.8106,550.6175 1375.17,550.7581 Q1374.5294,550.9144 1373.8263,550.9144 Q1371.3263,550.9144 1369.9981,549.2738 Q1368.6856,547.6175 1368.6856,544.4925 Q1368.6856,541.3675 1369.9981,539.7113 Q1371.3263,538.055 1373.8263,538.055 Q1374.5294,538.055 1375.17,538.2113 Q1375.8263,538.3675 1376.3888,538.6644 L1376.3888,541.3831 Q1375.7638,540.805 1375.17,540.5394 Q1374.5763,540.2581 1373.9513,540.2581 Q1372.6075,540.2581 1371.92,541.3363 Q1371.2325,542.3988 1371.2325,544.4925 Q1371.2325,546.5863 1371.92,547.6644 Q1372.6075,548.7269 1373.9513,548.7269 Q1374.5763,548.7269 1375.17,548.4613 Q1375.7638,548.18 1376.3888,547.6019 L1376.3888,550.3206 Z " fill="#000000"/><text fill="#000000" font-family="sans-serif" font-size="14" lengthAdjust="spacing" textLength="338.4883" x="1387.42" y="549.5267">Dokument vytvo&#345;en&#253; elektronick&#253;m formul&#225;&#345;em</text><line style="stroke:#181818;stroke-width:0.5;" x1="1359.42" x2="1727.9083" y1="560.68" y2="560.68"/><line style="stroke:#181818;stroke-width:0.5;" x1="1359.42" x2="1727.9083" y1="568.68" y2="568.68"/></g><!--class Dokument?--><g id="elem_Dokument&#8203;"><rect codeLine="19" fill="#F1F1F1" height="96.8906" id="Dokument&#8203;" rx="2.5" ry="2.5" style="stroke:#181818;stroke-width:0.5;" width="245.208" x="1248.06" y="7"/><ellipse cx="1329.9443" cy="23" fill="#ADD1B2" rx="11" ry="11" style="stroke:#181818;stroke-width:1.0;"/><path d="M1332.913,28.6406 Q1332.3349,28.9375 1331.6943,29.0781 Q1331.0537,29.2344 1330.3505,29.2344 Q1327.8505,29.2344 1326.5224,27.5938 Q1325.2099,25.9375 1325.2099,22.8125 Q1325.2099,19.6875 1326.5224,18.0313 Q1327.8505,16.375 1330.3505,16.375 Q1331.0537,16.375 1331.6943,16.5313 Q1332.3505,16.6875 1332.913,16.9844 L1332.913,19.7031 Q1332.288,19.125 1331.6943,18.8594 Q1331.1005,18.5781 1330.4755,18.5781 Q1329.1318,18.5781 1328.4443,19.6563 Q1327.7568,20.7188 1327.7568,22.8125 Q1327.7568,24.9063 1328.4443,25.9844 Q1329.1318,27.0469 1330.4755,27.0469 Q1331.1005,27.0469 1331.6943,26.7813 Q1332.288,26.5 1332.913,25.9219 L1332.913,28.6406 Z " fill="#000000"/><text fill="#000000" font-family="sans-serif" font-size="14" lengthAdjust="spacing" textLength="72.9395" x="1350.4443" y="27.8467">Dokument&#8203;</text><line style="stroke:#181818;stroke-width:0.5;" x1="1249.06" x2="1492.268" y1="39" y2="39"/><text fill="#000000" font-family="sans-serif" font-size="14" lengthAdjust="spacing" textLength="148.4492" x="1254.06" y="55.9951">"&#269;&#237;slo jednac&#237;": string</text><text fill="#000000" font-family="sans-serif" font-size="14" lengthAdjust="spacing" textLength="233.208" x="1254.06" y="72.292">"stru&#269;n&#253; obsah dokumentu": text</text><text fill="#000000" font-family="sans-serif" font-size="14" lengthAdjust="spacing" textLength="119.7451" x="1254.06" y="88.5889">"k ruk&#225;m": string</text><line style="stroke:#181818;stroke-width:0.5;" x1="1249.06" x2="1492.268" y1="95.8906" y2="95.8906"/></g><!--class Jednozna?n? identifik?tor--><g id="elem_Jednozna&#269;n&#253; identifik&#225;tor"><rect codeLine="25" fill="#F1F1F1" height="64.2969" id="Jednozna&#269;n&#253; identifik&#225;tor" rx="2.5" ry="2.5" style="stroke:#181818;stroke-width:0.5;" width="408.9834" x="1502.17" y="180.89"/><ellipse cx="1613.3463" cy="196.89" fill="#ADD1B2" rx="11" ry="11" style="stroke:#181818;stroke-width:1.0;"/><path d="M1616.315,202.5306 Q1615.7369,202.8275 1615.0963,202.9681 Q1614.4556,203.1244 1613.7525,203.1244 Q1611.2525,203.1244 1609.9244,201.4838 Q1608.6119,199.8275 1608.6119,196.7025 Q1608.6119,193.5775 1609.9244,191.9213 Q1611.2525,190.265 1613.7525,190.265 Q1614.4556,190.265 1615.0963,190.4213 Q1615.7525,190.5775 1616.315,190.8744 L1616.315,193.5931 Q1615.69,193.015 1615.0963,192.7494 Q1614.5025,192.4681 1613.8775,192.4681 Q1612.5338,192.4681 1611.8463,193.5463 Q1611.1588,194.6088 1611.1588,196.7025 Q1611.1588,198.7963 1611.8463,199.8744 Q1612.5338,200.9369 1613.8775,200.9369 Q1614.5025,200.9369 1615.0963,200.6713 Q1615.69,200.39 1616.315,199.8119 L1616.315,202.5306 Z " fill="#000000"/><text fill="#000000" font-family="sans-serif" font-size="14" lengthAdjust="spacing" textLength="178.1309" x="1633.8463" y="201.7367">Jednozna&#269;n&#253; identifik&#225;tor</text><line style="stroke:#181818;stroke-width:0.5;" x1="1503.17" x2="1910.1534" y1="212.89" y2="212.89"/><text fill="#000000" font-family="sans-serif" font-size="14" lengthAdjust="spacing" textLength="396.9834" x="1508.17" y="229.8851">"&#345;et&#283;zcov&#225; podoba jednozna&#269;n&#233;ho identifik&#225;toru": string</text><line style="stroke:#181818;stroke-width:0.5;" x1="1503.17" x2="1910.1534" y1="237.1869" y2="237.1869"/></g><!--class Digit?ln? ?kon--><g id="elem_Digit&#225;ln&#237; &#250;kon"><rect codeLine="29" fill="#F1F1F1" height="48" id="Digit&#225;ln&#237; &#250;kon" rx="2.5" ry="2.5" style="stroke:#181818;stroke-width:0.5;" width="129.0361" x="1070.15" y="528.68"/><ellipse cx="1085.15" cy="544.68" fill="#ADD1B2" rx="11" ry="11" style="stroke:#181818;stroke-width:1.0;"/><path d="M1088.1188,550.3206 Q1087.5406,550.6175 1086.9,550.7581 Q1086.2594,550.9144 1085.5563,550.9144 Q1083.0563,550.9144 1081.7281,549.2738 Q1080.4156,547.6175 1080.4156,544.4925 Q1080.4156,541.3675 1081.7281,539.7113 Q1083.0563,538.055 1085.5563,538.055 Q1086.2594,538.055 1086.9,538.2113 Q1087.5563,538.3675 1088.1188,538.6644 L1088.1188,541.3831 Q1087.4938,540.805 1086.9,540.5394 Q1086.3063,540.2581 1085.6813,540.2581 Q1084.3375,540.2581 1083.65,541.3363 Q1082.9625,542.3988 1082.9625,544.4925 Q1082.9625,546.5863 1083.65,547.6644 Q1084.3375,548.7269 1085.6813,548.7269 Q1086.3063,548.7269 1086.9,548.4613 Q1087.4938,548.18 1088.1188,547.6019 L1088.1188,550.3206 Z " fill="#000000"/><text fill="#000000" font-family="sans-serif" font-size="14" lengthAdjust="spacing" textLength="97.0361" x="1099.15" y="549.5267">Digit&#225;ln&#237; &#250;kon</text><line style="stroke:#181818;stroke-width:0.5;" x1="1071.15" x2="1198.1861" y1="560.68" y2="560.68"/><line style="stroke:#181818;stroke-width:0.5;" x1="1071.15" x2="1198.1861" y1="568.68" y2="568.68"/></g><!--class ?kon slu?by ve?ejn? spr?vy--><g id="elem_&#218;kon slu&#382;by ve&#345;ejn&#233; spr&#225;vy"><rect codeLine="32" fill="#F1F1F1" height="80.5938" id="&#218;kon slu&#382;by ve&#345;ejn&#233; spr&#225;vy" rx="2.5" ry="2.5" style="stroke:#181818;stroke-width:0.5;" width="281.0693" x="1393.13" y="338.49"/><ellipse cx="1433.1586" cy="354.49" fill="#ADD1B2" rx="11" ry="11" style="stroke:#181818;stroke-width:1.0;"/><path d="M1436.1274,360.1306 Q1435.5492,360.4275 1434.9086,360.5681 Q1434.268,360.7244 1433.5649,360.7244 Q1431.0649,360.7244 1429.7367,359.0838 Q1428.4242,357.4275 1428.4242,354.3025 Q1428.4242,351.1775 1429.7367,349.5213 Q1431.0649,347.865 1433.5649,347.865 Q1434.268,347.865 1434.9086,348.0213 Q1435.5649,348.1775 1436.1274,348.4744 L1436.1274,351.1931 Q1435.5024,350.615 1434.9086,350.3494 Q1434.3149,350.0681 1433.6899,350.0681 Q1432.3461,350.0681 1431.6586,351.1463 Q1430.9711,352.2088 1430.9711,354.3025 Q1430.9711,356.3963 1431.6586,357.4744 Q1432.3461,358.5369 1433.6899,358.5369 Q1434.3149,358.5369 1434.9086,358.2713 Q1435.5024,357.99 1436.1274,357.4119 L1436.1274,360.1306 Z " fill="#000000"/><text fill="#000000" font-family="sans-serif" font-size="14" lengthAdjust="spacing" textLength="193.4502" x="1452.7205" y="359.3367">&#218;kon slu&#382;by ve&#345;ejn&#233; spr&#225;vy</text><line style="stroke:#181818;stroke-width:0.5;" x1="1394.13" x2="1673.1993" y1="370.49" y2="370.49"/><text fill="#000000" font-family="sans-serif" font-size="14" lengthAdjust="spacing" textLength="269.0693" x="1399.13" y="387.4851">"M&#225; identifik&#225;tor &#250;konu slu&#382;by": string</text><text fill="#000000" font-family="sans-serif" font-size="14" lengthAdjust="spacing" textLength="213.5" x="1399.13" y="403.782">"M&#225; n&#225;zev &#250;konu slu&#382;by": text</text><line style="stroke:#181818;stroke-width:0.5;" x1="1394.13" x2="1673.1993" y1="411.0838" y2="411.0838"/></g><!--class Slu?ba ve?ejn? spr?vy--><g id="elem_Slu&#382;ba ve&#345;ejn&#233; spr&#225;vy"><rect codeLine="37" fill="#F1F1F1" height="80.5938" id="Slu&#382;ba ve&#345;ejn&#233; spr&#225;vy" rx="2.5" ry="2.5" style="stroke:#181818;stroke-width:0.5;" width="233.3271" x="7" y="512.38"/><ellipse cx="42.805" cy="528.38" fill="#ADD1B2" rx="11" ry="11" style="stroke:#181818;stroke-width:1.0;"/><path d="M45.7738,534.0206 Q45.1957,534.3175 44.555,534.4581 Q43.9144,534.6144 43.2113,534.6144 Q40.7113,534.6144 39.3832,532.9738 Q38.0707,531.3175 38.0707,528.1925 Q38.0707,525.0675 39.3832,523.4113 Q40.7113,521.755 43.2113,521.755 Q43.9144,521.755 44.555,521.9113 Q45.2113,522.0675 45.7738,522.3644 L45.7738,525.0831 Q45.1488,524.505 44.555,524.2394 Q43.9613,523.9581 43.3363,523.9581 Q41.9925,523.9581 41.305,525.0363 Q40.6175,526.0988 40.6175,528.1925 Q40.6175,530.2863 41.305,531.3644 Q41.9925,532.4269 43.3363,532.4269 Q43.9613,532.4269 44.555,532.1613 Q45.1488,531.88 45.7738,531.3019 L45.7738,534.0206 Z " fill="#000000"/><text fill="#000000" font-family="sans-serif" font-size="14" lengthAdjust="spacing" textLength="155.0938" x="61.4284" y="533.2267">Slu&#382;ba ve&#345;ejn&#233; spr&#225;vy</text><line style="stroke:#181818;stroke-width:0.5;" x1="8" x2="239.3271" y1="544.38" y2="544.38"/><text fill="#000000" font-family="sans-serif" font-size="14" lengthAdjust="spacing" textLength="165.7578" x="13" y="561.3751">"M&#225; n&#225;zev slu&#382;by": text</text><text fill="#000000" font-family="sans-serif" font-size="14" lengthAdjust="spacing" textLength="221.3271" x="13" y="577.672">"M&#225; identifik&#225;tor slu&#382;by": string</text><line style="stroke:#181818;stroke-width:0.5;" x1="8" x2="239.3271" y1="584.9738" y2="584.9738"/></g><!--class Agenda--><g id="elem_Agenda"><rect codeLine="42" fill="#F1F1F1" height="80.5938" id="Agenda" rx="2.5" ry="2.5" style="stroke:#181818;stroke-width:0.5;" width="185.3047" x="276.01" y="512.38"/><ellipse cx="337.7043" cy="528.38" fill="#ADD1B2" rx="11" ry="11" style="stroke:#181818;stroke-width:1.0;"/><path d="M340.6731,534.0206 Q340.095,534.3175 339.4543,534.4581 Q338.8137,534.6144 338.1106,534.6144 Q335.6106,534.6144 334.2825,532.9738 Q332.97,531.3175 332.97,528.1925 Q332.97,525.0675 334.2825,523.4113 Q335.6106,521.755 338.1106,521.755 Q338.8137,521.755 339.4543,521.9113 Q340.1106,522.0675 340.6731,522.3644 L340.6731,525.0831 Q340.0481,524.505 339.4543,524.2394 Q338.8606,523.9581 338.2356,523.9581 Q336.8918,523.9581 336.2043,525.0363 Q335.5168,526.0988 335.5168,528.1925 Q335.5168,530.2863 336.2043,531.3644 Q336.8918,532.4269 338.2356,532.4269 Q338.8606,532.4269 339.4543,532.1613 Q340.0481,531.88 340.6731,531.3019 L340.6731,534.0206 Z " fill="#000000"/><text fill="#000000" font-family="sans-serif" font-size="14" lengthAdjust="spacing" textLength="53.416" x="358.2043" y="533.2267">Agenda</text><line style="stroke:#181818;stroke-width:0.5;" x1="277.01" x2="460.3147" y1="544.38" y2="544.38"/><text fill="#000000" font-family="sans-serif" font-size="14" lengthAdjust="spacing" textLength="169.4766" x="282.01" y="561.3751">"M&#225; k&#243;d agendy": string</text><text fill="#000000" font-family="sans-serif" font-size="14" lengthAdjust="spacing" textLength="173.3047" x="282.01" y="577.672">"M&#225; n&#225;zev agendy": text</text><line style="stroke:#181818;stroke-width:0.5;" x1="277.01" x2="460.3147" y1="584.9738" y2="584.9738"/></g><!--class P??loha--><g id="elem_P&#345;&#237;loha"><rect codeLine="47" fill="#F1F1F1" height="96.8906" id="P&#345;&#237;loha" rx="2.5" ry="2.5" style="stroke:#181818;stroke-width:0.5;" width="229.793" x="831.77" y="330.34"/><ellipse cx="918.4189" cy="346.34" fill="#ADD1B2" rx="11" ry="11" style="stroke:#181818;stroke-width:1.0;"/><path d="M921.3877,351.9806 Q920.8096,352.2775 920.1689,352.4181 Q919.5283,352.5744 918.8252,352.5744 Q916.3252,352.5744 914.9971,350.9338 Q913.6846,349.2775 913.6846,346.1525 Q913.6846,343.0275 914.9971,341.3713 Q916.3252,339.715 918.8252,339.715 Q919.5283,339.715 920.1689,339.8713 Q920.8252,340.0275 921.3877,340.3244 L921.3877,343.0431 Q920.7627,342.465 920.1689,342.1994 Q919.5752,341.9181 918.9502,341.9181 Q917.6064,341.9181 916.9189,342.9963 Q916.2314,344.0588 916.2314,346.1525 Q916.2314,348.2463 916.9189,349.3244 Q917.6064,350.3869 918.9502,350.3869 Q919.5752,350.3869 920.1689,350.1213 Q920.7627,349.84 921.3877,349.2619 L921.3877,351.9806 Z " fill="#000000"/><text fill="#000000" font-family="sans-serif" font-size="14" lengthAdjust="spacing" textLength="47.9951" x="938.9189" y="351.1867">P&#345;&#237;loha</text><line style="stroke:#181818;stroke-width:0.5;" x1="832.77" x2="1060.563" y1="362.34" y2="362.34"/><text fill="#000000" font-family="sans-serif" font-size="14" lengthAdjust="spacing" textLength="144.2178" x="837.77" y="379.3351">"n&#225;zev p&#345;&#237;lohy": text</text><text fill="#000000" font-family="sans-serif" font-size="14" lengthAdjust="spacing" textLength="217.793" x="837.77" y="395.632">"n&#225;zev souboru p&#345;&#237;lohy": string</text><text fill="#000000" font-family="sans-serif" font-size="14" lengthAdjust="spacing" textLength="157.1172" x="837.77" y="411.9289">"hash souboru": string</text><line style="stroke:#181818;stroke-width:0.5;" x1="832.77" x2="1060.563" y1="419.2306" y2="419.2306"/></g><!--class Osoba ve vztahu k dokumentu--><g id="elem_Osoba ve vztahu k dokumentu"><rect codeLine="53" fill="#F1F1F1" height="48" id="Osoba ve vztahu k dokumentu" rx="2.5" ry="2.5" style="stroke:#181818;stroke-width:0.5;" width="246.5186" x="1730.4" y="669.97"/><ellipse cx="1745.4" cy="685.97" fill="#ADD1B2" rx="11" ry="11" style="stroke:#181818;stroke-width:1.0;"/><path d="M1748.3688,691.6106 Q1747.7906,691.9075 1747.15,692.0481 Q1746.5094,692.2044 1745.8063,692.2044 Q1743.3063,692.2044 1741.9781,690.5638 Q1740.6656,688.9075 1740.6656,685.7825 Q1740.6656,682.6575 1741.9781,681.0013 Q1743.3063,679.345 1745.8063,679.345 Q1746.5094,679.345 1747.15,679.5013 Q1747.8063,679.6575 1748.3688,679.9544 L1748.3688,682.6731 Q1747.7438,682.095 1747.15,681.8294 Q1746.5563,681.5481 1745.9313,681.5481 Q1744.5875,681.5481 1743.9,682.6263 Q1743.2125,683.6888 1743.2125,685.7825 Q1743.2125,687.8763 1743.9,688.9544 Q1744.5875,690.0169 1745.9313,690.0169 Q1746.5563,690.0169 1747.15,689.7513 Q1747.7438,689.47 1748.3688,688.8919 L1748.3688,691.6106 Z " fill="#000000"/><text fill="#000000" font-family="sans-serif" font-size="14" lengthAdjust="spacing" textLength="214.5186" x="1759.4" y="690.8167">Osoba ve vztahu k dokumentu</text><line style="stroke:#181818;stroke-width:0.5;" x1="1731.4" x2="1975.9186" y1="701.97" y2="701.97"/><line style="stroke:#181818;stroke-width:0.5;" x1="1731.4" x2="1975.9186" y1="709.97" y2="709.97"/></g><!--class Zp?sob proveden? digit?ln?ho ?konu--><g id="elem_Zp&#367;sob proveden&#237; digit&#225;ln&#237;ho &#250;konu"><rect codeLine="56" fill="#F1F1F1" height="48" id="Zp&#367;sob proveden&#237; digit&#225;ln&#237;ho &#250;konu" rx="2.5" ry="2.5" style="stroke:#181818;stroke-width:0.5;" width="284.8203" x="637.25" y="528.68"/><ellipse cx="652.25" cy="544.68" fill="#ADD1B2" rx="11" ry="11" style="stroke:#181818;stroke-width:1.0;"/><path d="M655.2188,550.3206 Q654.6406,550.6175 654,550.7581 Q653.3594,550.9144 652.6563,550.9144 Q650.1563,550.9144 648.8281,549.2738 Q647.5156,547.6175 647.5156,544.4925 Q647.5156,541.3675 648.8281,539.7113 Q650.1563,538.055 652.6563,538.055 Q653.3594,538.055 654,538.2113 Q654.6563,538.3675 655.2188,538.6644 L655.2188,541.3831 Q654.5938,540.805 654,540.5394 Q653.4063,540.2581 652.7813,540.2581 Q651.4375,540.2581 650.75,541.3363 Q650.0625,542.3988 650.0625,544.4925 Q650.0625,546.5863 650.75,547.6644 Q651.4375,548.7269 652.7813,548.7269 Q653.4063,548.7269 654,548.4613 Q654.5938,548.18 655.2188,547.6019 L655.2188,550.3206 Z " fill="#000000"/><text fill="#000000" font-family="sans-serif" font-size="14" lengthAdjust="spacing" textLength="252.8203" x="666.25" y="549.5267">Zp&#367;sob proveden&#237; digit&#225;ln&#237;ho &#250;konu</text><line style="stroke:#181818;stroke-width:0.5;" x1="638.25" x2="921.0703" y1="560.68" y2="560.68"/><line style="stroke:#181818;stroke-width:0.5;" x1="638.25" x2="921.0703" y1="568.68" y2="568.68"/></g><!--class Polo?ka ??seln?ku--><g id="elem_Polo&#382;ka &#269;&#237;seln&#237;ku"><rect codeLine="59" fill="#F1F1F1" height="80.5938" id="Polo&#382;ka &#269;&#237;seln&#237;ku" rx="2.5" ry="2.5" style="stroke:#181818;stroke-width:0.5;" width="261.6826" x="1096.82" y="338.49"/><ellipse cx="1163.8737" cy="354.49" fill="#ADD1B2" rx="11" ry="11" style="stroke:#181818;stroke-width:1.0;"/><path d="M1166.8425,360.1306 Q1166.2643,360.4275 1165.6237,360.5681 Q1164.9831,360.7244 1164.28,360.7244 Q1161.78,360.7244 1160.4518,359.0838 Q1159.1393,357.4275 1159.1393,354.3025 Q1159.1393,351.1775 1160.4518,349.5213 Q1161.78,347.865 1164.28,347.865 Q1164.9831,347.865 1165.6237,348.0213 Q1166.28,348.1775 1166.8425,348.4744 L1166.8425,351.1931 Q1166.2175,350.615 1165.6237,350.3494 Q1165.03,350.0681 1164.405,350.0681 Q1163.0612,350.0681 1162.3737,351.1463 Q1161.6862,352.2088 1161.6862,354.3025 Q1161.6862,356.3963 1162.3737,357.4744 Q1163.0612,358.5369 1164.405,358.5369 Q1165.03,358.5369 1165.6237,358.2713 Q1166.2175,357.99 1166.8425,357.4119 L1166.8425,360.1306 Z " fill="#000000"/><text fill="#000000" font-family="sans-serif" font-size="14" lengthAdjust="spacing" textLength="119.0752" x="1184.3737" y="359.3367">Polo&#382;ka &#269;&#237;seln&#237;ku</text><line style="stroke:#181818;stroke-width:0.5;" x1="1097.82" x2="1357.5026" y1="370.49" y2="370.49"/><text fill="#000000" font-family="sans-serif" font-size="14" lengthAdjust="spacing" textLength="211.4697" x="1102.82" y="387.4851">"k&#243;d polo&#382;ky &#269;&#237;seln&#237;ku": string</text><text fill="#000000" font-family="sans-serif" font-size="14" lengthAdjust="spacing" textLength="249.6826" x="1102.82" y="403.782">"pln&#253; n&#225;zev polo&#382;ky &#269;&#237;seln&#237;ku": text</text><line style="stroke:#181818;stroke-width:0.5;" x1="1097.82" x2="1357.5026" y1="411.0838" y2="411.0838"/></g><!--class Opr?vn?n? k zastupov?n?--><g id="elem_Opr&#225;vn&#283;n&#237; k zastupov&#225;n&#237;"><rect codeLine="64" fill="#F1F1F1" height="64.2969" id="Opr&#225;vn&#283;n&#237; k zastupov&#225;n&#237;" rx="2.5" ry="2.5" style="stroke:#181818;stroke-width:0.5;" width="335.6338" x="1343.85" y="794.97"/><ellipse cx="1420.1938" cy="810.97" fill="#ADD1B2" rx="11" ry="11" style="stroke:#181818;stroke-width:1.0;"/><path d="M1423.1625,816.6106 Q1422.5844,816.9075 1421.9438,817.0481 Q1421.3031,817.2044 1420.6,817.2044 Q1418.1,817.2044 1416.7719,815.5638 Q1415.4594,813.9075 1415.4594,810.7825 Q1415.4594,807.6575 1416.7719,806.0013 Q1418.1,804.345 1420.6,804.345 Q1421.3031,804.345 1421.9438,804.5013 Q1422.6,804.6575 1423.1625,804.9544 L1423.1625,807.6731 Q1422.5375,807.095 1421.9438,806.8294 Q1421.35,806.5481 1420.725,806.5481 Q1419.3813,806.5481 1418.6938,807.6263 Q1418.0063,808.6888 1418.0063,810.7825 Q1418.0063,812.8763 1418.6938,813.9544 Q1419.3813,815.0169 1420.725,815.0169 Q1421.35,815.0169 1421.9438,814.7513 Q1422.5375,814.47 1423.1625,813.8919 L1423.1625,816.6106 Z " fill="#000000"/><text fill="#000000" font-family="sans-serif" font-size="14" lengthAdjust="spacing" textLength="174.4463" x="1440.6938" y="815.8167">Opr&#225;vn&#283;n&#237; k zastupov&#225;n&#237;</text><line style="stroke:#181818;stroke-width:0.5;" x1="1344.85" x2="1678.4838" y1="826.97" y2="826.97"/><text fill="#000000" font-family="sans-serif" font-size="14" lengthAdjust="spacing" textLength="323.6338" x="1349.85" y="843.9651">"identifik&#225;tor opr&#225;vn&#283;n&#237; k zastupov&#225;n&#237;": string</text><line style="stroke:#181818;stroke-width:0.5;" x1="1344.85" x2="1678.4838" y1="851.2669" y2="851.2669"/></g><!--class Fyzick? osoba jako osoba ve vztahu k dokumentu--><g id="elem_Fyzick&#225; osoba jako osoba ve vztahu k dokumentu"><rect codeLine="68" fill="#F1F1F1" height="48" id="Fyzick&#225; osoba jako osoba ve vztahu k dokumentu" rx="2.5" ry="2.5" style="stroke:#181818;stroke-width:0.5;" width="380.4072" x="1321.46" y="936.27"/><ellipse cx="1336.46" cy="952.27" fill="#ADD1B2" rx="11" ry="11" style="stroke:#181818;stroke-width:1.0;"/><path d="M1339.4288,957.9106 Q1338.8506,958.2075 1338.21,958.3481 Q1337.5694,958.5044 1336.8663,958.5044 Q1334.3663,958.5044 1333.0381,956.8638 Q1331.7256,955.2075 1331.7256,952.0825 Q1331.7256,948.9575 1333.0381,947.3013 Q1334.3663,945.645 1336.8663,945.645 Q1337.5694,945.645 1338.21,945.8013 Q1338.8663,945.9575 1339.4288,946.2544 L1339.4288,948.9731 Q1338.8038,948.395 1338.21,948.1294 Q1337.6163,947.8481 1336.9913,947.8481 Q1335.6475,947.8481 1334.96,948.9263 Q1334.2725,949.9888 1334.2725,952.0825 Q1334.2725,954.1763 1334.96,955.2544 Q1335.6475,956.3169 1336.9913,956.3169 Q1337.6163,956.3169 1338.21,956.0513 Q1338.8038,955.77 1339.4288,955.1919 L1339.4288,957.9106 Z " fill="#000000"/><text fill="#000000" font-family="sans-serif" font-size="14" lengthAdjust="spacing" textLength="348.4072" x="1350.46" y="957.1167">Fyzick&#225; osoba jako osoba ve vztahu k dokumentu</text><line style="stroke:#181818;stroke-width:0.5;" x1="1322.46" x2="1700.8672" y1="968.27" y2="968.27"/><line style="stroke:#181818;stroke-width:0.5;" x1="1322.46" x2="1700.8672" y1="976.27" y2="976.27"/></g><!--reverse link Dokument to Osv?d?en? o digit?ln?m ?konu--><g id="link_Dokument_Osv&#283;d&#269;en&#237; o digit&#225;ln&#237;m &#250;konu"><path codeLine="71" d="M942.6627,230.5966 C899.3827,241.3666 854.28,254.23 801.66,275.19 C768.44,288.42 733.4,305.4 702.13,321.71 " fill="none" id="Dokument-backto-Osv&#283;d&#269;en&#237; o digit&#225;ln&#237;m &#250;konu" style="stroke:#181818;stroke-width:1.0;"/><polygon fill="none" points="960.13,226.25,941.2138,224.7742,944.1116,236.4191,960.13,226.25" style="stroke:#181818;stroke-width:1.0;"/></g><!--reverse link Elektronick? dokument to Osv?d?en? o digit?ln?m ?konu--><g id="link_Elektronick&#253; dokument_Osv&#283;d&#269;en&#237; o digit&#225;ln&#237;m &#250;konu"><path codeLine="72" d="M1255.87,234.1327 C1144.6,253.9927 974.65,285.69 814.66,322.19 C808.82,323.52 802.89,324.9 796.92,326.32 " fill="none" id="Elektronick&#253; dokument-backto-Osv&#283;d&#269;en&#237; o digit&#225;ln&#237;m &#250;konu" style="stroke:#181818;stroke-width:1.0;"/><polygon fill="none" points="1273.59,230.97,1254.8158,228.2261,1256.9243,240.0394,1273.59,230.97" style="stroke:#181818;stroke-width:1.0;"/></g><!--reverse link Dokument? to Dokument--><g id="link_Dokument&#8203;_Dokument"><path codeLine="73" d="M1244.3119,111.3651 C1179.3619,139.5951 1116.56,166.89 1065.36,189.14 " fill="none" id="Dokument&#8203;-backto-Dokument" style="stroke:#181818;stroke-width:1.0;"/><polygon fill="none" points="1260.82,104.19,1241.9202,105.8624,1246.7036,116.8678,1260.82,104.19" style="stroke:#181818;stroke-width:1.0;"/></g><!--reverse link Dokument? to Elektronick? dokument--><g id="link_Dokument&#8203;_Elektronick&#253; dokument"><path codeLine="74" d="M1370.66,121.98 C1370.66,146.82 1370.66,158.55 1370.66,180.53 " fill="none" id="Dokument&#8203;-backto-Elektronick&#253; dokument" style="stroke:#181818;stroke-width:1.0;"/><polygon fill="none" points="1370.66,103.98,1364.66,121.98,1376.66,121.98,1370.66,103.98" style="stroke:#181818;stroke-width:1.0;"/></g><!--reverse link Elektronick? dokument to Dokument vytvo?en? elektronick?m formul??em--><g id="link_Elektronick&#253; dokument_Dokument vytvo&#345;en&#253; elektronick&#253;m formul&#225;&#345;em"><path codeLine="75" d="M1485.0145,245.4802 C1574.4345,270.8902 1678,303.18 1691.66,322.19 C1721.01,363.05 1713.65,390.13 1691.66,435.38 C1671.24,477.41 1627.45,508.77 1592.78,528.27 " fill="none" id="Elektronick&#253; dokument-backto-Dokument vytvo&#345;en&#253; elektronick&#253;m formul&#225;&#345;em" style="stroke:#181818;stroke-width:1.0;"/><polygon fill="none" points="1467.7,240.56,1483.3744,251.2517,1486.6546,239.7087,1467.7,240.56" style="stroke:#181818;stroke-width:1.0;"/></g><!--reverse link ?kon slu?by ve?ejn? spr?vy to Digit?ln? ?kon--><g id="link_&#218;kon slu&#382;by ve&#345;ejn&#233; spr&#225;vy_Digit&#225;ln&#237; &#250;kon"><path codeLine="76" d="M1557.3715,436.7078 C1564.0315,457.7078 1561.34,465.41 1546.66,482.38 C1516.4,517.37 1386.28,504.71 1340.66,512.38 C1293.27,520.35 1239.98,530.55 1199.48,538.56 " fill="none" id="&#218;kon slu&#382;by ve&#345;ejn&#233; spr&#225;vy-backto-Digit&#225;ln&#237; &#250;kon" style="stroke:#181818;stroke-width:1.0;"/><polygon fill="none" points="1551.93,419.55,1551.6522,438.5216,1563.0907,434.894,1551.93,419.55" style="stroke:#181818;stroke-width:1.0;"/></g><!--reverse link Polo?ka ??seln?ku to Zp?sob proveden? digit?ln?ho ?konu--><g id="link_Polo&#382;ka &#269;&#237;seln&#237;ku_Zp&#367;sob proveden&#237; digit&#225;ln&#237;ho &#250;konu"><path codeLine="77" d="M1208.9339,436.1841 C1200.2139,458.0941 1192.84,467.16 1171.66,482.38 C1151.13,497.14 1025.92,517.67 922.45,532.56 " fill="none" id="Polo&#382;ka &#269;&#237;seln&#237;ku-backto-Zp&#367;sob proveden&#237; digit&#225;ln&#237;ho &#250;konu" style="stroke:#181818;stroke-width:1.0;"/><polygon fill="none" points="1215.59,419.46,1203.3592,433.9654,1214.5086,438.4028,1215.59,419.46" style="stroke:#181818;stroke-width:1.0;"/></g><!--link Osv?d?en? o digit?ln?m ?konu to Dokument vytvo?en? elektronick?m formul??em--><g id="link_Osv&#283;d&#269;en&#237; o digit&#225;ln&#237;m &#250;konu_Dokument vytvo&#345;en&#253; elektronick&#253;m formul&#225;&#345;em"><path codeLine="78" d="M796.75,432.1 C802.77,433.27 808.76,434.37 814.66,435.38 C974.23,462.68 1017.77,440.07 1177.66,465.38 C1275.67,480.9 1386.33,508.41 1460.06,528.2 " fill="none" id="Osv&#283;d&#269;en&#237; o digit&#225;ln&#237;m &#250;konu-Dokument vytvo&#345;en&#253; elektronick&#253;m formul&#225;&#345;em" style="stroke:#181818;stroke-width:1.0;"/><text fill="#000000" font-family="sans-serif" font-size="13" lengthAdjust="spacing" textLength="292.7729" x="1269.66" y="478.4469">osv&#283;d&#269;uje digit&#225;ln&#237; &#250;kon proveden&#253; pod&#225;n&#237;m</text><text fill="#000000" font-family="sans-serif" font-size="13" lengthAdjust="spacing" textLength="24.8066" x="1412.8548" y="517.488">1..1</text></g><!--link Osv?d?en? o digit?ln?m ?konu to Digit?ln? ?kon--><g id="link_Osv&#283;d&#269;en&#237; o digit&#225;ln&#237;m &#250;konu_Digit&#225;ln&#237; &#250;kon"><path codeLine="79" d="M796.91,431.28 C802.89,432.69 808.82,434.06 814.66,435.38 C883.95,451.06 904.64,441.83 971.66,465.38 C1017.43,481.46 1066.12,508.73 1098.23,528.31 " fill="none" id="Osv&#283;d&#269;en&#237; o digit&#225;ln&#237;m &#250;konu-Digit&#225;ln&#237; &#250;kon" style="stroke:#181818;stroke-width:1.0;"/><text fill="#000000" font-family="sans-serif" font-size="13" lengthAdjust="spacing" textLength="158.1455" x="1010.66" y="478.4469">osv&#283;d&#269;uje digit&#225;ln&#237; &#250;kon</text><text fill="#000000" font-family="sans-serif" font-size="13" lengthAdjust="spacing" textLength="24.8066" x="1062.5215" y="517.6248">1..1</text></g><!--link Osv?d?en? o digit?ln?m ?konu to Slu?ba ve?ejn? spr?vy--><g id="link_Osv&#283;d&#269;en&#237; o digit&#225;ln&#237;m &#250;konu_Slu&#382;ba ve&#345;ejn&#233; spr&#225;vy"><path codeLine="80" d="M408.4,400.16 C309.54,413.92 202.25,435.15 163.66,465.38 C148.85,476.99 139.29,495.37 133.25,512.19 " fill="none" id="Osv&#283;d&#269;en&#237; o digit&#225;ln&#237;m &#250;konu-Slu&#382;ba ve&#345;ejn&#233; spr&#225;vy" style="stroke:#181818;stroke-width:1.0;"/><text fill="#000000" font-family="sans-serif" font-size="13" lengthAdjust="spacing" textLength="203.6709" x="164.66" y="478.4469">osv&#283;d&#269;uje digit&#225;ln&#237; &#250;kon slu&#382;by</text><text fill="#000000" font-family="sans-serif" font-size="13" lengthAdjust="spacing" textLength="24.8066" x="108.9171" y="501.3201">1..1</text></g><!--link Osv?d?en? o digit?ln?m ?konu to Agenda--><g id="link_Osv&#283;d&#269;en&#237; o digit&#225;ln&#237;m &#250;konu_Agenda"><path codeLine="81" d="M418.26,435.79 C406.15,444.3 395.06,454.1 385.66,465.38 C374.91,478.28 370.26,496.03 368.45,512.08 " fill="none" id="Osv&#283;d&#269;en&#237; o digit&#225;ln&#237;m &#250;konu-Agenda" style="stroke:#181818;stroke-width:1.0;"/><text fill="#000000" font-family="sans-serif" font-size="13" lengthAdjust="spacing" textLength="256.2041" x="386.66" y="478.4469">osv&#283;d&#269;uje digit&#225;ln&#237; &#250;kon slu&#382;by agendy</text><text fill="#000000" font-family="sans-serif" font-size="13" lengthAdjust="spacing" textLength="24.8066" x="342.4941" y="501.1918">1..1</text></g><!--link Osv?d?en? o digit?ln?m ?konu to Zp?sob proveden? digit?ln?ho ?konu--><g id="link_Osv&#283;d&#269;en&#237; o digit&#225;ln&#237;m &#250;konu_Zp&#367;sob proveden&#237; digit&#225;ln&#237;ho &#250;konu"><path codeLine="82" d="M629.27,435.8 C638.66,452.02 650.27,468.96 663.66,482.38 C682.22,500.98 706.75,516.57 728.46,528.22 " fill="none" id="Osv&#283;d&#269;en&#237; o digit&#225;ln&#237;m &#250;konu-Zp&#367;sob proveden&#237; digit&#225;ln&#237;ho &#250;konu" style="stroke:#181818;stroke-width:1.0;"/><text fill="#000000" font-family="sans-serif" font-size="13" lengthAdjust="spacing" textLength="302.4785" x="664.66" y="478.4469">osv&#283;d&#269;uje zp&#367;sob proveden&#237; digit&#225;ln&#237;ho &#250;konu</text><text fill="#000000" font-family="sans-serif" font-size="13" lengthAdjust="spacing" textLength="24.8066" x="689.1533" y="517.5128">1..1</text></g><!--link Elektronick? dokument to P??loha--><g id="link_Elektronick&#253; dokument_P&#345;&#237;loha"><path codeLine="83" d="M1282.77,245.67 C1224.85,266.76 1147.47,295.43 1079.66,322.19 C1073.38,324.67 1066.94,327.25 1060.45,329.87 " fill="none" id="Elektronick&#253; dokument-P&#345;&#237;loha" style="stroke:#181818;stroke-width:1.0;"/><text fill="#000000" font-family="sans-serif" font-size="13" lengthAdjust="spacing" textLength="108.418" x="1199.66" y="288.2569">obsahuje p&#345;&#237;lohu</text></g><!--link Elektronick? dokument to Osoba ve vztahu k dokumentu--><g id="link_Elektronick&#253; dokument_Osoba ve vztahu k dokumentu"><path codeLine="84" d="M1467.73,241.81 C1473.43,243.06 1479.11,244.2 1484.66,245.19 C1559.32,258.57 1768.83,223.85 1824.66,275.19 C1938.26,379.65 1883.42,598.08 1861.37,669.69 " fill="none" id="Elektronick&#253; dokument-Osoba ve vztahu k dokumentu" style="stroke:#181818;stroke-width:1.0;"/><text fill="#000000" font-family="sans-serif" font-size="13" lengthAdjust="spacing" textLength="62.8735" x="1894.66" y="478.4469">odes&#237;latel</text><text fill="#000000" font-family="sans-serif" font-size="13" lengthAdjust="spacing" textLength="24.8066" x="1866.2728" y="659.0267">1..1</text></g><!--link Elektronick? dokument to Osoba ve vztahu k dokumentu--><g id="link_Elektronick&#253; dokument_Osoba ve vztahu k dokumentu"><path codeLine="85" d="M1467.88,241.07 C1473.55,242.5 1479.17,243.89 1484.66,245.19 C1594.47,271.29 1652.36,237.23 1726.66,322.19 C1819.61,428.47 1845.32,606.06 1851.72,669.53 " fill="none" id="Elektronick&#253; dokument-Osoba ve vztahu k dokumentu-1" style="stroke:#181818;stroke-width:1.0;"/><text fill="#000000" font-family="sans-serif" font-size="13" lengthAdjust="spacing" textLength="56.6274" x="1811.66" y="478.4469">p&#345;&#237;jemce</text><text fill="#000000" font-family="sans-serif" font-size="13" lengthAdjust="spacing" textLength="24.8066" x="1824.4206" y="658.8277">1..1</text></g><!--link Dokument vytvo?en? elektronick?m formul??em to Opr?vn?n? k zastupov?n?--><g id="link_Dokument vytvo&#345;en&#253; elektronick&#253;m formul&#225;&#345;em_Opr&#225;vn&#283;n&#237; k zastupov&#225;n&#237;"><path codeLine="86" d="M1531.95,577.01 C1521.12,599.99 1505.8,636.42 1499.66,669.97 C1491.84,712.77 1498.48,763.06 1504.57,794.77 " fill="none" id="Dokument vytvo&#345;en&#253; elektronick&#253;m formul&#225;&#345;em-Opr&#225;vn&#283;n&#237; k zastupov&#225;n&#237;" style="stroke:#181818;stroke-width:1.0;"/><text fill="#000000" font-family="sans-serif" font-size="13" lengthAdjust="spacing" textLength="211.8149" x="1500.66" y="698.5369">pou&#382;it&#233; opr&#225;vn&#283;n&#237; k zastupov&#225;n&#237;</text><text fill="#000000" font-family="sans-serif" font-size="13" lengthAdjust="spacing" textLength="24.8066" x="1476.8897" y="784.0048">0..1</text></g><!--link Dokument vytvo?en? elektronick?m formul??em to Osoba ve vztahu k dokumentu--><g id="link_Dokument vytvo&#345;en&#253; elektronick&#253;m formul&#225;&#345;em_Osoba ve vztahu k dokumentu"><path codeLine="87" d="M1573.65,577.14 C1599.27,596.26 1637.74,622.81 1674.66,639.97 C1700.09,651.79 1728.76,661.67 1755.6,669.58 " fill="none" id="Dokument vytvo&#345;en&#253; elektronick&#253;m formul&#225;&#345;em-Osoba ve vztahu k dokumentu" style="stroke:#181818;stroke-width:1.0;"/><text fill="#000000" font-family="sans-serif" font-size="13" lengthAdjust="spacing" textLength="96.5669" x="1675.66" y="636.0369">u&#382;ivatel slu&#382;by</text><text fill="#000000" font-family="sans-serif" font-size="13" lengthAdjust="spacing" textLength="24.8066" x="1704.8714" y="658.8899">1..1</text></g><!--link Dokument? to Jednozna?n? identifik?tor--><g id="link_Dokument&#8203;_Jednozna&#269;n&#253; identifik&#225;tor"><path codeLine="88" d="M1473.76,104.19 C1527.29,128.98 1591.21,158.58 1638.53,180.49 " fill="none" id="Dokument&#8203;-Jednozna&#269;n&#253; identifik&#225;tor" style="stroke:#181818;stroke-width:1.0;"/><text fill="#000000" font-family="sans-serif" font-size="13" lengthAdjust="spacing" textLength="170.2759" x="1569.66" y="146.9569">je opat&#345;en identifik&#225;torem</text><text fill="#000000" font-family="sans-serif" font-size="13" lengthAdjust="spacing" textLength="24.8066" x="1599.3318" y="169.9353">1..1</text></g><!--link Dokument? to Dokument?--><g id="link_Dokument&#8203;_Dokument&#8203;"><path codeLine="89" d="M1493.57,40.3 C1514.1,42.42 1528.27,47.47 1528.27,55.45 C1528.27,63.43 1514.1,68.48 1493.57,70.6 " fill="none" id="Dokument&#8203;-Dokument&#8203;" style="stroke:#181818;stroke-width:1.0;"/><text fill="#000000" font-family="sans-serif" font-size="13" lengthAdjust="spacing" textLength="166.1499" x="1534.27" y="60.0169">je odpov&#283;d&#237; na dokument</text><text fill="#000000" font-family="sans-serif" font-size="13" lengthAdjust="spacing" textLength="24.8066" x="1501.3926" y="68.1133">0..1</text></g><!--link Osoba ve vztahu k dokumentu to Opr?vn?n? k zastupov?n?--><g id="link_Osoba ve vztahu k dokumentu_Opr&#225;vn&#283;n&#237; k zastupov&#225;n&#237;"><path codeLine="90" d="M1792.52,718.42 C1737.19,739.64 1655.24,771.06 1594.13,794.5 " fill="none" id="Osoba ve vztahu k dokumentu-Opr&#225;vn&#283;n&#237; k zastupov&#225;n&#237;" style="stroke:#181818;stroke-width:1.0;"/><text fill="#000000" font-family="sans-serif" font-size="13" lengthAdjust="spacing" textLength="75.0356" x="1713.66" y="761.0369">zastoupen&#253;</text><text fill="#000000" font-family="sans-serif" font-size="13" lengthAdjust="spacing" textLength="24.8066" x="1751.6998" y="737.8907">1..1</text></g><!--link Opr?vn?n? k zastupov?n? to Fyzick? osoba jako osoba ve vztahu k dokumentu--><g id="link_Opr&#225;vn&#283;n&#237; k zastupov&#225;n&#237;_Fyzick&#225; osoba jako osoba ve vztahu k dokumentu"><path codeLine="91" d="M1511.66,859.53 C1511.66,883.03 1511.66,914.63 1511.66,935.92 " fill="none" id="Opr&#225;vn&#283;n&#237; k zastupov&#225;n&#237;-Fyzick&#225; osoba jako osoba ve vztahu k dokumentu" style="stroke:#181818;stroke-width:1.0;"/><text fill="#000000" font-family="sans-serif" font-size="13" lengthAdjust="spacing" textLength="58.2969" x="1512.66" y="902.3369">z&#225;stupce</text><text fill="#000000" font-family="sans-serif" font-size="13" lengthAdjust="spacing" textLength="24.8066" x="1484.8324" y="925.2396">1..1</text></g><!--SRC=[hLQxRjim5Dtr5OJs1EaQT2cGTYXG940wTQCjnfObaO982RNQ0jqBVq3gIME6e4Et0ib2-KVw9RsaA9cIhOU3RebuxpddFdXeJWIYE28yndDoIsASOC4IH1abpZp4d2FtccVbrYitXCf7n93dBtmXYn3-Yv3y4p2QkkYBWv3hOP562ADoWpdArbpWhCgn0DnB167aen-HWvGuOHdnT8f5icGrIpiraByzEE5nkTqLL3uWd89oFuSw-jAvI7owKCbBp9SePfuiAatcv9jZYhvYGHeHAg2mvflxDYI1I1Zrvu5yGfu9CSN730eKADxToyUGBG7Jfu8iI681DAZPMcHiTm-bFY5YeqReZYLH6ie2JYEtHLzd__t-mt2M6_d8GuPMnADuRXS2X_1NMcuK0vjnl6pqgaO8ybde7g8a3MGH7Uc0-nv0MKvnXU73N8H_vqCqTDdmWqPHRlCvosIXkibcM6kfqnwW-Ut4z1ZJrNvQrQpQTSkVy0dnCDqzpzOe8y2wKlFcSIABR6sqV009RIupzpgprHmLJMMHa-mmIZTdJt-h3_0WiO7gO1nNTI2deNgp8DJ3UrIzuLXzx1NVd7P4tvWrn4Qa2Q-tqvPOQsVf3ERJ2kdS5nDoR8JNdEaMeImNU9cYm5gtrZ0_nRjV43jwrrj9Donak-T0sGGiF56HGMqwkabn5R1k1zW5nA7QuheDFU6T9bxhETDogrG6ACTSfB7QTUKP5NjdjcmeuqZRtgrpTUqBi4XzTt30p9z3hMnivFNNixD9_kpqUjS942t_qNdrbsDdVOnZKaxsI6VS80poWSquVPjL9KpTLMVI4waGNvsVlt9VyWvSmgxLpsYwQZrm5S5Uv5FphaKlK7PenQFKfxCCMEfueRL_difgt7KoGUsj9rStsUAwKlB9-zPtXPGAo_erWNhy5Nfjx6Fvfef1HzV07k402B_8ml-4g1MkI3GdbjjCloEAwi9G3Jgtvc8mP6Zjmx1dlrJ7r9ALY4orq5hhbfTQOCC_o1GQJ9d5M2YHdNFjamV05sqxqjzh70zw09i9FQ7OTk_1aenK_QICZa1zOcci6gfm1-EjDfpyPcekMIWysAn_]--></g></svg>