<svg xmlns="http://www.w3.org/2000/svg" xmlns:xlink="http://www.w3.org/1999/xlink" contentStyleType="text/css" height="746px" preserveAspectRatio="none" style="width:2181px;height:746px;background:#FFFFFF;" version="1.1" viewBox="0 0 2181 746" width="2181px" zoomAndPan="magnify"><defs/><g><!--class Agenda--><g id="elem_Agenda"><rect codeLine="2" fill="#F1F1F1" height="227.2656" id="Agenda" rx="2.5" ry="2.5" style="stroke:#181818;stroke-width:0.5;" width="362.1436" x="985.3" y="7"/><ellipse cx="1135.4138" cy="23" fill="#ADD1B2" rx="11" ry="11" style="stroke:#181818;stroke-width:1.0;"/><path d="M1138.3825,28.6406 Q1137.8044,28.9375 1137.1638,29.0781 Q1136.5231,29.2344 1135.82,29.2344 Q1133.32,29.2344 1131.9919,27.5938 Q1130.6794,25.9375 1130.6794,22.8125 Q1130.6794,19.6875 1131.9919,18.0313 Q1133.32,16.375 1135.82,16.375 Q1136.5231,16.375 1137.1638,16.5313 Q1137.82,16.6875 1138.3825,16.9844 L1138.3825,19.7031 Q1137.7575,19.125 1137.1638,18.8594 Q1136.57,18.5781 1135.945,18.5781 Q1134.6013,18.5781 1133.9138,19.6563 Q1133.2263,20.7188 1133.2263,22.8125 Q1133.2263,24.9063 1133.9138,25.9844 Q1134.6013,27.0469 1135.945,27.0469 Q1136.57,27.0469 1137.1638,26.7813 Q1137.7575,26.5 1138.3825,25.9219 L1138.3825,28.6406 Z " fill="#000000"/><text fill="#000000" font-family="sans-serif" font-size="14" lengthAdjust="spacing" textLength="53.416" x="1155.9138" y="27.8467">Agenda</text><line style="stroke:#181818;stroke-width:0.5;" x1="986.3" x2="1346.4436" y1="39" y2="39"/><text fill="#000000" font-family="sans-serif" font-size="14" lengthAdjust="spacing" textLength="185.6162" x="991.3" y="55.9951">"M&#225; n&#225;zev agendy": string</text><text fill="#000000" font-family="sans-serif" font-size="14" lengthAdjust="spacing" textLength="169.4766" x="991.3" y="72.292">"M&#225; k&#243;d agendy": string</text><text fill="#000000" font-family="sans-serif" font-size="14" lengthAdjust="spacing" textLength="239.21" x="991.3" y="88.5889">"M&#225; datum vzniku agendy": string</text><text fill="#000000" font-family="sans-serif" font-size="14" lengthAdjust="spacing" textLength="239.5039" x="991.3" y="104.8857">"M&#225; datum z&#225;niku agendy": string</text><text fill="#000000" font-family="sans-serif" font-size="14" lengthAdjust="spacing" textLength="222.8857" x="991.3" y="121.1826">"M&#225; platnost agendy od": string</text><text fill="#000000" font-family="sans-serif" font-size="14" lengthAdjust="spacing" textLength="222.8857" x="991.3" y="137.4795">"M&#225; platnost agendy do": string</text><text fill="#000000" font-family="sans-serif" font-size="14" lengthAdjust="spacing" textLength="303.9395" x="991.3" y="153.7764">"M&#225; datum posledn&#237; zm&#283;ny agendy": string</text><text fill="#000000" font-family="sans-serif" font-size="14" lengthAdjust="spacing" textLength="209.5078" x="991.3" y="170.0732">"m&#225; definov&#225;ny AIS": boolean</text><text fill="#000000" font-family="sans-serif" font-size="14" lengthAdjust="spacing" textLength="350.1436" x="991.3" y="186.3701">"m&#225; definov&#225;no vyu&#382;it&#237; ve&#345;ejn&#253;ch &#250;daj&#367;": boolean</text><text fill="#000000" font-family="sans-serif" font-size="14" lengthAdjust="spacing" textLength="254.4063" x="991.3" y="202.667">"m&#225; definov&#225;ny slu&#382;by VS": boolean</text><text fill="#000000" font-family="sans-serif" font-size="14" lengthAdjust="spacing" textLength="225.7568" x="991.3" y="218.9639">"m&#225; definov&#225;ny &#250;daje": boolean</text><line style="stroke:#181818;stroke-width:0.5;" x1="986.3" x2="1346.4436" y1="226.2656" y2="226.2656"/></g><!--class Ustanoven? pr?vn?ho p?edpisu--><g id="elem_Ustanoven&#237; pr&#225;vn&#237;ho p&#345;edpisu"><rect codeLine="16" fill="#F1F1F1" height="48" id="Ustanoven&#237; pr&#225;vn&#237;ho p&#345;edpisu" rx="2.5" ry="2.5" style="stroke:#181818;stroke-width:0.5;" width="242.4033" x="229.17" y="327.56"/><ellipse cx="244.17" cy="343.56" fill="#ADD1B2" rx="11" ry="11" style="stroke:#181818;stroke-width:1.0;"/><path d="M247.1388,349.2006 Q246.5606,349.4975 245.92,349.6381 Q245.2794,349.7944 244.5763,349.7944 Q242.0763,349.7944 240.7481,348.1538 Q239.4356,346.4975 239.4356,343.3725 Q239.4356,340.2475 240.7481,338.5913 Q242.0763,336.935 244.5763,336.935 Q245.2794,336.935 245.92,337.0913 Q246.5763,337.2475 247.1388,337.5444 L247.1388,340.2631 Q246.5138,339.685 245.92,339.4194 Q245.3263,339.1381 244.7013,339.1381 Q243.3575,339.1381 242.67,340.2163 Q241.9825,341.2788 241.9825,343.3725 Q241.9825,345.4663 242.67,346.5444 Q243.3575,347.6069 244.7013,347.6069 Q245.3263,347.6069 245.92,347.3413 Q246.5138,347.06 247.1388,346.4819 L247.1388,349.2006 Z " fill="#000000"/><text fill="#000000" font-family="sans-serif" font-size="14" lengthAdjust="spacing" textLength="210.4033" x="258.17" y="348.4067">Ustanoven&#237; pr&#225;vn&#237;ho p&#345;edpisu</text><line style="stroke:#181818;stroke-width:0.5;" x1="230.17" x2="470.5733" y1="359.56" y2="359.56"/><line style="stroke:#181818;stroke-width:0.5;" x1="230.17" x2="470.5733" y1="367.56" y2="367.56"/></g><!--class ?innost--><g id="elem_&#268;innost"><rect codeLine="19" fill="#F1F1F1" height="145.7813" id="&#268;innost" rx="2.5" ry="2.5" style="stroke:#181818;stroke-width:0.5;" width="237.333" x="240.7" y="468.86"/><ellipse cx="328.7366" cy="484.86" fill="#ADD1B2" rx="11" ry="11" style="stroke:#181818;stroke-width:1.0;"/><path d="M331.7054,490.5006 Q331.1272,490.7975 330.4866,490.9381 Q329.846,491.0944 329.1429,491.0944 Q326.6429,491.0944 325.3147,489.4538 Q324.0022,487.7975 324.0022,484.6725 Q324.0022,481.5475 325.3147,479.8913 Q326.6429,478.235 329.1429,478.235 Q329.846,478.235 330.4866,478.3913 Q331.1429,478.5475 331.7054,478.8444 L331.7054,481.5631 Q331.0804,480.985 330.4866,480.7194 Q329.8929,480.4381 329.2679,480.4381 Q327.9241,480.4381 327.2366,481.5163 Q326.5491,482.5788 326.5491,484.6725 Q326.5491,486.7663 327.2366,487.8444 Q327.9241,488.9069 329.2679,488.9069 Q329.8929,488.9069 330.4866,488.6413 Q331.0804,488.36 331.7054,487.7819 L331.7054,490.5006 Z " fill="#000000"/><text fill="#000000" font-family="sans-serif" font-size="14" lengthAdjust="spacing" textLength="52.7598" x="349.2366" y="489.7067">&#268;innost</text><line style="stroke:#181818;stroke-width:0.5;" x1="241.7" x2="477.033" y1="500.86" y2="500.86"/><text fill="#000000" font-family="sans-serif" font-size="14" lengthAdjust="spacing" textLength="171.9238" x="246.7" y="517.8551">"M&#225; k&#243;d &#269;innosti": string</text><text fill="#000000" font-family="sans-serif" font-size="14" lengthAdjust="spacing" textLength="188.0635" x="246.7" y="534.152">"M&#225; n&#225;zev &#269;innosti": string</text><text fill="#000000" font-family="sans-serif" font-size="14" lengthAdjust="spacing" textLength="183.8867" x="246.7" y="550.4489">"M&#225; popis &#269;innosti": string</text><text fill="#000000" font-family="sans-serif" font-size="14" lengthAdjust="spacing" textLength="225.333" x="246.7" y="566.7457">"M&#225; platnost &#269;innosti od": string</text><text fill="#000000" font-family="sans-serif" font-size="14" lengthAdjust="spacing" textLength="225.333" x="246.7" y="583.0426">"M&#225; platnost &#269;innosti do": string</text><text fill="#000000" font-family="sans-serif" font-size="14" lengthAdjust="spacing" textLength="218.2031" x="246.7" y="599.3395">"Typ v&#253;konu &#269;innosti": boolean</text><line style="stroke:#181818;stroke-width:0.5;" x1="241.7" x2="477.033" y1="606.6413" y2="606.6413"/></g><!--class Org?n ve?ejn? moci nebo soukromopr?vn? u?ivatel ?daj? nebo jejich kategorie--><g id="elem_Org&#225;n ve&#345;ejn&#233; moci nebo soukromopr&#225;vn&#237; u&#382;ivatel &#250;daj&#367; nebo jejich kategorie"><rect codeLine="28" fill="#F1F1F1" height="48" id="Org&#225;n ve&#345;ejn&#233; moci nebo soukromopr&#225;vn&#237; u&#382;ivatel &#250;daj&#367; nebo jejich kategorie" rx="2.5" ry="2.5" style="stroke:#181818;stroke-width:0.5;" width="582.5322" x="875.1" y="327.56"/><ellipse cx="890.1" cy="343.56" fill="#ADD1B2" rx="11" ry="11" style="stroke:#181818;stroke-width:1.0;"/><path d="M893.0688,349.2006 Q892.4906,349.4975 891.85,349.6381 Q891.2094,349.7944 890.5063,349.7944 Q888.0063,349.7944 886.6781,348.1538 Q885.3656,346.4975 885.3656,343.3725 Q885.3656,340.2475 886.6781,338.5913 Q888.0063,336.935 890.5063,336.935 Q891.2094,336.935 891.85,337.0913 Q892.5063,337.2475 893.0688,337.5444 L893.0688,340.2631 Q892.4438,339.685 891.85,339.4194 Q891.2563,339.1381 890.6313,339.1381 Q889.2875,339.1381 888.6,340.2163 Q887.9125,341.2788 887.9125,343.3725 Q887.9125,345.4663 888.6,346.5444 Q889.2875,347.6069 890.6313,347.6069 Q891.2563,347.6069 891.85,347.3413 Q892.4438,347.06 893.0688,346.4819 L893.0688,349.2006 Z " fill="#000000"/><text fill="#000000" font-family="sans-serif" font-size="14" lengthAdjust="spacing" textLength="550.5322" x="904.1" y="348.4067">Org&#225;n ve&#345;ejn&#233; moci nebo soukromopr&#225;vn&#237; u&#382;ivatel &#250;daj&#367; nebo jejich kategorie</text><line style="stroke:#181818;stroke-width:0.5;" x1="876.1" x2="1456.6322" y1="359.56" y2="359.56"/><line style="stroke:#181818;stroke-width:0.5;" x1="876.1" x2="1456.6322" y1="367.56" y2="367.56"/></g><!--class Org?n ve?ejn? moci--><g id="elem_Org&#225;n ve&#345;ejn&#233; moci"><rect codeLine="31" fill="#F1F1F1" height="48" id="Org&#225;n ve&#345;ejn&#233; moci" rx="2.5" ry="2.5" style="stroke:#181818;stroke-width:0.5;" width="170.4482" x="1425.14" y="691.64"/><ellipse cx="1440.14" cy="707.64" fill="#ADD1B2" rx="11" ry="11" style="stroke:#181818;stroke-width:1.0;"/><path d="M1443.1088,713.2806 Q1442.5306,713.5775 1441.89,713.7181 Q1441.2494,713.8744 1440.5463,713.8744 Q1438.0463,713.8744 1436.7181,712.2338 Q1435.4056,710.5775 1435.4056,707.4525 Q1435.4056,704.3275 1436.7181,702.6713 Q1438.0463,701.015 1440.5463,701.015 Q1441.2494,701.015 1441.89,701.1713 Q1442.5463,701.3275 1443.1088,701.6244 L1443.1088,704.3431 Q1442.4838,703.765 1441.89,703.4994 Q1441.2963,703.2181 1440.6713,703.2181 Q1439.3275,703.2181 1438.64,704.2963 Q1437.9525,705.3588 1437.9525,707.4525 Q1437.9525,709.5463 1438.64,710.6244 Q1439.3275,711.6869 1440.6713,711.6869 Q1441.2963,711.6869 1441.89,711.4213 Q1442.4838,711.14 1443.1088,710.5619 L1443.1088,713.2806 Z " fill="#000000"/><text fill="#000000" font-family="sans-serif" font-size="14" lengthAdjust="spacing" textLength="138.4482" x="1454.14" y="712.4867">Org&#225;n ve&#345;ejn&#233; moci</text><line style="stroke:#181818;stroke-width:0.5;" x1="1426.14" x2="1594.5882" y1="723.64" y2="723.64"/><line style="stroke:#181818;stroke-width:0.5;" x1="1426.14" x2="1594.5882" y1="731.64" y2="731.64"/></g><!--class Org?n ve?ejn? moci nebo soukromopr?vn? u?ivatel ?daj?--><g id="elem_Org&#225;n ve&#345;ejn&#233; moci nebo soukromopr&#225;vn&#237; u&#382;ivatel &#250;daj&#367;"><rect codeLine="34" fill="#F1F1F1" height="48" id="Org&#225;n ve&#345;ejn&#233; moci nebo soukromopr&#225;vn&#237; u&#382;ivatel &#250;daj&#367;" rx="2.5" ry="2.5" style="stroke:#181818;stroke-width:0.5;" width="430.8906" x="1026.92" y="517.75"/><ellipse cx="1041.92" cy="533.75" fill="#ADD1B2" rx="11" ry="11" style="stroke:#181818;stroke-width:1.0;"/><path d="M1044.8888,539.3906 Q1044.3106,539.6875 1043.67,539.8281 Q1043.0294,539.9844 1042.3263,539.9844 Q1039.8263,539.9844 1038.4981,538.3438 Q1037.1856,536.6875 1037.1856,533.5625 Q1037.1856,530.4375 1038.4981,528.7813 Q1039.8263,527.125 1042.3263,527.125 Q1043.0294,527.125 1043.67,527.2813 Q1044.3263,527.4375 1044.8888,527.7344 L1044.8888,530.4531 Q1044.2638,529.875 1043.67,529.6094 Q1043.0763,529.3281 1042.4513,529.3281 Q1041.1075,529.3281 1040.42,530.4063 Q1039.7325,531.4688 1039.7325,533.5625 Q1039.7325,535.6563 1040.42,536.7344 Q1041.1075,537.7969 1042.4513,537.7969 Q1043.0763,537.7969 1043.67,537.5313 Q1044.2638,537.25 1044.8888,536.6719 L1044.8888,539.3906 Z " fill="#000000"/><text fill="#000000" font-family="sans-serif" font-size="14" lengthAdjust="spacing" textLength="398.8906" x="1055.92" y="538.5967">Org&#225;n ve&#345;ejn&#233; moci nebo soukromopr&#225;vn&#237; u&#382;ivatel &#250;daj&#367;</text><line style="stroke:#181818;stroke-width:0.5;" x1="1027.92" x2="1456.8106" y1="549.75" y2="549.75"/><line style="stroke:#181818;stroke-width:0.5;" x1="1027.92" x2="1456.8106" y1="557.75" y2="557.75"/></g><!--class Kategorie--><g id="elem_Kategorie"><rect codeLine="37" fill="#F1F1F1" height="48" id="Kategorie" rx="2.5" ry="2.5" style="stroke:#181818;stroke-width:0.5;" width="99.5732" x="881.58" y="517.75"/><ellipse cx="896.58" cy="533.75" fill="#ADD1B2" rx="11" ry="11" style="stroke:#181818;stroke-width:1.0;"/><path d="M899.5488,539.3906 Q898.9706,539.6875 898.33,539.8281 Q897.6894,539.9844 896.9863,539.9844 Q894.4863,539.9844 893.1581,538.3438 Q891.8456,536.6875 891.8456,533.5625 Q891.8456,530.4375 893.1581,528.7813 Q894.4863,527.125 896.9863,527.125 Q897.6894,527.125 898.33,527.2813 Q898.9863,527.4375 899.5488,527.7344 L899.5488,530.4531 Q898.9238,529.875 898.33,529.6094 Q897.7363,529.3281 897.1113,529.3281 Q895.7675,529.3281 895.08,530.4063 Q894.3925,531.4688 894.3925,533.5625 Q894.3925,535.6563 895.08,536.7344 Q895.7675,537.7969 897.1113,537.7969 Q897.7363,537.7969 898.33,537.5313 Q898.9238,537.25 899.5488,536.6719 L899.5488,539.3906 Z " fill="#000000"/><text fill="#000000" font-family="sans-serif" font-size="14" lengthAdjust="spacing" textLength="67.5732" x="910.58" y="538.5967">Kategorie</text><line style="stroke:#181818;stroke-width:0.5;" x1="882.58" x2="980.1532" y1="549.75" y2="549.75"/><line style="stroke:#181818;stroke-width:0.5;" x1="882.58" x2="980.1532" y1="557.75" y2="557.75"/></g><!--class Kategorie org?n? ve?ejn? moci--><g id="elem_Kategorie org&#225;n&#367; ve&#345;ejn&#233; moci"><rect codeLine="40" fill="#F1F1F1" height="48" id="Kategorie org&#225;n&#367; ve&#345;ejn&#233; moci" rx="2.5" ry="2.5" style="stroke:#181818;stroke-width:0.5;" width="248.8906" x="474.92" y="691.64"/><ellipse cx="489.92" cy="707.64" fill="#ADD1B2" rx="11" ry="11" style="stroke:#181818;stroke-width:1.0;"/><path d="M492.8887,713.2806 Q492.3106,713.5775 491.67,713.7181 Q491.0294,713.8744 490.3262,713.8744 Q487.8262,713.8744 486.4981,712.2338 Q485.1856,710.5775 485.1856,707.4525 Q485.1856,704.3275 486.4981,702.6713 Q487.8262,701.015 490.3262,701.015 Q491.0294,701.015 491.67,701.1713 Q492.3262,701.3275 492.8887,701.6244 L492.8887,704.3431 Q492.2637,703.765 491.67,703.4994 Q491.0762,703.2181 490.4512,703.2181 Q489.1075,703.2181 488.42,704.2963 Q487.7325,705.3588 487.7325,707.4525 Q487.7325,709.5463 488.42,710.6244 Q489.1075,711.6869 490.4512,711.6869 Q491.0762,711.6869 491.67,711.4213 Q492.2637,711.14 492.8887,710.5619 L492.8887,713.2806 Z " fill="#000000"/><text fill="#000000" font-family="sans-serif" font-size="14" lengthAdjust="spacing" textLength="216.8906" x="503.92" y="712.4867">Kategorie org&#225;n&#367; ve&#345;ejn&#233; moci</text><line style="stroke:#181818;stroke-width:0.5;" x1="475.92" x2="722.8106" y1="723.64" y2="723.64"/><line style="stroke:#181818;stroke-width:0.5;" x1="475.92" x2="722.8106" y1="731.64" y2="731.64"/></g><!--class Soukromopr?vn? u?ivatel ?daj?--><g id="elem_Soukromopr&#225;vn&#237; u&#382;ivatel &#250;daj&#367;"><rect codeLine="43" fill="#F1F1F1" height="48" id="Soukromopr&#225;vn&#237; u&#382;ivatel &#250;daj&#367;" rx="2.5" ry="2.5" style="stroke:#181818;stroke-width:0.5;" width="250.1963" x="1139.27" y="691.64"/><ellipse cx="1154.27" cy="707.64" fill="#ADD1B2" rx="11" ry="11" style="stroke:#181818;stroke-width:1.0;"/><path d="M1157.2388,713.2806 Q1156.6606,713.5775 1156.02,713.7181 Q1155.3794,713.8744 1154.6763,713.8744 Q1152.1763,713.8744 1150.8481,712.2338 Q1149.5356,710.5775 1149.5356,707.4525 Q1149.5356,704.3275 1150.8481,702.6713 Q1152.1763,701.015 1154.6763,701.015 Q1155.3794,701.015 1156.02,701.1713 Q1156.6763,701.3275 1157.2388,701.6244 L1157.2388,704.3431 Q1156.6138,703.765 1156.02,703.4994 Q1155.4263,703.2181 1154.8013,703.2181 Q1153.4575,703.2181 1152.77,704.2963 Q1152.0825,705.3588 1152.0825,707.4525 Q1152.0825,709.5463 1152.77,710.6244 Q1153.4575,711.6869 1154.8013,711.6869 Q1155.4263,711.6869 1156.02,711.4213 Q1156.6138,711.14 1157.2388,710.5619 L1157.2388,713.2806 Z " fill="#000000"/><text fill="#000000" font-family="sans-serif" font-size="14" lengthAdjust="spacing" textLength="218.1963" x="1168.27" y="712.4867">Soukromopr&#225;vn&#237; u&#382;ivatel &#250;daj&#367;</text><line style="stroke:#181818;stroke-width:0.5;" x1="1140.27" x2="1388.4663" y1="723.64" y2="723.64"/><line style="stroke:#181818;stroke-width:0.5;" x1="1140.27" x2="1388.4663" y1="731.64" y2="731.64"/></g><!--class Kategorie soukromopr?vn?ch u?ivatel? ?daj?--><g id="elem_Kategorie soukromopr&#225;vn&#237;ch u&#382;ivatel&#367; &#250;daj&#367;"><rect codeLine="46" fill="#F1F1F1" height="48" id="Kategorie soukromopr&#225;vn&#237;ch u&#382;ivatel&#367; &#250;daj&#367;" rx="2.5" ry="2.5" style="stroke:#181818;stroke-width:0.5;" width="346.0703" x="758.33" y="691.64"/><ellipse cx="773.33" cy="707.64" fill="#ADD1B2" rx="11" ry="11" style="stroke:#181818;stroke-width:1.0;"/><path d="M776.2988,713.2806 Q775.7206,713.5775 775.08,713.7181 Q774.4394,713.8744 773.7363,713.8744 Q771.2363,713.8744 769.9081,712.2338 Q768.5956,710.5775 768.5956,707.4525 Q768.5956,704.3275 769.9081,702.6713 Q771.2363,701.015 773.7363,701.015 Q774.4394,701.015 775.08,701.1713 Q775.7363,701.3275 776.2988,701.6244 L776.2988,704.3431 Q775.6738,703.765 775.08,703.4994 Q774.4863,703.2181 773.8613,703.2181 Q772.5175,703.2181 771.83,704.2963 Q771.1425,705.3588 771.1425,707.4525 Q771.1425,709.5463 771.83,710.6244 Q772.5175,711.6869 773.8613,711.6869 Q774.4863,711.6869 775.08,711.4213 Q775.6738,711.14 776.2988,710.5619 L776.2988,713.2806 Z " fill="#000000"/><text fill="#000000" font-family="sans-serif" font-size="14" lengthAdjust="spacing" textLength="314.0703" x="787.33" y="712.4867">Kategorie soukromopr&#225;vn&#237;ch u&#382;ivatel&#367; &#250;daj&#367;</text><line style="stroke:#181818;stroke-width:0.5;" x1="759.33" x2="1103.4003" y1="723.64" y2="723.64"/><line style="stroke:#181818;stroke-width:0.5;" x1="759.33" x2="1103.4003" y1="731.64" y2="731.64"/></g><!--class Stanovisko ke slu?b?m VS--><g id="elem_Stanovisko ke slu&#382;b&#225;m VS"><rect codeLine="49" fill="#F1F1F1" height="80.5938" id="Stanovisko ke slu&#382;b&#225;m VS" rx="2.5" ry="2.5" style="stroke:#181818;stroke-width:0.5;" width="295.6025" x="1563.57" y="311.26"/><ellipse cx="1615.3317" cy="327.26" fill="#ADD1B2" rx="11" ry="11" style="stroke:#181818;stroke-width:1.0;"/><path d="M1618.3005,332.9006 Q1617.7223,333.1975 1617.0817,333.3381 Q1616.4411,333.4944 1615.738,333.4944 Q1613.238,333.4944 1611.9098,331.8538 Q1610.5973,330.1975 1610.5973,327.0725 Q1610.5973,323.9475 1611.9098,322.2913 Q1613.238,320.635 1615.738,320.635 Q1616.4411,320.635 1617.0817,320.7913 Q1617.738,320.9475 1618.3005,321.2444 L1618.3005,323.9631 Q1617.6755,323.385 1617.0817,323.1194 Q1616.488,322.8381 1615.863,322.8381 Q1614.5192,322.8381 1613.8317,323.9163 Q1613.1442,324.9788 1613.1442,327.0725 Q1613.1442,329.1663 1613.8317,330.2444 Q1614.5192,331.3069 1615.863,331.3069 Q1616.488,331.3069 1617.0817,331.0413 Q1617.6755,330.76 1618.3005,330.1819 L1618.3005,332.9006 Z " fill="#000000"/><text fill="#000000" font-family="sans-serif" font-size="14" lengthAdjust="spacing" textLength="183.5791" x="1635.8317" y="332.1067">Stanovisko ke slu&#382;b&#225;m VS</text><line style="stroke:#181818;stroke-width:0.5;" x1="1564.57" x2="1858.1725" y1="343.26" y2="343.26"/><text fill="#000000" font-family="sans-serif" font-size="14" lengthAdjust="spacing" textLength="262.6162" x="1569.57" y="360.2551">"datum stanoviska ke slu&#382;b&#225;m": date</text><text fill="#000000" font-family="sans-serif" font-size="14" lengthAdjust="spacing" textLength="283.6025" x="1569.57" y="376.552">"hodnota stanoviska ke slu&#382;b&#225;m": string</text><line style="stroke:#181818;stroke-width:0.5;" x1="1564.57" x2="1858.1725" y1="383.8538" y2="383.8538"/></g><!--class Stanovisko k ?daj?m--><g id="elem_Stanovisko k &#250;daj&#367;m"><rect codeLine="54" fill="#F1F1F1" height="80.5938" id="Stanovisko k &#250;daj&#367;m" rx="2.5" ry="2.5" style="stroke:#181818;stroke-width:0.5;" width="281.2197" x="1893.76" y="311.26"/><ellipse cx="1956.9788" cy="327.26" fill="#ADD1B2" rx="11" ry="11" style="stroke:#181818;stroke-width:1.0;"/><path d="M1959.9475,332.9006 Q1959.3694,333.1975 1958.7288,333.3381 Q1958.0881,333.4944 1957.385,333.4944 Q1954.885,333.4944 1953.5569,331.8538 Q1952.2444,330.1975 1952.2444,327.0725 Q1952.2444,323.9475 1953.5569,322.2913 Q1954.885,320.635 1957.385,320.635 Q1958.0881,320.635 1958.7288,320.7913 Q1959.385,320.9475 1959.9475,321.2444 L1959.9475,323.9631 Q1959.3225,323.385 1958.7288,323.1194 Q1958.135,322.8381 1957.51,322.8381 Q1956.1663,322.8381 1955.4788,323.9163 Q1954.7913,324.9788 1954.7913,327.0725 Q1954.7913,329.1663 1955.4788,330.2444 Q1956.1663,331.3069 1957.51,331.3069 Q1958.135,331.3069 1958.7288,331.0413 Q1959.3225,330.76 1959.9475,330.1819 L1959.9475,332.9006 Z " fill="#000000"/><text fill="#000000" font-family="sans-serif" font-size="14" lengthAdjust="spacing" textLength="146.2822" x="1977.4788" y="332.1067">Stanovisko k &#250;daj&#367;m</text><line style="stroke:#181818;stroke-width:0.5;" x1="1894.76" x2="2173.9797" y1="343.26" y2="343.26"/><text fill="#000000" font-family="sans-serif" font-size="14" lengthAdjust="spacing" textLength="248.2334" x="1899.76" y="360.2551">"datum stanoviska k &#250;daj&#367;m": date</text><text fill="#000000" font-family="sans-serif" font-size="14" lengthAdjust="spacing" textLength="269.2197" x="1899.76" y="376.552">"hodnota stanoviska k &#250;daj&#367;m": string</text><line style="stroke:#181818;stroke-width:0.5;" x1="1894.76" x2="2173.9797" y1="383.8538" y2="383.8538"/></g><!--class Pr??ezov? ?innost--><g id="elem_Pr&#367;&#345;ezov&#225; &#269;innost"><rect codeLine="59" fill="#F1F1F1" height="48" id="Pr&#367;&#345;ezov&#225; &#269;innost" rx="2.5" ry="2.5" style="stroke:#181818;stroke-width:0.5;" width="157.3506" x="280.69" y="691.64"/><ellipse cx="295.69" cy="707.64" fill="#ADD1B2" rx="11" ry="11" style="stroke:#181818;stroke-width:1.0;"/><path d="M298.6588,713.2806 Q298.0806,713.5775 297.44,713.7181 Q296.7994,713.8744 296.0963,713.8744 Q293.5963,713.8744 292.2681,712.2338 Q290.9556,710.5775 290.9556,707.4525 Q290.9556,704.3275 292.2681,702.6713 Q293.5963,701.015 296.0963,701.015 Q296.7994,701.015 297.44,701.1713 Q298.0963,701.3275 298.6588,701.6244 L298.6588,704.3431 Q298.0338,703.765 297.44,703.4994 Q296.8463,703.2181 296.2213,703.2181 Q294.8775,703.2181 294.19,704.2963 Q293.5025,705.3588 293.5025,707.4525 Q293.5025,709.5463 294.19,710.6244 Q294.8775,711.6869 296.2213,711.6869 Q296.8463,711.6869 297.44,711.4213 Q298.0338,711.14 298.6588,710.5619 L298.6588,713.2806 Z " fill="#000000"/><text fill="#000000" font-family="sans-serif" font-size="14" lengthAdjust="spacing" textLength="125.3506" x="309.69" y="712.4867">Pr&#367;&#345;ezov&#225; &#269;innost</text><line style="stroke:#181818;stroke-width:0.5;" x1="281.69" x2="437.0406" y1="723.64" y2="723.64"/><line style="stroke:#181818;stroke-width:0.5;" x1="281.69" x2="437.0406" y1="731.64" y2="731.64"/></g><!--reverse link Org?n ve?ejn? moci nebo soukromopr?vn? u?ivatel ?daj? to Org?n ve?ejn? moci--><g id="link_Org&#225;n ve&#345;ejn&#233; moci nebo soukromopr&#225;vn&#237; u&#382;ivatel &#250;daj&#367;_Org&#225;n ve&#345;ejn&#233; moci"><path codeLine="62" d="M1293.942,575.8269 C1345.182,608.6869 1422.83,658.5 1474.03,691.33 " fill="none" id="Org&#225;n ve&#345;ejn&#233; moci nebo soukromopr&#225;vn&#237; u&#382;ivatel &#250;daj&#367;-backto-Org&#225;n ve&#345;ejn&#233; moci" style="stroke:#181818;stroke-width:1.0;"/><polygon fill="none" points="1278.79,566.11,1290.703,580.8775,1297.1809,570.7762,1278.79,566.11" style="stroke:#181818;stroke-width:1.0;"/></g><!--reverse link Org?n ve?ejn? moci nebo soukromopr?vn? u?ivatel ?daj? nebo jejich kategorie to Org?n ve?ejn? moci nebo soukromopr?vn? u?ivatel ?daj?--><g id="link_Org&#225;n ve&#345;ejn&#233; moci nebo soukromopr&#225;vn&#237; u&#382;ivatel &#250;daj&#367; nebo jejich kategorie_Org&#225;n ve&#345;ejn&#233; moci nebo soukromopr&#225;vn&#237; u&#382;ivatel &#250;daj&#367;"><path codeLine="63" d="M1182.5791,392.7108 C1197.1791,428.8708 1218.29,481.14 1232.9,517.3 " fill="none" id="Org&#225;n ve&#345;ejn&#233; moci nebo soukromopr&#225;vn&#237; u&#382;ivatel &#250;daj&#367; nebo jejich kategorie-backto-Org&#225;n ve&#345;ejn&#233; moci nebo soukromopr&#225;vn&#237; u&#382;ivatel &#250;daj&#367;" style="stroke:#181818;stroke-width:1.0;"/><polygon fill="none" points="1175.84,376.02,1177.0155,394.9572,1188.1427,390.4645,1175.84,376.02" style="stroke:#181818;stroke-width:1.0;"/></g><!--reverse link Org?n ve?ejn? moci nebo soukromopr?vn? u?ivatel ?daj? nebo jejich kategorie to Kategorie--><g id="link_Org&#225;n ve&#345;ejn&#233; moci nebo soukromopr&#225;vn&#237; u&#382;ivatel &#250;daj&#367; nebo jejich kategorie_Kategorie"><path codeLine="64" d="M1117.7885,386.4317 C1085.4485,409.2317 1050.4,434.91 1009.37,468.86 C990.64,484.35 970.49,502.98 955.36,517.39 " fill="none" id="Org&#225;n ve&#345;ejn&#233; moci nebo soukromopr&#225;vn&#237; u&#382;ivatel &#250;daj&#367; nebo jejich kategorie-backto-Kategorie" style="stroke:#181818;stroke-width:1.0;"/><polygon fill="none" points="1132.5,376.06,1114.3313,381.5279,1121.2458,391.3355,1132.5,376.06" style="stroke:#181818;stroke-width:1.0;"/></g><!--reverse link Kategorie to Kategorie org?n? ve?ejn? moci--><g id="link_Kategorie_Kategorie org&#225;n&#367; ve&#345;ejn&#233; moci"><path codeLine="65" d="M870.2659,574.387 C806.8859,607.207 708.13,658.33 644.66,691.19 " fill="none" id="Kategorie-backto-Kategorie org&#225;n&#367; ve&#345;ejn&#233; moci" style="stroke:#181818;stroke-width:1.0;"/><polygon fill="none" points="886.25,566.11,867.5069,569.059,873.0249,579.715,886.25,566.11" style="stroke:#181818;stroke-width:1.0;"/></g><!--reverse link Org?n ve?ejn? moci nebo soukromopr?vn? u?ivatel ?daj? to Soukromopr?vn? u?ivatel ?daj?--><g id="link_Org&#225;n ve&#345;ejn&#233; moci nebo soukromopr&#225;vn&#237; u&#382;ivatel &#250;daj&#367;_Soukromopr&#225;vn&#237; u&#382;ivatel &#250;daj&#367;"><path codeLine="66" d="M1247.6202,583.785 C1251.8102,616.595 1257.17,658.37 1261.38,691.28 " fill="none" id="Org&#225;n ve&#345;ejn&#233; moci nebo soukromopr&#225;vn&#237; u&#382;ivatel &#250;daj&#367;-backto-Soukromopr&#225;vn&#237; u&#382;ivatel &#250;daj&#367;" style="stroke:#181818;stroke-width:1.0;"/><polygon fill="none" points="1245.34,565.93,1241.6685,584.5451,1253.5718,583.0249,1245.34,565.93" style="stroke:#181818;stroke-width:1.0;"/></g><!--reverse link Kategorie to Kategorie soukromopr?vn?ch u?ivatel? ?daj?--><g id="link_Kategorie_Kategorie soukromopr&#225;vn&#237;ch u&#382;ivatel&#367; &#250;daj&#367;"><path codeLine="67" d="M931.37,583.93 C931.37,616.74 931.37,658.37 931.37,691.28 " fill="none" id="Kategorie-backto-Kategorie soukromopr&#225;vn&#237;ch u&#382;ivatel&#367; &#250;daj&#367;" style="stroke:#181818;stroke-width:1.0;"/><polygon fill="none" points="931.37,565.93,925.37,583.93,937.37,583.93,931.37,565.93" style="stroke:#181818;stroke-width:1.0;"/></g><!--link Agenda to Ustanoven? pr?vn?ho p?edpisu--><g id="link_Agenda_Ustanoven&#237; pr&#225;vn&#237;ho p&#345;edpisu"><path codeLine="68" d="M984.95,132.11 C686.88,151.19 120.36,196.05 60.37,264.26 C6,326.1 126.94,344.56 228.88,349.59 " fill="none" id="Agenda-Ustanoven&#237; pr&#225;vn&#237;ho p&#345;edpisu" style="stroke:#181818;stroke-width:1.0;"/><text fill="#000000" font-family="sans-serif" font-size="13" lengthAdjust="spacing" textLength="245.4639" x="61.37" y="277.3269">Je vykon&#225;v&#225;na na z&#225;klad&#283; ustanoven&#237;</text></g><!--link Agenda to Ustanoven? pr?vn?ho p?edpisu--><g id="link_Agenda_Ustanoven&#237; pr&#225;vn&#237;ho p&#345;edpisu"><path codeLine="69" d="M985.03,126.96 C769.01,137.58 427.19,169.34 347.37,264.26 C332.9,281.48 336.41,308.15 341.81,327.28 " fill="none" id="Agenda-Ustanoven&#237; pr&#225;vn&#237;ho p&#345;edpisu-1" style="stroke:#181818;stroke-width:1.0;"/><text fill="#000000" font-family="sans-serif" font-size="13" lengthAdjust="spacing" textLength="305.1509" x="348.37" y="277.3269">Je vykon&#225;v&#225;na na z&#225;klad&#283; hlavn&#237;ho ustanoven&#237;</text></g><!--link Agenda to ?innost--><g id="link_Agenda_&#268;innost"><path codeLine="70" d="M985.05,177.74 C894.61,209.88 785.76,255.06 696.37,311.26 C625.1,356.08 625.46,390.76 556.37,438.86 C532.19,455.69 504.88,471.56 478.45,485.54 " fill="none" id="Agenda-&#268;innost" style="stroke:#181818;stroke-width:1.0;"/><text fill="#000000" font-family="sans-serif" font-size="13" lengthAdjust="spacing" textLength="159.5674" x="697.37" y="356.1269">Je vykon&#225;v&#225;na v agend&#283;</text><text fill="#000000" font-family="sans-serif" font-size="13" lengthAdjust="spacing" textLength="23.0356" x="486.0004" y="478.9275">1..*</text></g><!--link Agenda to Org?n ve?ejn? moci nebo soukromopr?vn? u?ivatel ?daj? nebo jejich kategorie--><g id="link_Agenda_Org&#225;n ve&#345;ejn&#233; moci nebo soukromopr&#225;vn&#237; u&#382;ivatel &#250;daj&#367; nebo jejich kategorie"><path codeLine="71" d="M1166.37,234.76 C1166.37,269.9 1166.37,305.22 1166.37,327.44 " fill="none" id="Agenda-Org&#225;n ve&#345;ejn&#233; moci nebo soukromopr&#225;vn&#237; u&#382;ivatel &#250;daj&#367; nebo jejich kategorie" style="stroke:#181818;stroke-width:1.0;"/><text fill="#000000" font-family="sans-serif" font-size="13" lengthAdjust="spacing" textLength="117.0127" x="1167.37" y="277.3269">Vykon&#225;v&#225; agendu</text></g><!--link Agenda to Org?n ve?ejn? moci--><g id="link_Agenda_Org&#225;n ve&#345;ejn&#233; moci"><path codeLine="72" d="M1347.66,195.21 C1396.99,224.07 1445.1,262.27 1475.37,311.26 C1552.59,436.25 1527.05,626.01 1515.07,691.48 " fill="none" id="Agenda-Org&#225;n ve&#345;ejn&#233; moci" style="stroke:#181818;stroke-width:1.0;"/><text fill="#000000" font-family="sans-serif" font-size="13" lengthAdjust="spacing" textLength="109.751" x="1522.37" y="434.9269">Ohla&#353;uje agendu</text><text fill="#000000" font-family="sans-serif" font-size="13" lengthAdjust="spacing" textLength="24.8066" x="1355.2261" y="210.4856">0..1</text><text fill="#000000" font-family="sans-serif" font-size="13" lengthAdjust="spacing" textLength="24.8066" x="1489.3042" y="680.451">1..1</text></g><!--link Agenda to Stanovisko ke slu?b?m VS--><g id="link_Agenda_Stanovisko ke slu&#382;b&#225;m VS"><path codeLine="73" d="M1347.89,187.87 C1408.32,210.91 1475.68,237.67 1536.37,264.26 C1568.95,278.54 1604.24,295.62 1634.54,310.81 " fill="none" id="Agenda-Stanovisko ke slu&#382;b&#225;m VS" style="stroke:#181818;stroke-width:1.0;"/><text fill="#000000" font-family="sans-serif" font-size="13" lengthAdjust="spacing" textLength="172.4722" x="1572.37" y="277.3269">m&#225; stanovisko ke slu&#382;b&#225;m</text><text fill="#000000" font-family="sans-serif" font-size="13" lengthAdjust="spacing" textLength="23.0356" x="1355.4305" y="187.273">1..*</text><text fill="#000000" font-family="sans-serif" font-size="13" lengthAdjust="spacing" textLength="24.8066" x="1596.4468" y="300.1981">0..1</text></g><!--link Agenda to Stanovisko k ?daj?m--><g id="link_Agenda_Stanovisko k &#250;daj&#367;m"><path codeLine="74" d="M1347.9,162.8 C1464.25,189.9 1618.24,227.13 1753.37,264.26 C1805.16,278.5 1861.86,295.61 1910.69,310.84 " fill="none" id="Agenda-Stanovisko k &#250;daj&#367;m" style="stroke:#181818;stroke-width:1.0;"/><text fill="#000000" font-family="sans-serif" font-size="13" lengthAdjust="spacing" textLength="159.1167" x="1809.37" y="277.3269">m&#225; stanovisko k &#250;daj&#367;m</text><text fill="#000000" font-family="sans-serif" font-size="13" lengthAdjust="spacing" textLength="23.0356" x="1355.4409" y="161.2237">1..*</text><text fill="#000000" font-family="sans-serif" font-size="13" lengthAdjust="spacing" textLength="24.8066" x="1865.1303" y="300.2329">0..1</text></g><!--link Ustanoven? pr?vn?ho p?edpisu to ?innost--><g id="link_Ustanoven&#237; pr&#225;vn&#237;ho p&#345;edpisu_&#268;innost"><path codeLine="75" d="M351.49,376.02 C352.6,399.17 354.35,435.77 355.92,468.6 " fill="none" id="Ustanoven&#237; pr&#225;vn&#237;ho p&#345;edpisu-&#268;innost" style="stroke:#181818;stroke-width:1.0;"/><text fill="#000000" font-family="sans-serif" font-size="13" lengthAdjust="spacing" textLength="192.4229" x="355.37" y="434.9269">vznik&#225; na z&#225;klad&#283; ustanoven&#237;</text></g><!--link ?innost to Pr??ezov? ?innost--><g id="link_&#268;innost_Pr&#367;&#345;ezov&#225; &#269;innost"><path codeLine="76" d="M359.37,614.65 C359.37,642.07 359.37,671.44 359.37,691.21 " fill="none" id="&#268;innost-Pr&#367;&#345;ezov&#225; &#269;innost" style="stroke:#181818;stroke-width:1.0;"/><text fill="#000000" font-family="sans-serif" font-size="13" lengthAdjust="spacing" textLength="177.4043" x="360.37" y="657.7069">vznik&#225; z pr&#367;&#345;ezov&#233; &#269;innosti</text><text fill="#000000" font-family="sans-serif" font-size="13" lengthAdjust="spacing" textLength="24.8066" x="332.5445" y="680.5101">0..1</text></g><!--SRC=[jLOzZzD04EtzAqOkaIxYseZcIa3ea0BNR-8bsTZUiRos9Hlu1_03K2gNLw0hw92Enid_OZR-ljWR8owTvNdptkoysG_58v3CvofWAxxW0GjPX258bDnQUKmfk5bpwJ3uR07OxueSP95dF06cVwVs75GK2hckesxnoncBEIoAVKWoATpOZCcAt0GAF1P9L54L1tJEGXmSaGfGUToHnK_8_FrEfaEQlaRpJq9YGeMbSFDwGV4beiUPF0KW96by-2CY8atuuGVVok9njO7YjyEsXmTJQWhAezHb2dSBC-v8nZkOhrPbcFrHHOnWN2yg28iyeOyDGa2LE85GiKrcjkZzDo5rf-pMugE9- -_bVt7Ik6e2nW41aemfNflJG8mMjgWdBdv80qYAHnTbt5CxRSbjkAQkDMxSWuyh0P8l4HJ6ReW-rfq2RLt28kxLXfMuBTyACj6bo1f3mVjT71IO09bQGu_gRLr3Zx_zYqSbAjnKpkBVD3lqJwkbhZIv93gOlJYEf50kWikh8IzoNuzvENVbRbGrZFLWv2d5kSPjq94OCGEocezXxRewVrIsHPX5kxWJoVVXuO5Qd-dDsencrP7_7OHNNwwknWREkioa6oGdrtt9qfhPjDefBMi-locUoOy9sybGtCGjPLMNiKu-VyhFQNBVSBgCw82aEAsHqLslBrVNOyv-1t5ByTpK6uzLMMCYrxFP2xjx_GnnLk-C_QwNUf51ql9tZNQf6pUozilPxDgk2wUliHDVqzpIwWzvlEKdBEMYDKl9PpmNvzMrhuOn4rax9zuGOHks9lYkDVgE7Pzp-b4mEbYTX4w98oTabpAZ8XhGVUU6_mi0]--></g></svg>